<?xml version="1.0" encoding="utf-8" standalone="no"?>
<!DOCTYPE svg PUBLIC "-//W3C//DTD SVG 1.1//EN"
  "http://www.w3.org/Graphics/SVG/1.1/DTD/svg11.dtd">
<svg xmlns:xlink="http://www.w3.org/1999/xlink" width="432pt" height="324pt" viewBox="0 0 432 324" xmlns="http://www.w3.org/2000/svg" version="1.1">
 <metadata>
  <rdf:RDF xmlns:dc="http://purl.org/dc/elements/1.1/" xmlns:cc="http://creativecommons.org/ns#" xmlns:rdf="http://www.w3.org/1999/02/22-rdf-syntax-ns#">
   <cc:Work>
    <dc:type rdf:resource="http://purl.org/dc/dcmitype/StillImage"/>
    <dc:date>2023-10-16T12:49:25.706635</dc:date>
    <dc:format>image/svg+xml</dc:format>
    <dc:creator>
     <cc:Agent>
      <dc:title>Matplotlib v3.7.1, https://matplotlib.org/</dc:title>
     </cc:Agent>
    </dc:creator>
   </cc:Work>
  </rdf:RDF>
 </metadata>
 <defs>
  <style type="text/css">*{stroke-linejoin: round; stroke-linecap: butt}</style>
 </defs>
 <g id="figure_1">
  <g id="patch_1">
   <path d="M 0 324 
L 432 324 
L 432 0 
L 0 0 
z
" style="fill: #ffffff"/>
  </g>
  <g id="axes_1">
   <g id="patch_2">
    <path d="M 68.4924 261.3576 
L 400.6926 261.3576 
L 400.6926 38.3424 
L 68.4924 38.3424 
z
" style="fill: #ffffff"/>
   </g>
   <g id="PathCollection_1">
    <defs>
     <path id="C0_0_8c5c5b6c0b" d="M 0 2.4 
C 0.636487 2.4 1.246992 2.147121 1.697056 1.697056 
C 2.147121 1.246992 2.4 0.636487 2.4 -0 
C 2.4 -0.636487 2.147121 -1.246992 1.697056 -1.697056 
C 1.246992 -2.147121 0.636487 -2.4 0 -2.4 
C -0.636487 -2.4 -1.246992 -2.147121 -1.697056 -1.697056 
C -2.147121 -1.246992 -2.4 -0.636487 -2.4 0 
C -2.4 0.636487 -2.147121 1.246992 -1.697056 1.697056 
C -1.246992 2.147121 -0.636487 2.4 0 2.4 
z
"/>
    </defs>
    <g clip-path="url(#p5e3fe70599)">
     <use xlink:href="#C0_0_8c5c5b6c0b" x="180.237366" y="236.471746" style="fill: #1f77b4; stroke: #ffffff; stroke-width: 0.384"/>
    </g>
    <g clip-path="url(#p5e3fe70599)">
     <use xlink:href="#C0_0_8c5c5b6c0b" x="293.951015" y="202.305653" style="fill: #d62728; stroke: #ffffff; stroke-width: 0.384"/>
    </g>
    <g clip-path="url(#p5e3fe70599)">
     <use xlink:href="#C0_0_8c5c5b6c0b" x="181.161699" y="246.983147" style="fill: #808080; stroke: #ffffff; stroke-width: 0.384"/>
    </g>
    <g clip-path="url(#p5e3fe70599)">
     <use xlink:href="#C0_0_8c5c5b6c0b" x="279.222875" y="245.466925" style="fill: #808080; stroke: #ffffff; stroke-width: 0.384"/>
    </g>
    <g clip-path="url(#p5e3fe70599)">
     <use xlink:href="#C0_0_8c5c5b6c0b" x="400.6926" y="48.479455" style="fill: #d62728; stroke: #ffffff; stroke-width: 0.384"/>
    </g>
    <g clip-path="url(#p5e3fe70599)">
     <use xlink:href="#C0_0_8c5c5b6c0b" x="139.678157" y="244.044548" style="fill: #808080; stroke: #ffffff; stroke-width: 0.384"/>
    </g>
    <g clip-path="url(#p5e3fe70599)">
     <use xlink:href="#C0_0_8c5c5b6c0b" x="101.71242" y="245.389455" style="fill: #808080; stroke: #ffffff; stroke-width: 0.384"/>
    </g>
    <g clip-path="url(#p5e3fe70599)">
     <use xlink:href="#C0_0_8c5c5b6c0b" x="248.829651" y="250.826891" style="fill: #808080; stroke: #ffffff; stroke-width: 0.384"/>
    </g>
    <g clip-path="url(#p5e3fe70599)">
     <use xlink:href="#C0_0_8c5c5b6c0b" x="315.269691" y="247.224731" style="fill: #808080; stroke: #ffffff; stroke-width: 0.384"/>
    </g>
    <g clip-path="url(#p5e3fe70599)">
     <use xlink:href="#C0_0_8c5c5b6c0b" x="239.338217" y="251.172118" style="fill: #808080; stroke: #ffffff; stroke-width: 0.384"/>
    </g>
    <g clip-path="url(#p5e3fe70599)">
     <use xlink:href="#C0_0_8c5c5b6c0b" x="337.416371" y="242.892801" style="fill: #808080; stroke: #ffffff; stroke-width: 0.384"/>
    </g>
    <g clip-path="url(#p5e3fe70599)">
     <use xlink:href="#C0_0_8c5c5b6c0b" x="321.895258" y="180.878594" style="fill: #d62728; stroke: #ffffff; stroke-width: 0.384"/>
    </g>
    <g clip-path="url(#p5e3fe70599)">
     <use xlink:href="#C0_0_8c5c5b6c0b" x="353.235429" y="243.207702" style="fill: #808080; stroke: #ffffff; stroke-width: 0.384"/>
    </g>
    <g clip-path="url(#p5e3fe70599)">
     <use xlink:href="#C0_0_8c5c5b6c0b" x="120.945063" y="227.860851" style="fill: #1f77b4; stroke: #ffffff; stroke-width: 0.384"/>
    </g>
    <g clip-path="url(#p5e3fe70599)">
     <use xlink:href="#C0_0_8c5c5b6c0b" x="137.057973" y="234.470593" style="fill: #1f77b4; stroke: #ffffff; stroke-width: 0.384"/>
    </g>
    <g clip-path="url(#p5e3fe70599)">
     <use xlink:href="#C0_0_8c5c5b6c0b" x="343.777181" y="236.919038" style="fill: #d62728; stroke: #ffffff; stroke-width: 0.384"/>
    </g>
    <g clip-path="url(#p5e3fe70599)">
     <use xlink:href="#C0_0_8c5c5b6c0b" x="163.406743" y="247.917123" style="fill: #808080; stroke: #ffffff; stroke-width: 0.384"/>
    </g>
    <g clip-path="url(#p5e3fe70599)">
     <use xlink:href="#C0_0_8c5c5b6c0b" x="362.726863" y="241.636307" style="fill: #808080; stroke: #ffffff; stroke-width: 0.384"/>
    </g>
    <g clip-path="url(#p5e3fe70599)">
     <use xlink:href="#C0_0_8c5c5b6c0b" x="248.829651" y="250.826891" style="fill: #808080; stroke: #ffffff; stroke-width: 0.384"/>
    </g>
    <g clip-path="url(#p5e3fe70599)">
     <use xlink:href="#C0_0_8c5c5b6c0b" x="297.868729" y="247.475454" style="fill: #808080; stroke: #ffffff; stroke-width: 0.384"/>
    </g>
    <g clip-path="url(#p5e3fe70599)">
     <use xlink:href="#C0_0_8c5c5b6c0b" x="309.337545" y="245.811592" style="fill: #808080; stroke: #ffffff; stroke-width: 0.384"/>
    </g>
    <g clip-path="url(#p5e3fe70599)">
     <use xlink:href="#C0_0_8c5c5b6c0b" x="315.688431" y="240.62226" style="fill: #808080; stroke: #ffffff; stroke-width: 0.384"/>
    </g>
    <g clip-path="url(#p5e3fe70599)">
     <use xlink:href="#C0_0_8c5c5b6c0b" x="324.761126" y="246.438622" style="fill: #808080; stroke: #ffffff; stroke-width: 0.384"/>
    </g>
    <g clip-path="url(#p5e3fe70599)">
     <use xlink:href="#C0_0_8c5c5b6c0b" x="274.030187" y="226.874867" style="fill: #808080; stroke: #ffffff; stroke-width: 0.384"/>
    </g>
    <g clip-path="url(#p5e3fe70599)">
     <use xlink:href="#C0_0_8c5c5b6c0b" x="206.543272" y="242.69645" style="fill: #808080; stroke: #ffffff; stroke-width: 0.384"/>
    </g>
    <g clip-path="url(#p5e3fe70599)">
     <use xlink:href="#C0_0_8c5c5b6c0b" x="274.809419" y="236.13053" style="fill: #808080; stroke: #ffffff; stroke-width: 0.384"/>
    </g>
    <g clip-path="url(#p5e3fe70599)">
     <use xlink:href="#C0_0_8c5c5b6c0b" x="316.595373" y="209.529371" style="fill: #d62728; stroke: #ffffff; stroke-width: 0.384"/>
    </g>
    <g clip-path="url(#p5e3fe70599)">
     <use xlink:href="#C0_0_8c5c5b6c0b" x="329.86839" y="186.92941" style="fill: #d62728; stroke: #ffffff; stroke-width: 0.384"/>
    </g>
    <g clip-path="url(#p5e3fe70599)">
     <use xlink:href="#C0_0_8c5c5b6c0b" x="304.482999" y="221.97551" style="fill: #d62728; stroke: #ffffff; stroke-width: 0.384"/>
    </g>
    <g clip-path="url(#p5e3fe70599)">
     <use xlink:href="#C0_0_8c5c5b6c0b" x="228.141315" y="250.085431" style="fill: #808080; stroke: #ffffff; stroke-width: 0.384"/>
    </g>
    <g clip-path="url(#p5e3fe70599)">
     <use xlink:href="#C0_0_8c5c5b6c0b" x="308.782303" y="232.172716" style="fill: #d62728; stroke: #ffffff; stroke-width: 0.384"/>
    </g>
    <g clip-path="url(#p5e3fe70599)">
     <use xlink:href="#C0_0_8c5c5b6c0b" x="270.97244" y="221.215482" style="fill: #808080; stroke: #ffffff; stroke-width: 0.384"/>
    </g>
    <g clip-path="url(#p5e3fe70599)">
     <use xlink:href="#C0_0_8c5c5b6c0b" x="268.788855" y="234.386979" style="fill: #808080; stroke: #ffffff; stroke-width: 0.384"/>
    </g>
    <g clip-path="url(#p5e3fe70599)">
     <use xlink:href="#C0_0_8c5c5b6c0b" x="334.271316" y="179.087405" style="fill: #d62728; stroke: #ffffff; stroke-width: 0.384"/>
    </g>
    <g clip-path="url(#p5e3fe70599)">
     <use xlink:href="#C0_0_8c5c5b6c0b" x="250.854048" y="250.33053" style="fill: #808080; stroke: #ffffff; stroke-width: 0.384"/>
    </g>
    <g clip-path="url(#p5e3fe70599)">
     <use xlink:href="#C0_0_8c5c5b6c0b" x="223.71019" y="246.045323" style="fill: #808080; stroke: #ffffff; stroke-width: 0.384"/>
    </g>
    <g clip-path="url(#p5e3fe70599)">
     <use xlink:href="#C0_0_8c5c5b6c0b" x="251.008472" y="234.028875" style="fill: #808080; stroke: #ffffff; stroke-width: 0.384"/>
    </g>
    <g clip-path="url(#p5e3fe70599)">
     <use xlink:href="#C0_0_8c5c5b6c0b" x="266.391343" y="246.606943" style="fill: #808080; stroke: #ffffff; stroke-width: 0.384"/>
    </g>
    <g clip-path="url(#p5e3fe70599)">
     <use xlink:href="#C0_0_8c5c5b6c0b" x="191.984213" y="245.845525" style="fill: #808080; stroke: #ffffff; stroke-width: 0.384"/>
    </g>
    <g clip-path="url(#p5e3fe70599)">
     <use xlink:href="#C0_0_8c5c5b6c0b" x="279.626615" y="240.068925" style="fill: #808080; stroke: #ffffff; stroke-width: 0.384"/>
    </g>
    <g clip-path="url(#p5e3fe70599)">
     <use xlink:href="#C0_0_8c5c5b6c0b" x="316.132549" y="244.318423" style="fill: #808080; stroke: #ffffff; stroke-width: 0.384"/>
    </g>
    <g clip-path="url(#p5e3fe70599)">
     <use xlink:href="#C0_0_8c5c5b6c0b" x="234.007126" y="251.220545" style="fill: #808080; stroke: #ffffff; stroke-width: 0.384"/>
    </g>
    <g clip-path="url(#p5e3fe70599)">
     <use xlink:href="#C0_0_8c5c5b6c0b" x="276.047735" y="244.282408" style="fill: #808080; stroke: #ffffff; stroke-width: 0.384"/>
    </g>
    <g clip-path="url(#p5e3fe70599)">
     <use xlink:href="#C0_0_8c5c5b6c0b" x="237.093567" y="250.90037" style="fill: #808080; stroke: #ffffff; stroke-width: 0.384"/>
    </g>
    <g clip-path="url(#p5e3fe70599)">
     <use xlink:href="#C0_0_8c5c5b6c0b" x="329.679764" y="218.559948" style="fill: #d62728; stroke: #ffffff; stroke-width: 0.384"/>
    </g>
    <g clip-path="url(#p5e3fe70599)">
     <use xlink:href="#C0_0_8c5c5b6c0b" x="266.529894" y="246.375999" style="fill: #808080; stroke: #ffffff; stroke-width: 0.384"/>
    </g>
    <g clip-path="url(#p5e3fe70599)">
     <use xlink:href="#C0_0_8c5c5b6c0b" x="78.946252" y="207.490302" style="fill: #1f77b4; stroke: #ffffff; stroke-width: 0.384"/>
    </g>
    <g clip-path="url(#p5e3fe70599)">
     <use xlink:href="#C0_0_8c5c5b6c0b" x="213.684795" y="249.998948" style="fill: #808080; stroke: #ffffff; stroke-width: 0.384"/>
    </g>
    <g clip-path="url(#p5e3fe70599)">
     <use xlink:href="#C0_0_8c5c5b6c0b" x="247.259853" y="249.486444" style="fill: #808080; stroke: #ffffff; stroke-width: 0.384"/>
    </g>
    <g clip-path="url(#p5e3fe70599)">
     <use xlink:href="#C0_0_8c5c5b6c0b" x="174.27577" y="228.671659" style="fill: #1f77b4; stroke: #ffffff; stroke-width: 0.384"/>
    </g>
    <g clip-path="url(#p5e3fe70599)">
     <use xlink:href="#C0_0_8c5c5b6c0b" x="329.7114" y="204.653988" style="fill: #d62728; stroke: #ffffff; stroke-width: 0.384"/>
    </g>
    <g clip-path="url(#p5e3fe70599)">
     <use xlink:href="#C0_0_8c5c5b6c0b" x="172.898177" y="248.533229" style="fill: #808080; stroke: #ffffff; stroke-width: 0.384"/>
    </g>
    <g clip-path="url(#p5e3fe70599)">
     <use xlink:href="#C0_0_8c5c5b6c0b" x="248.53097" y="250.488453" style="fill: #808080; stroke: #ffffff; stroke-width: 0.384"/>
    </g>
    <g clip-path="url(#p5e3fe70599)">
     <use xlink:href="#C0_0_8c5c5b6c0b" x="266.574507" y="247.861991" style="fill: #808080; stroke: #ffffff; stroke-width: 0.384"/>
    </g>
    <g clip-path="url(#p5e3fe70599)">
     <use xlink:href="#C0_0_8c5c5b6c0b" x="238.250767" y="250.977528" style="fill: #808080; stroke: #ffffff; stroke-width: 0.384"/>
    </g>
    <g clip-path="url(#p5e3fe70599)">
     <use xlink:href="#C0_0_8c5c5b6c0b" x="210.863914" y="250.449979" style="fill: #808080; stroke: #ffffff; stroke-width: 0.384"/>
    </g>
    <g clip-path="url(#p5e3fe70599)">
     <use xlink:href="#C0_0_8c5c5b6c0b" x="286.631743" y="242.752442" style="fill: #808080; stroke: #ffffff; stroke-width: 0.384"/>
    </g>
    <g clip-path="url(#p5e3fe70599)">
     <use xlink:href="#C0_0_8c5c5b6c0b" x="313.577163" y="243.446166" style="fill: #808080; stroke: #ffffff; stroke-width: 0.384"/>
    </g>
    <g clip-path="url(#p5e3fe70599)">
     <use xlink:href="#C0_0_8c5c5b6c0b" x="262.844447" y="222.690471" style="fill: #808080; stroke: #ffffff; stroke-width: 0.384"/>
    </g>
    <g clip-path="url(#p5e3fe70599)">
     <use xlink:href="#C0_0_8c5c5b6c0b" x="221.304492" y="250.069901" style="fill: #808080; stroke: #ffffff; stroke-width: 0.384"/>
    </g>
    <g clip-path="url(#p5e3fe70599)">
     <use xlink:href="#C0_0_8c5c5b6c0b" x="229.846783" y="251.172118" style="fill: #808080; stroke: #ffffff; stroke-width: 0.384"/>
    </g>
    <g clip-path="url(#p5e3fe70599)">
     <use xlink:href="#C0_0_8c5c5b6c0b" x="96.17575" y="231.955937" style="fill: #1f77b4; stroke: #ffffff; stroke-width: 0.384"/>
    </g>
    <g clip-path="url(#p5e3fe70599)">
     <use xlink:href="#C0_0_8c5c5b6c0b" x="277.303954" y="249.584815" style="fill: #808080; stroke: #ffffff; stroke-width: 0.384"/>
    </g>
    <g clip-path="url(#p5e3fe70599)">
     <use xlink:href="#C0_0_8c5c5b6c0b" x="241.004533" y="250.51532" style="fill: #808080; stroke: #ffffff; stroke-width: 0.384"/>
    </g>
    <g clip-path="url(#p5e3fe70599)">
     <use xlink:href="#C0_0_8c5c5b6c0b" x="169.323003" y="233.647761" style="fill: #1f77b4; stroke: #ffffff; stroke-width: 0.384"/>
    </g>
    <g clip-path="url(#p5e3fe70599)">
     <use xlink:href="#C0_0_8c5c5b6c0b" x="154.443197" y="232.965628" style="fill: #1f77b4; stroke: #ffffff; stroke-width: 0.384"/>
    </g>
    <g clip-path="url(#p5e3fe70599)">
     <use xlink:href="#C0_0_8c5c5b6c0b" x="191.395388" y="244.682445" style="fill: #808080; stroke: #ffffff; stroke-width: 0.384"/>
    </g>
    <g clip-path="url(#p5e3fe70599)">
     <use xlink:href="#C0_0_8c5c5b6c0b" x="201.66135" y="247.488417" style="fill: #808080; stroke: #ffffff; stroke-width: 0.384"/>
    </g>
    <g clip-path="url(#p5e3fe70599)">
     <use xlink:href="#C0_0_8c5c5b6c0b" x="197.423247" y="248.657064" style="fill: #808080; stroke: #ffffff; stroke-width: 0.384"/>
    </g>
    <g clip-path="url(#p5e3fe70599)">
     <use xlink:href="#C0_0_8c5c5b6c0b" x="111.953178" y="219.902211" style="fill: #1f77b4; stroke: #ffffff; stroke-width: 0.384"/>
    </g>
    <g clip-path="url(#p5e3fe70599)">
     <use xlink:href="#C0_0_8c5c5b6c0b" x="277.303954" y="249.584815" style="fill: #808080; stroke: #ffffff; stroke-width: 0.384"/>
    </g>
    <g clip-path="url(#p5e3fe70599)">
     <use xlink:href="#C0_0_8c5c5b6c0b" x="258.321086" y="250.449979" style="fill: #808080; stroke: #ffffff; stroke-width: 0.384"/>
    </g>
    <g clip-path="url(#p5e3fe70599)">
     <use xlink:href="#C0_0_8c5c5b6c0b" x="256.704897" y="249.437653" style="fill: #808080; stroke: #ffffff; stroke-width: 0.384"/>
    </g>
    <g clip-path="url(#p5e3fe70599)">
     <use xlink:href="#C0_0_8c5c5b6c0b" x="191.881046" y="249.584815" style="fill: #808080; stroke: #ffffff; stroke-width: 0.384"/>
    </g>
    <g clip-path="url(#p5e3fe70599)">
     <use xlink:href="#C0_0_8c5c5b6c0b" x="119.904336" y="240.816794" style="fill: #808080; stroke: #ffffff; stroke-width: 0.384"/>
    </g>
    <g clip-path="url(#p5e3fe70599)">
     <use xlink:href="#C0_0_8c5c5b6c0b" x="198.289792" y="246.544275" style="fill: #808080; stroke: #ffffff; stroke-width: 0.384"/>
    </g>
    <g clip-path="url(#p5e3fe70599)">
     <use xlink:href="#C0_0_8c5c5b6c0b" x="324.911188" y="233.895181" style="fill: #d62728; stroke: #ffffff; stroke-width: 0.384"/>
    </g>
    <g clip-path="url(#p5e3fe70599)">
     <use xlink:href="#C0_0_8c5c5b6c0b" x="131.768629" y="242.892801" style="fill: #808080; stroke: #ffffff; stroke-width: 0.384"/>
    </g>
    <g clip-path="url(#p5e3fe70599)">
     <use xlink:href="#C0_0_8c5c5b6c0b" x="376.964014" y="198.964735" style="fill: #d62728; stroke: #ffffff; stroke-width: 0.384"/>
    </g>
    <g clip-path="url(#p5e3fe70599)">
     <use xlink:href="#C0_0_8c5c5b6c0b" x="245.66584" y="250.754454" style="fill: #808080; stroke: #ffffff; stroke-width: 0.384"/>
    </g>
    <g clip-path="url(#p5e3fe70599)">
     <use xlink:href="#C0_0_8c5c5b6c0b" x="267.725708" y="245.589956" style="fill: #808080; stroke: #ffffff; stroke-width: 0.384"/>
    </g>
    <g clip-path="url(#p5e3fe70599)">
     <use xlink:href="#C0_0_8c5c5b6c0b" x="134.93244" y="245.534315" style="fill: #808080; stroke: #ffffff; stroke-width: 0.384"/>
    </g>
    <g clip-path="url(#p5e3fe70599)">
     <use xlink:href="#C0_0_8c5c5b6c0b" x="120.761662" y="235.542682" style="fill: #1f77b4; stroke: #ffffff; stroke-width: 0.384"/>
    </g>
    <g clip-path="url(#p5e3fe70599)">
     <use xlink:href="#C0_0_8c5c5b6c0b" x="371.031868" y="237.472523" style="fill: #d62728; stroke: #ffffff; stroke-width: 0.384"/>
    </g>
    <g clip-path="url(#p5e3fe70599)">
     <use xlink:href="#C0_0_8c5c5b6c0b" x="347.871495" y="215.678741" style="fill: #d62728; stroke: #ffffff; stroke-width: 0.384"/>
    </g>
    <g clip-path="url(#p5e3fe70599)">
     <use xlink:href="#C0_0_8c5c5b6c0b" x="305.778257" y="246.754203" style="fill: #808080; stroke: #ffffff; stroke-width: 0.384"/>
    </g>
    <g clip-path="url(#p5e3fe70599)">
     <use xlink:href="#C0_0_8c5c5b6c0b" x="321.298035" y="226.149226" style="fill: #d62728; stroke: #ffffff; stroke-width: 0.384"/>
    </g>
    <g clip-path="url(#p5e3fe70599)">
     <use xlink:href="#C0_0_8c5c5b6c0b" x="350.507276" y="207.133545" style="fill: #d62728; stroke: #ffffff; stroke-width: 0.384"/>
    </g>
    <g clip-path="url(#p5e3fe70599)">
     <use xlink:href="#C0_0_8c5c5b6c0b" x="262.052597" y="247.620133" style="fill: #808080; stroke: #ffffff; stroke-width: 0.384"/>
    </g>
    <g clip-path="url(#p5e3fe70599)">
     <use xlink:href="#C0_0_8c5c5b6c0b" x="341.896104" y="232.933229" style="fill: #d62728; stroke: #ffffff; stroke-width: 0.384"/>
    </g>
   </g>
   <g id="PathCollection_2"/>
   <g id="PathCollection_3"/>
   <g id="PathCollection_4"/>
   <g id="matplotlib.axis_1">
    <g id="xtick_1">
     <g id="line2d_1">
      <defs>
       <path id="m16b75108e7" d="M 0 0 
L 0 4.8 
" style="stroke: #000000"/>
      </defs>
      <g>
       <use xlink:href="#m16b75108e7" x="68.4924" y="261.3576" style="stroke: #000000"/>
      </g>
     </g>
     <g id="text_1">
      <!-- −1.0 -->
      <g transform="translate(49.260413 281.693525) scale(0.1584 -0.1584)">
       <defs>
        <path id="DejaVuSans-2212" d="M 678 2272 
L 4684 2272 
L 4684 1741 
L 678 1741 
L 678 2272 
z
" transform="scale(0.015625)"/>
        <path id="DejaVuSans-31" d="M 794 531 
L 1825 531 
L 1825 4091 
L 703 3866 
L 703 4441 
L 1819 4666 
L 2450 4666 
L 2450 531 
L 3481 531 
L 3481 0 
L 794 0 
L 794 531 
z
" transform="scale(0.015625)"/>
        <path id="DejaVuSans-2e" d="M 684 794 
L 1344 794 
L 1344 0 
L 684 0 
L 684 794 
z
" transform="scale(0.015625)"/>
        <path id="DejaVuSans-30" d="M 2034 4250 
Q 1547 4250 1301 3770 
Q 1056 3291 1056 2328 
Q 1056 1369 1301 889 
Q 1547 409 2034 409 
Q 2525 409 2770 889 
Q 3016 1369 3016 2328 
Q 3016 3291 2770 3770 
Q 2525 4250 2034 4250 
z
M 2034 4750 
Q 2819 4750 3233 4129 
Q 3647 3509 3647 2328 
Q 3647 1150 3233 529 
Q 2819 -91 2034 -91 
Q 1250 -91 836 529 
Q 422 1150 422 2328 
Q 422 3509 836 4129 
Q 1250 4750 2034 4750 
z
" transform="scale(0.015625)"/>
       </defs>
       <use xlink:href="#DejaVuSans-2212"/>
       <use xlink:href="#DejaVuSans-31" x="83.789062"/>
       <use xlink:href="#DejaVuSans-2e" x="147.412109"/>
       <use xlink:href="#DejaVuSans-30" x="179.199219"/>
      </g>
     </g>
    </g>
    <g id="xtick_2">
     <g id="line2d_2">
      <g>
       <use xlink:href="#m16b75108e7" x="151.54245" y="261.3576" style="stroke: #000000"/>
      </g>
     </g>
     <g id="text_2">
      <!-- −0.5 -->
      <g transform="translate(132.310462 281.693525) scale(0.1584 -0.1584)">
       <defs>
        <path id="DejaVuSans-35" d="M 691 4666 
L 3169 4666 
L 3169 4134 
L 1269 4134 
L 1269 2991 
Q 1406 3038 1543 3061 
Q 1681 3084 1819 3084 
Q 2600 3084 3056 2656 
Q 3513 2228 3513 1497 
Q 3513 744 3044 326 
Q 2575 -91 1722 -91 
Q 1428 -91 1123 -41 
Q 819 9 494 109 
L 494 744 
Q 775 591 1075 516 
Q 1375 441 1709 441 
Q 2250 441 2565 725 
Q 2881 1009 2881 1497 
Q 2881 1984 2565 2268 
Q 2250 2553 1709 2553 
Q 1456 2553 1204 2497 
Q 953 2441 691 2322 
L 691 4666 
z
" transform="scale(0.015625)"/>
       </defs>
       <use xlink:href="#DejaVuSans-2212"/>
       <use xlink:href="#DejaVuSans-30" x="83.789062"/>
       <use xlink:href="#DejaVuSans-2e" x="147.412109"/>
       <use xlink:href="#DejaVuSans-35" x="179.199219"/>
      </g>
     </g>
    </g>
    <g id="xtick_3">
     <g id="line2d_3">
      <g>
       <use xlink:href="#m16b75108e7" x="234.5925" y="261.3576" style="stroke: #000000"/>
      </g>
     </g>
     <g id="text_3">
      <!-- 0.0 -->
      <g transform="translate(221.997225 281.693525) scale(0.1584 -0.1584)">
       <use xlink:href="#DejaVuSans-30"/>
       <use xlink:href="#DejaVuSans-2e" x="63.623047"/>
       <use xlink:href="#DejaVuSans-30" x="95.410156"/>
      </g>
     </g>
    </g>
    <g id="xtick_4">
     <g id="line2d_4">
      <g>
       <use xlink:href="#m16b75108e7" x="317.64255" y="261.3576" style="stroke: #000000"/>
      </g>
     </g>
     <g id="text_4">
      <!-- 0.5 -->
      <g transform="translate(305.047275 281.693525) scale(0.1584 -0.1584)">
       <use xlink:href="#DejaVuSans-30"/>
       <use xlink:href="#DejaVuSans-2e" x="63.623047"/>
       <use xlink:href="#DejaVuSans-35" x="95.410156"/>
      </g>
     </g>
    </g>
    <g id="xtick_5">
     <g id="line2d_5">
      <g>
       <use xlink:href="#m16b75108e7" x="400.6926" y="261.3576" style="stroke: #000000"/>
      </g>
     </g>
     <g id="text_5">
      <!-- 1.0 -->
      <g transform="translate(388.097325 281.693525) scale(0.1584 -0.1584)">
       <use xlink:href="#DejaVuSans-31"/>
       <use xlink:href="#DejaVuSans-2e" x="63.623047"/>
       <use xlink:href="#DejaVuSans-30" x="95.410156"/>
      </g>
     </g>
    </g>
    <g id="text_6">
     <!-- Correlation -->
     <g transform="translate(186.9537 302.11785) scale(0.1728 -0.1728)">
      <defs>
       <path id="DejaVuSans-43" d="M 4122 4306 
L 4122 3641 
Q 3803 3938 3442 4084 
Q 3081 4231 2675 4231 
Q 1875 4231 1450 3742 
Q 1025 3253 1025 2328 
Q 1025 1406 1450 917 
Q 1875 428 2675 428 
Q 3081 428 3442 575 
Q 3803 722 4122 1019 
L 4122 359 
Q 3791 134 3420 21 
Q 3050 -91 2638 -91 
Q 1578 -91 968 557 
Q 359 1206 359 2328 
Q 359 3453 968 4101 
Q 1578 4750 2638 4750 
Q 3056 4750 3426 4639 
Q 3797 4528 4122 4306 
z
" transform="scale(0.015625)"/>
       <path id="DejaVuSans-6f" d="M 1959 3097 
Q 1497 3097 1228 2736 
Q 959 2375 959 1747 
Q 959 1119 1226 758 
Q 1494 397 1959 397 
Q 2419 397 2687 759 
Q 2956 1122 2956 1747 
Q 2956 2369 2687 2733 
Q 2419 3097 1959 3097 
z
M 1959 3584 
Q 2709 3584 3137 3096 
Q 3566 2609 3566 1747 
Q 3566 888 3137 398 
Q 2709 -91 1959 -91 
Q 1206 -91 779 398 
Q 353 888 353 1747 
Q 353 2609 779 3096 
Q 1206 3584 1959 3584 
z
" transform="scale(0.015625)"/>
       <path id="DejaVuSans-72" d="M 2631 2963 
Q 2534 3019 2420 3045 
Q 2306 3072 2169 3072 
Q 1681 3072 1420 2755 
Q 1159 2438 1159 1844 
L 1159 0 
L 581 0 
L 581 3500 
L 1159 3500 
L 1159 2956 
Q 1341 3275 1631 3429 
Q 1922 3584 2338 3584 
Q 2397 3584 2469 3576 
Q 2541 3569 2628 3553 
L 2631 2963 
z
" transform="scale(0.015625)"/>
       <path id="DejaVuSans-65" d="M 3597 1894 
L 3597 1613 
L 953 1613 
Q 991 1019 1311 708 
Q 1631 397 2203 397 
Q 2534 397 2845 478 
Q 3156 559 3463 722 
L 3463 178 
Q 3153 47 2828 -22 
Q 2503 -91 2169 -91 
Q 1331 -91 842 396 
Q 353 884 353 1716 
Q 353 2575 817 3079 
Q 1281 3584 2069 3584 
Q 2775 3584 3186 3129 
Q 3597 2675 3597 1894 
z
M 3022 2063 
Q 3016 2534 2758 2815 
Q 2500 3097 2075 3097 
Q 1594 3097 1305 2825 
Q 1016 2553 972 2059 
L 3022 2063 
z
" transform="scale(0.015625)"/>
       <path id="DejaVuSans-6c" d="M 603 4863 
L 1178 4863 
L 1178 0 
L 603 0 
L 603 4863 
z
" transform="scale(0.015625)"/>
       <path id="DejaVuSans-61" d="M 2194 1759 
Q 1497 1759 1228 1600 
Q 959 1441 959 1056 
Q 959 750 1161 570 
Q 1363 391 1709 391 
Q 2188 391 2477 730 
Q 2766 1069 2766 1631 
L 2766 1759 
L 2194 1759 
z
M 3341 1997 
L 3341 0 
L 2766 0 
L 2766 531 
Q 2569 213 2275 61 
Q 1981 -91 1556 -91 
Q 1019 -91 701 211 
Q 384 513 384 1019 
Q 384 1609 779 1909 
Q 1175 2209 1959 2209 
L 2766 2209 
L 2766 2266 
Q 2766 2663 2505 2880 
Q 2244 3097 1772 3097 
Q 1472 3097 1187 3025 
Q 903 2953 641 2809 
L 641 3341 
Q 956 3463 1253 3523 
Q 1550 3584 1831 3584 
Q 2591 3584 2966 3190 
Q 3341 2797 3341 1997 
z
" transform="scale(0.015625)"/>
       <path id="DejaVuSans-74" d="M 1172 4494 
L 1172 3500 
L 2356 3500 
L 2356 3053 
L 1172 3053 
L 1172 1153 
Q 1172 725 1289 603 
Q 1406 481 1766 481 
L 2356 481 
L 2356 0 
L 1766 0 
Q 1100 0 847 248 
Q 594 497 594 1153 
L 594 3053 
L 172 3053 
L 172 3500 
L 594 3500 
L 594 4494 
L 1172 4494 
z
" transform="scale(0.015625)"/>
       <path id="DejaVuSans-69" d="M 603 3500 
L 1178 3500 
L 1178 0 
L 603 0 
L 603 3500 
z
M 603 4863 
L 1178 4863 
L 1178 4134 
L 603 4134 
L 603 4863 
z
" transform="scale(0.015625)"/>
       <path id="DejaVuSans-6e" d="M 3513 2113 
L 3513 0 
L 2938 0 
L 2938 2094 
Q 2938 2591 2744 2837 
Q 2550 3084 2163 3084 
Q 1697 3084 1428 2787 
Q 1159 2491 1159 1978 
L 1159 0 
L 581 0 
L 581 3500 
L 1159 3500 
L 1159 2956 
Q 1366 3272 1645 3428 
Q 1925 3584 2291 3584 
Q 2894 3584 3203 3211 
Q 3513 2838 3513 2113 
z
" transform="scale(0.015625)"/>
      </defs>
      <use xlink:href="#DejaVuSans-43"/>
      <use xlink:href="#DejaVuSans-6f" x="69.824219"/>
      <use xlink:href="#DejaVuSans-72" x="131.005859"/>
      <use xlink:href="#DejaVuSans-72" x="170.369141"/>
      <use xlink:href="#DejaVuSans-65" x="209.232422"/>
      <use xlink:href="#DejaVuSans-6c" x="270.755859"/>
      <use xlink:href="#DejaVuSans-61" x="298.539062"/>
      <use xlink:href="#DejaVuSans-74" x="359.818359"/>
      <use xlink:href="#DejaVuSans-69" x="399.027344"/>
      <use xlink:href="#DejaVuSans-6f" x="426.810547"/>
      <use xlink:href="#DejaVuSans-6e" x="487.992188"/>
     </g>
    </g>
   </g>
   <g id="matplotlib.axis_2">
    <g id="ytick_1">
     <g id="line2d_6">
      <defs>
       <path id="m556f9ddca4" d="M 0 0 
L -4.8 0 
" style="stroke: #000000"/>
      </defs>
      <g>
       <use xlink:href="#m556f9ddca4" x="68.4924" y="251.333857" style="stroke: #000000"/>
      </g>
     </g>
     <g id="text_7">
      <!-- 0 -->
      <g transform="translate(50.1142 257.351819) scale(0.1584 -0.1584)">
       <use xlink:href="#DejaVuSans-30"/>
      </g>
     </g>
    </g>
    <g id="ytick_2">
     <g id="line2d_7">
      <g>
       <use xlink:href="#m556f9ddca4" x="68.4924" y="208.811276" style="stroke: #000000"/>
      </g>
     </g>
     <g id="text_8">
      <!-- 5 -->
      <g transform="translate(50.1142 214.829239) scale(0.1584 -0.1584)">
       <use xlink:href="#DejaVuSans-35"/>
      </g>
     </g>
    </g>
    <g id="ytick_3">
     <g id="line2d_8">
      <g>
       <use xlink:href="#m556f9ddca4" x="68.4924" y="166.288696" style="stroke: #000000"/>
      </g>
     </g>
     <g id="text_9">
      <!-- 10 -->
      <g transform="translate(40.036 172.306658) scale(0.1584 -0.1584)">
       <use xlink:href="#DejaVuSans-31"/>
       <use xlink:href="#DejaVuSans-30" x="63.623047"/>
      </g>
     </g>
    </g>
    <g id="ytick_4">
     <g id="line2d_9">
      <g>
       <use xlink:href="#m556f9ddca4" x="68.4924" y="123.766115" style="stroke: #000000"/>
      </g>
     </g>
     <g id="text_10">
      <!-- 15 -->
      <g transform="translate(40.036 129.784078) scale(0.1584 -0.1584)">
       <use xlink:href="#DejaVuSans-31"/>
       <use xlink:href="#DejaVuSans-35" x="63.623047"/>
      </g>
     </g>
    </g>
    <g id="ytick_5">
     <g id="line2d_10">
      <g>
       <use xlink:href="#m556f9ddca4" x="68.4924" y="81.243535" style="stroke: #000000"/>
      </g>
     </g>
     <g id="text_11">
      <!-- 20 -->
      <g transform="translate(40.036 87.261497) scale(0.1584 -0.1584)">
       <defs>
        <path id="DejaVuSans-32" d="M 1228 531 
L 3431 531 
L 3431 0 
L 469 0 
L 469 531 
Q 828 903 1448 1529 
Q 2069 2156 2228 2338 
Q 2531 2678 2651 2914 
Q 2772 3150 2772 3378 
Q 2772 3750 2511 3984 
Q 2250 4219 1831 4219 
Q 1534 4219 1204 4116 
Q 875 4013 500 3803 
L 500 4441 
Q 881 4594 1212 4672 
Q 1544 4750 1819 4750 
Q 2544 4750 2975 4387 
Q 3406 4025 3406 3419 
Q 3406 3131 3298 2873 
Q 3191 2616 2906 2266 
Q 2828 2175 2409 1742 
Q 1991 1309 1228 531 
z
" transform="scale(0.015625)"/>
       </defs>
       <use xlink:href="#DejaVuSans-32"/>
       <use xlink:href="#DejaVuSans-30" x="63.623047"/>
      </g>
     </g>
    </g>
    <g id="ytick_6">
     <g id="line2d_11">
      <g>
       <use xlink:href="#m556f9ddca4" x="68.4924" y="38.720954" style="stroke: #000000"/>
      </g>
     </g>
     <g id="text_12">
      <!-- 25 -->
      <g transform="translate(40.036 44.738917) scale(0.1584 -0.1584)">
       <use xlink:href="#DejaVuSans-32"/>
       <use xlink:href="#DejaVuSans-35" x="63.623047"/>
      </g>
     </g>
    </g>
    <g id="text_13">
     <!-- -log10(p-value) -->
     <g transform="translate(32.4423 215.8515) rotate(-90) scale(0.1728 -0.1728)">
      <defs>
       <path id="DejaVuSans-2d" d="M 313 2009 
L 1997 2009 
L 1997 1497 
L 313 1497 
L 313 2009 
z
" transform="scale(0.015625)"/>
       <path id="DejaVuSans-67" d="M 2906 1791 
Q 2906 2416 2648 2759 
Q 2391 3103 1925 3103 
Q 1463 3103 1205 2759 
Q 947 2416 947 1791 
Q 947 1169 1205 825 
Q 1463 481 1925 481 
Q 2391 481 2648 825 
Q 2906 1169 2906 1791 
z
M 3481 434 
Q 3481 -459 3084 -895 
Q 2688 -1331 1869 -1331 
Q 1566 -1331 1297 -1286 
Q 1028 -1241 775 -1147 
L 775 -588 
Q 1028 -725 1275 -790 
Q 1522 -856 1778 -856 
Q 2344 -856 2625 -561 
Q 2906 -266 2906 331 
L 2906 616 
Q 2728 306 2450 153 
Q 2172 0 1784 0 
Q 1141 0 747 490 
Q 353 981 353 1791 
Q 353 2603 747 3093 
Q 1141 3584 1784 3584 
Q 2172 3584 2450 3431 
Q 2728 3278 2906 2969 
L 2906 3500 
L 3481 3500 
L 3481 434 
z
" transform="scale(0.015625)"/>
       <path id="DejaVuSans-28" d="M 1984 4856 
Q 1566 4138 1362 3434 
Q 1159 2731 1159 2009 
Q 1159 1288 1364 580 
Q 1569 -128 1984 -844 
L 1484 -844 
Q 1016 -109 783 600 
Q 550 1309 550 2009 
Q 550 2706 781 3412 
Q 1013 4119 1484 4856 
L 1984 4856 
z
" transform="scale(0.015625)"/>
       <path id="DejaVuSans-70" d="M 1159 525 
L 1159 -1331 
L 581 -1331 
L 581 3500 
L 1159 3500 
L 1159 2969 
Q 1341 3281 1617 3432 
Q 1894 3584 2278 3584 
Q 2916 3584 3314 3078 
Q 3713 2572 3713 1747 
Q 3713 922 3314 415 
Q 2916 -91 2278 -91 
Q 1894 -91 1617 61 
Q 1341 213 1159 525 
z
M 3116 1747 
Q 3116 2381 2855 2742 
Q 2594 3103 2138 3103 
Q 1681 3103 1420 2742 
Q 1159 2381 1159 1747 
Q 1159 1113 1420 752 
Q 1681 391 2138 391 
Q 2594 391 2855 752 
Q 3116 1113 3116 1747 
z
" transform="scale(0.015625)"/>
       <path id="DejaVuSans-76" d="M 191 3500 
L 800 3500 
L 1894 563 
L 2988 3500 
L 3597 3500 
L 2284 0 
L 1503 0 
L 191 3500 
z
" transform="scale(0.015625)"/>
       <path id="DejaVuSans-75" d="M 544 1381 
L 544 3500 
L 1119 3500 
L 1119 1403 
Q 1119 906 1312 657 
Q 1506 409 1894 409 
Q 2359 409 2629 706 
Q 2900 1003 2900 1516 
L 2900 3500 
L 3475 3500 
L 3475 0 
L 2900 0 
L 2900 538 
Q 2691 219 2414 64 
Q 2138 -91 1772 -91 
Q 1169 -91 856 284 
Q 544 659 544 1381 
z
M 1991 3584 
L 1991 3584 
z
" transform="scale(0.015625)"/>
       <path id="DejaVuSans-29" d="M 513 4856 
L 1013 4856 
Q 1481 4119 1714 3412 
Q 1947 2706 1947 2009 
Q 1947 1309 1714 600 
Q 1481 -109 1013 -844 
L 513 -844 
Q 928 -128 1133 580 
Q 1338 1288 1338 2009 
Q 1338 2731 1133 3434 
Q 928 4138 513 4856 
z
" transform="scale(0.015625)"/>
      </defs>
      <use xlink:href="#DejaVuSans-2d"/>
      <use xlink:href="#DejaVuSans-6c" x="36.083984"/>
      <use xlink:href="#DejaVuSans-6f" x="63.867188"/>
      <use xlink:href="#DejaVuSans-67" x="125.048828"/>
      <use xlink:href="#DejaVuSans-31" x="188.525391"/>
      <use xlink:href="#DejaVuSans-30" x="252.148438"/>
      <use xlink:href="#DejaVuSans-28" x="315.771484"/>
      <use xlink:href="#DejaVuSans-70" x="354.785156"/>
      <use xlink:href="#DejaVuSans-2d" x="418.261719"/>
      <use xlink:href="#DejaVuSans-76" x="451.720703"/>
      <use xlink:href="#DejaVuSans-61" x="510.900391"/>
      <use xlink:href="#DejaVuSans-6c" x="572.179688"/>
      <use xlink:href="#DejaVuSans-75" x="599.962891"/>
      <use xlink:href="#DejaVuSans-65" x="663.341797"/>
      <use xlink:href="#DejaVuSans-29" x="724.865234"/>
     </g>
    </g>
   </g>
   <g id="line2d_12">
    <path d="M 284.42253 261.3576 
L 284.42253 38.3424 
" clip-path="url(#p5e3fe70599)" style="fill: none; stroke-dasharray: 4.44,1.92; stroke-dashoffset: 0; stroke: #d62728; stroke-width: 1.2"/>
   </g>
   <g id="line2d_13">
    <path d="M 184.76247 261.3576 
L 184.76247 38.3424 
" clip-path="url(#p5e3fe70599)" style="fill: none; stroke-dasharray: 4.44,1.92; stroke-dashoffset: 0; stroke: #1f77b4; stroke-width: 1.2"/>
   </g>
   <g id="line2d_14">
    <path d="M 68.4924 240.269226 
L 400.6926 240.269226 
" clip-path="url(#p5e3fe70599)" style="fill: none; stroke-dasharray: 4.44,1.92; stroke-dashoffset: 0; stroke: #808080; stroke-width: 1.2"/>
   </g>
   <g id="patch_3">
    <path d="M 68.4924 261.3576 
L 68.4924 38.3424 
" style="fill: none; stroke: #000000; stroke-linejoin: miter; stroke-linecap: square"/>
   </g>
   <g id="patch_4">
    <path d="M 400.6926 261.3576 
L 400.6926 38.3424 
" style="fill: none; stroke: #000000; stroke-linejoin: miter; stroke-linecap: square"/>
   </g>
   <g id="patch_5">
    <path d="M 68.4924 261.3576 
L 400.6926 261.3576 
" style="fill: none; stroke: #000000; stroke-linejoin: miter; stroke-linecap: square"/>
   </g>
   <g id="patch_6">
    <path d="M 68.4924 38.3424 
L 400.6926 38.3424 
" style="fill: none; stroke: #000000; stroke-linejoin: miter; stroke-linecap: square"/>
   </g>
   <g id="text_14">
    <!-- +ve: 18 -->
    <g transform="translate(298.83048 60.64392) scale(0.1728 -0.1728)">
     <defs>
      <path id="DejaVuSans-2b" d="M 2944 4013 
L 2944 2272 
L 4684 2272 
L 4684 1741 
L 2944 1741 
L 2944 0 
L 2419 0 
L 2419 1741 
L 678 1741 
L 678 2272 
L 2419 2272 
L 2419 4013 
L 2944 4013 
z
" transform="scale(0.015625)"/>
      <path id="DejaVuSans-3a" d="M 750 794 
L 1409 794 
L 1409 0 
L 750 0 
L 750 794 
z
M 750 3309 
L 1409 3309 
L 1409 2516 
L 750 2516 
L 750 3309 
z
" transform="scale(0.015625)"/>
      <path id="DejaVuSans-20" transform="scale(0.015625)"/>
      <path id="DejaVuSans-38" d="M 2034 2216 
Q 1584 2216 1326 1975 
Q 1069 1734 1069 1313 
Q 1069 891 1326 650 
Q 1584 409 2034 409 
Q 2484 409 2743 651 
Q 3003 894 3003 1313 
Q 3003 1734 2745 1975 
Q 2488 2216 2034 2216 
z
M 1403 2484 
Q 997 2584 770 2862 
Q 544 3141 544 3541 
Q 544 4100 942 4425 
Q 1341 4750 2034 4750 
Q 2731 4750 3128 4425 
Q 3525 4100 3525 3541 
Q 3525 3141 3298 2862 
Q 3072 2584 2669 2484 
Q 3125 2378 3379 2068 
Q 3634 1759 3634 1313 
Q 3634 634 3220 271 
Q 2806 -91 2034 -91 
Q 1263 -91 848 271 
Q 434 634 434 1313 
Q 434 1759 690 2068 
Q 947 2378 1403 2484 
z
M 1172 3481 
Q 1172 3119 1398 2916 
Q 1625 2713 2034 2713 
Q 2441 2713 2670 2916 
Q 2900 3119 2900 3481 
Q 2900 3844 2670 4047 
Q 2441 4250 2034 4250 
Q 1625 4250 1398 4047 
Q 1172 3844 1172 3481 
z
" transform="scale(0.015625)"/>
     </defs>
     <use xlink:href="#DejaVuSans-2b"/>
     <use xlink:href="#DejaVuSans-76" x="83.789062"/>
     <use xlink:href="#DejaVuSans-65" x="142.96875"/>
     <use xlink:href="#DejaVuSans-3a" x="204.492188"/>
     <use xlink:href="#DejaVuSans-20" x="238.183594"/>
     <use xlink:href="#DejaVuSans-31" x="269.970703"/>
     <use xlink:href="#DejaVuSans-38" x="333.59375"/>
    </g>
   </g>
   <g id="text_15">
    <!-- -ve: 10 -->
    <g transform="translate(101.71242 60.64392) scale(0.1728 -0.1728)">
     <use xlink:href="#DejaVuSans-2d"/>
     <use xlink:href="#DejaVuSans-76" x="33.458984"/>
     <use xlink:href="#DejaVuSans-65" x="92.638672"/>
     <use xlink:href="#DejaVuSans-3a" x="154.162109"/>
     <use xlink:href="#DejaVuSans-20" x="187.853516"/>
     <use xlink:href="#DejaVuSans-31" x="219.640625"/>
     <use xlink:href="#DejaVuSans-30" x="283.263672"/>
    </g>
   </g>
   <g id="text_16">
    <!-- NA: 62 -->
    <g transform="translate(205.7187 60.64392) scale(0.1728 -0.1728)">
     <defs>
      <path id="DejaVuSans-4e" d="M 628 4666 
L 1478 4666 
L 3547 763 
L 3547 4666 
L 4159 4666 
L 4159 0 
L 3309 0 
L 1241 3903 
L 1241 0 
L 628 0 
L 628 4666 
z
" transform="scale(0.015625)"/>
      <path id="DejaVuSans-41" d="M 2188 4044 
L 1331 1722 
L 3047 1722 
L 2188 4044 
z
M 1831 4666 
L 2547 4666 
L 4325 0 
L 3669 0 
L 3244 1197 
L 1141 1197 
L 716 0 
L 50 0 
L 1831 4666 
z
" transform="scale(0.015625)"/>
      <path id="DejaVuSans-36" d="M 2113 2584 
Q 1688 2584 1439 2293 
Q 1191 2003 1191 1497 
Q 1191 994 1439 701 
Q 1688 409 2113 409 
Q 2538 409 2786 701 
Q 3034 994 3034 1497 
Q 3034 2003 2786 2293 
Q 2538 2584 2113 2584 
z
M 3366 4563 
L 3366 3988 
Q 3128 4100 2886 4159 
Q 2644 4219 2406 4219 
Q 1781 4219 1451 3797 
Q 1122 3375 1075 2522 
Q 1259 2794 1537 2939 
Q 1816 3084 2150 3084 
Q 2853 3084 3261 2657 
Q 3669 2231 3669 1497 
Q 3669 778 3244 343 
Q 2819 -91 2113 -91 
Q 1303 -91 875 529 
Q 447 1150 447 2328 
Q 447 3434 972 4092 
Q 1497 4750 2381 4750 
Q 2619 4750 2861 4703 
Q 3103 4656 3366 4563 
z
" transform="scale(0.015625)"/>
     </defs>
     <use xlink:href="#DejaVuSans-4e"/>
     <use xlink:href="#DejaVuSans-41" x="74.804688"/>
     <use xlink:href="#DejaVuSans-3a" x="141.462891"/>
     <use xlink:href="#DejaVuSans-20" x="175.154297"/>
     <use xlink:href="#DejaVuSans-36" x="206.941406"/>
     <use xlink:href="#DejaVuSans-32" x="270.564453"/>
    </g>
   </g>
   <g id="text_17">
    <!-- NefNPC vs KEGG_CC -->
    <g transform="translate(146.0568 32.3424) scale(0.1728 -0.1728)">
     <defs>
      <path id="DejaVuSans-66" d="M 2375 4863 
L 2375 4384 
L 1825 4384 
Q 1516 4384 1395 4259 
Q 1275 4134 1275 3809 
L 1275 3500 
L 2222 3500 
L 2222 3053 
L 1275 3053 
L 1275 0 
L 697 0 
L 697 3053 
L 147 3053 
L 147 3500 
L 697 3500 
L 697 3744 
Q 697 4328 969 4595 
Q 1241 4863 1831 4863 
L 2375 4863 
z
" transform="scale(0.015625)"/>
      <path id="DejaVuSans-50" d="M 1259 4147 
L 1259 2394 
L 2053 2394 
Q 2494 2394 2734 2622 
Q 2975 2850 2975 3272 
Q 2975 3691 2734 3919 
Q 2494 4147 2053 4147 
L 1259 4147 
z
M 628 4666 
L 2053 4666 
Q 2838 4666 3239 4311 
Q 3641 3956 3641 3272 
Q 3641 2581 3239 2228 
Q 2838 1875 2053 1875 
L 1259 1875 
L 1259 0 
L 628 0 
L 628 4666 
z
" transform="scale(0.015625)"/>
      <path id="DejaVuSans-73" d="M 2834 3397 
L 2834 2853 
Q 2591 2978 2328 3040 
Q 2066 3103 1784 3103 
Q 1356 3103 1142 2972 
Q 928 2841 928 2578 
Q 928 2378 1081 2264 
Q 1234 2150 1697 2047 
L 1894 2003 
Q 2506 1872 2764 1633 
Q 3022 1394 3022 966 
Q 3022 478 2636 193 
Q 2250 -91 1575 -91 
Q 1294 -91 989 -36 
Q 684 19 347 128 
L 347 722 
Q 666 556 975 473 
Q 1284 391 1588 391 
Q 1994 391 2212 530 
Q 2431 669 2431 922 
Q 2431 1156 2273 1281 
Q 2116 1406 1581 1522 
L 1381 1569 
Q 847 1681 609 1914 
Q 372 2147 372 2553 
Q 372 3047 722 3315 
Q 1072 3584 1716 3584 
Q 2034 3584 2315 3537 
Q 2597 3491 2834 3397 
z
" transform="scale(0.015625)"/>
      <path id="DejaVuSans-4b" d="M 628 4666 
L 1259 4666 
L 1259 2694 
L 3353 4666 
L 4166 4666 
L 1850 2491 
L 4331 0 
L 3500 0 
L 1259 2247 
L 1259 0 
L 628 0 
L 628 4666 
z
" transform="scale(0.015625)"/>
      <path id="DejaVuSans-45" d="M 628 4666 
L 3578 4666 
L 3578 4134 
L 1259 4134 
L 1259 2753 
L 3481 2753 
L 3481 2222 
L 1259 2222 
L 1259 531 
L 3634 531 
L 3634 0 
L 628 0 
L 628 4666 
z
" transform="scale(0.015625)"/>
      <path id="DejaVuSans-47" d="M 3809 666 
L 3809 1919 
L 2778 1919 
L 2778 2438 
L 4434 2438 
L 4434 434 
Q 4069 175 3628 42 
Q 3188 -91 2688 -91 
Q 1594 -91 976 548 
Q 359 1188 359 2328 
Q 359 3472 976 4111 
Q 1594 4750 2688 4750 
Q 3144 4750 3555 4637 
Q 3966 4525 4313 4306 
L 4313 3634 
Q 3963 3931 3569 4081 
Q 3175 4231 2741 4231 
Q 1884 4231 1454 3753 
Q 1025 3275 1025 2328 
Q 1025 1384 1454 906 
Q 1884 428 2741 428 
Q 3075 428 3337 486 
Q 3600 544 3809 666 
z
" transform="scale(0.015625)"/>
      <path id="DejaVuSans-5f" d="M 3263 -1063 
L 3263 -1509 
L -63 -1509 
L -63 -1063 
L 3263 -1063 
z
" transform="scale(0.015625)"/>
     </defs>
     <use xlink:href="#DejaVuSans-4e"/>
     <use xlink:href="#DejaVuSans-65" x="74.804688"/>
     <use xlink:href="#DejaVuSans-66" x="136.328125"/>
     <use xlink:href="#DejaVuSans-4e" x="171.533203"/>
     <use xlink:href="#DejaVuSans-50" x="246.337891"/>
     <use xlink:href="#DejaVuSans-43" x="306.640625"/>
     <use xlink:href="#DejaVuSans-20" x="376.464844"/>
     <use xlink:href="#DejaVuSans-76" x="408.251953"/>
     <use xlink:href="#DejaVuSans-73" x="467.431641"/>
     <use xlink:href="#DejaVuSans-20" x="519.53125"/>
     <use xlink:href="#DejaVuSans-4b" x="551.318359"/>
     <use xlink:href="#DejaVuSans-45" x="616.894531"/>
     <use xlink:href="#DejaVuSans-47" x="680.078125"/>
     <use xlink:href="#DejaVuSans-47" x="757.568359"/>
     <use xlink:href="#DejaVuSans-5f" x="835.058594"/>
     <use xlink:href="#DejaVuSans-43" x="885.058594"/>
     <use xlink:href="#DejaVuSans-43" x="954.882812"/>
    </g>
   </g>
  </g>
 </g>
 <defs>
  <clipPath id="p5e3fe70599">
   <rect x="68.4924" y="38.3424" width="332.2002" height="223.0152"/>
  </clipPath>
 </defs>
</svg>
