<?xml version="1.0" encoding="utf-8" standalone="no"?>
<!DOCTYPE svg PUBLIC "-//W3C//DTD SVG 1.1//EN"
  "http://www.w3.org/Graphics/SVG/1.1/DTD/svg11.dtd">
<svg xmlns:xlink="http://www.w3.org/1999/xlink" width="432pt" height="324pt" viewBox="0 0 432 324" xmlns="http://www.w3.org/2000/svg" version="1.1">
 <metadata>
  <rdf:RDF xmlns:dc="http://purl.org/dc/elements/1.1/" xmlns:cc="http://creativecommons.org/ns#" xmlns:rdf="http://www.w3.org/1999/02/22-rdf-syntax-ns#">
   <cc:Work>
    <dc:type rdf:resource="http://purl.org/dc/dcmitype/StillImage"/>
    <dc:date>2023-10-16T12:49:25.193200</dc:date>
    <dc:format>image/svg+xml</dc:format>
    <dc:creator>
     <cc:Agent>
      <dc:title>Matplotlib v3.7.1, https://matplotlib.org/</dc:title>
     </cc:Agent>
    </dc:creator>
   </cc:Work>
  </rdf:RDF>
 </metadata>
 <defs>
  <style type="text/css">*{stroke-linejoin: round; stroke-linecap: butt}</style>
 </defs>
 <g id="figure_1">
  <g id="patch_1">
   <path d="M 0 324 
L 432 324 
L 432 0 
L 0 0 
z
" style="fill: #ffffff"/>
  </g>
  <g id="axes_1">
   <g id="patch_2">
    <path d="M 68.4924 261.3576 
L 400.6926 261.3576 
L 400.6926 38.3424 
L 68.4924 38.3424 
z
" style="fill: #ffffff"/>
   </g>
   <g id="PathCollection_1">
    <defs>
     <path id="C0_0_8c5c5b6c0b" d="M 0 2.4 
C 0.636487 2.4 1.246992 2.147121 1.697056 1.697056 
C 2.147121 1.246992 2.4 0.636487 2.4 -0 
C 2.4 -0.636487 2.147121 -1.246992 1.697056 -1.697056 
C 1.246992 -2.147121 0.636487 -2.4 0 -2.4 
C -0.636487 -2.4 -1.246992 -2.147121 -1.697056 -1.697056 
C -2.147121 -1.246992 -2.4 -0.636487 -2.4 0 
C -2.4 0.636487 -2.147121 1.246992 -1.697056 1.697056 
C -1.246992 2.147121 -0.636487 2.4 0 2.4 
z
"/>
    </defs>
    <g clip-path="url(#p5e3fe70599)">
     <use xlink:href="#C0_0_8c5c5b6c0b" x="142.02002" y="221.603933" style="fill: #1f77b4; stroke: #ffffff; stroke-width: 0.384"/>
    </g>
    <g clip-path="url(#p5e3fe70599)">
     <use xlink:href="#C0_0_8c5c5b6c0b" x="186.725819" y="227.190629" style="fill: #808080; stroke: #ffffff; stroke-width: 0.384"/>
    </g>
    <g clip-path="url(#p5e3fe70599)">
     <use xlink:href="#C0_0_8c5c5b6c0b" x="253.177127" y="250.481176" style="fill: #808080; stroke: #ffffff; stroke-width: 0.384"/>
    </g>
    <g clip-path="url(#p5e3fe70599)">
     <use xlink:href="#C0_0_8c5c5b6c0b" x="161.364021" y="241.902601" style="fill: #1f77b4; stroke: #ffffff; stroke-width: 0.384"/>
    </g>
    <g clip-path="url(#p5e3fe70599)">
     <use xlink:href="#C0_0_8c5c5b6c0b" x="367.47258" y="245.189969" style="fill: #808080; stroke: #ffffff; stroke-width: 0.384"/>
    </g>
    <g clip-path="url(#p5e3fe70599)">
     <use xlink:href="#C0_0_8c5c5b6c0b" x="337.416371" y="245.127767" style="fill: #808080; stroke: #ffffff; stroke-width: 0.384"/>
    </g>
    <g clip-path="url(#p5e3fe70599)">
     <use xlink:href="#C0_0_8c5c5b6c0b" x="68.4924" y="48.479455" style="fill: #1f77b4; stroke: #ffffff; stroke-width: 0.384"/>
    </g>
    <g clip-path="url(#p5e3fe70599)">
     <use xlink:href="#C0_0_8c5c5b6c0b" x="372.218297" y="242.694721" style="fill: #d62728; stroke: #ffffff; stroke-width: 0.384"/>
    </g>
    <g clip-path="url(#p5e3fe70599)">
     <use xlink:href="#C0_0_8c5c5b6c0b" x="106.458137" y="244.203108" style="fill: #808080; stroke: #ffffff; stroke-width: 0.384"/>
    </g>
    <g clip-path="url(#p5e3fe70599)">
     <use xlink:href="#C0_0_8c5c5b6c0b" x="96.966703" y="242.694721" style="fill: #1f77b4; stroke: #ffffff; stroke-width: 0.384"/>
    </g>
    <g clip-path="url(#p5e3fe70599)">
     <use xlink:href="#C0_0_8c5c5b6c0b" x="119.904336" y="243.600026" style="fill: #808080; stroke: #ffffff; stroke-width: 0.384"/>
    </g>
    <g clip-path="url(#p5e3fe70599)">
     <use xlink:href="#C0_0_8c5c5b6c0b" x="288.865759" y="230.97665" style="fill: #d62728; stroke: #ffffff; stroke-width: 0.384"/>
    </g>
    <g clip-path="url(#p5e3fe70599)">
     <use xlink:href="#C0_0_8c5c5b6c0b" x="324.761126" y="247.737149" style="fill: #808080; stroke: #ffffff; stroke-width: 0.384"/>
    </g>
    <g clip-path="url(#p5e3fe70599)">
     <use xlink:href="#C0_0_8c5c5b6c0b" x="369.495264" y="223.972966" style="fill: #d62728; stroke: #ffffff; stroke-width: 0.384"/>
    </g>
    <g clip-path="url(#p5e3fe70599)">
     <use xlink:href="#C0_0_8c5c5b6c0b" x="97.975596" y="222.838418" style="fill: #1f77b4; stroke: #ffffff; stroke-width: 0.384"/>
    </g>
    <g clip-path="url(#p5e3fe70599)">
     <use xlink:href="#C0_0_8c5c5b6c0b" x="190.454012" y="248.874983" style="fill: #808080; stroke: #ffffff; stroke-width: 0.384"/>
    </g>
    <g clip-path="url(#p5e3fe70599)">
     <use xlink:href="#C0_0_8c5c5b6c0b" x="296.286823" y="249.278577" style="fill: #808080; stroke: #ffffff; stroke-width: 0.384"/>
    </g>
    <g clip-path="url(#p5e3fe70599)">
     <use xlink:href="#C0_0_8c5c5b6c0b" x="125.441006" y="246.292783" style="fill: #808080; stroke: #ffffff; stroke-width: 0.384"/>
    </g>
    <g clip-path="url(#p5e3fe70599)">
     <use xlink:href="#C0_0_8c5c5b6c0b" x="153.915309" y="248.315649" style="fill: #808080; stroke: #ffffff; stroke-width: 0.384"/>
    </g>
    <g clip-path="url(#p5e3fe70599)">
     <use xlink:href="#C0_0_8c5c5b6c0b" x="171.316271" y="248.500157" style="fill: #808080; stroke: #ffffff; stroke-width: 0.384"/>
    </g>
    <g clip-path="url(#p5e3fe70599)">
     <use xlink:href="#C0_0_8c5c5b6c0b" x="71.260735" y="215.584425" style="fill: #1f77b4; stroke: #ffffff; stroke-width: 0.384"/>
    </g>
    <g clip-path="url(#p5e3fe70599)">
     <use xlink:href="#C0_0_8c5c5b6c0b" x="206.746307" y="249.638743" style="fill: #808080; stroke: #ffffff; stroke-width: 0.384"/>
    </g>
    <g clip-path="url(#p5e3fe70599)">
     <use xlink:href="#C0_0_8c5c5b6c0b" x="353.235429" y="245.359504" style="fill: #808080; stroke: #ffffff; stroke-width: 0.384"/>
    </g>
    <g clip-path="url(#p5e3fe70599)">
     <use xlink:href="#C0_0_8c5c5b6c0b" x="288.21988" y="220.006073" style="fill: #d62728; stroke: #ffffff; stroke-width: 0.384"/>
    </g>
    <g clip-path="url(#p5e3fe70599)">
     <use xlink:href="#C0_0_8c5c5b6c0b" x="119.077801" y="159.239171" style="fill: #1f77b4; stroke: #ffffff; stroke-width: 0.384"/>
    </g>
    <g clip-path="url(#p5e3fe70599)">
     <use xlink:href="#C0_0_8c5c5b6c0b" x="295.042308" y="228.567695" style="fill: #d62728; stroke: #ffffff; stroke-width: 0.384"/>
    </g>
    <g clip-path="url(#p5e3fe70599)">
     <use xlink:href="#C0_0_8c5c5b6c0b" x="199.601191" y="244.399761" style="fill: #808080; stroke: #ffffff; stroke-width: 0.384"/>
    </g>
    <g clip-path="url(#p5e3fe70599)">
     <use xlink:href="#C0_0_8c5c5b6c0b" x="312.094199" y="220.73003" style="fill: #d62728; stroke: #ffffff; stroke-width: 0.384"/>
    </g>
    <g clip-path="url(#p5e3fe70599)">
     <use xlink:href="#C0_0_8c5c5b6c0b" x="284.421896" y="239.522427" style="fill: #808080; stroke: #ffffff; stroke-width: 0.384"/>
    </g>
    <g clip-path="url(#p5e3fe70599)">
     <use xlink:href="#C0_0_8c5c5b6c0b" x="303.059543" y="224.105412" style="fill: #d62728; stroke: #ffffff; stroke-width: 0.384"/>
    </g>
    <g clip-path="url(#p5e3fe70599)">
     <use xlink:href="#C0_0_8c5c5b6c0b" x="313.862178" y="235.381808" style="fill: #d62728; stroke: #ffffff; stroke-width: 0.384"/>
    </g>
    <g clip-path="url(#p5e3fe70599)">
     <use xlink:href="#C0_0_8c5c5b6c0b" x="190.0361" y="219.385237" style="fill: #808080; stroke: #ffffff; stroke-width: 0.384"/>
    </g>
    <g clip-path="url(#p5e3fe70599)">
     <use xlink:href="#C0_0_8c5c5b6c0b" x="215.455473" y="246.244445" style="fill: #808080; stroke: #ffffff; stroke-width: 0.384"/>
    </g>
    <g clip-path="url(#p5e3fe70599)">
     <use xlink:href="#C0_0_8c5c5b6c0b" x="173.25775" y="231.566038" style="fill: #1f77b4; stroke: #ffffff; stroke-width: 0.384"/>
    </g>
    <g clip-path="url(#p5e3fe70599)">
     <use xlink:href="#C0_0_8c5c5b6c0b" x="221.815569" y="250.774137" style="fill: #808080; stroke: #ffffff; stroke-width: 0.384"/>
    </g>
    <g clip-path="url(#p5e3fe70599)">
     <use xlink:href="#C0_0_8c5c5b6c0b" x="296.025702" y="180.952732" style="fill: #d62728; stroke: #ffffff; stroke-width: 0.384"/>
    </g>
    <g clip-path="url(#p5e3fe70599)">
     <use xlink:href="#C0_0_8c5c5b6c0b" x="306.619438" y="48.479455" style="fill: #d62728; stroke: #ffffff; stroke-width: 0.384"/>
    </g>
    <g clip-path="url(#p5e3fe70599)">
     <use xlink:href="#C0_0_8c5c5b6c0b" x="208.224585" y="248.636157" style="fill: #808080; stroke: #ffffff; stroke-width: 0.384"/>
    </g>
    <g clip-path="url(#p5e3fe70599)">
     <use xlink:href="#C0_0_8c5c5b6c0b" x="296.699494" y="244.183272" style="fill: #808080; stroke: #ffffff; stroke-width: 0.384"/>
    </g>
    <g clip-path="url(#p5e3fe70599)">
     <use xlink:href="#C0_0_8c5c5b6c0b" x="106.606469" y="182.364823" style="fill: #1f77b4; stroke: #ffffff; stroke-width: 0.384"/>
    </g>
    <g clip-path="url(#p5e3fe70599)">
     <use xlink:href="#C0_0_8c5c5b6c0b" x="316.132549" y="246.176888" style="fill: #808080; stroke: #ffffff; stroke-width: 0.384"/>
    </g>
    <g clip-path="url(#p5e3fe70599)">
     <use xlink:href="#C0_0_8c5c5b6c0b" x="326.183252" y="188.681289" style="fill: #d62728; stroke: #ffffff; stroke-width: 0.384"/>
    </g>
    <g clip-path="url(#p5e3fe70599)">
     <use xlink:href="#C0_0_8c5c5b6c0b" x="287.586341" y="243.770578" style="fill: #808080; stroke: #ffffff; stroke-width: 0.384"/>
    </g>
    <g clip-path="url(#p5e3fe70599)">
     <use xlink:href="#C0_0_8c5c5b6c0b" x="284.163355" y="236.792951" style="fill: #808080; stroke: #ffffff; stroke-width: 0.384"/>
    </g>
    <g clip-path="url(#p5e3fe70599)">
     <use xlink:href="#C0_0_8c5c5b6c0b" x="219.22656" y="249.837289" style="fill: #808080; stroke: #ffffff; stroke-width: 0.384"/>
    </g>
    <g clip-path="url(#p5e3fe70599)">
     <use xlink:href="#C0_0_8c5c5b6c0b" x="284.529416" y="244.291959" style="fill: #808080; stroke: #ffffff; stroke-width: 0.384"/>
    </g>
    <g clip-path="url(#p5e3fe70599)">
     <use xlink:href="#C0_0_8c5c5b6c0b" x="130.053976" y="241.651959" style="fill: #1f77b4; stroke: #ffffff; stroke-width: 0.384"/>
    </g>
    <g clip-path="url(#p5e3fe70599)">
     <use xlink:href="#C0_0_8c5c5b6c0b" x="321.707937" y="244.475213" style="fill: #808080; stroke: #ffffff; stroke-width: 0.384"/>
    </g>
    <g clip-path="url(#p5e3fe70599)">
     <use xlink:href="#C0_0_8c5c5b6c0b" x="216.515602" y="249.237993" style="fill: #808080; stroke: #ffffff; stroke-width: 0.384"/>
    </g>
    <g clip-path="url(#p5e3fe70599)">
     <use xlink:href="#C0_0_8c5c5b6c0b" x="191.079978" y="241.778867" style="fill: #808080; stroke: #ffffff; stroke-width: 0.384"/>
    </g>
    <g clip-path="url(#p5e3fe70599)">
     <use xlink:href="#C0_0_8c5c5b6c0b" x="219.950541" y="249.532563" style="fill: #808080; stroke: #ffffff; stroke-width: 0.384"/>
    </g>
    <g clip-path="url(#p5e3fe70599)">
     <use xlink:href="#C0_0_8c5c5b6c0b" x="239.338217" y="251.220545" style="fill: #808080; stroke: #ffffff; stroke-width: 0.384"/>
    </g>
    <g clip-path="url(#p5e3fe70599)">
     <use xlink:href="#C0_0_8c5c5b6c0b" x="146.315524" y="244.312236" style="fill: #808080; stroke: #ffffff; stroke-width: 0.384"/>
    </g>
    <g clip-path="url(#p5e3fe70599)">
     <use xlink:href="#C0_0_8c5c5b6c0b" x="163.406743" y="243.004713" style="fill: #1f77b4; stroke: #ffffff; stroke-width: 0.384"/>
    </g>
    <g clip-path="url(#p5e3fe70599)">
     <use xlink:href="#C0_0_8c5c5b6c0b" x="201.150767" y="247.93752" style="fill: #808080; stroke: #ffffff; stroke-width: 0.384"/>
    </g>
    <g clip-path="url(#p5e3fe70599)">
     <use xlink:href="#C0_0_8c5c5b6c0b" x="248.829651" y="250.966492" style="fill: #808080; stroke: #ffffff; stroke-width: 0.384"/>
    </g>
    <g clip-path="url(#p5e3fe70599)">
     <use xlink:href="#C0_0_8c5c5b6c0b" x="190.571882" y="246.437357" style="fill: #808080; stroke: #ffffff; stroke-width: 0.384"/>
    </g>
    <g clip-path="url(#p5e3fe70599)">
     <use xlink:href="#C0_0_8c5c5b6c0b" x="96.36934" y="231.907631" style="fill: #1f77b4; stroke: #ffffff; stroke-width: 0.384"/>
    </g>
    <g clip-path="url(#p5e3fe70599)">
     <use xlink:href="#C0_0_8c5c5b6c0b" x="260.303261" y="233.418682" style="fill: #808080; stroke: #ffffff; stroke-width: 0.384"/>
    </g>
    <g clip-path="url(#p5e3fe70599)">
     <use xlink:href="#C0_0_8c5c5b6c0b" x="184.184731" y="246.172395" style="fill: #808080; stroke: #ffffff; stroke-width: 0.384"/>
    </g>
    <g clip-path="url(#p5e3fe70599)">
     <use xlink:href="#C0_0_8c5c5b6c0b" x="220.355349" y="250.966492" style="fill: #808080; stroke: #ffffff; stroke-width: 0.384"/>
    </g>
    <g clip-path="url(#p5e3fe70599)">
     <use xlink:href="#C0_0_8c5c5b6c0b" x="195.83581" y="249.693289" style="fill: #808080; stroke: #ffffff; stroke-width: 0.384"/>
    </g>
    <g clip-path="url(#p5e3fe70599)">
     <use xlink:href="#C0_0_8c5c5b6c0b" x="362.726863" y="244.203108" style="fill: #808080; stroke: #ffffff; stroke-width: 0.384"/>
    </g>
    <g clip-path="url(#p5e3fe70599)">
     <use xlink:href="#C0_0_8c5c5b6c0b" x="108.036917" y="195.527294" style="fill: #1f77b4; stroke: #ffffff; stroke-width: 0.384"/>
    </g>
    <g clip-path="url(#p5e3fe70599)">
     <use xlink:href="#C0_0_8c5c5b6c0b" x="337.342794" y="219.31125" style="fill: #d62728; stroke: #ffffff; stroke-width: 0.384"/>
    </g>
    <g clip-path="url(#p5e3fe70599)">
     <use xlink:href="#C0_0_8c5c5b6c0b" x="329.300966" y="232.57283" style="fill: #d62728; stroke: #ffffff; stroke-width: 0.384"/>
    </g>
    <g clip-path="url(#p5e3fe70599)">
     <use xlink:href="#C0_0_8c5c5b6c0b" x="282.223875" y="245.675388" style="fill: #808080; stroke: #ffffff; stroke-width: 0.384"/>
    </g>
    <g clip-path="url(#p5e3fe70599)">
     <use xlink:href="#C0_0_8c5c5b6c0b" x="119.189039" y="227.664794" style="fill: #1f77b4; stroke: #ffffff; stroke-width: 0.384"/>
    </g>
    <g clip-path="url(#p5e3fe70599)">
     <use xlink:href="#C0_0_8c5c5b6c0b" x="242.723274" y="250.991862" style="fill: #808080; stroke: #ffffff; stroke-width: 0.384"/>
    </g>
    <g clip-path="url(#p5e3fe70599)">
     <use xlink:href="#C0_0_8c5c5b6c0b" x="249.578975" y="250.390282" style="fill: #808080; stroke: #ffffff; stroke-width: 0.384"/>
    </g>
    <g clip-path="url(#p5e3fe70599)">
     <use xlink:href="#C0_0_8c5c5b6c0b" x="96.966703" y="242.694721" style="fill: #1f77b4; stroke: #ffffff; stroke-width: 0.384"/>
    </g>
    <g clip-path="url(#p5e3fe70599)">
     <use xlink:href="#C0_0_8c5c5b6c0b" x="353.235429" y="245.359504" style="fill: #808080; stroke: #ffffff; stroke-width: 0.384"/>
    </g>
    <g clip-path="url(#p5e3fe70599)">
     <use xlink:href="#C0_0_8c5c5b6c0b" x="180.254284" y="246.755112" style="fill: #808080; stroke: #ffffff; stroke-width: 0.384"/>
    </g>
    <g clip-path="url(#p5e3fe70599)">
     <use xlink:href="#C0_0_8c5c5b6c0b" x="305.778257" y="248.825183" style="fill: #808080; stroke: #ffffff; stroke-width: 0.384"/>
    </g>
    <g clip-path="url(#p5e3fe70599)">
     <use xlink:href="#C0_0_8c5c5b6c0b" x="309.733021" y="247.682406" style="fill: #808080; stroke: #ffffff; stroke-width: 0.384"/>
    </g>
    <g clip-path="url(#p5e3fe70599)">
     <use xlink:href="#C0_0_8c5c5b6c0b" x="227.189992" y="250.817703" style="fill: #808080; stroke: #ffffff; stroke-width: 0.384"/>
    </g>
    <g clip-path="url(#p5e3fe70599)">
     <use xlink:href="#C0_0_8c5c5b6c0b" x="168.096187" y="243.90426" style="fill: #808080; stroke: #ffffff; stroke-width: 0.384"/>
    </g>
    <g clip-path="url(#p5e3fe70599)">
     <use xlink:href="#C0_0_8c5c5b6c0b" x="353.235429" y="243.001469" style="fill: #d62728; stroke: #ffffff; stroke-width: 0.384"/>
    </g>
    <g clip-path="url(#p5e3fe70599)">
     <use xlink:href="#C0_0_8c5c5b6c0b" x="221.865349" y="250.525968" style="fill: #808080; stroke: #ffffff; stroke-width: 0.384"/>
    </g>
    <g clip-path="url(#p5e3fe70599)">
     <use xlink:href="#C0_0_8c5c5b6c0b" x="346.332567" y="242.071078" style="fill: #d62728; stroke: #ffffff; stroke-width: 0.384"/>
    </g>
    <g clip-path="url(#p5e3fe70599)">
     <use xlink:href="#C0_0_8c5c5b6c0b" x="190.086933" y="244.804123" style="fill: #808080; stroke: #ffffff; stroke-width: 0.384"/>
    </g>
    <g clip-path="url(#p5e3fe70599)">
     <use xlink:href="#C0_0_8c5c5b6c0b" x="77.983834" y="236.830251" style="fill: #1f77b4; stroke: #ffffff; stroke-width: 0.384"/>
    </g>
    <g clip-path="url(#p5e3fe70599)">
     <use xlink:href="#C0_0_8c5c5b6c0b" x="130.053976" y="241.651959" style="fill: #1f77b4; stroke: #ffffff; stroke-width: 0.384"/>
    </g>
    <g clip-path="url(#p5e3fe70599)">
     <use xlink:href="#C0_0_8c5c5b6c0b" x="371.031868" y="241.138965" style="fill: #d62728; stroke: #ffffff; stroke-width: 0.384"/>
    </g>
    <g clip-path="url(#p5e3fe70599)">
     <use xlink:href="#C0_0_8c5c5b6c0b" x="319.051719" y="237.308464" style="fill: #d62728; stroke: #ffffff; stroke-width: 0.384"/>
    </g>
    <g clip-path="url(#p5e3fe70599)">
     <use xlink:href="#C0_0_8c5c5b6c0b" x="317.64255" y="247.058978" style="fill: #808080; stroke: #ffffff; stroke-width: 0.384"/>
    </g>
    <g clip-path="url(#p5e3fe70599)">
     <use xlink:href="#C0_0_8c5c5b6c0b" x="325.829981" y="230.793555" style="fill: #d62728; stroke: #ffffff; stroke-width: 0.384"/>
    </g>
    <g clip-path="url(#p5e3fe70599)">
     <use xlink:href="#C0_0_8c5c5b6c0b" x="100.857493" y="202.563302" style="fill: #1f77b4; stroke: #ffffff; stroke-width: 0.384"/>
    </g>
    <g clip-path="url(#p5e3fe70599)">
     <use xlink:href="#C0_0_8c5c5b6c0b" x="307.23085" y="239.389299" style="fill: #d62728; stroke: #ffffff; stroke-width: 0.384"/>
    </g>
    <g clip-path="url(#p5e3fe70599)">
     <use xlink:href="#C0_0_8c5c5b6c0b" x="96.420735" y="225.114097" style="fill: #1f77b4; stroke: #ffffff; stroke-width: 0.384"/>
    </g>
   </g>
   <g id="PathCollection_2"/>
   <g id="PathCollection_3"/>
   <g id="PathCollection_4"/>
   <g id="matplotlib.axis_1">
    <g id="xtick_1">
     <g id="line2d_1">
      <defs>
       <path id="m16b75108e7" d="M 0 0 
L 0 4.8 
" style="stroke: #000000"/>
      </defs>
      <g>
       <use xlink:href="#m16b75108e7" x="68.4924" y="261.3576" style="stroke: #000000"/>
      </g>
     </g>
     <g id="text_1">
      <!-- −1.0 -->
      <g transform="translate(49.260413 281.693525) scale(0.1584 -0.1584)">
       <defs>
        <path id="DejaVuSans-2212" d="M 678 2272 
L 4684 2272 
L 4684 1741 
L 678 1741 
L 678 2272 
z
" transform="scale(0.015625)"/>
        <path id="DejaVuSans-31" d="M 794 531 
L 1825 531 
L 1825 4091 
L 703 3866 
L 703 4441 
L 1819 4666 
L 2450 4666 
L 2450 531 
L 3481 531 
L 3481 0 
L 794 0 
L 794 531 
z
" transform="scale(0.015625)"/>
        <path id="DejaVuSans-2e" d="M 684 794 
L 1344 794 
L 1344 0 
L 684 0 
L 684 794 
z
" transform="scale(0.015625)"/>
        <path id="DejaVuSans-30" d="M 2034 4250 
Q 1547 4250 1301 3770 
Q 1056 3291 1056 2328 
Q 1056 1369 1301 889 
Q 1547 409 2034 409 
Q 2525 409 2770 889 
Q 3016 1369 3016 2328 
Q 3016 3291 2770 3770 
Q 2525 4250 2034 4250 
z
M 2034 4750 
Q 2819 4750 3233 4129 
Q 3647 3509 3647 2328 
Q 3647 1150 3233 529 
Q 2819 -91 2034 -91 
Q 1250 -91 836 529 
Q 422 1150 422 2328 
Q 422 3509 836 4129 
Q 1250 4750 2034 4750 
z
" transform="scale(0.015625)"/>
       </defs>
       <use xlink:href="#DejaVuSans-2212"/>
       <use xlink:href="#DejaVuSans-31" x="83.789062"/>
       <use xlink:href="#DejaVuSans-2e" x="147.412109"/>
       <use xlink:href="#DejaVuSans-30" x="179.199219"/>
      </g>
     </g>
    </g>
    <g id="xtick_2">
     <g id="line2d_2">
      <g>
       <use xlink:href="#m16b75108e7" x="151.54245" y="261.3576" style="stroke: #000000"/>
      </g>
     </g>
     <g id="text_2">
      <!-- −0.5 -->
      <g transform="translate(132.310462 281.693525) scale(0.1584 -0.1584)">
       <defs>
        <path id="DejaVuSans-35" d="M 691 4666 
L 3169 4666 
L 3169 4134 
L 1269 4134 
L 1269 2991 
Q 1406 3038 1543 3061 
Q 1681 3084 1819 3084 
Q 2600 3084 3056 2656 
Q 3513 2228 3513 1497 
Q 3513 744 3044 326 
Q 2575 -91 1722 -91 
Q 1428 -91 1123 -41 
Q 819 9 494 109 
L 494 744 
Q 775 591 1075 516 
Q 1375 441 1709 441 
Q 2250 441 2565 725 
Q 2881 1009 2881 1497 
Q 2881 1984 2565 2268 
Q 2250 2553 1709 2553 
Q 1456 2553 1204 2497 
Q 953 2441 691 2322 
L 691 4666 
z
" transform="scale(0.015625)"/>
       </defs>
       <use xlink:href="#DejaVuSans-2212"/>
       <use xlink:href="#DejaVuSans-30" x="83.789062"/>
       <use xlink:href="#DejaVuSans-2e" x="147.412109"/>
       <use xlink:href="#DejaVuSans-35" x="179.199219"/>
      </g>
     </g>
    </g>
    <g id="xtick_3">
     <g id="line2d_3">
      <g>
       <use xlink:href="#m16b75108e7" x="234.5925" y="261.3576" style="stroke: #000000"/>
      </g>
     </g>
     <g id="text_3">
      <!-- 0.0 -->
      <g transform="translate(221.997225 281.693525) scale(0.1584 -0.1584)">
       <use xlink:href="#DejaVuSans-30"/>
       <use xlink:href="#DejaVuSans-2e" x="63.623047"/>
       <use xlink:href="#DejaVuSans-30" x="95.410156"/>
      </g>
     </g>
    </g>
    <g id="xtick_4">
     <g id="line2d_4">
      <g>
       <use xlink:href="#m16b75108e7" x="317.64255" y="261.3576" style="stroke: #000000"/>
      </g>
     </g>
     <g id="text_4">
      <!-- 0.5 -->
      <g transform="translate(305.047275 281.693525) scale(0.1584 -0.1584)">
       <use xlink:href="#DejaVuSans-30"/>
       <use xlink:href="#DejaVuSans-2e" x="63.623047"/>
       <use xlink:href="#DejaVuSans-35" x="95.410156"/>
      </g>
     </g>
    </g>
    <g id="xtick_5">
     <g id="line2d_5">
      <g>
       <use xlink:href="#m16b75108e7" x="400.6926" y="261.3576" style="stroke: #000000"/>
      </g>
     </g>
     <g id="text_5">
      <!-- 1.0 -->
      <g transform="translate(388.097325 281.693525) scale(0.1584 -0.1584)">
       <use xlink:href="#DejaVuSans-31"/>
       <use xlink:href="#DejaVuSans-2e" x="63.623047"/>
       <use xlink:href="#DejaVuSans-30" x="95.410156"/>
      </g>
     </g>
    </g>
    <g id="text_6">
     <!-- Correlation -->
     <g transform="translate(186.9537 302.11785) scale(0.1728 -0.1728)">
      <defs>
       <path id="DejaVuSans-43" d="M 4122 4306 
L 4122 3641 
Q 3803 3938 3442 4084 
Q 3081 4231 2675 4231 
Q 1875 4231 1450 3742 
Q 1025 3253 1025 2328 
Q 1025 1406 1450 917 
Q 1875 428 2675 428 
Q 3081 428 3442 575 
Q 3803 722 4122 1019 
L 4122 359 
Q 3791 134 3420 21 
Q 3050 -91 2638 -91 
Q 1578 -91 968 557 
Q 359 1206 359 2328 
Q 359 3453 968 4101 
Q 1578 4750 2638 4750 
Q 3056 4750 3426 4639 
Q 3797 4528 4122 4306 
z
" transform="scale(0.015625)"/>
       <path id="DejaVuSans-6f" d="M 1959 3097 
Q 1497 3097 1228 2736 
Q 959 2375 959 1747 
Q 959 1119 1226 758 
Q 1494 397 1959 397 
Q 2419 397 2687 759 
Q 2956 1122 2956 1747 
Q 2956 2369 2687 2733 
Q 2419 3097 1959 3097 
z
M 1959 3584 
Q 2709 3584 3137 3096 
Q 3566 2609 3566 1747 
Q 3566 888 3137 398 
Q 2709 -91 1959 -91 
Q 1206 -91 779 398 
Q 353 888 353 1747 
Q 353 2609 779 3096 
Q 1206 3584 1959 3584 
z
" transform="scale(0.015625)"/>
       <path id="DejaVuSans-72" d="M 2631 2963 
Q 2534 3019 2420 3045 
Q 2306 3072 2169 3072 
Q 1681 3072 1420 2755 
Q 1159 2438 1159 1844 
L 1159 0 
L 581 0 
L 581 3500 
L 1159 3500 
L 1159 2956 
Q 1341 3275 1631 3429 
Q 1922 3584 2338 3584 
Q 2397 3584 2469 3576 
Q 2541 3569 2628 3553 
L 2631 2963 
z
" transform="scale(0.015625)"/>
       <path id="DejaVuSans-65" d="M 3597 1894 
L 3597 1613 
L 953 1613 
Q 991 1019 1311 708 
Q 1631 397 2203 397 
Q 2534 397 2845 478 
Q 3156 559 3463 722 
L 3463 178 
Q 3153 47 2828 -22 
Q 2503 -91 2169 -91 
Q 1331 -91 842 396 
Q 353 884 353 1716 
Q 353 2575 817 3079 
Q 1281 3584 2069 3584 
Q 2775 3584 3186 3129 
Q 3597 2675 3597 1894 
z
M 3022 2063 
Q 3016 2534 2758 2815 
Q 2500 3097 2075 3097 
Q 1594 3097 1305 2825 
Q 1016 2553 972 2059 
L 3022 2063 
z
" transform="scale(0.015625)"/>
       <path id="DejaVuSans-6c" d="M 603 4863 
L 1178 4863 
L 1178 0 
L 603 0 
L 603 4863 
z
" transform="scale(0.015625)"/>
       <path id="DejaVuSans-61" d="M 2194 1759 
Q 1497 1759 1228 1600 
Q 959 1441 959 1056 
Q 959 750 1161 570 
Q 1363 391 1709 391 
Q 2188 391 2477 730 
Q 2766 1069 2766 1631 
L 2766 1759 
L 2194 1759 
z
M 3341 1997 
L 3341 0 
L 2766 0 
L 2766 531 
Q 2569 213 2275 61 
Q 1981 -91 1556 -91 
Q 1019 -91 701 211 
Q 384 513 384 1019 
Q 384 1609 779 1909 
Q 1175 2209 1959 2209 
L 2766 2209 
L 2766 2266 
Q 2766 2663 2505 2880 
Q 2244 3097 1772 3097 
Q 1472 3097 1187 3025 
Q 903 2953 641 2809 
L 641 3341 
Q 956 3463 1253 3523 
Q 1550 3584 1831 3584 
Q 2591 3584 2966 3190 
Q 3341 2797 3341 1997 
z
" transform="scale(0.015625)"/>
       <path id="DejaVuSans-74" d="M 1172 4494 
L 1172 3500 
L 2356 3500 
L 2356 3053 
L 1172 3053 
L 1172 1153 
Q 1172 725 1289 603 
Q 1406 481 1766 481 
L 2356 481 
L 2356 0 
L 1766 0 
Q 1100 0 847 248 
Q 594 497 594 1153 
L 594 3053 
L 172 3053 
L 172 3500 
L 594 3500 
L 594 4494 
L 1172 4494 
z
" transform="scale(0.015625)"/>
       <path id="DejaVuSans-69" d="M 603 3500 
L 1178 3500 
L 1178 0 
L 603 0 
L 603 3500 
z
M 603 4863 
L 1178 4863 
L 1178 4134 
L 603 4134 
L 603 4863 
z
" transform="scale(0.015625)"/>
       <path id="DejaVuSans-6e" d="M 3513 2113 
L 3513 0 
L 2938 0 
L 2938 2094 
Q 2938 2591 2744 2837 
Q 2550 3084 2163 3084 
Q 1697 3084 1428 2787 
Q 1159 2491 1159 1978 
L 1159 0 
L 581 0 
L 581 3500 
L 1159 3500 
L 1159 2956 
Q 1366 3272 1645 3428 
Q 1925 3584 2291 3584 
Q 2894 3584 3203 3211 
Q 3513 2838 3513 2113 
z
" transform="scale(0.015625)"/>
      </defs>
      <use xlink:href="#DejaVuSans-43"/>
      <use xlink:href="#DejaVuSans-6f" x="69.824219"/>
      <use xlink:href="#DejaVuSans-72" x="131.005859"/>
      <use xlink:href="#DejaVuSans-72" x="170.369141"/>
      <use xlink:href="#DejaVuSans-65" x="209.232422"/>
      <use xlink:href="#DejaVuSans-6c" x="270.755859"/>
      <use xlink:href="#DejaVuSans-61" x="298.539062"/>
      <use xlink:href="#DejaVuSans-74" x="359.818359"/>
      <use xlink:href="#DejaVuSans-69" x="399.027344"/>
      <use xlink:href="#DejaVuSans-6f" x="426.810547"/>
      <use xlink:href="#DejaVuSans-6e" x="487.992188"/>
     </g>
    </g>
   </g>
   <g id="matplotlib.axis_2">
    <g id="ytick_1">
     <g id="line2d_6">
      <defs>
       <path id="m556f9ddca4" d="M 0 0 
L -4.8 0 
" style="stroke: #000000"/>
      </defs>
      <g>
       <use xlink:href="#m556f9ddca4" x="68.4924" y="251.339569" style="stroke: #000000"/>
      </g>
     </g>
     <g id="text_7">
      <!-- 0 -->
      <g transform="translate(50.1142 257.357532) scale(0.1584 -0.1584)">
       <use xlink:href="#DejaVuSans-30"/>
      </g>
     </g>
    </g>
    <g id="ytick_2">
     <g id="line2d_7">
      <g>
       <use xlink:href="#m556f9ddca4" x="68.4924" y="188.754539" style="stroke: #000000"/>
      </g>
     </g>
     <g id="text_8">
      <!-- 10 -->
      <g transform="translate(40.036 194.772502) scale(0.1584 -0.1584)">
       <use xlink:href="#DejaVuSans-31"/>
       <use xlink:href="#DejaVuSans-30" x="63.623047"/>
      </g>
     </g>
    </g>
    <g id="ytick_3">
     <g id="line2d_8">
      <g>
       <use xlink:href="#m556f9ddca4" x="68.4924" y="126.169509" style="stroke: #000000"/>
      </g>
     </g>
     <g id="text_9">
      <!-- 20 -->
      <g transform="translate(40.036 132.187472) scale(0.1584 -0.1584)">
       <defs>
        <path id="DejaVuSans-32" d="M 1228 531 
L 3431 531 
L 3431 0 
L 469 0 
L 469 531 
Q 828 903 1448 1529 
Q 2069 2156 2228 2338 
Q 2531 2678 2651 2914 
Q 2772 3150 2772 3378 
Q 2772 3750 2511 3984 
Q 2250 4219 1831 4219 
Q 1534 4219 1204 4116 
Q 875 4013 500 3803 
L 500 4441 
Q 881 4594 1212 4672 
Q 1544 4750 1819 4750 
Q 2544 4750 2975 4387 
Q 3406 4025 3406 3419 
Q 3406 3131 3298 2873 
Q 3191 2616 2906 2266 
Q 2828 2175 2409 1742 
Q 1991 1309 1228 531 
z
" transform="scale(0.015625)"/>
       </defs>
       <use xlink:href="#DejaVuSans-32"/>
       <use xlink:href="#DejaVuSans-30" x="63.623047"/>
      </g>
     </g>
    </g>
    <g id="ytick_4">
     <g id="line2d_9">
      <g>
       <use xlink:href="#m556f9ddca4" x="68.4924" y="63.584479" style="stroke: #000000"/>
      </g>
     </g>
     <g id="text_10">
      <!-- 30 -->
      <g transform="translate(40.036 69.602441) scale(0.1584 -0.1584)">
       <defs>
        <path id="DejaVuSans-33" d="M 2597 2516 
Q 3050 2419 3304 2112 
Q 3559 1806 3559 1356 
Q 3559 666 3084 287 
Q 2609 -91 1734 -91 
Q 1441 -91 1130 -33 
Q 819 25 488 141 
L 488 750 
Q 750 597 1062 519 
Q 1375 441 1716 441 
Q 2309 441 2620 675 
Q 2931 909 2931 1356 
Q 2931 1769 2642 2001 
Q 2353 2234 1838 2234 
L 1294 2234 
L 1294 2753 
L 1863 2753 
Q 2328 2753 2575 2939 
Q 2822 3125 2822 3475 
Q 2822 3834 2567 4026 
Q 2313 4219 1838 4219 
Q 1578 4219 1281 4162 
Q 984 4106 628 3988 
L 628 4550 
Q 988 4650 1302 4700 
Q 1616 4750 1894 4750 
Q 2613 4750 3031 4423 
Q 3450 4097 3450 3541 
Q 3450 3153 3228 2886 
Q 3006 2619 2597 2516 
z
" transform="scale(0.015625)"/>
       </defs>
       <use xlink:href="#DejaVuSans-33"/>
       <use xlink:href="#DejaVuSans-30" x="63.623047"/>
      </g>
     </g>
    </g>
    <g id="text_11">
     <!-- -log10(p-value) -->
     <g transform="translate(32.4423 215.8515) rotate(-90) scale(0.1728 -0.1728)">
      <defs>
       <path id="DejaVuSans-2d" d="M 313 2009 
L 1997 2009 
L 1997 1497 
L 313 1497 
L 313 2009 
z
" transform="scale(0.015625)"/>
       <path id="DejaVuSans-67" d="M 2906 1791 
Q 2906 2416 2648 2759 
Q 2391 3103 1925 3103 
Q 1463 3103 1205 2759 
Q 947 2416 947 1791 
Q 947 1169 1205 825 
Q 1463 481 1925 481 
Q 2391 481 2648 825 
Q 2906 1169 2906 1791 
z
M 3481 434 
Q 3481 -459 3084 -895 
Q 2688 -1331 1869 -1331 
Q 1566 -1331 1297 -1286 
Q 1028 -1241 775 -1147 
L 775 -588 
Q 1028 -725 1275 -790 
Q 1522 -856 1778 -856 
Q 2344 -856 2625 -561 
Q 2906 -266 2906 331 
L 2906 616 
Q 2728 306 2450 153 
Q 2172 0 1784 0 
Q 1141 0 747 490 
Q 353 981 353 1791 
Q 353 2603 747 3093 
Q 1141 3584 1784 3584 
Q 2172 3584 2450 3431 
Q 2728 3278 2906 2969 
L 2906 3500 
L 3481 3500 
L 3481 434 
z
" transform="scale(0.015625)"/>
       <path id="DejaVuSans-28" d="M 1984 4856 
Q 1566 4138 1362 3434 
Q 1159 2731 1159 2009 
Q 1159 1288 1364 580 
Q 1569 -128 1984 -844 
L 1484 -844 
Q 1016 -109 783 600 
Q 550 1309 550 2009 
Q 550 2706 781 3412 
Q 1013 4119 1484 4856 
L 1984 4856 
z
" transform="scale(0.015625)"/>
       <path id="DejaVuSans-70" d="M 1159 525 
L 1159 -1331 
L 581 -1331 
L 581 3500 
L 1159 3500 
L 1159 2969 
Q 1341 3281 1617 3432 
Q 1894 3584 2278 3584 
Q 2916 3584 3314 3078 
Q 3713 2572 3713 1747 
Q 3713 922 3314 415 
Q 2916 -91 2278 -91 
Q 1894 -91 1617 61 
Q 1341 213 1159 525 
z
M 3116 1747 
Q 3116 2381 2855 2742 
Q 2594 3103 2138 3103 
Q 1681 3103 1420 2742 
Q 1159 2381 1159 1747 
Q 1159 1113 1420 752 
Q 1681 391 2138 391 
Q 2594 391 2855 752 
Q 3116 1113 3116 1747 
z
" transform="scale(0.015625)"/>
       <path id="DejaVuSans-76" d="M 191 3500 
L 800 3500 
L 1894 563 
L 2988 3500 
L 3597 3500 
L 2284 0 
L 1503 0 
L 191 3500 
z
" transform="scale(0.015625)"/>
       <path id="DejaVuSans-75" d="M 544 1381 
L 544 3500 
L 1119 3500 
L 1119 1403 
Q 1119 906 1312 657 
Q 1506 409 1894 409 
Q 2359 409 2629 706 
Q 2900 1003 2900 1516 
L 2900 3500 
L 3475 3500 
L 3475 0 
L 2900 0 
L 2900 538 
Q 2691 219 2414 64 
Q 2138 -91 1772 -91 
Q 1169 -91 856 284 
Q 544 659 544 1381 
z
M 1991 3584 
L 1991 3584 
z
" transform="scale(0.015625)"/>
       <path id="DejaVuSans-29" d="M 513 4856 
L 1013 4856 
Q 1481 4119 1714 3412 
Q 1947 2706 1947 2009 
Q 1947 1309 1714 600 
Q 1481 -109 1013 -844 
L 513 -844 
Q 928 -128 1133 580 
Q 1338 1288 1338 2009 
Q 1338 2731 1133 3434 
Q 928 4138 513 4856 
z
" transform="scale(0.015625)"/>
      </defs>
      <use xlink:href="#DejaVuSans-2d"/>
      <use xlink:href="#DejaVuSans-6c" x="36.083984"/>
      <use xlink:href="#DejaVuSans-6f" x="63.867188"/>
      <use xlink:href="#DejaVuSans-67" x="125.048828"/>
      <use xlink:href="#DejaVuSans-31" x="188.525391"/>
      <use xlink:href="#DejaVuSans-30" x="252.148438"/>
      <use xlink:href="#DejaVuSans-28" x="315.771484"/>
      <use xlink:href="#DejaVuSans-70" x="354.785156"/>
      <use xlink:href="#DejaVuSans-2d" x="418.261719"/>
      <use xlink:href="#DejaVuSans-76" x="451.720703"/>
      <use xlink:href="#DejaVuSans-61" x="510.900391"/>
      <use xlink:href="#DejaVuSans-6c" x="572.179688"/>
      <use xlink:href="#DejaVuSans-75" x="599.962891"/>
      <use xlink:href="#DejaVuSans-65" x="663.341797"/>
      <use xlink:href="#DejaVuSans-29" x="724.865234"/>
     </g>
    </g>
   </g>
   <g id="line2d_10">
    <path d="M 284.42253 261.3576 
L 284.42253 38.3424 
" clip-path="url(#p5e3fe70599)" style="fill: none; stroke-dasharray: 4.44,1.92; stroke-dashoffset: 0; stroke: #d62728; stroke-width: 1.2"/>
   </g>
   <g id="line2d_11">
    <path d="M 184.76247 261.3576 
L 184.76247 38.3424 
" clip-path="url(#p5e3fe70599)" style="fill: none; stroke-dasharray: 4.44,1.92; stroke-dashoffset: 0; stroke: #1f77b4; stroke-width: 1.2"/>
   </g>
   <g id="line2d_12">
    <path d="M 68.4924 243.197069 
L 400.6926 243.197069 
" clip-path="url(#p5e3fe70599)" style="fill: none; stroke-dasharray: 4.44,1.92; stroke-dashoffset: 0; stroke: #808080; stroke-width: 1.2"/>
   </g>
   <g id="patch_3">
    <path d="M 68.4924 261.3576 
L 68.4924 38.3424 
" style="fill: none; stroke: #000000; stroke-linejoin: miter; stroke-linecap: square"/>
   </g>
   <g id="patch_4">
    <path d="M 400.6926 261.3576 
L 400.6926 38.3424 
" style="fill: none; stroke: #000000; stroke-linejoin: miter; stroke-linecap: square"/>
   </g>
   <g id="patch_5">
    <path d="M 68.4924 261.3576 
L 400.6926 261.3576 
" style="fill: none; stroke: #000000; stroke-linejoin: miter; stroke-linecap: square"/>
   </g>
   <g id="patch_6">
    <path d="M 68.4924 38.3424 
L 400.6926 38.3424 
" style="fill: none; stroke: #000000; stroke-linejoin: miter; stroke-linecap: square"/>
   </g>
   <g id="text_12">
    <!-- +ve: 19 -->
    <g transform="translate(298.83048 60.64392) scale(0.1728 -0.1728)">
     <defs>
      <path id="DejaVuSans-2b" d="M 2944 4013 
L 2944 2272 
L 4684 2272 
L 4684 1741 
L 2944 1741 
L 2944 0 
L 2419 0 
L 2419 1741 
L 678 1741 
L 678 2272 
L 2419 2272 
L 2419 4013 
L 2944 4013 
z
" transform="scale(0.015625)"/>
      <path id="DejaVuSans-3a" d="M 750 794 
L 1409 794 
L 1409 0 
L 750 0 
L 750 794 
z
M 750 3309 
L 1409 3309 
L 1409 2516 
L 750 2516 
L 750 3309 
z
" transform="scale(0.015625)"/>
      <path id="DejaVuSans-20" transform="scale(0.015625)"/>
      <path id="DejaVuSans-39" d="M 703 97 
L 703 672 
Q 941 559 1184 500 
Q 1428 441 1663 441 
Q 2288 441 2617 861 
Q 2947 1281 2994 2138 
Q 2813 1869 2534 1725 
Q 2256 1581 1919 1581 
Q 1219 1581 811 2004 
Q 403 2428 403 3163 
Q 403 3881 828 4315 
Q 1253 4750 1959 4750 
Q 2769 4750 3195 4129 
Q 3622 3509 3622 2328 
Q 3622 1225 3098 567 
Q 2575 -91 1691 -91 
Q 1453 -91 1209 -44 
Q 966 3 703 97 
z
M 1959 2075 
Q 2384 2075 2632 2365 
Q 2881 2656 2881 3163 
Q 2881 3666 2632 3958 
Q 2384 4250 1959 4250 
Q 1534 4250 1286 3958 
Q 1038 3666 1038 3163 
Q 1038 2656 1286 2365 
Q 1534 2075 1959 2075 
z
" transform="scale(0.015625)"/>
     </defs>
     <use xlink:href="#DejaVuSans-2b"/>
     <use xlink:href="#DejaVuSans-76" x="83.789062"/>
     <use xlink:href="#DejaVuSans-65" x="142.96875"/>
     <use xlink:href="#DejaVuSans-3a" x="204.492188"/>
     <use xlink:href="#DejaVuSans-20" x="238.183594"/>
     <use xlink:href="#DejaVuSans-31" x="269.970703"/>
     <use xlink:href="#DejaVuSans-39" x="333.59375"/>
    </g>
   </g>
   <g id="text_13">
    <!-- -ve: 19 -->
    <g transform="translate(101.71242 60.64392) scale(0.1728 -0.1728)">
     <use xlink:href="#DejaVuSans-2d"/>
     <use xlink:href="#DejaVuSans-76" x="33.458984"/>
     <use xlink:href="#DejaVuSans-65" x="92.638672"/>
     <use xlink:href="#DejaVuSans-3a" x="154.162109"/>
     <use xlink:href="#DejaVuSans-20" x="187.853516"/>
     <use xlink:href="#DejaVuSans-31" x="219.640625"/>
     <use xlink:href="#DejaVuSans-39" x="283.263672"/>
    </g>
   </g>
   <g id="text_14">
    <!-- NA: 52 -->
    <g transform="translate(205.7187 60.64392) scale(0.1728 -0.1728)">
     <defs>
      <path id="DejaVuSans-4e" d="M 628 4666 
L 1478 4666 
L 3547 763 
L 3547 4666 
L 4159 4666 
L 4159 0 
L 3309 0 
L 1241 3903 
L 1241 0 
L 628 0 
L 628 4666 
z
" transform="scale(0.015625)"/>
      <path id="DejaVuSans-41" d="M 2188 4044 
L 1331 1722 
L 3047 1722 
L 2188 4044 
z
M 1831 4666 
L 2547 4666 
L 4325 0 
L 3669 0 
L 3244 1197 
L 1141 1197 
L 716 0 
L 50 0 
L 1831 4666 
z
" transform="scale(0.015625)"/>
     </defs>
     <use xlink:href="#DejaVuSans-4e"/>
     <use xlink:href="#DejaVuSans-41" x="74.804688"/>
     <use xlink:href="#DejaVuSans-3a" x="141.462891"/>
     <use xlink:href="#DejaVuSans-20" x="175.154297"/>
     <use xlink:href="#DejaVuSans-35" x="206.941406"/>
     <use xlink:href="#DejaVuSans-32" x="270.564453"/>
    </g>
   </g>
   <g id="text_15">
    <!-- NefMES vs KEGG_CC -->
    <g transform="translate(145.36425 32.3424) scale(0.1728 -0.1728)">
     <defs>
      <path id="DejaVuSans-66" d="M 2375 4863 
L 2375 4384 
L 1825 4384 
Q 1516 4384 1395 4259 
Q 1275 4134 1275 3809 
L 1275 3500 
L 2222 3500 
L 2222 3053 
L 1275 3053 
L 1275 0 
L 697 0 
L 697 3053 
L 147 3053 
L 147 3500 
L 697 3500 
L 697 3744 
Q 697 4328 969 4595 
Q 1241 4863 1831 4863 
L 2375 4863 
z
" transform="scale(0.015625)"/>
      <path id="DejaVuSans-4d" d="M 628 4666 
L 1569 4666 
L 2759 1491 
L 3956 4666 
L 4897 4666 
L 4897 0 
L 4281 0 
L 4281 4097 
L 3078 897 
L 2444 897 
L 1241 4097 
L 1241 0 
L 628 0 
L 628 4666 
z
" transform="scale(0.015625)"/>
      <path id="DejaVuSans-45" d="M 628 4666 
L 3578 4666 
L 3578 4134 
L 1259 4134 
L 1259 2753 
L 3481 2753 
L 3481 2222 
L 1259 2222 
L 1259 531 
L 3634 531 
L 3634 0 
L 628 0 
L 628 4666 
z
" transform="scale(0.015625)"/>
      <path id="DejaVuSans-53" d="M 3425 4513 
L 3425 3897 
Q 3066 4069 2747 4153 
Q 2428 4238 2131 4238 
Q 1616 4238 1336 4038 
Q 1056 3838 1056 3469 
Q 1056 3159 1242 3001 
Q 1428 2844 1947 2747 
L 2328 2669 
Q 3034 2534 3370 2195 
Q 3706 1856 3706 1288 
Q 3706 609 3251 259 
Q 2797 -91 1919 -91 
Q 1588 -91 1214 -16 
Q 841 59 441 206 
L 441 856 
Q 825 641 1194 531 
Q 1563 422 1919 422 
Q 2459 422 2753 634 
Q 3047 847 3047 1241 
Q 3047 1584 2836 1778 
Q 2625 1972 2144 2069 
L 1759 2144 
Q 1053 2284 737 2584 
Q 422 2884 422 3419 
Q 422 4038 858 4394 
Q 1294 4750 2059 4750 
Q 2388 4750 2728 4690 
Q 3069 4631 3425 4513 
z
" transform="scale(0.015625)"/>
      <path id="DejaVuSans-73" d="M 2834 3397 
L 2834 2853 
Q 2591 2978 2328 3040 
Q 2066 3103 1784 3103 
Q 1356 3103 1142 2972 
Q 928 2841 928 2578 
Q 928 2378 1081 2264 
Q 1234 2150 1697 2047 
L 1894 2003 
Q 2506 1872 2764 1633 
Q 3022 1394 3022 966 
Q 3022 478 2636 193 
Q 2250 -91 1575 -91 
Q 1294 -91 989 -36 
Q 684 19 347 128 
L 347 722 
Q 666 556 975 473 
Q 1284 391 1588 391 
Q 1994 391 2212 530 
Q 2431 669 2431 922 
Q 2431 1156 2273 1281 
Q 2116 1406 1581 1522 
L 1381 1569 
Q 847 1681 609 1914 
Q 372 2147 372 2553 
Q 372 3047 722 3315 
Q 1072 3584 1716 3584 
Q 2034 3584 2315 3537 
Q 2597 3491 2834 3397 
z
" transform="scale(0.015625)"/>
      <path id="DejaVuSans-4b" d="M 628 4666 
L 1259 4666 
L 1259 2694 
L 3353 4666 
L 4166 4666 
L 1850 2491 
L 4331 0 
L 3500 0 
L 1259 2247 
L 1259 0 
L 628 0 
L 628 4666 
z
" transform="scale(0.015625)"/>
      <path id="DejaVuSans-47" d="M 3809 666 
L 3809 1919 
L 2778 1919 
L 2778 2438 
L 4434 2438 
L 4434 434 
Q 4069 175 3628 42 
Q 3188 -91 2688 -91 
Q 1594 -91 976 548 
Q 359 1188 359 2328 
Q 359 3472 976 4111 
Q 1594 4750 2688 4750 
Q 3144 4750 3555 4637 
Q 3966 4525 4313 4306 
L 4313 3634 
Q 3963 3931 3569 4081 
Q 3175 4231 2741 4231 
Q 1884 4231 1454 3753 
Q 1025 3275 1025 2328 
Q 1025 1384 1454 906 
Q 1884 428 2741 428 
Q 3075 428 3337 486 
Q 3600 544 3809 666 
z
" transform="scale(0.015625)"/>
      <path id="DejaVuSans-5f" d="M 3263 -1063 
L 3263 -1509 
L -63 -1509 
L -63 -1063 
L 3263 -1063 
z
" transform="scale(0.015625)"/>
     </defs>
     <use xlink:href="#DejaVuSans-4e"/>
     <use xlink:href="#DejaVuSans-65" x="74.804688"/>
     <use xlink:href="#DejaVuSans-66" x="136.328125"/>
     <use xlink:href="#DejaVuSans-4d" x="171.533203"/>
     <use xlink:href="#DejaVuSans-45" x="257.8125"/>
     <use xlink:href="#DejaVuSans-53" x="320.996094"/>
     <use xlink:href="#DejaVuSans-20" x="384.472656"/>
     <use xlink:href="#DejaVuSans-76" x="416.259766"/>
     <use xlink:href="#DejaVuSans-73" x="475.439453"/>
     <use xlink:href="#DejaVuSans-20" x="527.539062"/>
     <use xlink:href="#DejaVuSans-4b" x="559.326172"/>
     <use xlink:href="#DejaVuSans-45" x="624.902344"/>
     <use xlink:href="#DejaVuSans-47" x="688.085938"/>
     <use xlink:href="#DejaVuSans-47" x="765.576172"/>
     <use xlink:href="#DejaVuSans-5f" x="843.066406"/>
     <use xlink:href="#DejaVuSans-43" x="893.066406"/>
     <use xlink:href="#DejaVuSans-43" x="962.890625"/>
    </g>
   </g>
  </g>
 </g>
 <defs>
  <clipPath id="p5e3fe70599">
   <rect x="68.4924" y="38.3424" width="332.2002" height="223.0152"/>
  </clipPath>
 </defs>
</svg>
