<?xml version="1.0" encoding="utf-8" standalone="no"?>
<!DOCTYPE svg PUBLIC "-//W3C//DTD SVG 1.1//EN"
  "http://www.w3.org/Graphics/SVG/1.1/DTD/svg11.dtd">
<svg xmlns:xlink="http://www.w3.org/1999/xlink" width="460.8pt" height="345.6pt" viewBox="0 0 460.8 345.6" xmlns="http://www.w3.org/2000/svg" version="1.1">
 <metadata>
  <rdf:RDF xmlns:dc="http://purl.org/dc/elements/1.1/" xmlns:cc="http://creativecommons.org/ns#" xmlns:rdf="http://www.w3.org/1999/02/22-rdf-syntax-ns#">
   <cc:Work>
    <dc:type rdf:resource="http://purl.org/dc/dcmitype/StillImage"/>
    <dc:date>2023-08-03T13:22:58.578879</dc:date>
    <dc:format>image/svg+xml</dc:format>
    <dc:creator>
     <cc:Agent>
      <dc:title>Matplotlib v3.7.1, https://matplotlib.org/</dc:title>
     </cc:Agent>
    </dc:creator>
   </cc:Work>
  </rdf:RDF>
 </metadata>
 <defs>
  <style type="text/css">*{stroke-linejoin: round; stroke-linecap: butt}</style>
 </defs>
 <g id="figure_1">
  <g id="patch_1">
   <path d="M 0 345.6 
L 460.8 345.6 
L 460.8 0 
L 0 0 
z
" style="fill: #ffffff"/>
  </g>
  <g id="axes_1">
   <g id="patch_2">
    <path d="M 54.02 303.64 
L 450 303.64 
L 450 10.8 
L 54.02 10.8 
z
" style="fill: #ffffff"/>
   </g>
   <g id="PathCollection_1">
    <defs>
     <path id="C0_0_c2886aee7a" d="M 0 1.581139 
C 0.419323 1.581139 0.821528 1.41454 1.118034 1.118034 
C 1.41454 0.821528 1.581139 0.419323 1.581139 -0 
C 1.581139 -0.419323 1.41454 -0.821528 1.118034 -1.118034 
C 0.821528 -1.41454 0.419323 -1.581139 0 -1.581139 
C -0.419323 -1.581139 -0.821528 -1.41454 -1.118034 -1.118034 
C -1.41454 -0.821528 -1.581139 -0.419323 -1.581139 0 
C -1.581139 0.419323 -1.41454 0.821528 -1.118034 1.118034 
C -0.821528 1.41454 -0.419323 1.581139 0 1.581139 
z
"/>
    </defs>
    <g clip-path="url(#p71f324ba23)">
     <use xlink:href="#C0_0_c2886aee7a" x="274.277151" y="95.232975" style="fill: #ff7f0e"/>
    </g>
    <g clip-path="url(#p71f324ba23)">
     <use xlink:href="#C0_0_c2886aee7a" x="94.652638" y="238.728152" style="fill: #d62728"/>
    </g>
    <g clip-path="url(#p71f324ba23)">
     <use xlink:href="#C0_0_c2886aee7a" x="224.017951" y="134.220871" style="fill: #ff7f0e"/>
    </g>
    <g clip-path="url(#p71f324ba23)">
     <use xlink:href="#C0_0_c2886aee7a" x="223.888182" y="58.321526" style="fill: #ff7f0e"/>
    </g>
    <g clip-path="url(#p71f324ba23)">
     <use xlink:href="#C0_0_c2886aee7a" x="238.328444" y="80.907965" style="fill: #ff7f0e"/>
    </g>
    <g clip-path="url(#p71f324ba23)">
     <use xlink:href="#C0_0_c2886aee7a" x="239.675037" y="63.205845" style="fill: #d62728"/>
    </g>
    <g clip-path="url(#p71f324ba23)">
     <use xlink:href="#C0_0_c2886aee7a" x="284.942763" y="146.046863" style="fill: #ff7f0e"/>
    </g>
    <g clip-path="url(#p71f324ba23)">
     <use xlink:href="#C0_0_c2886aee7a" x="292.459283" y="48.581112" style="fill: #d62728"/>
    </g>
    <g clip-path="url(#p71f324ba23)">
     <use xlink:href="#C0_0_c2886aee7a" x="165.394544" y="65.493491" style="fill: #d62728"/>
    </g>
    <g clip-path="url(#p71f324ba23)">
     <use xlink:href="#C0_0_c2886aee7a" x="196.714783" y="173.094418" style="fill: #d62728"/>
    </g>
    <g clip-path="url(#p71f324ba23)">
     <use xlink:href="#C0_0_c2886aee7a" x="170.247959" y="58.547812" style="fill: #d62728"/>
    </g>
    <g clip-path="url(#p71f324ba23)">
     <use xlink:href="#C0_0_c2886aee7a" x="364.124722" y="108.445587" style="fill: #2ca02c"/>
    </g>
    <g clip-path="url(#p71f324ba23)">
     <use xlink:href="#C0_0_c2886aee7a" x="394.803002" y="148.106769" style="fill: #2ca02c"/>
    </g>
    <g clip-path="url(#p71f324ba23)">
     <use xlink:href="#C0_0_c2886aee7a" x="120.811868" y="68.484371" style="fill: #d62728"/>
    </g>
    <g clip-path="url(#p71f324ba23)">
     <use xlink:href="#C0_0_c2886aee7a" x="305.352307" y="163.925751" style="fill: #ff7f0e"/>
    </g>
    <g clip-path="url(#p71f324ba23)">
     <use xlink:href="#C0_0_c2886aee7a" x="93.540927" y="33.285442" style="fill: #d62728"/>
    </g>
    <g clip-path="url(#p71f324ba23)">
     <use xlink:href="#C0_0_c2886aee7a" x="219.514757" y="63.404799" style="fill: #ff7f0e"/>
    </g>
    <g clip-path="url(#p71f324ba23)">
     <use xlink:href="#C0_0_c2886aee7a" x="272.175523" y="141.943978" style="fill: #ff7f0e"/>
    </g>
    <g clip-path="url(#p71f324ba23)">
     <use xlink:href="#C0_0_c2886aee7a" x="252.882164" y="95.406505" style="fill: #ff7f0e"/>
    </g>
    <g clip-path="url(#p71f324ba23)">
     <use xlink:href="#C0_0_c2886aee7a" x="267.2745" y="84.179115" style="fill: #ff7f0e"/>
    </g>
    <g clip-path="url(#p71f324ba23)">
     <use xlink:href="#C0_0_c2886aee7a" x="407.083828" y="144.936884" style="fill: #ff7f0e"/>
    </g>
    <g clip-path="url(#p71f324ba23)">
     <use xlink:href="#C0_0_c2886aee7a" x="328.277842" y="199.59699" style="fill: #ff7f0e"/>
    </g>
    <g clip-path="url(#p71f324ba23)">
     <use xlink:href="#C0_0_c2886aee7a" x="272.560787" y="126.616945" style="fill: #ff7f0e"/>
    </g>
    <g clip-path="url(#p71f324ba23)">
     <use xlink:href="#C0_0_c2886aee7a" x="193.002347" y="79.033384" style="fill: #ff7f0e"/>
    </g>
    <g clip-path="url(#p71f324ba23)">
     <use xlink:href="#C0_0_c2886aee7a" x="316.751446" y="52.039294" style="fill: #ff7f0e"/>
    </g>
    <g clip-path="url(#p71f324ba23)">
     <use xlink:href="#C0_0_c2886aee7a" x="268.126811" y="68.495591" style="fill: #ff7f0e"/>
    </g>
    <g clip-path="url(#p71f324ba23)">
     <use xlink:href="#C0_0_c2886aee7a" x="302.014387" y="154.927539" style="fill: #2ca02c"/>
    </g>
    <g clip-path="url(#p71f324ba23)">
     <use xlink:href="#C0_0_c2886aee7a" x="350.021198" y="156.032514" style="fill: #2ca02c"/>
    </g>
    <g clip-path="url(#p71f324ba23)">
     <use xlink:href="#C0_0_c2886aee7a" x="72.019091" y="101.224214" style="fill: #d62728"/>
    </g>
    <g clip-path="url(#p71f324ba23)">
     <use xlink:href="#C0_0_c2886aee7a" x="344.330842" y="115.465985" style="fill: #ff7f0e"/>
    </g>
    <g clip-path="url(#p71f324ba23)">
     <use xlink:href="#C0_0_c2886aee7a" x="164.114247" y="68.414652" style="fill: #ff7f0e"/>
    </g>
    <g clip-path="url(#p71f324ba23)">
     <use xlink:href="#C0_0_c2886aee7a" x="296.432352" y="104.495182" style="fill: #ff7f0e"/>
    </g>
    <g clip-path="url(#p71f324ba23)">
     <use xlink:href="#C0_0_c2886aee7a" x="432.000909" y="109.289607" style="fill: #ff7f0e"/>
    </g>
    <g clip-path="url(#p71f324ba23)">
     <use xlink:href="#C0_0_c2886aee7a" x="188.535876" y="29.105422" style="fill: #d62728"/>
    </g>
    <g clip-path="url(#p71f324ba23)">
     <use xlink:href="#C0_0_c2886aee7a" x="151.5999" y="54.380159" style="fill: #d62728"/>
    </g>
    <g clip-path="url(#p71f324ba23)">
     <use xlink:href="#C0_0_c2886aee7a" x="319.875253" y="170.718387" style="fill: #ff7f0e"/>
    </g>
    <g clip-path="url(#p71f324ba23)">
     <use xlink:href="#C0_0_c2886aee7a" x="232.533118" y="37.607319" style="fill: #d62728"/>
    </g>
    <g clip-path="url(#p71f324ba23)">
     <use xlink:href="#C0_0_c2886aee7a" x="225.287061" y="76.025311" style="fill: #ff7f0e"/>
    </g>
    <g clip-path="url(#p71f324ba23)">
     <use xlink:href="#C0_0_c2886aee7a" x="270.074955" y="104.694622" style="fill: #ff7f0e"/>
    </g>
    <g clip-path="url(#p71f324ba23)">
     <use xlink:href="#C0_0_c2886aee7a" x="188.036289" y="74.454352" style="fill: #ff7f0e"/>
    </g>
    <g clip-path="url(#p71f324ba23)">
     <use xlink:href="#C0_0_c2886aee7a" x="167.775969" y="61.291391" style="fill: #ff7f0e"/>
    </g>
    <g clip-path="url(#p71f324ba23)">
     <use xlink:href="#C0_0_c2886aee7a" x="336.664603" y="114.377316" style="fill: #ff7f0e"/>
    </g>
    <g clip-path="url(#p71f324ba23)">
     <use xlink:href="#C0_0_c2886aee7a" x="310.515131" y="105.057143" style="fill: #ff7f0e"/>
    </g>
    <g clip-path="url(#p71f324ba23)">
     <use xlink:href="#C0_0_c2886aee7a" x="211.223284" y="47.360333" style="fill: #ff7f0e"/>
    </g>
    <g clip-path="url(#p71f324ba23)">
     <use xlink:href="#C0_0_c2886aee7a" x="283.365514" y="117.508868" style="fill: #ff7f0e"/>
    </g>
    <g clip-path="url(#p71f324ba23)">
     <use xlink:href="#C0_0_c2886aee7a" x="256.79556" y="114.487204" style="fill: #ff7f0e"/>
    </g>
    <g clip-path="url(#p71f324ba23)">
     <use xlink:href="#C0_0_c2886aee7a" x="333.438563" y="141.850542" style="fill: #ff7f0e"/>
    </g>
    <g clip-path="url(#p71f324ba23)">
     <use xlink:href="#C0_0_c2886aee7a" x="219.320467" y="82.367071" style="fill: #ff7f0e"/>
    </g>
    <g clip-path="url(#p71f324ba23)">
     <use xlink:href="#C0_0_c2886aee7a" x="227.673719" y="123.290188" style="fill: #ff7f0e"/>
    </g>
    <g clip-path="url(#p71f324ba23)">
     <use xlink:href="#C0_0_c2886aee7a" x="344.019606" y="147.604196" style="fill: #2ca02c"/>
    </g>
    <g clip-path="url(#p71f324ba23)">
     <use xlink:href="#C0_0_c2886aee7a" x="337.370568" y="144.988894" style="fill: #ff7f0e"/>
    </g>
    <g clip-path="url(#p71f324ba23)">
     <use xlink:href="#C0_0_c2886aee7a" x="318.284014" y="93.889021" style="fill: #ff7f0e"/>
    </g>
    <g clip-path="url(#p71f324ba23)">
     <use xlink:href="#C0_0_c2886aee7a" x="403.79454" y="94.639179" style="fill: #ff7f0e"/>
    </g>
    <g clip-path="url(#p71f324ba23)">
     <use xlink:href="#C0_0_c2886aee7a" x="215.077717" y="190.67327" style="fill: #ff7f0e"/>
    </g>
    <g clip-path="url(#p71f324ba23)">
     <use xlink:href="#C0_0_c2886aee7a" x="184.040849" y="124.05679" style="fill: #ff7f0e"/>
    </g>
    <g clip-path="url(#p71f324ba23)">
     <use xlink:href="#C0_0_c2886aee7a" x="428.550423" y="290.329091" style="fill: #2ca02c"/>
    </g>
    <g clip-path="url(#p71f324ba23)">
     <use xlink:href="#C0_0_c2886aee7a" x="177.976462" y="84.439756" style="fill: #ff7f0e"/>
    </g>
    <g clip-path="url(#p71f324ba23)">
     <use xlink:href="#C0_0_c2886aee7a" x="212.688704" y="54.129855" style="fill: #ff7f0e"/>
    </g>
    <g clip-path="url(#p71f324ba23)">
     <use xlink:href="#C0_0_c2886aee7a" x="348.632644" y="146.726418" style="fill: #ff7f0e"/>
    </g>
    <g clip-path="url(#p71f324ba23)">
     <use xlink:href="#C0_0_c2886aee7a" x="309.839961" y="100.824329" style="fill: #ff7f0e"/>
    </g>
    <g clip-path="url(#p71f324ba23)">
     <use xlink:href="#C0_0_c2886aee7a" x="343.889295" y="60.163266" style="fill: #d62728"/>
    </g>
    <g clip-path="url(#p71f324ba23)">
     <use xlink:href="#C0_0_c2886aee7a" x="359.484195" y="123.105174" style="fill: #ff7f0e"/>
    </g>
    <g clip-path="url(#p71f324ba23)">
     <use xlink:href="#C0_0_c2886aee7a" x="143.971526" y="35.602173" style="fill: #d62728"/>
    </g>
    <g clip-path="url(#p71f324ba23)">
     <use xlink:href="#C0_0_c2886aee7a" x="217.037526" y="80.935333" style="fill: #ff7f0e"/>
    </g>
    <g clip-path="url(#p71f324ba23)">
     <use xlink:href="#C0_0_c2886aee7a" x="298.304339" y="206.041296" style="fill: #2ca02c"/>
    </g>
    <g clip-path="url(#p71f324ba23)">
     <use xlink:href="#C0_0_c2886aee7a" x="138.375278" y="93.278028" style="fill: #ff7f0e"/>
    </g>
    <g clip-path="url(#p71f324ba23)">
     <use xlink:href="#C0_0_c2886aee7a" x="161.695062" y="77.561355" style="fill: #ff7f0e"/>
    </g>
    <g clip-path="url(#p71f324ba23)">
     <use xlink:href="#C0_0_c2886aee7a" x="315.820222" y="88.651821" style="fill: #ff7f0e"/>
    </g>
    <g clip-path="url(#p71f324ba23)">
     <use xlink:href="#C0_0_c2886aee7a" x="332.694593" y="112.966467" style="fill: #ff7f0e"/>
    </g>
    <g clip-path="url(#p71f324ba23)">
     <use xlink:href="#C0_0_c2886aee7a" x="291.894206" y="105.47924" style="fill: #ff7f0e"/>
    </g>
    <g clip-path="url(#p71f324ba23)">
     <use xlink:href="#C0_0_c2886aee7a" x="76.711478" y="37.142831" style="fill: #d62728"/>
    </g>
    <g clip-path="url(#p71f324ba23)">
     <use xlink:href="#C0_0_c2886aee7a" x="260.507832" y="76.063428" style="fill: #ff7f0e"/>
    </g>
    <g clip-path="url(#p71f324ba23)">
     <use xlink:href="#C0_0_c2886aee7a" x="200.620779" y="75.874082" style="fill: #ff7f0e"/>
    </g>
    <g clip-path="url(#p71f324ba23)">
     <use xlink:href="#C0_0_c2886aee7a" x="336.47612" y="133.956418" style="fill: #2ca02c"/>
    </g>
    <g clip-path="url(#p71f324ba23)">
     <use xlink:href="#C0_0_c2886aee7a" x="389.384985" y="108.274675" style="fill: #ff7f0e"/>
    </g>
    <g clip-path="url(#p71f324ba23)">
     <use xlink:href="#C0_0_c2886aee7a" x="174.145643" y="92.813827" style="fill: #ff7f0e"/>
    </g>
    <g clip-path="url(#p71f324ba23)">
     <use xlink:href="#C0_0_c2886aee7a" x="257.535108" y="61.645299" style="fill: #ff7f0e"/>
    </g>
    <g clip-path="url(#p71f324ba23)">
     <use xlink:href="#C0_0_c2886aee7a" x="216.611896" y="86.5281" style="fill: #ff7f0e"/>
    </g>
    <g clip-path="url(#p71f324ba23)">
     <use xlink:href="#C0_0_c2886aee7a" x="305.978306" y="163.203499" style="fill: #ff7f0e"/>
    </g>
    <g clip-path="url(#p71f324ba23)">
     <use xlink:href="#C0_0_c2886aee7a" x="296.357521" y="95.89694" style="fill: #ff7f0e"/>
    </g>
    <g clip-path="url(#p71f324ba23)">
     <use xlink:href="#C0_0_c2886aee7a" x="354.883907" y="65.972454" style="fill: #d62728"/>
    </g>
    <g clip-path="url(#p71f324ba23)">
     <use xlink:href="#C0_0_c2886aee7a" x="221.458465" y="92.212804" style="fill: #ff7f0e"/>
    </g>
    <g clip-path="url(#p71f324ba23)">
     <use xlink:href="#C0_0_c2886aee7a" x="352.658952" y="107.022925" style="fill: #2ca02c"/>
    </g>
    <g clip-path="url(#p71f324ba23)">
     <use xlink:href="#C0_0_c2886aee7a" x="256.440331" y="136.432382" style="fill: #ff7f0e"/>
    </g>
    <g clip-path="url(#p71f324ba23)">
     <use xlink:href="#C0_0_c2886aee7a" x="298.907754" y="182.750381" style="fill: #ff7f0e"/>
    </g>
    <g clip-path="url(#p71f324ba23)">
     <use xlink:href="#C0_0_c2886aee7a" x="234.133432" y="155.369902" style="fill: #ff7f0e"/>
    </g>
    <g clip-path="url(#p71f324ba23)">
     <use xlink:href="#C0_0_c2886aee7a" x="375.392141" y="77.98297" style="fill: #ff7f0e"/>
    </g>
    <g clip-path="url(#p71f324ba23)">
     <use xlink:href="#C0_0_c2886aee7a" x="276.952476" y="192.804061" style="fill: #ff7f0e"/>
    </g>
    <g clip-path="url(#p71f324ba23)">
     <use xlink:href="#C0_0_c2886aee7a" x="259.692133" y="74.491413" style="fill: #ff7f0e"/>
    </g>
    <g clip-path="url(#p71f324ba23)">
     <use xlink:href="#C0_0_c2886aee7a" x="244.200578" y="75.462571" style="fill: #ff7f0e"/>
    </g>
    <g clip-path="url(#p71f324ba23)">
     <use xlink:href="#C0_0_c2886aee7a" x="184.451308" y="51.40049" style="fill: #d62728"/>
    </g>
    <g clip-path="url(#p71f324ba23)">
     <use xlink:href="#C0_0_c2886aee7a" x="161.225382" y="120.174397" style="fill: #ff7f0e"/>
    </g>
    <g clip-path="url(#p71f324ba23)">
     <use xlink:href="#C0_0_c2886aee7a" x="233.1688" y="74.390331" style="fill: #ff7f0e"/>
    </g>
    <g clip-path="url(#p71f324ba23)">
     <use xlink:href="#C0_0_c2886aee7a" x="346.216992" y="59.118358" style="fill: #ff7f0e"/>
    </g>
    <g clip-path="url(#p71f324ba23)">
     <use xlink:href="#C0_0_c2886aee7a" x="329.8924" y="108.006786" style="fill: #ff7f0e"/>
    </g>
    <g clip-path="url(#p71f324ba23)">
     <use xlink:href="#C0_0_c2886aee7a" x="211.073862" y="51.514073" style="fill: #d62728"/>
    </g>
    <g clip-path="url(#p71f324ba23)">
     <use xlink:href="#C0_0_c2886aee7a" x="238.865504" y="59.524772" style="fill: #ff7f0e"/>
    </g>
    <g clip-path="url(#p71f324ba23)">
     <use xlink:href="#C0_0_c2886aee7a" x="91.514853" y="29.648642" style="fill: #d62728"/>
    </g>
    <g clip-path="url(#p71f324ba23)">
     <use xlink:href="#C0_0_c2886aee7a" x="75.274551" y="139.991992" style="fill: #d62728"/>
    </g>
    <g clip-path="url(#p71f324ba23)">
     <use xlink:href="#C0_0_c2886aee7a" x="324.517365" y="134.484817" style="fill: #ff7f0e"/>
    </g>
    <g clip-path="url(#p71f324ba23)">
     <use xlink:href="#C0_0_c2886aee7a" x="312.592344" y="129.476919" style="fill: #ff7f0e"/>
    </g>
    <g clip-path="url(#p71f324ba23)">
     <use xlink:href="#C0_0_c2886aee7a" x="218.031983" y="55.596231" style="fill: #ff7f0e"/>
    </g>
    <g clip-path="url(#p71f324ba23)">
     <use xlink:href="#C0_0_c2886aee7a" x="152.698795" y="204.897973" style="fill: #ff7f0e"/>
    </g>
    <g clip-path="url(#p71f324ba23)">
     <use xlink:href="#C0_0_c2886aee7a" x="324.238517" y="171.148493" style="fill: #2ca02c"/>
    </g>
    <g clip-path="url(#p71f324ba23)">
     <use xlink:href="#C0_0_c2886aee7a" x="138.397118" y="58.258256" style="fill: #d62728"/>
    </g>
    <g clip-path="url(#p71f324ba23)">
     <use xlink:href="#C0_0_c2886aee7a" x="250.73301" y="103.571819" style="fill: #ff7f0e"/>
    </g>
    <g clip-path="url(#p71f324ba23)">
     <use xlink:href="#C0_0_c2886aee7a" x="347.403261" y="111.221096" style="fill: #ff7f0e"/>
    </g>
    <g clip-path="url(#p71f324ba23)">
     <use xlink:href="#C0_0_c2886aee7a" x="251.122061" y="110.925062" style="fill: #ff7f0e"/>
    </g>
    <g clip-path="url(#p71f324ba23)">
     <use xlink:href="#C0_0_c2886aee7a" x="267.098122" y="155.829955" style="fill: #ff7f0e"/>
    </g>
    <g clip-path="url(#p71f324ba23)">
     <use xlink:href="#C0_0_c2886aee7a" x="236.557218" y="75.409884" style="fill: #ff7f0e"/>
    </g>
    <g clip-path="url(#p71f324ba23)">
     <use xlink:href="#C0_0_c2886aee7a" x="343.909777" y="239.1138" style="fill: #ff7f0e"/>
    </g>
    <g clip-path="url(#p71f324ba23)">
     <use xlink:href="#C0_0_c2886aee7a" x="266.585881" y="32.148705" style="fill: #d62728"/>
    </g>
    <g clip-path="url(#p71f324ba23)">
     <use xlink:href="#C0_0_c2886aee7a" x="300.990244" y="133.860096" style="fill: #ff7f0e"/>
    </g>
    <g clip-path="url(#p71f324ba23)">
     <use xlink:href="#C0_0_c2886aee7a" x="279.297078" y="100.44727" style="fill: #ff7f0e"/>
    </g>
    <g clip-path="url(#p71f324ba23)">
     <use xlink:href="#C0_0_c2886aee7a" x="246.931355" y="91.07879" style="fill: #ff7f0e"/>
    </g>
    <g clip-path="url(#p71f324ba23)">
     <use xlink:href="#C0_0_c2886aee7a" x="225.83647" y="120.733339" style="fill: #ff7f0e"/>
    </g>
    <g clip-path="url(#p71f324ba23)">
     <use xlink:href="#C0_0_c2886aee7a" x="382.463871" y="120.230877" style="fill: #ff7f0e"/>
    </g>
    <g clip-path="url(#p71f324ba23)">
     <use xlink:href="#C0_0_c2886aee7a" x="269.85172" y="97.355317" style="fill: #ff7f0e"/>
    </g>
    <g clip-path="url(#p71f324ba23)">
     <use xlink:href="#C0_0_c2886aee7a" x="317.252418" y="59.136276" style="fill: #ff7f0e"/>
    </g>
    <g clip-path="url(#p71f324ba23)">
     <use xlink:href="#C0_0_c2886aee7a" x="424.221629" y="154.542404" style="fill: #2ca02c"/>
    </g>
    <g clip-path="url(#p71f324ba23)">
     <use xlink:href="#C0_0_c2886aee7a" x="297.475181" y="149.466481" style="fill: #ff7f0e"/>
    </g>
    <g clip-path="url(#p71f324ba23)">
     <use xlink:href="#C0_0_c2886aee7a" x="344.762479" y="149.397325" style="fill: #ff7f0e"/>
    </g>
    <g clip-path="url(#p71f324ba23)">
     <use xlink:href="#C0_0_c2886aee7a" x="242.811328" y="154.4581" style="fill: #ff7f0e"/>
    </g>
    <g clip-path="url(#p71f324ba23)">
     <use xlink:href="#C0_0_c2886aee7a" x="236.978239" y="88.126933" style="fill: #ff7f0e"/>
    </g>
    <g clip-path="url(#p71f324ba23)">
     <use xlink:href="#C0_0_c2886aee7a" x="305.012846" y="144.527987" style="fill: #ff7f0e"/>
    </g>
    <g clip-path="url(#p71f324ba23)">
     <use xlink:href="#C0_0_c2886aee7a" x="313.805937" y="166.815559" style="fill: #ff7f0e"/>
    </g>
    <g clip-path="url(#p71f324ba23)">
     <use xlink:href="#C0_0_c2886aee7a" x="277.485053" y="88.73976" style="fill: #ff7f0e"/>
    </g>
    <g clip-path="url(#p71f324ba23)">
     <use xlink:href="#C0_0_c2886aee7a" x="229.624135" y="98.473311" style="fill: #ff7f0e"/>
    </g>
    <g clip-path="url(#p71f324ba23)">
     <use xlink:href="#C0_0_c2886aee7a" x="167.47476" y="190.46054" style="fill: #ff7f0e"/>
    </g>
    <g clip-path="url(#p71f324ba23)">
     <use xlink:href="#C0_0_c2886aee7a" x="363.588677" y="144.983511" style="fill: #ff7f0e"/>
    </g>
    <g clip-path="url(#p71f324ba23)">
     <use xlink:href="#C0_0_c2886aee7a" x="140.454102" y="52.918981" style="fill: #d62728"/>
    </g>
    <g clip-path="url(#p71f324ba23)">
     <use xlink:href="#C0_0_c2886aee7a" x="170.507625" y="86.875516" style="fill: #ff7f0e"/>
    </g>
    <g clip-path="url(#p71f324ba23)">
     <use xlink:href="#C0_0_c2886aee7a" x="321.832667" y="175.558242" style="fill: #ff7f0e"/>
    </g>
    <g clip-path="url(#p71f324ba23)">
     <use xlink:href="#C0_0_c2886aee7a" x="265.832788" y="44.415637" style="fill: #d62728"/>
    </g>
    <g clip-path="url(#p71f324ba23)">
     <use xlink:href="#C0_0_c2886aee7a" x="210.170817" y="55.277583" style="fill: #d62728"/>
    </g>
    <g clip-path="url(#p71f324ba23)">
     <use xlink:href="#C0_0_c2886aee7a" x="241.927614" y="206.994024" style="fill: #ff7f0e"/>
    </g>
    <g clip-path="url(#p71f324ba23)">
     <use xlink:href="#C0_0_c2886aee7a" x="270.366526" y="59.571643" style="fill: #d62728"/>
    </g>
    <g clip-path="url(#p71f324ba23)">
     <use xlink:href="#C0_0_c2886aee7a" x="378.741767" y="116.396639" style="fill: #ff7f0e"/>
    </g>
    <g clip-path="url(#p71f324ba23)">
     <use xlink:href="#C0_0_c2886aee7a" x="369.403546" y="110.018798" style="fill: #ff7f0e"/>
    </g>
    <g clip-path="url(#p71f324ba23)">
     <use xlink:href="#C0_0_c2886aee7a" x="270.667551" y="96.633763" style="fill: #ff7f0e"/>
    </g>
    <g clip-path="url(#p71f324ba23)">
     <use xlink:href="#C0_0_c2886aee7a" x="344.336621" y="90.29943" style="fill: #ff7f0e"/>
    </g>
    <g clip-path="url(#p71f324ba23)">
     <use xlink:href="#C0_0_c2886aee7a" x="186.73722" y="44.559736" style="fill: #ff7f0e"/>
    </g>
    <g clip-path="url(#p71f324ba23)">
     <use xlink:href="#C0_0_c2886aee7a" x="313.130536" y="148.312435" style="fill: #ff7f0e"/>
    </g>
    <g clip-path="url(#p71f324ba23)">
     <use xlink:href="#C0_0_c2886aee7a" x="272.617435" y="99.675462" style="fill: #ff7f0e"/>
    </g>
    <g clip-path="url(#p71f324ba23)">
     <use xlink:href="#C0_0_c2886aee7a" x="300.747909" y="166.262543" style="fill: #ff7f0e"/>
    </g>
    <g clip-path="url(#p71f324ba23)">
     <use xlink:href="#C0_0_c2886aee7a" x="242.43936" y="110.348083" style="fill: #ff7f0e"/>
    </g>
    <g clip-path="url(#p71f324ba23)">
     <use xlink:href="#C0_0_c2886aee7a" x="223.696736" y="76.763262" style="fill: #ff7f0e"/>
    </g>
    <g clip-path="url(#p71f324ba23)">
     <use xlink:href="#C0_0_c2886aee7a" x="244.32707" y="73.317338" style="fill: #ff7f0e"/>
    </g>
    <g clip-path="url(#p71f324ba23)">
     <use xlink:href="#C0_0_c2886aee7a" x="299.923678" y="81.239977" style="fill: #ff7f0e"/>
    </g>
    <g clip-path="url(#p71f324ba23)">
     <use xlink:href="#C0_0_c2886aee7a" x="229.405371" y="55.44576" style="fill: #d62728"/>
    </g>
    <g clip-path="url(#p71f324ba23)">
     <use xlink:href="#C0_0_c2886aee7a" x="272.811973" y="91.136423" style="fill: #ff7f0e"/>
    </g>
    <g clip-path="url(#p71f324ba23)">
     <use xlink:href="#C0_0_c2886aee7a" x="312.549692" y="79.86591" style="fill: #ff7f0e"/>
    </g>
    <g clip-path="url(#p71f324ba23)">
     <use xlink:href="#C0_0_c2886aee7a" x="171.706981" y="90.83186" style="fill: #ff7f0e"/>
    </g>
    <g clip-path="url(#p71f324ba23)">
     <use xlink:href="#C0_0_c2886aee7a" x="170.287619" y="127.076593" style="fill: #ff7f0e"/>
    </g>
    <g clip-path="url(#p71f324ba23)">
     <use xlink:href="#C0_0_c2886aee7a" x="324.995686" y="62.804709" style="fill: #ff7f0e"/>
    </g>
    <g clip-path="url(#p71f324ba23)">
     <use xlink:href="#C0_0_c2886aee7a" x="200.51667" y="24.110909" style="fill: #d62728"/>
    </g>
    <g clip-path="url(#p71f324ba23)">
     <use xlink:href="#C0_0_c2886aee7a" x="304.39735" y="87.343074" style="fill: #ff7f0e"/>
    </g>
    <g clip-path="url(#p71f324ba23)">
     <use xlink:href="#C0_0_c2886aee7a" x="146.922714" y="75.03625" style="fill: #d62728"/>
    </g>
    <g clip-path="url(#p71f324ba23)">
     <use xlink:href="#C0_0_c2886aee7a" x="374.813627" y="132.001667" style="fill: #ff7f0e"/>
    </g>
    <g clip-path="url(#p71f324ba23)">
     <use xlink:href="#C0_0_c2886aee7a" x="178.380593" y="138.986706" style="fill: #ff7f0e"/>
    </g>
    <g clip-path="url(#p71f324ba23)">
     <use xlink:href="#C0_0_c2886aee7a" x="212.605101" y="78.816891" style="fill: #ff7f0e"/>
    </g>
    <g clip-path="url(#p71f324ba23)">
     <use xlink:href="#C0_0_c2886aee7a" x="331.655013" y="100.695311" style="fill: #ff7f0e"/>
    </g>
    <g clip-path="url(#p71f324ba23)">
     <use xlink:href="#C0_0_c2886aee7a" x="283.252506" y="73.414086" style="fill: #ff7f0e"/>
    </g>
    <g clip-path="url(#p71f324ba23)">
     <use xlink:href="#C0_0_c2886aee7a" x="292.272893" y="95.105472" style="fill: #ff7f0e"/>
    </g>
    <g clip-path="url(#p71f324ba23)">
     <use xlink:href="#C0_0_c2886aee7a" x="398.867832" y="131.231813" style="fill: #ff7f0e"/>
    </g>
    <g clip-path="url(#p71f324ba23)">
     <use xlink:href="#C0_0_c2886aee7a" x="258.82217" y="177.224479" style="fill: #ff7f0e"/>
    </g>
    <g clip-path="url(#p71f324ba23)">
     <use xlink:href="#C0_0_c2886aee7a" x="138.045296" y="81.701174" style="fill: #ff7f0e"/>
    </g>
    <g clip-path="url(#p71f324ba23)">
     <use xlink:href="#C0_0_c2886aee7a" x="352.761676" y="272.814464" style="fill: #2ca02c"/>
    </g>
    <g clip-path="url(#p71f324ba23)">
     <use xlink:href="#C0_0_c2886aee7a" x="335.323081" y="95.884789" style="fill: #ff7f0e"/>
    </g>
    <g clip-path="url(#p71f324ba23)">
     <use xlink:href="#C0_0_c2886aee7a" x="219.991491" y="63.961861" style="fill: #d62728"/>
    </g>
   </g>
   <g id="PathCollection_2"/>
   <g id="PathCollection_3"/>
   <g id="PathCollection_4"/>
   <g id="matplotlib.axis_1">
    <g id="xtick_1">
     <g id="line2d_1">
      <defs>
       <path id="m3385fdae1e" d="M 0 0 
L 0 3.5 
" style="stroke: #000000; stroke-width: 0.8"/>
      </defs>
      <g>
       <use xlink:href="#m3385fdae1e" x="69.505962" y="303.64" style="stroke: #000000; stroke-width: 0.8"/>
      </g>
     </g>
     <g id="text_1">
      <!-- 1.7 -->
      <g transform="translate(61.5544 318.238437) scale(0.1 -0.1)">
       <defs>
        <path id="DejaVuSans-31" d="M 794 531 
L 1825 531 
L 1825 4091 
L 703 3866 
L 703 4441 
L 1819 4666 
L 2450 4666 
L 2450 531 
L 3481 531 
L 3481 0 
L 794 0 
L 794 531 
z
" transform="scale(0.015625)"/>
        <path id="DejaVuSans-2e" d="M 684 794 
L 1344 794 
L 1344 0 
L 684 0 
L 684 794 
z
" transform="scale(0.015625)"/>
        <path id="DejaVuSans-37" d="M 525 4666 
L 3525 4666 
L 3525 4397 
L 1831 0 
L 1172 0 
L 2766 4134 
L 525 4134 
L 525 4666 
z
" transform="scale(0.015625)"/>
       </defs>
       <use xlink:href="#DejaVuSans-31"/>
       <use xlink:href="#DejaVuSans-2e" x="63.623047"/>
       <use xlink:href="#DejaVuSans-37" x="95.410156"/>
      </g>
     </g>
    </g>
    <g id="xtick_2">
     <g id="line2d_2">
      <g>
       <use xlink:href="#m3385fdae1e" x="124.198546" y="303.64" style="stroke: #000000; stroke-width: 0.8"/>
      </g>
     </g>
     <g id="text_2">
      <!-- 1.8 -->
      <g transform="translate(116.246983 318.238437) scale(0.1 -0.1)">
       <defs>
        <path id="DejaVuSans-38" d="M 2034 2216 
Q 1584 2216 1326 1975 
Q 1069 1734 1069 1313 
Q 1069 891 1326 650 
Q 1584 409 2034 409 
Q 2484 409 2743 651 
Q 3003 894 3003 1313 
Q 3003 1734 2745 1975 
Q 2488 2216 2034 2216 
z
M 1403 2484 
Q 997 2584 770 2862 
Q 544 3141 544 3541 
Q 544 4100 942 4425 
Q 1341 4750 2034 4750 
Q 2731 4750 3128 4425 
Q 3525 4100 3525 3541 
Q 3525 3141 3298 2862 
Q 3072 2584 2669 2484 
Q 3125 2378 3379 2068 
Q 3634 1759 3634 1313 
Q 3634 634 3220 271 
Q 2806 -91 2034 -91 
Q 1263 -91 848 271 
Q 434 634 434 1313 
Q 434 1759 690 2068 
Q 947 2378 1403 2484 
z
M 1172 3481 
Q 1172 3119 1398 2916 
Q 1625 2713 2034 2713 
Q 2441 2713 2670 2916 
Q 2900 3119 2900 3481 
Q 2900 3844 2670 4047 
Q 2441 4250 2034 4250 
Q 1625 4250 1398 4047 
Q 1172 3844 1172 3481 
z
" transform="scale(0.015625)"/>
       </defs>
       <use xlink:href="#DejaVuSans-31"/>
       <use xlink:href="#DejaVuSans-2e" x="63.623047"/>
       <use xlink:href="#DejaVuSans-38" x="95.410156"/>
      </g>
     </g>
    </g>
    <g id="xtick_3">
     <g id="line2d_3">
      <g>
       <use xlink:href="#m3385fdae1e" x="178.89113" y="303.64" style="stroke: #000000; stroke-width: 0.8"/>
      </g>
     </g>
     <g id="text_3">
      <!-- 1.9 -->
      <g transform="translate(170.939567 318.238437) scale(0.1 -0.1)">
       <defs>
        <path id="DejaVuSans-39" d="M 703 97 
L 703 672 
Q 941 559 1184 500 
Q 1428 441 1663 441 
Q 2288 441 2617 861 
Q 2947 1281 2994 2138 
Q 2813 1869 2534 1725 
Q 2256 1581 1919 1581 
Q 1219 1581 811 2004 
Q 403 2428 403 3163 
Q 403 3881 828 4315 
Q 1253 4750 1959 4750 
Q 2769 4750 3195 4129 
Q 3622 3509 3622 2328 
Q 3622 1225 3098 567 
Q 2575 -91 1691 -91 
Q 1453 -91 1209 -44 
Q 966 3 703 97 
z
M 1959 2075 
Q 2384 2075 2632 2365 
Q 2881 2656 2881 3163 
Q 2881 3666 2632 3958 
Q 2384 4250 1959 4250 
Q 1534 4250 1286 3958 
Q 1038 3666 1038 3163 
Q 1038 2656 1286 2365 
Q 1534 2075 1959 2075 
z
" transform="scale(0.015625)"/>
       </defs>
       <use xlink:href="#DejaVuSans-31"/>
       <use xlink:href="#DejaVuSans-2e" x="63.623047"/>
       <use xlink:href="#DejaVuSans-39" x="95.410156"/>
      </g>
     </g>
    </g>
    <g id="xtick_4">
     <g id="line2d_4">
      <g>
       <use xlink:href="#m3385fdae1e" x="233.583714" y="303.64" style="stroke: #000000; stroke-width: 0.8"/>
      </g>
     </g>
     <g id="text_4">
      <!-- 2.0 -->
      <g transform="translate(225.632151 318.238437) scale(0.1 -0.1)">
       <defs>
        <path id="DejaVuSans-32" d="M 1228 531 
L 3431 531 
L 3431 0 
L 469 0 
L 469 531 
Q 828 903 1448 1529 
Q 2069 2156 2228 2338 
Q 2531 2678 2651 2914 
Q 2772 3150 2772 3378 
Q 2772 3750 2511 3984 
Q 2250 4219 1831 4219 
Q 1534 4219 1204 4116 
Q 875 4013 500 3803 
L 500 4441 
Q 881 4594 1212 4672 
Q 1544 4750 1819 4750 
Q 2544 4750 2975 4387 
Q 3406 4025 3406 3419 
Q 3406 3131 3298 2873 
Q 3191 2616 2906 2266 
Q 2828 2175 2409 1742 
Q 1991 1309 1228 531 
z
" transform="scale(0.015625)"/>
        <path id="DejaVuSans-30" d="M 2034 4250 
Q 1547 4250 1301 3770 
Q 1056 3291 1056 2328 
Q 1056 1369 1301 889 
Q 1547 409 2034 409 
Q 2525 409 2770 889 
Q 3016 1369 3016 2328 
Q 3016 3291 2770 3770 
Q 2525 4250 2034 4250 
z
M 2034 4750 
Q 2819 4750 3233 4129 
Q 3647 3509 3647 2328 
Q 3647 1150 3233 529 
Q 2819 -91 2034 -91 
Q 1250 -91 836 529 
Q 422 1150 422 2328 
Q 422 3509 836 4129 
Q 1250 4750 2034 4750 
z
" transform="scale(0.015625)"/>
       </defs>
       <use xlink:href="#DejaVuSans-32"/>
       <use xlink:href="#DejaVuSans-2e" x="63.623047"/>
       <use xlink:href="#DejaVuSans-30" x="95.410156"/>
      </g>
     </g>
    </g>
    <g id="xtick_5">
     <g id="line2d_5">
      <g>
       <use xlink:href="#m3385fdae1e" x="288.276297" y="303.64" style="stroke: #000000; stroke-width: 0.8"/>
      </g>
     </g>
     <g id="text_5">
      <!-- 2.1 -->
      <g transform="translate(280.324735 318.238437) scale(0.1 -0.1)">
       <use xlink:href="#DejaVuSans-32"/>
       <use xlink:href="#DejaVuSans-2e" x="63.623047"/>
       <use xlink:href="#DejaVuSans-31" x="95.410156"/>
      </g>
     </g>
    </g>
    <g id="xtick_6">
     <g id="line2d_6">
      <g>
       <use xlink:href="#m3385fdae1e" x="342.968881" y="303.64" style="stroke: #000000; stroke-width: 0.8"/>
      </g>
     </g>
     <g id="text_6">
      <!-- 2.2 -->
      <g transform="translate(335.017319 318.238437) scale(0.1 -0.1)">
       <use xlink:href="#DejaVuSans-32"/>
       <use xlink:href="#DejaVuSans-2e" x="63.623047"/>
       <use xlink:href="#DejaVuSans-32" x="95.410156"/>
      </g>
     </g>
    </g>
    <g id="xtick_7">
     <g id="line2d_7">
      <g>
       <use xlink:href="#m3385fdae1e" x="397.661465" y="303.64" style="stroke: #000000; stroke-width: 0.8"/>
      </g>
     </g>
     <g id="text_7">
      <!-- 2.3 -->
      <g transform="translate(389.709903 318.238437) scale(0.1 -0.1)">
       <defs>
        <path id="DejaVuSans-33" d="M 2597 2516 
Q 3050 2419 3304 2112 
Q 3559 1806 3559 1356 
Q 3559 666 3084 287 
Q 2609 -91 1734 -91 
Q 1441 -91 1130 -33 
Q 819 25 488 141 
L 488 750 
Q 750 597 1062 519 
Q 1375 441 1716 441 
Q 2309 441 2620 675 
Q 2931 909 2931 1356 
Q 2931 1769 2642 2001 
Q 2353 2234 1838 2234 
L 1294 2234 
L 1294 2753 
L 1863 2753 
Q 2328 2753 2575 2939 
Q 2822 3125 2822 3475 
Q 2822 3834 2567 4026 
Q 2313 4219 1838 4219 
Q 1578 4219 1281 4162 
Q 984 4106 628 3988 
L 628 4550 
Q 988 4650 1302 4700 
Q 1616 4750 1894 4750 
Q 2613 4750 3031 4423 
Q 3450 4097 3450 3541 
Q 3450 3153 3228 2886 
Q 3006 2619 2597 2516 
z
" transform="scale(0.015625)"/>
       </defs>
       <use xlink:href="#DejaVuSans-32"/>
       <use xlink:href="#DejaVuSans-2e" x="63.623047"/>
       <use xlink:href="#DejaVuSans-33" x="95.410156"/>
      </g>
     </g>
    </g>
    <g id="text_8">
     <!-- NefNPC -->
     <g transform="translate(233.185781 331.916562) scale(0.1 -0.1)">
      <defs>
       <path id="DejaVuSans-4e" d="M 628 4666 
L 1478 4666 
L 3547 763 
L 3547 4666 
L 4159 4666 
L 4159 0 
L 3309 0 
L 1241 3903 
L 1241 0 
L 628 0 
L 628 4666 
z
" transform="scale(0.015625)"/>
       <path id="DejaVuSans-65" d="M 3597 1894 
L 3597 1613 
L 953 1613 
Q 991 1019 1311 708 
Q 1631 397 2203 397 
Q 2534 397 2845 478 
Q 3156 559 3463 722 
L 3463 178 
Q 3153 47 2828 -22 
Q 2503 -91 2169 -91 
Q 1331 -91 842 396 
Q 353 884 353 1716 
Q 353 2575 817 3079 
Q 1281 3584 2069 3584 
Q 2775 3584 3186 3129 
Q 3597 2675 3597 1894 
z
M 3022 2063 
Q 3016 2534 2758 2815 
Q 2500 3097 2075 3097 
Q 1594 3097 1305 2825 
Q 1016 2553 972 2059 
L 3022 2063 
z
" transform="scale(0.015625)"/>
       <path id="DejaVuSans-66" d="M 2375 4863 
L 2375 4384 
L 1825 4384 
Q 1516 4384 1395 4259 
Q 1275 4134 1275 3809 
L 1275 3500 
L 2222 3500 
L 2222 3053 
L 1275 3053 
L 1275 0 
L 697 0 
L 697 3053 
L 147 3053 
L 147 3500 
L 697 3500 
L 697 3744 
Q 697 4328 969 4595 
Q 1241 4863 1831 4863 
L 2375 4863 
z
" transform="scale(0.015625)"/>
       <path id="DejaVuSans-50" d="M 1259 4147 
L 1259 2394 
L 2053 2394 
Q 2494 2394 2734 2622 
Q 2975 2850 2975 3272 
Q 2975 3691 2734 3919 
Q 2494 4147 2053 4147 
L 1259 4147 
z
M 628 4666 
L 2053 4666 
Q 2838 4666 3239 4311 
Q 3641 3956 3641 3272 
Q 3641 2581 3239 2228 
Q 2838 1875 2053 1875 
L 1259 1875 
L 1259 0 
L 628 0 
L 628 4666 
z
" transform="scale(0.015625)"/>
       <path id="DejaVuSans-43" d="M 4122 4306 
L 4122 3641 
Q 3803 3938 3442 4084 
Q 3081 4231 2675 4231 
Q 1875 4231 1450 3742 
Q 1025 3253 1025 2328 
Q 1025 1406 1450 917 
Q 1875 428 2675 428 
Q 3081 428 3442 575 
Q 3803 722 4122 1019 
L 4122 359 
Q 3791 134 3420 21 
Q 3050 -91 2638 -91 
Q 1578 -91 968 557 
Q 359 1206 359 2328 
Q 359 3453 968 4101 
Q 1578 4750 2638 4750 
Q 3056 4750 3426 4639 
Q 3797 4528 4122 4306 
z
" transform="scale(0.015625)"/>
      </defs>
      <use xlink:href="#DejaVuSans-4e"/>
      <use xlink:href="#DejaVuSans-65" x="74.804688"/>
      <use xlink:href="#DejaVuSans-66" x="136.328125"/>
      <use xlink:href="#DejaVuSans-4e" x="171.533203"/>
      <use xlink:href="#DejaVuSans-50" x="246.337891"/>
      <use xlink:href="#DejaVuSans-43" x="306.640625"/>
     </g>
    </g>
   </g>
   <g id="matplotlib.axis_2">
    <g id="ytick_1">
     <g id="line2d_8">
      <defs>
       <path id="ma600d9e374" d="M 0 0 
L -3.5 0 
" style="stroke: #000000; stroke-width: 0.8"/>
      </defs>
      <g>
       <use xlink:href="#ma600d9e374" x="54.02" y="285.069969" style="stroke: #000000; stroke-width: 0.8"/>
      </g>
     </g>
     <g id="text_9">
      <!-- 2.10 -->
      <g transform="translate(24.754375 288.869188) scale(0.1 -0.1)">
       <use xlink:href="#DejaVuSans-32"/>
       <use xlink:href="#DejaVuSans-2e" x="63.623047"/>
       <use xlink:href="#DejaVuSans-31" x="95.410156"/>
       <use xlink:href="#DejaVuSans-30" x="159.033203"/>
      </g>
     </g>
    </g>
    <g id="ytick_2">
     <g id="line2d_9">
      <g>
       <use xlink:href="#ma600d9e374" x="54.02" y="247.927842" style="stroke: #000000; stroke-width: 0.8"/>
      </g>
     </g>
     <g id="text_10">
      <!-- 2.15 -->
      <g transform="translate(24.754375 251.727061) scale(0.1 -0.1)">
       <defs>
        <path id="DejaVuSans-35" d="M 691 4666 
L 3169 4666 
L 3169 4134 
L 1269 4134 
L 1269 2991 
Q 1406 3038 1543 3061 
Q 1681 3084 1819 3084 
Q 2600 3084 3056 2656 
Q 3513 2228 3513 1497 
Q 3513 744 3044 326 
Q 2575 -91 1722 -91 
Q 1428 -91 1123 -41 
Q 819 9 494 109 
L 494 744 
Q 775 591 1075 516 
Q 1375 441 1709 441 
Q 2250 441 2565 725 
Q 2881 1009 2881 1497 
Q 2881 1984 2565 2268 
Q 2250 2553 1709 2553 
Q 1456 2553 1204 2497 
Q 953 2441 691 2322 
L 691 4666 
z
" transform="scale(0.015625)"/>
       </defs>
       <use xlink:href="#DejaVuSans-32"/>
       <use xlink:href="#DejaVuSans-2e" x="63.623047"/>
       <use xlink:href="#DejaVuSans-31" x="95.410156"/>
       <use xlink:href="#DejaVuSans-35" x="159.033203"/>
      </g>
     </g>
    </g>
    <g id="ytick_3">
     <g id="line2d_10">
      <g>
       <use xlink:href="#ma600d9e374" x="54.02" y="210.785715" style="stroke: #000000; stroke-width: 0.8"/>
      </g>
     </g>
     <g id="text_11">
      <!-- 2.20 -->
      <g transform="translate(24.754375 214.584934) scale(0.1 -0.1)">
       <use xlink:href="#DejaVuSans-32"/>
       <use xlink:href="#DejaVuSans-2e" x="63.623047"/>
       <use xlink:href="#DejaVuSans-32" x="95.410156"/>
       <use xlink:href="#DejaVuSans-30" x="159.033203"/>
      </g>
     </g>
    </g>
    <g id="ytick_4">
     <g id="line2d_11">
      <g>
       <use xlink:href="#ma600d9e374" x="54.02" y="173.643588" style="stroke: #000000; stroke-width: 0.8"/>
      </g>
     </g>
     <g id="text_12">
      <!-- 2.25 -->
      <g transform="translate(24.754375 177.442807) scale(0.1 -0.1)">
       <use xlink:href="#DejaVuSans-32"/>
       <use xlink:href="#DejaVuSans-2e" x="63.623047"/>
       <use xlink:href="#DejaVuSans-32" x="95.410156"/>
       <use xlink:href="#DejaVuSans-35" x="159.033203"/>
      </g>
     </g>
    </g>
    <g id="ytick_5">
     <g id="line2d_12">
      <g>
       <use xlink:href="#ma600d9e374" x="54.02" y="136.501461" style="stroke: #000000; stroke-width: 0.8"/>
      </g>
     </g>
     <g id="text_13">
      <!-- 2.30 -->
      <g transform="translate(24.754375 140.30068) scale(0.1 -0.1)">
       <use xlink:href="#DejaVuSans-32"/>
       <use xlink:href="#DejaVuSans-2e" x="63.623047"/>
       <use xlink:href="#DejaVuSans-33" x="95.410156"/>
       <use xlink:href="#DejaVuSans-30" x="159.033203"/>
      </g>
     </g>
    </g>
    <g id="ytick_6">
     <g id="line2d_13">
      <g>
       <use xlink:href="#ma600d9e374" x="54.02" y="99.359334" style="stroke: #000000; stroke-width: 0.8"/>
      </g>
     </g>
     <g id="text_14">
      <!-- 2.35 -->
      <g transform="translate(24.754375 103.158553) scale(0.1 -0.1)">
       <use xlink:href="#DejaVuSans-32"/>
       <use xlink:href="#DejaVuSans-2e" x="63.623047"/>
       <use xlink:href="#DejaVuSans-33" x="95.410156"/>
       <use xlink:href="#DejaVuSans-35" x="159.033203"/>
      </g>
     </g>
    </g>
    <g id="ytick_7">
     <g id="line2d_14">
      <g>
       <use xlink:href="#ma600d9e374" x="54.02" y="62.217207" style="stroke: #000000; stroke-width: 0.8"/>
      </g>
     </g>
     <g id="text_15">
      <!-- 2.40 -->
      <g transform="translate(24.754375 66.016426) scale(0.1 -0.1)">
       <defs>
        <path id="DejaVuSans-34" d="M 2419 4116 
L 825 1625 
L 2419 1625 
L 2419 4116 
z
M 2253 4666 
L 3047 4666 
L 3047 1625 
L 3713 1625 
L 3713 1100 
L 3047 1100 
L 3047 0 
L 2419 0 
L 2419 1100 
L 313 1100 
L 313 1709 
L 2253 4666 
z
" transform="scale(0.015625)"/>
       </defs>
       <use xlink:href="#DejaVuSans-32"/>
       <use xlink:href="#DejaVuSans-2e" x="63.623047"/>
       <use xlink:href="#DejaVuSans-34" x="95.410156"/>
       <use xlink:href="#DejaVuSans-30" x="159.033203"/>
      </g>
     </g>
    </g>
    <g id="ytick_8">
     <g id="line2d_15">
      <g>
       <use xlink:href="#ma600d9e374" x="54.02" y="25.07508" style="stroke: #000000; stroke-width: 0.8"/>
      </g>
     </g>
     <g id="text_16">
      <!-- 2.45 -->
      <g transform="translate(24.754375 28.874299) scale(0.1 -0.1)">
       <use xlink:href="#DejaVuSans-32"/>
       <use xlink:href="#DejaVuSans-2e" x="63.623047"/>
       <use xlink:href="#DejaVuSans-34" x="95.410156"/>
       <use xlink:href="#DejaVuSans-35" x="159.033203"/>
      </g>
     </g>
    </g>
    <g id="text_17">
     <!-- NefMES -->
     <g transform="translate(18.674688 176.445) rotate(-90) scale(0.1 -0.1)">
      <defs>
       <path id="DejaVuSans-4d" d="M 628 4666 
L 1569 4666 
L 2759 1491 
L 3956 4666 
L 4897 4666 
L 4897 0 
L 4281 0 
L 4281 4097 
L 3078 897 
L 2444 897 
L 1241 4097 
L 1241 0 
L 628 0 
L 628 4666 
z
" transform="scale(0.015625)"/>
       <path id="DejaVuSans-45" d="M 628 4666 
L 3578 4666 
L 3578 4134 
L 1259 4134 
L 1259 2753 
L 3481 2753 
L 3481 2222 
L 1259 2222 
L 1259 531 
L 3634 531 
L 3634 0 
L 628 0 
L 628 4666 
z
" transform="scale(0.015625)"/>
       <path id="DejaVuSans-53" d="M 3425 4513 
L 3425 3897 
Q 3066 4069 2747 4153 
Q 2428 4238 2131 4238 
Q 1616 4238 1336 4038 
Q 1056 3838 1056 3469 
Q 1056 3159 1242 3001 
Q 1428 2844 1947 2747 
L 2328 2669 
Q 3034 2534 3370 2195 
Q 3706 1856 3706 1288 
Q 3706 609 3251 259 
Q 2797 -91 1919 -91 
Q 1588 -91 1214 -16 
Q 841 59 441 206 
L 441 856 
Q 825 641 1194 531 
Q 1563 422 1919 422 
Q 2459 422 2753 634 
Q 3047 847 3047 1241 
Q 3047 1584 2836 1778 
Q 2625 1972 2144 2069 
L 1759 2144 
Q 1053 2284 737 2584 
Q 422 2884 422 3419 
Q 422 4038 858 4394 
Q 1294 4750 2059 4750 
Q 2388 4750 2728 4690 
Q 3069 4631 3425 4513 
z
" transform="scale(0.015625)"/>
      </defs>
      <use xlink:href="#DejaVuSans-4e"/>
      <use xlink:href="#DejaVuSans-65" x="74.804688"/>
      <use xlink:href="#DejaVuSans-66" x="136.328125"/>
      <use xlink:href="#DejaVuSans-4d" x="171.533203"/>
      <use xlink:href="#DejaVuSans-45" x="257.8125"/>
      <use xlink:href="#DejaVuSans-53" x="320.996094"/>
     </g>
    </g>
   </g>
   <g id="patch_3">
    <path d="M 54.02 303.64 
L 54.02 10.8 
" style="fill: none; stroke: #000000; stroke-width: 0.8; stroke-linejoin: miter; stroke-linecap: square"/>
   </g>
   <g id="patch_4">
    <path d="M 450 303.64 
L 450 10.8 
" style="fill: none; stroke: #000000; stroke-width: 0.8; stroke-linejoin: miter; stroke-linecap: square"/>
   </g>
   <g id="patch_5">
    <path d="M 54.02 303.64 
L 450 303.64 
" style="fill: none; stroke: #000000; stroke-width: 0.8; stroke-linejoin: miter; stroke-linecap: square"/>
   </g>
   <g id="patch_6">
    <path d="M 54.02 10.8 
L 450 10.8 
" style="fill: none; stroke: #000000; stroke-width: 0.8; stroke-linejoin: miter; stroke-linecap: square"/>
   </g>
   <g id="legend_1">
    <g id="patch_7">
     <path d="M 372.55 77.5125 
L 443 77.5125 
Q 445 77.5125 445 75.5125 
L 445 17.8 
Q 445 15.8 443 15.8 
L 372.55 15.8 
Q 370.55 15.8 370.55 17.8 
L 370.55 75.5125 
Q 370.55 77.5125 372.55 77.5125 
z
" style="fill: #ffffff; opacity: 0.8; stroke: #cccccc; stroke-linejoin: miter"/>
    </g>
    <g id="text_18">
     <!-- CellType -->
     <g transform="translate(386.946094 27.398438) scale(0.1 -0.1)">
      <defs>
       <path id="DejaVuSans-6c" d="M 603 4863 
L 1178 4863 
L 1178 0 
L 603 0 
L 603 4863 
z
" transform="scale(0.015625)"/>
       <path id="DejaVuSans-54" d="M -19 4666 
L 3928 4666 
L 3928 4134 
L 2272 4134 
L 2272 0 
L 1638 0 
L 1638 4134 
L -19 4134 
L -19 4666 
z
" transform="scale(0.015625)"/>
       <path id="DejaVuSans-79" d="M 2059 -325 
Q 1816 -950 1584 -1140 
Q 1353 -1331 966 -1331 
L 506 -1331 
L 506 -850 
L 844 -850 
Q 1081 -850 1212 -737 
Q 1344 -625 1503 -206 
L 1606 56 
L 191 3500 
L 800 3500 
L 1894 763 
L 2988 3500 
L 3597 3500 
L 2059 -325 
z
" transform="scale(0.015625)"/>
       <path id="DejaVuSans-70" d="M 1159 525 
L 1159 -1331 
L 581 -1331 
L 581 3500 
L 1159 3500 
L 1159 2969 
Q 1341 3281 1617 3432 
Q 1894 3584 2278 3584 
Q 2916 3584 3314 3078 
Q 3713 2572 3713 1747 
Q 3713 922 3314 415 
Q 2916 -91 2278 -91 
Q 1894 -91 1617 61 
Q 1341 213 1159 525 
z
M 3116 1747 
Q 3116 2381 2855 2742 
Q 2594 3103 2138 3103 
Q 1681 3103 1420 2742 
Q 1159 2381 1159 1747 
Q 1159 1113 1420 752 
Q 1681 391 2138 391 
Q 2594 391 2855 752 
Q 3116 1113 3116 1747 
z
" transform="scale(0.015625)"/>
      </defs>
      <use xlink:href="#DejaVuSans-43"/>
      <use xlink:href="#DejaVuSans-65" x="69.824219"/>
      <use xlink:href="#DejaVuSans-6c" x="131.347656"/>
      <use xlink:href="#DejaVuSans-6c" x="159.130859"/>
      <use xlink:href="#DejaVuSans-54" x="186.914062"/>
      <use xlink:href="#DejaVuSans-79" x="232.373047"/>
      <use xlink:href="#DejaVuSans-70" x="291.552734"/>
      <use xlink:href="#DejaVuSans-65" x="355.029297"/>
     </g>
    </g>
    <g id="PathCollection_5">
     <defs>
      <path id="m62fcbac0dc" d="M 0 3 
C 0.795609 3 1.55874 2.683901 2.12132 2.12132 
C 2.683901 1.55874 3 0.795609 3 0 
C 3 -0.795609 2.683901 -1.55874 2.12132 -2.12132 
C 1.55874 -2.683901 0.795609 -3 0 -3 
C -0.795609 -3 -1.55874 -2.683901 -2.12132 -2.12132 
C -2.683901 -1.55874 -3 -0.795609 -3 0 
C -3 0.795609 -2.683901 1.55874 -2.12132 2.12132 
C -1.55874 2.683901 -0.795609 3 0 3 
z
" style="stroke: #ff7f0e"/>
     </defs>
     <g>
      <use xlink:href="#m62fcbac0dc" x="384.55" y="39.451563" style="fill: #ff7f0e; stroke: #ff7f0e"/>
     </g>
    </g>
    <g id="text_19">
     <!-- NefAC -->
     <g transform="translate(402.55 42.076563) scale(0.1 -0.1)">
      <defs>
       <path id="DejaVuSans-41" d="M 2188 4044 
L 1331 1722 
L 3047 1722 
L 2188 4044 
z
M 1831 4666 
L 2547 4666 
L 4325 0 
L 3669 0 
L 3244 1197 
L 1141 1197 
L 716 0 
L 50 0 
L 1831 4666 
z
" transform="scale(0.015625)"/>
      </defs>
      <use xlink:href="#DejaVuSans-4e"/>
      <use xlink:href="#DejaVuSans-65" x="74.804688"/>
      <use xlink:href="#DejaVuSans-66" x="136.328125"/>
      <use xlink:href="#DejaVuSans-41" x="171.533203"/>
      <use xlink:href="#DejaVuSans-43" x="238.191406"/>
     </g>
    </g>
    <g id="PathCollection_6">
     <defs>
      <path id="m159424d5ea" d="M 0 3 
C 0.795609 3 1.55874 2.683901 2.12132 2.12132 
C 2.683901 1.55874 3 0.795609 3 0 
C 3 -0.795609 2.683901 -1.55874 2.12132 -2.12132 
C 1.55874 -2.683901 0.795609 -3 0 -3 
C -0.795609 -3 -1.55874 -2.683901 -2.12132 -2.12132 
C -2.683901 -1.55874 -3 -0.795609 -3 0 
C -3 0.795609 -2.683901 1.55874 -2.12132 2.12132 
C -1.55874 2.683901 -0.795609 3 0 3 
z
" style="stroke: #d62728"/>
     </defs>
     <g>
      <use xlink:href="#m159424d5ea" x="384.55" y="54.129688" style="fill: #d62728; stroke: #d62728"/>
     </g>
    </g>
    <g id="text_20">
     <!-- NefMES -->
     <g transform="translate(402.55 56.754688) scale(0.1 -0.1)">
      <use xlink:href="#DejaVuSans-4e"/>
      <use xlink:href="#DejaVuSans-65" x="74.804688"/>
      <use xlink:href="#DejaVuSans-66" x="136.328125"/>
      <use xlink:href="#DejaVuSans-4d" x="171.533203"/>
      <use xlink:href="#DejaVuSans-45" x="257.8125"/>
      <use xlink:href="#DejaVuSans-53" x="320.996094"/>
     </g>
    </g>
    <g id="PathCollection_7">
     <defs>
      <path id="m0120bec314" d="M 0 3 
C 0.795609 3 1.55874 2.683901 2.12132 2.12132 
C 2.683901 1.55874 3 0.795609 3 0 
C 3 -0.795609 2.683901 -1.55874 2.12132 -2.12132 
C 1.55874 -2.683901 0.795609 -3 0 -3 
C -0.795609 -3 -1.55874 -2.683901 -2.12132 -2.12132 
C -2.683901 -1.55874 -3 -0.795609 -3 0 
C -3 0.795609 -2.683901 1.55874 -2.12132 2.12132 
C -1.55874 2.683901 -0.795609 3 0 3 
z
" style="stroke: #2ca02c"/>
     </defs>
     <g>
      <use xlink:href="#m0120bec314" x="384.55" y="68.807813" style="fill: #2ca02c; stroke: #2ca02c"/>
     </g>
    </g>
    <g id="text_21">
     <!-- NefOPC -->
     <g transform="translate(402.55 71.432813) scale(0.1 -0.1)">
      <defs>
       <path id="DejaVuSans-4f" d="M 2522 4238 
Q 1834 4238 1429 3725 
Q 1025 3213 1025 2328 
Q 1025 1447 1429 934 
Q 1834 422 2522 422 
Q 3209 422 3611 934 
Q 4013 1447 4013 2328 
Q 4013 3213 3611 3725 
Q 3209 4238 2522 4238 
z
M 2522 4750 
Q 3503 4750 4090 4092 
Q 4678 3434 4678 2328 
Q 4678 1225 4090 567 
Q 3503 -91 2522 -91 
Q 1538 -91 948 565 
Q 359 1222 359 2328 
Q 359 3434 948 4092 
Q 1538 4750 2522 4750 
z
" transform="scale(0.015625)"/>
      </defs>
      <use xlink:href="#DejaVuSans-4e"/>
      <use xlink:href="#DejaVuSans-65" x="74.804688"/>
      <use xlink:href="#DejaVuSans-66" x="136.328125"/>
      <use xlink:href="#DejaVuSans-4f" x="171.533203"/>
      <use xlink:href="#DejaVuSans-50" x="250.244141"/>
      <use xlink:href="#DejaVuSans-43" x="310.546875"/>
     </g>
    </g>
   </g>
  </g>
 </g>
 <defs>
  <clipPath id="p71f324ba23">
   <rect x="54.02" y="10.8" width="395.98" height="292.84"/>
  </clipPath>
 </defs>
</svg>
