<?xml version="1.0" encoding="utf-8" standalone="no"?>
<!DOCTYPE svg PUBLIC "-//W3C//DTD SVG 1.1//EN"
  "http://www.w3.org/Graphics/SVG/1.1/DTD/svg11.dtd">
<svg xmlns:xlink="http://www.w3.org/1999/xlink" width="460.8pt" height="345.6pt" viewBox="0 0 460.8 345.6" xmlns="http://www.w3.org/2000/svg" version="1.1">
 <metadata>
  <rdf:RDF xmlns:dc="http://purl.org/dc/elements/1.1/" xmlns:cc="http://creativecommons.org/ns#" xmlns:rdf="http://www.w3.org/1999/02/22-rdf-syntax-ns#">
   <cc:Work>
    <dc:type rdf:resource="http://purl.org/dc/dcmitype/StillImage"/>
    <dc:date>2023-09-11T17:36:26.344715</dc:date>
    <dc:format>image/svg+xml</dc:format>
    <dc:creator>
     <cc:Agent>
      <dc:title>Matplotlib v3.7.1, https://matplotlib.org/</dc:title>
     </cc:Agent>
    </dc:creator>
   </cc:Work>
  </rdf:RDF>
 </metadata>
 <defs>
  <style type="text/css">*{stroke-linejoin: round; stroke-linecap: butt}</style>
 </defs>
 <g id="figure_1">
  <g id="patch_1">
   <path d="M 0 345.6 
L 460.8 345.6 
L 460.8 0 
L 0 0 
z
" style="fill: #ffffff"/>
  </g>
  <g id="axes_1">
   <g id="patch_2">
    <path d="M 54.11 303.64 
L 450 303.64 
L 450 10.8 
L 54.11 10.8 
z
" style="fill: #ffffff"/>
   </g>
   <g id="PathCollection_1">
    <defs>
     <path id="C0_0_c2886aee7a" d="M 0 1.581139 
C 0.419323 1.581139 0.821528 1.41454 1.118034 1.118034 
C 1.41454 0.821528 1.581139 0.419323 1.581139 -0 
C 1.581139 -0.419323 1.41454 -0.821528 1.118034 -1.118034 
C 0.821528 -1.41454 0.419323 -1.581139 0 -1.581139 
C -0.419323 -1.581139 -0.821528 -1.41454 -1.118034 -1.118034 
C -1.41454 -0.821528 -1.581139 -0.419323 -1.581139 0 
C -1.581139 0.419323 -1.41454 0.821528 -1.118034 1.118034 
C -0.821528 1.41454 -0.419323 1.581139 0 1.581139 
z
"/>
    </defs>
    <g clip-path="url(#p2d25a88df7)">
     <use xlink:href="#C0_0_c2886aee7a" x="284.658249" y="165.910556" style="fill: #ff7f0e"/>
    </g>
    <g clip-path="url(#p2d25a88df7)">
     <use xlink:href="#C0_0_c2886aee7a" x="157.227625" y="253.148558" style="fill: #ff7f0e"/>
    </g>
    <g clip-path="url(#p2d25a88df7)">
     <use xlink:href="#C0_0_c2886aee7a" x="207.745575" y="248.231359" style="fill: #ff7f0e"/>
    </g>
    <g clip-path="url(#p2d25a88df7)">
     <use xlink:href="#C0_0_c2886aee7a" x="325.166787" y="179.088946" style="fill: #ff7f0e"/>
    </g>
    <g clip-path="url(#p2d25a88df7)">
     <use xlink:href="#C0_0_c2886aee7a" x="276.869002" y="145.19498" style="fill: #ff7f0e"/>
    </g>
    <g clip-path="url(#p2d25a88df7)">
     <use xlink:href="#C0_0_c2886aee7a" x="353.065883" y="126.377928" style="fill: #d62728"/>
    </g>
    <g clip-path="url(#p2d25a88df7)">
     <use xlink:href="#C0_0_c2886aee7a" x="176.983474" y="186.368501" style="fill: #ff7f0e"/>
    </g>
    <g clip-path="url(#p2d25a88df7)">
     <use xlink:href="#C0_0_c2886aee7a" x="370.815421" y="161.546426" style="fill: #d62728"/>
    </g>
    <g clip-path="url(#p2d25a88df7)">
     <use xlink:href="#C0_0_c2886aee7a" x="420.110233" y="108.708849" style="fill: #d62728"/>
    </g>
    <g clip-path="url(#p2d25a88df7)">
     <use xlink:href="#C0_0_c2886aee7a" x="179.157925" y="275.002578" style="fill: #ff7f0e"/>
    </g>
    <g clip-path="url(#p2d25a88df7)">
     <use xlink:href="#C0_0_c2886aee7a" x="251.54872" y="228.783438" style="fill: #ff7f0e"/>
    </g>
    <g clip-path="url(#p2d25a88df7)">
     <use xlink:href="#C0_0_c2886aee7a" x="213.071372" y="127.881823" style="fill: #1f77b4"/>
    </g>
    <g clip-path="url(#p2d25a88df7)">
     <use xlink:href="#C0_0_c2886aee7a" x="222.883819" y="72.949971" style="fill: #1f77b4"/>
    </g>
    <g clip-path="url(#p2d25a88df7)">
     <use xlink:href="#C0_0_c2886aee7a" x="341.370227" y="217.124294" style="fill: #d62728"/>
    </g>
    <g clip-path="url(#p2d25a88df7)">
     <use xlink:href="#C0_0_c2886aee7a" x="233.600522" y="153.24179" style="fill: #ff7f0e"/>
    </g>
    <g clip-path="url(#p2d25a88df7)">
     <use xlink:href="#C0_0_c2886aee7a" x="420.240023" y="268.440085" style="fill: #d62728"/>
    </g>
    <g clip-path="url(#p2d25a88df7)">
     <use xlink:href="#C0_0_c2886aee7a" x="251.087268" y="216.41092" style="fill: #ff7f0e"/>
    </g>
    <g clip-path="url(#p2d25a88df7)">
     <use xlink:href="#C0_0_c2886aee7a" x="247.455558" y="139.207583" style="fill: #ff7f0e"/>
    </g>
    <g clip-path="url(#p2d25a88df7)">
     <use xlink:href="#C0_0_c2886aee7a" x="221.330146" y="274.340342" style="fill: #ff7f0e"/>
    </g>
    <g clip-path="url(#p2d25a88df7)">
     <use xlink:href="#C0_0_c2886aee7a" x="320.084376" y="107.265158" style="fill: #d62728"/>
    </g>
    <g clip-path="url(#p2d25a88df7)">
     <use xlink:href="#C0_0_c2886aee7a" x="72.105" y="214.705187" style="fill: #1f77b4"/>
    </g>
    <g clip-path="url(#p2d25a88df7)">
     <use xlink:href="#C0_0_c2886aee7a" x="102.902681" y="101.363508" style="fill: #1f77b4"/>
    </g>
    <g clip-path="url(#p2d25a88df7)">
     <use xlink:href="#C0_0_c2886aee7a" x="176.625032" y="262.85411" style="fill: #ff7f0e"/>
    </g>
    <g clip-path="url(#p2d25a88df7)">
     <use xlink:href="#C0_0_c2886aee7a" x="357.439865" y="141.379785" style="fill: #d62728"/>
    </g>
    <g clip-path="url(#p2d25a88df7)">
     <use xlink:href="#C0_0_c2886aee7a" x="254.926363" y="164.376197" style="fill: #1f77b4"/>
    </g>
    <g clip-path="url(#p2d25a88df7)">
     <use xlink:href="#C0_0_c2886aee7a" x="283.410061" y="193.57703" style="fill: #ff7f0e"/>
    </g>
    <g clip-path="url(#p2d25a88df7)">
     <use xlink:href="#C0_0_c2886aee7a" x="220.696932" y="141.022127" style="fill: #1f77b4"/>
    </g>
    <g clip-path="url(#p2d25a88df7)">
     <use xlink:href="#C0_0_c2886aee7a" x="146.402888" y="150.785405" style="fill: #1f77b4"/>
    </g>
    <g clip-path="url(#p2d25a88df7)">
     <use xlink:href="#C0_0_c2886aee7a" x="426.925954" y="240.528769" style="fill: #d62728"/>
    </g>
    <g clip-path="url(#p2d25a88df7)">
     <use xlink:href="#C0_0_c2886aee7a" x="226.241117" y="156.620223" style="fill: #1f77b4"/>
    </g>
    <g clip-path="url(#p2d25a88df7)">
     <use xlink:href="#C0_0_c2886aee7a" x="371.184621" y="168.464465" style="fill: #d62728"/>
    </g>
    <g clip-path="url(#p2d25a88df7)">
     <use xlink:href="#C0_0_c2886aee7a" x="198.580008" y="106.719274" style="fill: #ff7f0e"/>
    </g>
    <g clip-path="url(#p2d25a88df7)">
     <use xlink:href="#C0_0_c2886aee7a" x="112.36669" y="151.201953" style="fill: #1f77b4"/>
    </g>
    <g clip-path="url(#p2d25a88df7)">
     <use xlink:href="#C0_0_c2886aee7a" x="373.679182" y="249.200654" style="fill: #d62728"/>
    </g>
    <g clip-path="url(#p2d25a88df7)">
     <use xlink:href="#C0_0_c2886aee7a" x="309.579351" y="257.193497" style="fill: #ff7f0e"/>
    </g>
    <g clip-path="url(#p2d25a88df7)">
     <use xlink:href="#C0_0_c2886aee7a" x="111.064703" y="173.050595" style="fill: #1f77b4"/>
    </g>
    <g clip-path="url(#p2d25a88df7)">
     <use xlink:href="#C0_0_c2886aee7a" x="368.069528" y="218.077439" style="fill: #d62728"/>
    </g>
    <g clip-path="url(#p2d25a88df7)">
     <use xlink:href="#C0_0_c2886aee7a" x="313.999201" y="290.329091" style="fill: #ff7f0e"/>
    </g>
    <g clip-path="url(#p2d25a88df7)">
     <use xlink:href="#C0_0_c2886aee7a" x="293.432323" y="128.219328" style="fill: #ff7f0e"/>
    </g>
    <g clip-path="url(#p2d25a88df7)">
     <use xlink:href="#C0_0_c2886aee7a" x="196.464184" y="251.201387" style="fill: #ff7f0e"/>
    </g>
    <g clip-path="url(#p2d25a88df7)">
     <use xlink:href="#C0_0_c2886aee7a" x="287.110798" y="263.692028" style="fill: #ff7f0e"/>
    </g>
    <g clip-path="url(#p2d25a88df7)">
     <use xlink:href="#C0_0_c2886aee7a" x="263.471539" y="201.173484" style="fill: #ff7f0e"/>
    </g>
    <g clip-path="url(#p2d25a88df7)">
     <use xlink:href="#C0_0_c2886aee7a" x="273.574665" y="168.660283" style="fill: #ff7f0e"/>
    </g>
    <g clip-path="url(#p2d25a88df7)">
     <use xlink:href="#C0_0_c2886aee7a" x="297.681887" y="244.717811" style="fill: #ff7f0e"/>
    </g>
    <g clip-path="url(#p2d25a88df7)">
     <use xlink:href="#C0_0_c2886aee7a" x="308.160994" y="160.931826" style="fill: #d62728"/>
    </g>
    <g clip-path="url(#p2d25a88df7)">
     <use xlink:href="#C0_0_c2886aee7a" x="262.267968" y="172.30102" style="fill: #d62728"/>
    </g>
    <g clip-path="url(#p2d25a88df7)">
     <use xlink:href="#C0_0_c2886aee7a" x="194.874941" y="31.179703" style="fill: #2ca02c"/>
    </g>
    <g clip-path="url(#p2d25a88df7)">
     <use xlink:href="#C0_0_c2886aee7a" x="296.564639" y="46.27264" style="fill: #2ca02c"/>
    </g>
    <g clip-path="url(#p2d25a88df7)">
     <use xlink:href="#C0_0_c2886aee7a" x="222.637307" y="194.303029" style="fill: #ff7f0e"/>
    </g>
    <g clip-path="url(#p2d25a88df7)">
     <use xlink:href="#C0_0_c2886aee7a" x="226.641999" y="148.390689" style="fill: #1f77b4"/>
    </g>
    <g clip-path="url(#p2d25a88df7)">
     <use xlink:href="#C0_0_c2886aee7a" x="233.000848" y="185.536437" style="fill: #ff7f0e"/>
    </g>
    <g clip-path="url(#p2d25a88df7)">
     <use xlink:href="#C0_0_c2886aee7a" x="193.673909" y="149.12282" style="fill: #ff7f0e"/>
    </g>
    <g clip-path="url(#p2d25a88df7)">
     <use xlink:href="#C0_0_c2886aee7a" x="191.918356" y="180.557619" style="fill: #1f77b4"/>
    </g>
    <g clip-path="url(#p2d25a88df7)">
     <use xlink:href="#C0_0_c2886aee7a" x="184.893552" y="128.02555" style="fill: #ff7f0e"/>
    </g>
    <g clip-path="url(#p2d25a88df7)">
     <use xlink:href="#C0_0_c2886aee7a" x="232.226189" y="187.902918" style="fill: #ff7f0e"/>
    </g>
    <g clip-path="url(#p2d25a88df7)">
     <use xlink:href="#C0_0_c2886aee7a" x="79.940205" y="69.363075" style="fill: #1f77b4"/>
    </g>
    <g clip-path="url(#p2d25a88df7)">
     <use xlink:href="#C0_0_c2886aee7a" x="309.346352" y="246.430635" style="fill: #ff7f0e"/>
    </g>
    <g clip-path="url(#p2d25a88df7)">
     <use xlink:href="#C0_0_c2886aee7a" x="317.244089" y="234.912591" style="fill: #ff7f0e"/>
    </g>
    <g clip-path="url(#p2d25a88df7)">
     <use xlink:href="#C0_0_c2886aee7a" x="188.442973" y="140.966525" style="fill: #ff7f0e"/>
    </g>
    <g clip-path="url(#p2d25a88df7)">
     <use xlink:href="#C0_0_c2886aee7a" x="183.785384" y="149.820536" style="fill: #ff7f0e"/>
    </g>
    <g clip-path="url(#p2d25a88df7)">
     <use xlink:href="#C0_0_c2886aee7a" x="289.934245" y="174.906084" style="fill: #1f77b4"/>
    </g>
    <g clip-path="url(#p2d25a88df7)">
     <use xlink:href="#C0_0_c2886aee7a" x="182.707278" y="119.234374" style="fill: #1f77b4"/>
    </g>
    <g clip-path="url(#p2d25a88df7)">
     <use xlink:href="#C0_0_c2886aee7a" x="409.25425" y="174.208727" style="fill: #d62728"/>
    </g>
    <g clip-path="url(#p2d25a88df7)">
     <use xlink:href="#C0_0_c2886aee7a" x="310.218755" y="228.876605" style="fill: #ff7f0e"/>
    </g>
    <g clip-path="url(#p2d25a88df7)">
     <use xlink:href="#C0_0_c2886aee7a" x="124.911732" y="207.204761" style="fill: #1f77b4"/>
    </g>
    <g clip-path="url(#p2d25a88df7)">
     <use xlink:href="#C0_0_c2886aee7a" x="236.988565" y="231.098185" style="fill: #ff7f0e"/>
    </g>
    <g clip-path="url(#p2d25a88df7)">
     <use xlink:href="#C0_0_c2886aee7a" x="314.460794" y="197.798775" style="fill: #d62728"/>
    </g>
    <g clip-path="url(#p2d25a88df7)">
     <use xlink:href="#C0_0_c2886aee7a" x="271.418663" y="110.994668" style="fill: #ff7f0e"/>
    </g>
    <g clip-path="url(#p2d25a88df7)">
     <use xlink:href="#C0_0_c2886aee7a" x="212.971524" y="201.777045" style="fill: #1f77b4"/>
    </g>
    <g clip-path="url(#p2d25a88df7)">
     <use xlink:href="#C0_0_c2886aee7a" x="301.558252" y="185.284131" style="fill: #ff7f0e"/>
    </g>
    <g clip-path="url(#p2d25a88df7)">
     <use xlink:href="#C0_0_c2886aee7a" x="363.796374" y="180.483892" style="fill: #d62728"/>
    </g>
    <g clip-path="url(#p2d25a88df7)">
     <use xlink:href="#C0_0_c2886aee7a" x="237.372862" y="109.961085" style="fill: #ff7f0e"/>
    </g>
    <g clip-path="url(#p2d25a88df7)">
     <use xlink:href="#C0_0_c2886aee7a" x="262.677857" y="122.144871" style="fill: #d62728"/>
    </g>
    <g clip-path="url(#p2d25a88df7)">
     <use xlink:href="#C0_0_c2886aee7a" x="167.455788" y="202.323436" style="fill: #1f77b4"/>
    </g>
    <g clip-path="url(#p2d25a88df7)">
     <use xlink:href="#C0_0_c2886aee7a" x="154.70287" y="170.046543" style="fill: #1f77b4"/>
    </g>
    <g clip-path="url(#p2d25a88df7)">
     <use xlink:href="#C0_0_c2886aee7a" x="245.816224" y="222.93207" style="fill: #ff7f0e"/>
    </g>
    <g clip-path="url(#p2d25a88df7)">
     <use xlink:href="#C0_0_c2886aee7a" x="270.397881" y="186.743157" style="fill: #ff7f0e"/>
    </g>
    <g clip-path="url(#p2d25a88df7)">
     <use xlink:href="#C0_0_c2886aee7a" x="370.430236" y="117.980204" style="fill: #d62728"/>
    </g>
    <g clip-path="url(#p2d25a88df7)">
     <use xlink:href="#C0_0_c2886aee7a" x="235.01136" y="119.022048" style="fill: #ff7f0e"/>
    </g>
    <g clip-path="url(#p2d25a88df7)">
     <use xlink:href="#C0_0_c2886aee7a" x="243.941251" y="181.119574" style="fill: #ff7f0e"/>
    </g>
    <g clip-path="url(#p2d25a88df7)">
     <use xlink:href="#C0_0_c2886aee7a" x="289.379198" y="180.474257" style="fill: #1f77b4"/>
    </g>
    <g clip-path="url(#p2d25a88df7)">
     <use xlink:href="#C0_0_c2886aee7a" x="261.078242" y="132.600776" style="fill: #ff7f0e"/>
    </g>
    <g clip-path="url(#p2d25a88df7)">
     <use xlink:href="#C0_0_c2886aee7a" x="277.010496" y="157.705124" style="fill: #1f77b4"/>
    </g>
    <g clip-path="url(#p2d25a88df7)">
     <use xlink:href="#C0_0_c2886aee7a" x="265.979404" y="196.600484" style="fill: #ff7f0e"/>
    </g>
    <g clip-path="url(#p2d25a88df7)">
     <use xlink:href="#C0_0_c2886aee7a" x="152.748877" y="223.391397" style="fill: #1f77b4"/>
    </g>
    <g clip-path="url(#p2d25a88df7)">
     <use xlink:href="#C0_0_c2886aee7a" x="217.761543" y="175.864286" style="fill: #ff7f0e"/>
    </g>
    <g clip-path="url(#p2d25a88df7)">
     <use xlink:href="#C0_0_c2886aee7a" x="262.664322" y="79.792551" style="fill: #1f77b4"/>
    </g>
    <g clip-path="url(#p2d25a88df7)">
     <use xlink:href="#C0_0_c2886aee7a" x="292.750508" y="157.683215" style="fill: #ff7f0e"/>
    </g>
    <g clip-path="url(#p2d25a88df7)">
     <use xlink:href="#C0_0_c2886aee7a" x="230.270605" y="242.932341" style="fill: #ff7f0e"/>
    </g>
    <g clip-path="url(#p2d25a88df7)">
     <use xlink:href="#C0_0_c2886aee7a" x="278.083239" y="168.569817" style="fill: #ff7f0e"/>
    </g>
    <g clip-path="url(#p2d25a88df7)">
     <use xlink:href="#C0_0_c2886aee7a" x="360.041499" y="221.406853" style="fill: #d62728"/>
    </g>
    <g clip-path="url(#p2d25a88df7)">
     <use xlink:href="#C0_0_c2886aee7a" x="266.236283" y="179.391494" style="fill: #ff7f0e"/>
    </g>
    <g clip-path="url(#p2d25a88df7)">
     <use xlink:href="#C0_0_c2886aee7a" x="357.437559" y="183.647783" style="fill: #d62728"/>
    </g>
    <g clip-path="url(#p2d25a88df7)">
     <use xlink:href="#C0_0_c2886aee7a" x="220.454901" y="178.44318" style="fill: #ff7f0e"/>
    </g>
    <g clip-path="url(#p2d25a88df7)">
     <use xlink:href="#C0_0_c2886aee7a" x="302.453973" y="163.32969" style="fill: #d62728"/>
    </g>
    <g clip-path="url(#p2d25a88df7)">
     <use xlink:href="#C0_0_c2886aee7a" x="306.622095" y="185.733768" style="fill: #ff7f0e"/>
    </g>
    <g clip-path="url(#p2d25a88df7)">
     <use xlink:href="#C0_0_c2886aee7a" x="333.583122" y="134.777462" style="fill: #d62728"/>
    </g>
    <g clip-path="url(#p2d25a88df7)">
     <use xlink:href="#C0_0_c2886aee7a" x="412.15633" y="225.913239" style="fill: #d62728"/>
    </g>
    <g clip-path="url(#p2d25a88df7)">
     <use xlink:href="#C0_0_c2886aee7a" x="374.081616" y="264.042476" style="fill: #d62728"/>
    </g>
    <g clip-path="url(#p2d25a88df7)">
     <use xlink:href="#C0_0_c2886aee7a" x="208.817912" y="191.299384" style="fill: #ff7f0e"/>
    </g>
    <g clip-path="url(#p2d25a88df7)">
     <use xlink:href="#C0_0_c2886aee7a" x="289.992643" y="165.406813" style="fill: #d62728"/>
    </g>
    <g clip-path="url(#p2d25a88df7)">
     <use xlink:href="#C0_0_c2886aee7a" x="333.745398" y="222.795598" style="fill: #ff7f0e"/>
    </g>
    <g clip-path="url(#p2d25a88df7)">
     <use xlink:href="#C0_0_c2886aee7a" x="140.935326" y="243.617911" style="fill: #ff7f0e"/>
    </g>
    <g clip-path="url(#p2d25a88df7)">
     <use xlink:href="#C0_0_c2886aee7a" x="206.888608" y="101.988271" style="fill: #1f77b4"/>
    </g>
    <g clip-path="url(#p2d25a88df7)">
     <use xlink:href="#C0_0_c2886aee7a" x="385.078334" y="238.266844" style="fill: #d62728"/>
    </g>
    <g clip-path="url(#p2d25a88df7)">
     <use xlink:href="#C0_0_c2886aee7a" x="191.305603" y="239.49684" style="fill: #ff7f0e"/>
    </g>
    <g clip-path="url(#p2d25a88df7)">
     <use xlink:href="#C0_0_c2886aee7a" x="320.571257" y="207.429145" style="fill: #ff7f0e"/>
    </g>
    <g clip-path="url(#p2d25a88df7)">
     <use xlink:href="#C0_0_c2886aee7a" x="218.602245" y="45.62847" style="fill: #2ca02c"/>
    </g>
    <g clip-path="url(#p2d25a88df7)">
     <use xlink:href="#C0_0_c2886aee7a" x="233.832109" y="57.286801" style="fill: #2ca02c"/>
    </g>
    <g clip-path="url(#p2d25a88df7)">
     <use xlink:href="#C0_0_c2886aee7a" x="303.434879" y="198.402878" style="fill: #d62728"/>
    </g>
    <g clip-path="url(#p2d25a88df7)">
     <use xlink:href="#C0_0_c2886aee7a" x="74.667369" y="145.405297" style="fill: #ff7f0e"/>
    </g>
    <g clip-path="url(#p2d25a88df7)">
     <use xlink:href="#C0_0_c2886aee7a" x="299.801598" y="166.528134" style="fill: #ff7f0e"/>
    </g>
    <g clip-path="url(#p2d25a88df7)">
     <use xlink:href="#C0_0_c2886aee7a" x="170.175335" y="131.442345" style="fill: #ff7f0e"/>
    </g>
    <g clip-path="url(#p2d25a88df7)">
     <use xlink:href="#C0_0_c2886aee7a" x="256.328249" y="222.22403" style="fill: #ff7f0e"/>
    </g>
    <g clip-path="url(#p2d25a88df7)">
     <use xlink:href="#C0_0_c2886aee7a" x="203.579774" y="223.365797" style="fill: #ff7f0e"/>
    </g>
    <g clip-path="url(#p2d25a88df7)">
     <use xlink:href="#C0_0_c2886aee7a" x="277.22762" y="140.136155" style="fill: #ff7f0e"/>
    </g>
    <g clip-path="url(#p2d25a88df7)">
     <use xlink:href="#C0_0_c2886aee7a" x="220.969658" y="99.26845" style="fill: #1f77b4"/>
    </g>
    <g clip-path="url(#p2d25a88df7)">
     <use xlink:href="#C0_0_c2886aee7a" x="295.053937" y="127.480712" style="fill: #ff7f0e"/>
    </g>
    <g clip-path="url(#p2d25a88df7)">
     <use xlink:href="#C0_0_c2886aee7a" x="285.993568" y="196.34887" style="fill: #d62728"/>
    </g>
    <g clip-path="url(#p2d25a88df7)">
     <use xlink:href="#C0_0_c2886aee7a" x="96.668255" y="129.768368" style="fill: #1f77b4"/>
    </g>
    <g clip-path="url(#p2d25a88df7)">
     <use xlink:href="#C0_0_c2886aee7a" x="207.374573" y="199.178015" style="fill: #ff7f0e"/>
    </g>
    <g clip-path="url(#p2d25a88df7)">
     <use xlink:href="#C0_0_c2886aee7a" x="238.567473" y="89.348463" style="fill: #1f77b4"/>
    </g>
    <g clip-path="url(#p2d25a88df7)">
     <use xlink:href="#C0_0_c2886aee7a" x="229.19603" y="237.434325" style="fill: #ff7f0e"/>
    </g>
    <g clip-path="url(#p2d25a88df7)">
     <use xlink:href="#C0_0_c2886aee7a" x="268.886513" y="193.029448" style="fill: #ff7f0e"/>
    </g>
    <g clip-path="url(#p2d25a88df7)">
     <use xlink:href="#C0_0_c2886aee7a" x="193.978391" y="225.376218" style="fill: #ff7f0e"/>
    </g>
    <g clip-path="url(#p2d25a88df7)">
     <use xlink:href="#C0_0_c2886aee7a" x="201.068707" y="95.294534" style="fill: #ff7f0e"/>
    </g>
    <g clip-path="url(#p2d25a88df7)">
     <use xlink:href="#C0_0_c2886aee7a" x="257.8568" y="156.857845" style="fill: #ff7f0e"/>
    </g>
    <g clip-path="url(#p2d25a88df7)">
     <use xlink:href="#C0_0_c2886aee7a" x="269.495543" y="210.369536" style="fill: #ff7f0e"/>
    </g>
    <g clip-path="url(#p2d25a88df7)">
     <use xlink:href="#C0_0_c2886aee7a" x="222.596239" y="269.811216" style="fill: #ff7f0e"/>
    </g>
    <g clip-path="url(#p2d25a88df7)">
     <use xlink:href="#C0_0_c2886aee7a" x="213.510353" y="211.102958" style="fill: #1f77b4"/>
    </g>
    <g clip-path="url(#p2d25a88df7)">
     <use xlink:href="#C0_0_c2886aee7a" x="432.005" y="134.991935" style="fill: #d62728"/>
    </g>
    <g clip-path="url(#p2d25a88df7)">
     <use xlink:href="#C0_0_c2886aee7a" x="330.731646" y="140.282147" style="fill: #d62728"/>
    </g>
    <g clip-path="url(#p2d25a88df7)">
     <use xlink:href="#C0_0_c2886aee7a" x="182.256432" y="108.149023" style="fill: #1f77b4"/>
    </g>
    <g clip-path="url(#p2d25a88df7)">
     <use xlink:href="#C0_0_c2886aee7a" x="324.503456" y="178.577592" style="fill: #d62728"/>
    </g>
    <g clip-path="url(#p2d25a88df7)">
     <use xlink:href="#C0_0_c2886aee7a" x="364.808723" y="197.649113" style="fill: #d62728"/>
    </g>
    <g clip-path="url(#p2d25a88df7)">
     <use xlink:href="#C0_0_c2886aee7a" x="170.813562" y="158.58304" style="fill: #ff7f0e"/>
    </g>
    <g clip-path="url(#p2d25a88df7)">
     <use xlink:href="#C0_0_c2886aee7a" x="352.257241" y="241.668992" style="fill: #d62728"/>
    </g>
    <g clip-path="url(#p2d25a88df7)">
     <use xlink:href="#C0_0_c2886aee7a" x="138.096458" y="183.408202" style="fill: #1f77b4"/>
    </g>
    <g clip-path="url(#p2d25a88df7)">
     <use xlink:href="#C0_0_c2886aee7a" x="163.734029" y="171.707393" style="fill: #ff7f0e"/>
    </g>
    <g clip-path="url(#p2d25a88df7)">
     <use xlink:href="#C0_0_c2886aee7a" x="215.883238" y="265.467749" style="fill: #ff7f0e"/>
    </g>
    <g clip-path="url(#p2d25a88df7)">
     <use xlink:href="#C0_0_c2886aee7a" x="273.909273" y="127.41346" style="fill: #1f77b4"/>
    </g>
    <g clip-path="url(#p2d25a88df7)">
     <use xlink:href="#C0_0_c2886aee7a" x="355.280674" y="203.229115" style="fill: #d62728"/>
    </g>
    <g clip-path="url(#p2d25a88df7)">
     <use xlink:href="#C0_0_c2886aee7a" x="129.549589" y="166.179513" style="fill: #1f77b4"/>
    </g>
    <g clip-path="url(#p2d25a88df7)">
     <use xlink:href="#C0_0_c2886aee7a" x="327.740561" y="24.110909" style="fill: #2ca02c"/>
    </g>
    <g clip-path="url(#p2d25a88df7)">
     <use xlink:href="#C0_0_c2886aee7a" x="168.014441" y="167.600087" style="fill: #ff7f0e"/>
    </g>
    <g clip-path="url(#p2d25a88df7)">
     <use xlink:href="#C0_0_c2886aee7a" x="310.239704" y="94.99349" style="fill: #ff7f0e"/>
    </g>
    <g clip-path="url(#p2d25a88df7)">
     <use xlink:href="#C0_0_c2886aee7a" x="234.683402" y="108.14188" style="fill: #ff7f0e"/>
    </g>
    <g clip-path="url(#p2d25a88df7)">
     <use xlink:href="#C0_0_c2886aee7a" x="286.774721" y="158.410125" style="fill: #ff7f0e"/>
    </g>
    <g clip-path="url(#p2d25a88df7)">
     <use xlink:href="#C0_0_c2886aee7a" x="245.162849" y="239.330071" style="fill: #ff7f0e"/>
    </g>
    <g clip-path="url(#p2d25a88df7)">
     <use xlink:href="#C0_0_c2886aee7a" x="317.463367" y="182.151051" style="fill: #ff7f0e"/>
    </g>
    <g clip-path="url(#p2d25a88df7)">
     <use xlink:href="#C0_0_c2886aee7a" x="299.288573" y="32.859997" style="fill: #2ca02c"/>
    </g>
    <g clip-path="url(#p2d25a88df7)">
     <use xlink:href="#C0_0_c2886aee7a" x="292.111213" y="173.036943" style="fill: #d62728"/>
    </g>
    <g clip-path="url(#p2d25a88df7)">
     <use xlink:href="#C0_0_c2886aee7a" x="272.126438" y="166.253252" style="fill: #ff7f0e"/>
    </g>
    <g clip-path="url(#p2d25a88df7)">
     <use xlink:href="#C0_0_c2886aee7a" x="300.771434" y="178.654547" style="fill: #ff7f0e"/>
    </g>
    <g clip-path="url(#p2d25a88df7)">
     <use xlink:href="#C0_0_c2886aee7a" x="329.44396" y="195.169906" style="fill: #ff7f0e"/>
    </g>
    <g clip-path="url(#p2d25a88df7)">
     <use xlink:href="#C0_0_c2886aee7a" x="343.318297" y="213.638926" style="fill: #d62728"/>
    </g>
    <g clip-path="url(#p2d25a88df7)">
     <use xlink:href="#C0_0_c2886aee7a" x="341.930066" y="163.817524" style="fill: #d62728"/>
    </g>
    <g clip-path="url(#p2d25a88df7)">
     <use xlink:href="#C0_0_c2886aee7a" x="429.136933" y="165.25882" style="fill: #d62728"/>
    </g>
    <g clip-path="url(#p2d25a88df7)">
     <use xlink:href="#C0_0_c2886aee7a" x="215.04035" y="25.741181" style="fill: #2ca02c"/>
    </g>
    <g clip-path="url(#p2d25a88df7)">
     <use xlink:href="#C0_0_c2886aee7a" x="282.082736" y="192.901958" style="fill: #ff7f0e"/>
    </g>
    <g clip-path="url(#p2d25a88df7)">
     <use xlink:href="#C0_0_c2886aee7a" x="179.412924" y="236.818358" style="fill: #ff7f0e"/>
    </g>
    <g clip-path="url(#p2d25a88df7)">
     <use xlink:href="#C0_0_c2886aee7a" x="189.295707" y="127.404983" style="fill: #ff7f0e"/>
    </g>
    <g clip-path="url(#p2d25a88df7)">
     <use xlink:href="#C0_0_c2886aee7a" x="325.874284" y="206.979718" style="fill: #d62728"/>
    </g>
    <g clip-path="url(#p2d25a88df7)">
     <use xlink:href="#C0_0_c2886aee7a" x="209.979901" y="215.219409" style="fill: #ff7f0e"/>
    </g>
    <g clip-path="url(#p2d25a88df7)">
     <use xlink:href="#C0_0_c2886aee7a" x="172.725278" y="84.916403" style="fill: #1f77b4"/>
    </g>
    <g clip-path="url(#p2d25a88df7)">
     <use xlink:href="#C0_0_c2886aee7a" x="123.367107" y="194.482544" style="fill: #ff7f0e"/>
    </g>
    <g clip-path="url(#p2d25a88df7)">
     <use xlink:href="#C0_0_c2886aee7a" x="333.371888" y="219.518702" style="fill: #ff7f0e"/>
    </g>
    <g clip-path="url(#p2d25a88df7)">
     <use xlink:href="#C0_0_c2886aee7a" x="174.570077" y="191.324019" style="fill: #1f77b4"/>
    </g>
    <g clip-path="url(#p2d25a88df7)">
     <use xlink:href="#C0_0_c2886aee7a" x="180.791884" y="197.554663" style="fill: #ff7f0e"/>
    </g>
    <g clip-path="url(#p2d25a88df7)">
     <use xlink:href="#C0_0_c2886aee7a" x="187.493278" y="216.178893" style="fill: #ff7f0e"/>
    </g>
   </g>
   <g id="PathCollection_2"/>
   <g id="PathCollection_3"/>
   <g id="PathCollection_4"/>
   <g id="PathCollection_5"/>
   <g id="matplotlib.axis_1">
    <g id="xtick_1">
     <g id="line2d_1">
      <defs>
       <path id="m3385fdae1e" d="M 0 0 
L 0 3.5 
" style="stroke: #000000; stroke-width: 0.8"/>
      </defs>
      <g>
       <use xlink:href="#m3385fdae1e" x="130.616609" y="303.64" style="stroke: #000000; stroke-width: 0.8"/>
      </g>
     </g>
     <g id="text_1">
      <!-- 1.1 -->
      <g transform="translate(122.665047 318.238437) scale(0.1 -0.1)">
       <defs>
        <path id="DejaVuSans-31" d="M 794 531 
L 1825 531 
L 1825 4091 
L 703 3866 
L 703 4441 
L 1819 4666 
L 2450 4666 
L 2450 531 
L 3481 531 
L 3481 0 
L 794 0 
L 794 531 
z
" transform="scale(0.015625)"/>
        <path id="DejaVuSans-2e" d="M 684 794 
L 1344 794 
L 1344 0 
L 684 0 
L 684 794 
z
" transform="scale(0.015625)"/>
       </defs>
       <use xlink:href="#DejaVuSans-31"/>
       <use xlink:href="#DejaVuSans-2e" x="63.623047"/>
       <use xlink:href="#DejaVuSans-31" x="95.410156"/>
      </g>
     </g>
    </g>
    <g id="xtick_2">
     <g id="line2d_2">
      <g>
       <use xlink:href="#m3385fdae1e" x="212.609989" y="303.64" style="stroke: #000000; stroke-width: 0.8"/>
      </g>
     </g>
     <g id="text_2">
      <!-- 1.2 -->
      <g transform="translate(204.658426 318.238437) scale(0.1 -0.1)">
       <defs>
        <path id="DejaVuSans-32" d="M 1228 531 
L 3431 531 
L 3431 0 
L 469 0 
L 469 531 
Q 828 903 1448 1529 
Q 2069 2156 2228 2338 
Q 2531 2678 2651 2914 
Q 2772 3150 2772 3378 
Q 2772 3750 2511 3984 
Q 2250 4219 1831 4219 
Q 1534 4219 1204 4116 
Q 875 4013 500 3803 
L 500 4441 
Q 881 4594 1212 4672 
Q 1544 4750 1819 4750 
Q 2544 4750 2975 4387 
Q 3406 4025 3406 3419 
Q 3406 3131 3298 2873 
Q 3191 2616 2906 2266 
Q 2828 2175 2409 1742 
Q 1991 1309 1228 531 
z
" transform="scale(0.015625)"/>
       </defs>
       <use xlink:href="#DejaVuSans-31"/>
       <use xlink:href="#DejaVuSans-2e" x="63.623047"/>
       <use xlink:href="#DejaVuSans-32" x="95.410156"/>
      </g>
     </g>
    </g>
    <g id="xtick_3">
     <g id="line2d_3">
      <g>
       <use xlink:href="#m3385fdae1e" x="294.603368" y="303.64" style="stroke: #000000; stroke-width: 0.8"/>
      </g>
     </g>
     <g id="text_3">
      <!-- 1.3 -->
      <g transform="translate(286.651806 318.238437) scale(0.1 -0.1)">
       <defs>
        <path id="DejaVuSans-33" d="M 2597 2516 
Q 3050 2419 3304 2112 
Q 3559 1806 3559 1356 
Q 3559 666 3084 287 
Q 2609 -91 1734 -91 
Q 1441 -91 1130 -33 
Q 819 25 488 141 
L 488 750 
Q 750 597 1062 519 
Q 1375 441 1716 441 
Q 2309 441 2620 675 
Q 2931 909 2931 1356 
Q 2931 1769 2642 2001 
Q 2353 2234 1838 2234 
L 1294 2234 
L 1294 2753 
L 1863 2753 
Q 2328 2753 2575 2939 
Q 2822 3125 2822 3475 
Q 2822 3834 2567 4026 
Q 2313 4219 1838 4219 
Q 1578 4219 1281 4162 
Q 984 4106 628 3988 
L 628 4550 
Q 988 4650 1302 4700 
Q 1616 4750 1894 4750 
Q 2613 4750 3031 4423 
Q 3450 4097 3450 3541 
Q 3450 3153 3228 2886 
Q 3006 2619 2597 2516 
z
" transform="scale(0.015625)"/>
       </defs>
       <use xlink:href="#DejaVuSans-31"/>
       <use xlink:href="#DejaVuSans-2e" x="63.623047"/>
       <use xlink:href="#DejaVuSans-33" x="95.410156"/>
      </g>
     </g>
    </g>
    <g id="xtick_4">
     <g id="line2d_4">
      <g>
       <use xlink:href="#m3385fdae1e" x="376.596748" y="303.64" style="stroke: #000000; stroke-width: 0.8"/>
      </g>
     </g>
     <g id="text_4">
      <!-- 1.4 -->
      <g transform="translate(368.645185 318.238437) scale(0.1 -0.1)">
       <defs>
        <path id="DejaVuSans-34" d="M 2419 4116 
L 825 1625 
L 2419 1625 
L 2419 4116 
z
M 2253 4666 
L 3047 4666 
L 3047 1625 
L 3713 1625 
L 3713 1100 
L 3047 1100 
L 3047 0 
L 2419 0 
L 2419 1100 
L 313 1100 
L 313 1709 
L 2253 4666 
z
" transform="scale(0.015625)"/>
       </defs>
       <use xlink:href="#DejaVuSans-31"/>
       <use xlink:href="#DejaVuSans-2e" x="63.623047"/>
       <use xlink:href="#DejaVuSans-34" x="95.410156"/>
      </g>
     </g>
    </g>
    <g id="text_5">
     <!-- VerMES -->
     <g transform="translate(233.2425 331.916562) scale(0.1 -0.1)">
      <defs>
       <path id="DejaVuSans-56" d="M 1831 0 
L 50 4666 
L 709 4666 
L 2188 738 
L 3669 4666 
L 4325 4666 
L 2547 0 
L 1831 0 
z
" transform="scale(0.015625)"/>
       <path id="DejaVuSans-65" d="M 3597 1894 
L 3597 1613 
L 953 1613 
Q 991 1019 1311 708 
Q 1631 397 2203 397 
Q 2534 397 2845 478 
Q 3156 559 3463 722 
L 3463 178 
Q 3153 47 2828 -22 
Q 2503 -91 2169 -91 
Q 1331 -91 842 396 
Q 353 884 353 1716 
Q 353 2575 817 3079 
Q 1281 3584 2069 3584 
Q 2775 3584 3186 3129 
Q 3597 2675 3597 1894 
z
M 3022 2063 
Q 3016 2534 2758 2815 
Q 2500 3097 2075 3097 
Q 1594 3097 1305 2825 
Q 1016 2553 972 2059 
L 3022 2063 
z
" transform="scale(0.015625)"/>
       <path id="DejaVuSans-72" d="M 2631 2963 
Q 2534 3019 2420 3045 
Q 2306 3072 2169 3072 
Q 1681 3072 1420 2755 
Q 1159 2438 1159 1844 
L 1159 0 
L 581 0 
L 581 3500 
L 1159 3500 
L 1159 2956 
Q 1341 3275 1631 3429 
Q 1922 3584 2338 3584 
Q 2397 3584 2469 3576 
Q 2541 3569 2628 3553 
L 2631 2963 
z
" transform="scale(0.015625)"/>
       <path id="DejaVuSans-4d" d="M 628 4666 
L 1569 4666 
L 2759 1491 
L 3956 4666 
L 4897 4666 
L 4897 0 
L 4281 0 
L 4281 4097 
L 3078 897 
L 2444 897 
L 1241 4097 
L 1241 0 
L 628 0 
L 628 4666 
z
" transform="scale(0.015625)"/>
       <path id="DejaVuSans-45" d="M 628 4666 
L 3578 4666 
L 3578 4134 
L 1259 4134 
L 1259 2753 
L 3481 2753 
L 3481 2222 
L 1259 2222 
L 1259 531 
L 3634 531 
L 3634 0 
L 628 0 
L 628 4666 
z
" transform="scale(0.015625)"/>
       <path id="DejaVuSans-53" d="M 3425 4513 
L 3425 3897 
Q 3066 4069 2747 4153 
Q 2428 4238 2131 4238 
Q 1616 4238 1336 4038 
Q 1056 3838 1056 3469 
Q 1056 3159 1242 3001 
Q 1428 2844 1947 2747 
L 2328 2669 
Q 3034 2534 3370 2195 
Q 3706 1856 3706 1288 
Q 3706 609 3251 259 
Q 2797 -91 1919 -91 
Q 1588 -91 1214 -16 
Q 841 59 441 206 
L 441 856 
Q 825 641 1194 531 
Q 1563 422 1919 422 
Q 2459 422 2753 634 
Q 3047 847 3047 1241 
Q 3047 1584 2836 1778 
Q 2625 1972 2144 2069 
L 1759 2144 
Q 1053 2284 737 2584 
Q 422 2884 422 3419 
Q 422 4038 858 4394 
Q 1294 4750 2059 4750 
Q 2388 4750 2728 4690 
Q 3069 4631 3425 4513 
z
" transform="scale(0.015625)"/>
      </defs>
      <use xlink:href="#DejaVuSans-56"/>
      <use xlink:href="#DejaVuSans-65" x="60.658203"/>
      <use xlink:href="#DejaVuSans-72" x="122.181641"/>
      <use xlink:href="#DejaVuSans-4d" x="163.294922"/>
      <use xlink:href="#DejaVuSans-45" x="249.574219"/>
      <use xlink:href="#DejaVuSans-53" x="312.757812"/>
     </g>
    </g>
   </g>
   <g id="matplotlib.axis_2">
    <g id="ytick_1">
     <g id="line2d_5">
      <defs>
       <path id="ma600d9e374" d="M 0 0 
L -3.5 0 
" style="stroke: #000000; stroke-width: 0.8"/>
      </defs>
      <g>
       <use xlink:href="#ma600d9e374" x="54.11" y="284.988392" style="stroke: #000000; stroke-width: 0.8"/>
      </g>
     </g>
     <g id="text_6">
      <!-- 1.00 -->
      <g transform="translate(24.844375 288.787611) scale(0.1 -0.1)">
       <defs>
        <path id="DejaVuSans-30" d="M 2034 4250 
Q 1547 4250 1301 3770 
Q 1056 3291 1056 2328 
Q 1056 1369 1301 889 
Q 1547 409 2034 409 
Q 2525 409 2770 889 
Q 3016 1369 3016 2328 
Q 3016 3291 2770 3770 
Q 2525 4250 2034 4250 
z
M 2034 4750 
Q 2819 4750 3233 4129 
Q 3647 3509 3647 2328 
Q 3647 1150 3233 529 
Q 2819 -91 2034 -91 
Q 1250 -91 836 529 
Q 422 1150 422 2328 
Q 422 3509 836 4129 
Q 1250 4750 2034 4750 
z
" transform="scale(0.015625)"/>
       </defs>
       <use xlink:href="#DejaVuSans-31"/>
       <use xlink:href="#DejaVuSans-2e" x="63.623047"/>
       <use xlink:href="#DejaVuSans-30" x="95.410156"/>
       <use xlink:href="#DejaVuSans-30" x="159.033203"/>
      </g>
     </g>
    </g>
    <g id="ytick_2">
     <g id="line2d_6">
      <g>
       <use xlink:href="#ma600d9e374" x="54.11" y="249.386636" style="stroke: #000000; stroke-width: 0.8"/>
      </g>
     </g>
     <g id="text_7">
      <!-- 1.05 -->
      <g transform="translate(24.844375 253.185855) scale(0.1 -0.1)">
       <defs>
        <path id="DejaVuSans-35" d="M 691 4666 
L 3169 4666 
L 3169 4134 
L 1269 4134 
L 1269 2991 
Q 1406 3038 1543 3061 
Q 1681 3084 1819 3084 
Q 2600 3084 3056 2656 
Q 3513 2228 3513 1497 
Q 3513 744 3044 326 
Q 2575 -91 1722 -91 
Q 1428 -91 1123 -41 
Q 819 9 494 109 
L 494 744 
Q 775 591 1075 516 
Q 1375 441 1709 441 
Q 2250 441 2565 725 
Q 2881 1009 2881 1497 
Q 2881 1984 2565 2268 
Q 2250 2553 1709 2553 
Q 1456 2553 1204 2497 
Q 953 2441 691 2322 
L 691 4666 
z
" transform="scale(0.015625)"/>
       </defs>
       <use xlink:href="#DejaVuSans-31"/>
       <use xlink:href="#DejaVuSans-2e" x="63.623047"/>
       <use xlink:href="#DejaVuSans-30" x="95.410156"/>
       <use xlink:href="#DejaVuSans-35" x="159.033203"/>
      </g>
     </g>
    </g>
    <g id="ytick_3">
     <g id="line2d_7">
      <g>
       <use xlink:href="#ma600d9e374" x="54.11" y="213.784881" style="stroke: #000000; stroke-width: 0.8"/>
      </g>
     </g>
     <g id="text_8">
      <!-- 1.10 -->
      <g transform="translate(24.844375 217.5841) scale(0.1 -0.1)">
       <use xlink:href="#DejaVuSans-31"/>
       <use xlink:href="#DejaVuSans-2e" x="63.623047"/>
       <use xlink:href="#DejaVuSans-31" x="95.410156"/>
       <use xlink:href="#DejaVuSans-30" x="159.033203"/>
      </g>
     </g>
    </g>
    <g id="ytick_4">
     <g id="line2d_8">
      <g>
       <use xlink:href="#ma600d9e374" x="54.11" y="178.183126" style="stroke: #000000; stroke-width: 0.8"/>
      </g>
     </g>
     <g id="text_9">
      <!-- 1.15 -->
      <g transform="translate(24.844375 181.982344) scale(0.1 -0.1)">
       <use xlink:href="#DejaVuSans-31"/>
       <use xlink:href="#DejaVuSans-2e" x="63.623047"/>
       <use xlink:href="#DejaVuSans-31" x="95.410156"/>
       <use xlink:href="#DejaVuSans-35" x="159.033203"/>
      </g>
     </g>
    </g>
    <g id="ytick_5">
     <g id="line2d_9">
      <g>
       <use xlink:href="#ma600d9e374" x="54.11" y="142.58137" style="stroke: #000000; stroke-width: 0.8"/>
      </g>
     </g>
     <g id="text_10">
      <!-- 1.20 -->
      <g transform="translate(24.844375 146.380589) scale(0.1 -0.1)">
       <use xlink:href="#DejaVuSans-31"/>
       <use xlink:href="#DejaVuSans-2e" x="63.623047"/>
       <use xlink:href="#DejaVuSans-32" x="95.410156"/>
       <use xlink:href="#DejaVuSans-30" x="159.033203"/>
      </g>
     </g>
    </g>
    <g id="ytick_6">
     <g id="line2d_10">
      <g>
       <use xlink:href="#ma600d9e374" x="54.11" y="106.979615" style="stroke: #000000; stroke-width: 0.8"/>
      </g>
     </g>
     <g id="text_11">
      <!-- 1.25 -->
      <g transform="translate(24.844375 110.778833) scale(0.1 -0.1)">
       <use xlink:href="#DejaVuSans-31"/>
       <use xlink:href="#DejaVuSans-2e" x="63.623047"/>
       <use xlink:href="#DejaVuSans-32" x="95.410156"/>
       <use xlink:href="#DejaVuSans-35" x="159.033203"/>
      </g>
     </g>
    </g>
    <g id="ytick_7">
     <g id="line2d_11">
      <g>
       <use xlink:href="#ma600d9e374" x="54.11" y="71.377859" style="stroke: #000000; stroke-width: 0.8"/>
      </g>
     </g>
     <g id="text_12">
      <!-- 1.30 -->
      <g transform="translate(24.844375 75.177078) scale(0.1 -0.1)">
       <use xlink:href="#DejaVuSans-31"/>
       <use xlink:href="#DejaVuSans-2e" x="63.623047"/>
       <use xlink:href="#DejaVuSans-33" x="95.410156"/>
       <use xlink:href="#DejaVuSans-30" x="159.033203"/>
      </g>
     </g>
    </g>
    <g id="ytick_8">
     <g id="line2d_12">
      <g>
       <use xlink:href="#ma600d9e374" x="54.11" y="35.776104" style="stroke: #000000; stroke-width: 0.8"/>
      </g>
     </g>
     <g id="text_13">
      <!-- 1.35 -->
      <g transform="translate(24.844375 39.575323) scale(0.1 -0.1)">
       <use xlink:href="#DejaVuSans-31"/>
       <use xlink:href="#DejaVuSans-2e" x="63.623047"/>
       <use xlink:href="#DejaVuSans-33" x="95.410156"/>
       <use xlink:href="#DejaVuSans-35" x="159.033203"/>
      </g>
     </g>
    </g>
    <g id="text_14">
     <!-- VerNL -->
     <g transform="translate(18.764688 171.911406) rotate(-90) scale(0.1 -0.1)">
      <defs>
       <path id="DejaVuSans-4e" d="M 628 4666 
L 1478 4666 
L 3547 763 
L 3547 4666 
L 4159 4666 
L 4159 0 
L 3309 0 
L 1241 3903 
L 1241 0 
L 628 0 
L 628 4666 
z
" transform="scale(0.015625)"/>
       <path id="DejaVuSans-4c" d="M 628 4666 
L 1259 4666 
L 1259 531 
L 3531 531 
L 3531 0 
L 628 0 
L 628 4666 
z
" transform="scale(0.015625)"/>
      </defs>
      <use xlink:href="#DejaVuSans-56"/>
      <use xlink:href="#DejaVuSans-65" x="60.658203"/>
      <use xlink:href="#DejaVuSans-72" x="122.181641"/>
      <use xlink:href="#DejaVuSans-4e" x="163.294922"/>
      <use xlink:href="#DejaVuSans-4c" x="238.099609"/>
     </g>
    </g>
   </g>
   <g id="patch_3">
    <path d="M 54.11 303.64 
L 54.11 10.8 
" style="fill: none; stroke: #000000; stroke-width: 0.8; stroke-linejoin: miter; stroke-linecap: square"/>
   </g>
   <g id="patch_4">
    <path d="M 450 303.64 
L 450 10.8 
" style="fill: none; stroke: #000000; stroke-width: 0.8; stroke-linejoin: miter; stroke-linecap: square"/>
   </g>
   <g id="patch_5">
    <path d="M 54.11 303.64 
L 450 303.64 
" style="fill: none; stroke: #000000; stroke-width: 0.8; stroke-linejoin: miter; stroke-linecap: square"/>
   </g>
   <g id="patch_6">
    <path d="M 54.11 10.8 
L 450 10.8 
" style="fill: none; stroke: #000000; stroke-width: 0.8; stroke-linejoin: miter; stroke-linecap: square"/>
   </g>
   <g id="legend_1">
    <g id="patch_7">
     <path d="M 373.375 92.190625 
L 443 92.190625 
Q 445 92.190625 445 90.190625 
L 445 17.8 
Q 445 15.8 443 15.8 
L 373.375 15.8 
Q 371.375 15.8 371.375 17.8 
L 371.375 90.190625 
Q 371.375 92.190625 373.375 92.190625 
z
" style="fill: #ffffff; opacity: 0.8; stroke: #cccccc; stroke-linejoin: miter"/>
    </g>
    <g id="text_15">
     <!-- CellType -->
     <g transform="translate(387.358594 27.398438) scale(0.1 -0.1)">
      <defs>
       <path id="DejaVuSans-43" d="M 4122 4306 
L 4122 3641 
Q 3803 3938 3442 4084 
Q 3081 4231 2675 4231 
Q 1875 4231 1450 3742 
Q 1025 3253 1025 2328 
Q 1025 1406 1450 917 
Q 1875 428 2675 428 
Q 3081 428 3442 575 
Q 3803 722 4122 1019 
L 4122 359 
Q 3791 134 3420 21 
Q 3050 -91 2638 -91 
Q 1578 -91 968 557 
Q 359 1206 359 2328 
Q 359 3453 968 4101 
Q 1578 4750 2638 4750 
Q 3056 4750 3426 4639 
Q 3797 4528 4122 4306 
z
" transform="scale(0.015625)"/>
       <path id="DejaVuSans-6c" d="M 603 4863 
L 1178 4863 
L 1178 0 
L 603 0 
L 603 4863 
z
" transform="scale(0.015625)"/>
       <path id="DejaVuSans-54" d="M -19 4666 
L 3928 4666 
L 3928 4134 
L 2272 4134 
L 2272 0 
L 1638 0 
L 1638 4134 
L -19 4134 
L -19 4666 
z
" transform="scale(0.015625)"/>
       <path id="DejaVuSans-79" d="M 2059 -325 
Q 1816 -950 1584 -1140 
Q 1353 -1331 966 -1331 
L 506 -1331 
L 506 -850 
L 844 -850 
Q 1081 -850 1212 -737 
Q 1344 -625 1503 -206 
L 1606 56 
L 191 3500 
L 800 3500 
L 1894 763 
L 2988 3500 
L 3597 3500 
L 2059 -325 
z
" transform="scale(0.015625)"/>
       <path id="DejaVuSans-70" d="M 1159 525 
L 1159 -1331 
L 581 -1331 
L 581 3500 
L 1159 3500 
L 1159 2969 
Q 1341 3281 1617 3432 
Q 1894 3584 2278 3584 
Q 2916 3584 3314 3078 
Q 3713 2572 3713 1747 
Q 3713 922 3314 415 
Q 2916 -91 2278 -91 
Q 1894 -91 1617 61 
Q 1341 213 1159 525 
z
M 3116 1747 
Q 3116 2381 2855 2742 
Q 2594 3103 2138 3103 
Q 1681 3103 1420 2742 
Q 1159 2381 1159 1747 
Q 1159 1113 1420 752 
Q 1681 391 2138 391 
Q 2594 391 2855 752 
Q 3116 1113 3116 1747 
z
" transform="scale(0.015625)"/>
      </defs>
      <use xlink:href="#DejaVuSans-43"/>
      <use xlink:href="#DejaVuSans-65" x="69.824219"/>
      <use xlink:href="#DejaVuSans-6c" x="131.347656"/>
      <use xlink:href="#DejaVuSans-6c" x="159.130859"/>
      <use xlink:href="#DejaVuSans-54" x="186.914062"/>
      <use xlink:href="#DejaVuSans-79" x="232.373047"/>
      <use xlink:href="#DejaVuSans-70" x="291.552734"/>
      <use xlink:href="#DejaVuSans-65" x="355.029297"/>
     </g>
    </g>
    <g id="PathCollection_6">
     <defs>
      <path id="m62fcbac0dc" d="M 0 3 
C 0.795609 3 1.55874 2.683901 2.12132 2.12132 
C 2.683901 1.55874 3 0.795609 3 0 
C 3 -0.795609 2.683901 -1.55874 2.12132 -2.12132 
C 1.55874 -2.683901 0.795609 -3 0 -3 
C -0.795609 -3 -1.55874 -2.683901 -2.12132 -2.12132 
C -2.683901 -1.55874 -3 -0.795609 -3 0 
C -3 0.795609 -2.683901 1.55874 -2.12132 2.12132 
C -1.55874 2.683901 -0.795609 3 0 3 
z
" style="stroke: #ff7f0e"/>
     </defs>
     <g>
      <use xlink:href="#m62fcbac0dc" x="385.375" y="39.451563" style="fill: #ff7f0e; stroke: #ff7f0e"/>
     </g>
    </g>
    <g id="text_16">
     <!-- VerCL -->
     <g transform="translate(403.375 42.076563) scale(0.1 -0.1)">
      <use xlink:href="#DejaVuSans-56"/>
      <use xlink:href="#DejaVuSans-65" x="60.658203"/>
      <use xlink:href="#DejaVuSans-72" x="122.181641"/>
      <use xlink:href="#DejaVuSans-43" x="163.294922"/>
      <use xlink:href="#DejaVuSans-4c" x="233.119141"/>
     </g>
    </g>
    <g id="PathCollection_7">
     <defs>
      <path id="m159424d5ea" d="M 0 3 
C 0.795609 3 1.55874 2.683901 2.12132 2.12132 
C 2.683901 1.55874 3 0.795609 3 0 
C 3 -0.795609 2.683901 -1.55874 2.12132 -2.12132 
C 1.55874 -2.683901 0.795609 -3 0 -3 
C -0.795609 -3 -1.55874 -2.683901 -2.12132 -2.12132 
C -2.683901 -1.55874 -3 -0.795609 -3 0 
C -3 0.795609 -2.683901 1.55874 -2.12132 2.12132 
C -1.55874 2.683901 -0.795609 3 0 3 
z
" style="stroke: #d62728"/>
     </defs>
     <g>
      <use xlink:href="#m159424d5ea" x="385.375" y="54.129688" style="fill: #d62728; stroke: #d62728"/>
     </g>
    </g>
    <g id="text_17">
     <!-- VerMES -->
     <g transform="translate(403.375 56.754688) scale(0.1 -0.1)">
      <use xlink:href="#DejaVuSans-56"/>
      <use xlink:href="#DejaVuSans-65" x="60.658203"/>
      <use xlink:href="#DejaVuSans-72" x="122.181641"/>
      <use xlink:href="#DejaVuSans-4d" x="163.294922"/>
      <use xlink:href="#DejaVuSans-45" x="249.574219"/>
      <use xlink:href="#DejaVuSans-53" x="312.757812"/>
     </g>
    </g>
    <g id="PathCollection_8">
     <defs>
      <path id="m80f1702e56" d="M 0 3 
C 0.795609 3 1.55874 2.683901 2.12132 2.12132 
C 2.683901 1.55874 3 0.795609 3 0 
C 3 -0.795609 2.683901 -1.55874 2.12132 -2.12132 
C 1.55874 -2.683901 0.795609 -3 0 -3 
C -0.795609 -3 -1.55874 -2.683901 -2.12132 -2.12132 
C -2.683901 -1.55874 -3 -0.795609 -3 0 
C -3 0.795609 -2.683901 1.55874 -2.12132 2.12132 
C -1.55874 2.683901 -0.795609 3 0 3 
z
" style="stroke: #1f77b4"/>
     </defs>
     <g>
      <use xlink:href="#m80f1702e56" x="385.375" y="68.807813" style="fill: #1f77b4; stroke: #1f77b4"/>
     </g>
    </g>
    <g id="text_18">
     <!-- VerPN -->
     <g transform="translate(403.375 71.432813) scale(0.1 -0.1)">
      <defs>
       <path id="DejaVuSans-50" d="M 1259 4147 
L 1259 2394 
L 2053 2394 
Q 2494 2394 2734 2622 
Q 2975 2850 2975 3272 
Q 2975 3691 2734 3919 
Q 2494 4147 2053 4147 
L 1259 4147 
z
M 628 4666 
L 2053 4666 
Q 2838 4666 3239 4311 
Q 3641 3956 3641 3272 
Q 3641 2581 3239 2228 
Q 2838 1875 2053 1875 
L 1259 1875 
L 1259 0 
L 628 0 
L 628 4666 
z
" transform="scale(0.015625)"/>
      </defs>
      <use xlink:href="#DejaVuSans-56"/>
      <use xlink:href="#DejaVuSans-65" x="60.658203"/>
      <use xlink:href="#DejaVuSans-72" x="122.181641"/>
      <use xlink:href="#DejaVuSans-50" x="163.294922"/>
      <use xlink:href="#DejaVuSans-4e" x="223.597656"/>
     </g>
    </g>
    <g id="PathCollection_9">
     <defs>
      <path id="m0120bec314" d="M 0 3 
C 0.795609 3 1.55874 2.683901 2.12132 2.12132 
C 2.683901 1.55874 3 0.795609 3 0 
C 3 -0.795609 2.683901 -1.55874 2.12132 -2.12132 
C 1.55874 -2.683901 0.795609 -3 0 -3 
C -0.795609 -3 -1.55874 -2.683901 -2.12132 -2.12132 
C -2.683901 -1.55874 -3 -0.795609 -3 0 
C -3 0.795609 -2.683901 1.55874 -2.12132 2.12132 
C -1.55874 2.683901 -0.795609 3 0 3 
z
" style="stroke: #2ca02c"/>
     </defs>
     <g>
      <use xlink:href="#m0120bec314" x="385.375" y="83.485938" style="fill: #2ca02c; stroke: #2ca02c"/>
     </g>
    </g>
    <g id="text_19">
     <!-- VerNL -->
     <g transform="translate(403.375 86.110938) scale(0.1 -0.1)">
      <use xlink:href="#DejaVuSans-56"/>
      <use xlink:href="#DejaVuSans-65" x="60.658203"/>
      <use xlink:href="#DejaVuSans-72" x="122.181641"/>
      <use xlink:href="#DejaVuSans-4e" x="163.294922"/>
      <use xlink:href="#DejaVuSans-4c" x="238.099609"/>
     </g>
    </g>
   </g>
  </g>
 </g>
 <defs>
  <clipPath id="p2d25a88df7">
   <rect x="54.11" y="10.8" width="395.89" height="292.84"/>
  </clipPath>
 </defs>
</svg>
