<?xml version="1.0" encoding="utf-8" standalone="no"?>
<!DOCTYPE svg PUBLIC "-//W3C//DTD SVG 1.1//EN"
  "http://www.w3.org/Graphics/SVG/1.1/DTD/svg11.dtd">
<svg xmlns:xlink="http://www.w3.org/1999/xlink" width="460.8pt" height="345.6pt" viewBox="0 0 460.8 345.6" xmlns="http://www.w3.org/2000/svg" version="1.1">
 <metadata>
  <rdf:RDF xmlns:dc="http://purl.org/dc/elements/1.1/" xmlns:cc="http://creativecommons.org/ns#" xmlns:rdf="http://www.w3.org/1999/02/22-rdf-syntax-ns#">
   <cc:Work>
    <dc:type rdf:resource="http://purl.org/dc/dcmitype/StillImage"/>
    <dc:date>2023-09-11T17:36:25.844249</dc:date>
    <dc:format>image/svg+xml</dc:format>
    <dc:creator>
     <cc:Agent>
      <dc:title>Matplotlib v3.7.1, https://matplotlib.org/</dc:title>
     </cc:Agent>
    </dc:creator>
   </cc:Work>
  </rdf:RDF>
 </metadata>
 <defs>
  <style type="text/css">*{stroke-linejoin: round; stroke-linecap: butt}</style>
 </defs>
 <g id="figure_1">
  <g id="patch_1">
   <path d="M 0 345.6 
L 460.8 345.6 
L 460.8 0 
L 0 0 
z
" style="fill: #ffffff"/>
  </g>
  <g id="axes_1">
   <g id="patch_2">
    <path d="M 47.81 303.64 
L 450 303.64 
L 450 10.8 
L 47.81 10.8 
z
" style="fill: #ffffff"/>
   </g>
   <g id="PathCollection_1">
    <defs>
     <path id="C0_0_c2886aee7a" d="M 0 1.581139 
C 0.419323 1.581139 0.821528 1.41454 1.118034 1.118034 
C 1.41454 0.821528 1.581139 0.419323 1.581139 -0 
C 1.581139 -0.419323 1.41454 -0.821528 1.118034 -1.118034 
C 0.821528 -1.41454 0.419323 -1.581139 0 -1.581139 
C -0.419323 -1.581139 -0.821528 -1.41454 -1.118034 -1.118034 
C -1.41454 -0.821528 -1.581139 -0.419323 -1.581139 0 
C -1.581139 0.419323 -1.41454 0.821528 -1.118034 1.118034 
C -0.821528 1.41454 -0.419323 1.581139 0 1.581139 
z
"/>
    </defs>
    <g clip-path="url(#p1ffc6181c6)">
     <use xlink:href="#C0_0_c2886aee7a" x="271.521358" y="72.182847" style="fill: #ff7f0e"/>
    </g>
    <g clip-path="url(#p1ffc6181c6)">
     <use xlink:href="#C0_0_c2886aee7a" x="89.079864" y="290.329091" style="fill: #d62728"/>
    </g>
    <g clip-path="url(#p1ffc6181c6)">
     <use xlink:href="#C0_0_c2886aee7a" x="220.473962" y="118.824971" style="fill: #ff7f0e"/>
    </g>
    <g clip-path="url(#p1ffc6181c6)">
     <use xlink:href="#C0_0_c2886aee7a" x="220.342159" y="139.733159" style="fill: #ff7f0e"/>
    </g>
    <g clip-path="url(#p1ffc6181c6)">
     <use xlink:href="#C0_0_c2886aee7a" x="235.008882" y="128.372395" style="fill: #ff7f0e"/>
    </g>
    <g clip-path="url(#p1ffc6181c6)">
     <use xlink:href="#C0_0_c2886aee7a" x="236.376593" y="150.233175" style="fill: #d62728"/>
    </g>
    <g clip-path="url(#p1ffc6181c6)">
     <use xlink:href="#C0_0_c2886aee7a" x="282.354235" y="120.962443" style="fill: #ff7f0e"/>
    </g>
    <g clip-path="url(#p1ffc6181c6)">
     <use xlink:href="#C0_0_c2886aee7a" x="289.988633" y="116.814886" style="fill: #d62728"/>
    </g>
    <g clip-path="url(#p1ffc6181c6)">
     <use xlink:href="#C0_0_c2886aee7a" x="160.931187" y="125.193291" style="fill: #d62728"/>
    </g>
    <g clip-path="url(#p1ffc6181c6)">
     <use xlink:href="#C0_0_c2886aee7a" x="192.74261" y="232.390271" style="fill: #d62728"/>
    </g>
    <g clip-path="url(#p1ffc6181c6)">
     <use xlink:href="#C0_0_c2886aee7a" x="165.860717" y="159.165031" style="fill: #d62728"/>
    </g>
    <g clip-path="url(#p1ffc6181c6)">
     <use xlink:href="#C0_0_c2886aee7a" x="362.777974" y="36.138991" style="fill: #2ca02c"/>
    </g>
    <g clip-path="url(#p1ffc6181c6)">
     <use xlink:href="#C0_0_c2886aee7a" x="393.937369" y="36.842015" style="fill: #2ca02c"/>
    </g>
    <g clip-path="url(#p1ffc6181c6)">
     <use xlink:href="#C0_0_c2886aee7a" x="115.649339" y="183.599588" style="fill: #d62728"/>
    </g>
    <g clip-path="url(#p1ffc6181c6)">
     <use xlink:href="#C0_0_c2886aee7a" x="303.083853" y="125.316194" style="fill: #ff7f0e"/>
    </g>
    <g clip-path="url(#p1ffc6181c6)">
     <use xlink:href="#C0_0_c2886aee7a" x="87.950718" y="273.606792" style="fill: #d62728"/>
    </g>
    <g clip-path="url(#p1ffc6181c6)">
     <use xlink:href="#C0_0_c2886aee7a" x="215.900147" y="190.313687" style="fill: #ff7f0e"/>
    </g>
    <g clip-path="url(#p1ffc6181c6)">
     <use xlink:href="#C0_0_c2886aee7a" x="269.386771" y="65.967457" style="fill: #ff7f0e"/>
    </g>
    <g clip-path="url(#p1ffc6181c6)">
     <use xlink:href="#C0_0_c2886aee7a" x="249.790842" y="137.403497" style="fill: #ff7f0e"/>
    </g>
    <g clip-path="url(#p1ffc6181c6)">
     <use xlink:href="#C0_0_c2886aee7a" x="264.408887" y="105.977723" style="fill: #ff7f0e"/>
    </g>
    <g clip-path="url(#p1ffc6181c6)">
     <use xlink:href="#C0_0_c2886aee7a" x="406.41079" y="86.710388" style="fill: #ff7f0e"/>
    </g>
    <g clip-path="url(#p1ffc6181c6)">
     <use xlink:href="#C0_0_c2886aee7a" x="326.368921" y="74.444965" style="fill: #ff7f0e"/>
    </g>
    <g clip-path="url(#p1ffc6181c6)">
     <use xlink:href="#C0_0_c2886aee7a" x="269.778077" y="108.255032" style="fill: #ff7f0e"/>
    </g>
    <g clip-path="url(#p1ffc6181c6)">
     <use xlink:href="#C0_0_c2886aee7a" x="188.971953" y="150.722886" style="fill: #ff7f0e"/>
    </g>
    <g clip-path="url(#p1ffc6181c6)">
     <use xlink:href="#C0_0_c2886aee7a" x="314.661761" y="36.122755" style="fill: #ff7f0e"/>
    </g>
    <g clip-path="url(#p1ffc6181c6)">
     <use xlink:href="#C0_0_c2886aee7a" x="265.274565" y="117.932402" style="fill: #ff7f0e"/>
    </g>
    <g clip-path="url(#p1ffc6181c6)">
     <use xlink:href="#C0_0_c2886aee7a" x="299.693587" y="46.792933" style="fill: #2ca02c"/>
    </g>
    <g clip-path="url(#p1ffc6181c6)">
     <use xlink:href="#C0_0_c2886aee7a" x="348.453269" y="24.110909" style="fill: #2ca02c"/>
    </g>
    <g clip-path="url(#p1ffc6181c6)">
     <use xlink:href="#C0_0_c2886aee7a" x="66.091364" y="256.670029" style="fill: #d62728"/>
    </g>
    <g clip-path="url(#p1ffc6181c6)">
     <use xlink:href="#C0_0_c2886aee7a" x="342.673673" y="82.254673" style="fill: #ff7f0e"/>
    </g>
    <g clip-path="url(#p1ffc6181c6)">
     <use xlink:href="#C0_0_c2886aee7a" x="159.630812" y="145.470252" style="fill: #ff7f0e"/>
    </g>
    <g clip-path="url(#p1ffc6181c6)">
     <use xlink:href="#C0_0_c2886aee7a" x="294.02401" y="114.190415" style="fill: #ff7f0e"/>
    </g>
    <g clip-path="url(#p1ffc6181c6)">
     <use xlink:href="#C0_0_c2886aee7a" x="431.718636" y="56.416914" style="fill: #ff7f0e"/>
    </g>
    <g clip-path="url(#p1ffc6181c6)">
     <use xlink:href="#C0_0_c2886aee7a" x="184.435436" y="151.914805" style="fill: #d62728"/>
    </g>
    <g clip-path="url(#p1ffc6181c6)">
     <use xlink:href="#C0_0_c2886aee7a" x="146.920207" y="204.928382" style="fill: #d62728"/>
    </g>
    <g clip-path="url(#p1ffc6181c6)">
     <use xlink:href="#C0_0_c2886aee7a" x="317.834557" y="70.400792" style="fill: #ff7f0e"/>
    </g>
    <g clip-path="url(#p1ffc6181c6)">
     <use xlink:href="#C0_0_c2886aee7a" x="229.122669" y="136.721536" style="fill: #d62728"/>
    </g>
    <g clip-path="url(#p1ffc6181c6)">
     <use xlink:href="#C0_0_c2886aee7a" x="221.762975" y="170.156799" style="fill: #ff7f0e"/>
    </g>
    <g clip-path="url(#p1ffc6181c6)">
     <use xlink:href="#C0_0_c2886aee7a" x="267.25326" y="98.258465" style="fill: #ff7f0e"/>
    </g>
    <g clip-path="url(#p1ffc6181c6)">
     <use xlink:href="#C0_0_c2886aee7a" x="183.928014" y="145.775308" style="fill: #ff7f0e"/>
    </g>
    <g clip-path="url(#p1ffc6181c6)">
     <use xlink:href="#C0_0_c2886aee7a" x="163.34996" y="133.287921" style="fill: #ff7f0e"/>
    </g>
    <g clip-path="url(#p1ffc6181c6)">
     <use xlink:href="#C0_0_c2886aee7a" x="334.887208" y="81.117802" style="fill: #ff7f0e"/>
    </g>
    <g clip-path="url(#p1ffc6181c6)">
     <use xlink:href="#C0_0_c2886aee7a" x="308.327644" y="99.30683" style="fill: #ff7f0e"/>
    </g>
    <g clip-path="url(#p1ffc6181c6)">
     <use xlink:href="#C0_0_c2886aee7a" x="207.478642" y="118.254151" style="fill: #ff7f0e"/>
    </g>
    <g clip-path="url(#p1ffc6181c6)">
     <use xlink:href="#C0_0_c2886aee7a" x="280.75225" y="100.682476" style="fill: #ff7f0e"/>
    </g>
    <g clip-path="url(#p1ffc6181c6)">
     <use xlink:href="#C0_0_c2886aee7a" x="253.76561" y="127.186348" style="fill: #ff7f0e"/>
    </g>
    <g clip-path="url(#p1ffc6181c6)">
     <use xlink:href="#C0_0_c2886aee7a" x="331.610576" y="47.943254" style="fill: #ff7f0e"/>
    </g>
    <g clip-path="url(#p1ffc6181c6)">
     <use xlink:href="#C0_0_c2886aee7a" x="215.70281" y="129.705118" style="fill: #ff7f0e"/>
    </g>
    <g clip-path="url(#p1ffc6181c6)">
     <use xlink:href="#C0_0_c2886aee7a" x="224.187063" y="117.1722" style="fill: #ff7f0e"/>
    </g>
    <g clip-path="url(#p1ffc6181c6)">
     <use xlink:href="#C0_0_c2886aee7a" x="342.357557" y="37.359444" style="fill: #2ca02c"/>
    </g>
    <g clip-path="url(#p1ffc6181c6)">
     <use xlink:href="#C0_0_c2886aee7a" x="335.604245" y="110.274686" style="fill: #ff7f0e"/>
    </g>
    <g clip-path="url(#p1ffc6181c6)">
     <use xlink:href="#C0_0_c2886aee7a" x="316.218364" y="141.500625" style="fill: #ff7f0e"/>
    </g>
    <g clip-path="url(#p1ffc6181c6)">
     <use xlink:href="#C0_0_c2886aee7a" x="403.069918" y="53.283721" style="fill: #ff7f0e"/>
    </g>
    <g clip-path="url(#p1ffc6181c6)">
     <use xlink:href="#C0_0_c2886aee7a" x="211.393522" y="124.171854" style="fill: #ff7f0e"/>
    </g>
    <g clip-path="url(#p1ffc6181c6)">
     <use xlink:href="#C0_0_c2886aee7a" x="179.869915" y="111.640861" style="fill: #ff7f0e"/>
    </g>
    <g clip-path="url(#p1ffc6181c6)">
     <use xlink:href="#C0_0_c2886aee7a" x="428.214038" y="52.951125" style="fill: #2ca02c"/>
    </g>
    <g clip-path="url(#p1ffc6181c6)">
     <use xlink:href="#C0_0_c2886aee7a" x="173.710423" y="129.072299" style="fill: #ff7f0e"/>
    </g>
    <g clip-path="url(#p1ffc6181c6)">
     <use xlink:href="#C0_0_c2886aee7a" x="208.967043" y="145.531492" style="fill: #ff7f0e"/>
    </g>
    <g clip-path="url(#p1ffc6181c6)">
     <use xlink:href="#C0_0_c2886aee7a" x="347.042939" y="79.97342" style="fill: #ff7f0e"/>
    </g>
    <g clip-path="url(#p1ffc6181c6)">
     <use xlink:href="#C0_0_c2886aee7a" x="307.641886" y="128.148603" style="fill: #ff7f0e"/>
    </g>
    <g clip-path="url(#p1ffc6181c6)">
     <use xlink:href="#C0_0_c2886aee7a" x="342.225202" y="89.588589" style="fill: #d62728"/>
    </g>
    <g clip-path="url(#p1ffc6181c6)">
     <use xlink:href="#C0_0_c2886aee7a" x="358.06467" y="70.665956" style="fill: #ff7f0e"/>
    </g>
    <g clip-path="url(#p1ffc6181c6)">
     <use xlink:href="#C0_0_c2886aee7a" x="139.172201" y="244.164451" style="fill: #d62728"/>
    </g>
    <g clip-path="url(#p1ffc6181c6)">
     <use xlink:href="#C0_0_c2886aee7a" x="213.384066" y="139.884873" style="fill: #ff7f0e"/>
    </g>
    <g clip-path="url(#p1ffc6181c6)">
     <use xlink:href="#C0_0_c2886aee7a" x="295.925355" y="41.35422" style="fill: #2ca02c"/>
    </g>
    <g clip-path="url(#p1ffc6181c6)">
     <use xlink:href="#C0_0_c2886aee7a" x="133.488189" y="184.365818" style="fill: #ff7f0e"/>
    </g>
    <g clip-path="url(#p1ffc6181c6)">
     <use xlink:href="#C0_0_c2886aee7a" x="157.173688" y="178.25372" style="fill: #ff7f0e"/>
    </g>
    <g clip-path="url(#p1ffc6181c6)">
     <use xlink:href="#C0_0_c2886aee7a" x="313.715932" y="85.197312" style="fill: #ff7f0e"/>
    </g>
    <g clip-path="url(#p1ffc6181c6)">
     <use xlink:href="#C0_0_c2886aee7a" x="330.854938" y="77.709197" style="fill: #ff7f0e"/>
    </g>
    <g clip-path="url(#p1ffc6181c6)">
     <use xlink:href="#C0_0_c2886aee7a" x="289.414695" y="116.841934" style="fill: #ff7f0e"/>
    </g>
    <g clip-path="url(#p1ffc6181c6)">
     <use xlink:href="#C0_0_c2886aee7a" x="70.85734" y="191.195239" style="fill: #d62728"/>
    </g>
    <g clip-path="url(#p1ffc6181c6)">
     <use xlink:href="#C0_0_c2886aee7a" x="257.5361" y="80.667894" style="fill: #ff7f0e"/>
    </g>
    <g clip-path="url(#p1ffc6181c6)">
     <use xlink:href="#C0_0_c2886aee7a" x="196.709862" y="90.939974" style="fill: #ff7f0e"/>
    </g>
    <g clip-path="url(#p1ffc6181c6)">
     <use xlink:href="#C0_0_c2886aee7a" x="334.695769" y="32.107859" style="fill: #2ca02c"/>
    </g>
    <g clip-path="url(#p1ffc6181c6)">
     <use xlink:href="#C0_0_c2886aee7a" x="388.434383" y="67.830141" style="fill: #ff7f0e"/>
    </g>
    <g clip-path="url(#p1ffc6181c6)">
     <use xlink:href="#C0_0_c2886aee7a" x="169.819527" y="140.939339" style="fill: #ff7f0e"/>
    </g>
    <g clip-path="url(#p1ffc6181c6)">
     <use xlink:href="#C0_0_c2886aee7a" x="254.516756" y="112.446347" style="fill: #ff7f0e"/>
    </g>
    <g clip-path="url(#p1ffc6181c6)">
     <use xlink:href="#C0_0_c2886aee7a" x="212.951761" y="92.660078" style="fill: #ff7f0e"/>
    </g>
    <g clip-path="url(#p1ffc6181c6)">
     <use xlink:href="#C0_0_c2886aee7a" x="303.719669" y="58.818631" style="fill: #ff7f0e"/>
    </g>
    <g clip-path="url(#p1ffc6181c6)">
     <use xlink:href="#C0_0_c2886aee7a" x="293.948006" y="96.117664" style="fill: #ff7f0e"/>
    </g>
    <g clip-path="url(#p1ffc6181c6)">
     <use xlink:href="#C0_0_c2886aee7a" x="353.392239" y="71.94094" style="fill: #d62728"/>
    </g>
    <g clip-path="url(#p1ffc6181c6)">
     <use xlink:href="#C0_0_c2886aee7a" x="217.874338" y="114.057707" style="fill: #ff7f0e"/>
    </g>
    <g clip-path="url(#p1ffc6181c6)">
     <use xlink:href="#C0_0_c2886aee7a" x="351.13239" y="26.374761" style="fill: #2ca02c"/>
    </g>
    <g clip-path="url(#p1ffc6181c6)">
     <use xlink:href="#C0_0_c2886aee7a" x="253.40481" y="104.208813" style="fill: #ff7f0e"/>
    </g>
    <g clip-path="url(#p1ffc6181c6)">
     <use xlink:href="#C0_0_c2886aee7a" x="296.538233" y="81.628567" style="fill: #ff7f0e"/>
    </g>
    <g clip-path="url(#p1ffc6181c6)">
     <use xlink:href="#C0_0_c2886aee7a" x="230.748081" y="142.519118" style="fill: #ff7f0e"/>
    </g>
    <g clip-path="url(#p1ffc6181c6)">
     <use xlink:href="#C0_0_c2886aee7a" x="374.222095" y="34.072508" style="fill: #ff7f0e"/>
    </g>
    <g clip-path="url(#p1ffc6181c6)">
     <use xlink:href="#C0_0_c2886aee7a" x="274.238639" y="107.347512" style="fill: #ff7f0e"/>
    </g>
    <g clip-path="url(#p1ffc6181c6)">
     <use xlink:href="#C0_0_c2886aee7a" x="256.707609" y="123.676962" style="fill: #ff7f0e"/>
    </g>
    <g clip-path="url(#p1ffc6181c6)">
     <use xlink:href="#C0_0_c2886aee7a" x="240.973105" y="97.479786" style="fill: #ff7f0e"/>
    </g>
    <g clip-path="url(#p1ffc6181c6)">
     <use xlink:href="#C0_0_c2886aee7a" x="180.286811" y="131.47571" style="fill: #d62728"/>
    </g>
    <g clip-path="url(#p1ffc6181c6)">
     <use xlink:href="#C0_0_c2886aee7a" x="156.696643" y="142.047398" style="fill: #ff7f0e"/>
    </g>
    <g clip-path="url(#p1ffc6181c6)">
     <use xlink:href="#C0_0_c2886aee7a" x="229.768321" y="104.870932" style="fill: #ff7f0e"/>
    </g>
    <g clip-path="url(#p1ffc6181c6)">
     <use xlink:href="#C0_0_c2886aee7a" x="344.589403" y="104.883477" style="fill: #ff7f0e"/>
    </g>
    <g clip-path="url(#p1ffc6181c6)">
     <use xlink:href="#C0_0_c2886aee7a" x="328.008799" y="92.023033" style="fill: #ff7f0e"/>
    </g>
    <g clip-path="url(#p1ffc6181c6)">
     <use xlink:href="#C0_0_c2886aee7a" x="207.326876" y="141.313874" style="fill: #d62728"/>
    </g>
    <g clip-path="url(#p1ffc6181c6)">
     <use xlink:href="#C0_0_c2886aee7a" x="235.554364" y="113.747193" style="fill: #ff7f0e"/>
    </g>
    <g clip-path="url(#p1ffc6181c6)">
     <use xlink:href="#C0_0_c2886aee7a" x="85.89287" y="253.685267" style="fill: #d62728"/>
    </g>
    <g clip-path="url(#p1ffc6181c6)">
     <use xlink:href="#C0_0_c2886aee7a" x="69.397878" y="275.394444" style="fill: #d62728"/>
    </g>
    <g clip-path="url(#p1ffc6181c6)">
     <use xlink:href="#C0_0_c2886aee7a" x="322.549469" y="61.829207" style="fill: #ff7f0e"/>
    </g>
    <g clip-path="url(#p1ffc6181c6)">
     <use xlink:href="#C0_0_c2886aee7a" x="310.437433" y="76.547164" style="fill: #ff7f0e"/>
    </g>
    <g clip-path="url(#p1ffc6181c6)">
     <use xlink:href="#C0_0_c2886aee7a" x="214.394119" y="114.830286" style="fill: #ff7f0e"/>
    </g>
    <g clip-path="url(#p1ffc6181c6)">
     <use xlink:href="#C0_0_c2886aee7a" x="148.036336" y="138.428327" style="fill: #ff7f0e"/>
    </g>
    <g clip-path="url(#p1ffc6181c6)">
     <use xlink:href="#C0_0_c2886aee7a" x="322.266249" y="40.425356" style="fill: #2ca02c"/>
    </g>
    <g clip-path="url(#p1ffc6181c6)">
     <use xlink:href="#C0_0_c2886aee7a" x="133.510371" y="184.160205" style="fill: #d62728"/>
    </g>
    <g clip-path="url(#p1ffc6181c6)">
     <use xlink:href="#C0_0_c2886aee7a" x="247.607983" y="154.380383" style="fill: #ff7f0e"/>
    </g>
    <g clip-path="url(#p1ffc6181c6)">
     <use xlink:href="#C0_0_c2886aee7a" x="345.794277" y="58.628638" style="fill: #ff7f0e"/>
    </g>
    <g clip-path="url(#p1ffc6181c6)">
     <use xlink:href="#C0_0_c2886aee7a" x="248.003135" y="106.595488" style="fill: #ff7f0e"/>
    </g>
    <g clip-path="url(#p1ffc6181c6)">
     <use xlink:href="#C0_0_c2886aee7a" x="264.229743" y="77.732704" style="fill: #ff7f0e"/>
    </g>
    <g clip-path="url(#p1ffc6181c6)">
     <use xlink:href="#C0_0_c2886aee7a" x="233.209878" y="113.935941" style="fill: #ff7f0e"/>
    </g>
    <g clip-path="url(#p1ffc6181c6)">
     <use xlink:href="#C0_0_c2886aee7a" x="342.246006" y="110.210985" style="fill: #ff7f0e"/>
    </g>
    <g clip-path="url(#p1ffc6181c6)">
     <use xlink:href="#C0_0_c2886aee7a" x="263.709469" y="101.344266" style="fill: #d62728"/>
    </g>
    <g clip-path="url(#p1ffc6181c6)">
     <use xlink:href="#C0_0_c2886aee7a" x="298.653382" y="51.128944" style="fill: #ff7f0e"/>
    </g>
    <g clip-path="url(#p1ffc6181c6)">
     <use xlink:href="#C0_0_c2886aee7a" x="276.620011" y="92.273574" style="fill: #ff7f0e"/>
    </g>
    <g clip-path="url(#p1ffc6181c6)">
     <use xlink:href="#C0_0_c2886aee7a" x="243.746709" y="108.835471" style="fill: #ff7f0e"/>
    </g>
    <g clip-path="url(#p1ffc6181c6)">
     <use xlink:href="#C0_0_c2886aee7a" x="222.321001" y="137.112704" style="fill: #ff7f0e"/>
    </g>
    <g clip-path="url(#p1ffc6181c6)">
     <use xlink:href="#C0_0_c2886aee7a" x="381.404728" y="35.00692" style="fill: #ff7f0e"/>
    </g>
    <g clip-path="url(#p1ffc6181c6)">
     <use xlink:href="#C0_0_c2886aee7a" x="267.026525" y="95.629334" style="fill: #ff7f0e"/>
    </g>
    <g clip-path="url(#p1ffc6181c6)">
     <use xlink:href="#C0_0_c2886aee7a" x="315.170589" y="54.72285" style="fill: #ff7f0e"/>
    </g>
    <g clip-path="url(#p1ffc6181c6)">
     <use xlink:href="#C0_0_c2886aee7a" x="423.817357" y="35.484426" style="fill: #2ca02c"/>
    </g>
    <g clip-path="url(#p1ffc6181c6)">
     <use xlink:href="#C0_0_c2886aee7a" x="295.083194" y="121.039692" style="fill: #ff7f0e"/>
    </g>
    <g clip-path="url(#p1ffc6181c6)">
     <use xlink:href="#C0_0_c2886aee7a" x="343.11208" y="42.16658" style="fill: #ff7f0e"/>
    </g>
    <g clip-path="url(#p1ffc6181c6)">
     <use xlink:href="#C0_0_c2886aee7a" x="239.562069" y="98.606442" style="fill: #ff7f0e"/>
    </g>
    <g clip-path="url(#p1ffc6181c6)">
     <use xlink:href="#C0_0_c2886aee7a" x="233.637501" y="137.301691" style="fill: #ff7f0e"/>
    </g>
    <g clip-path="url(#p1ffc6181c6)">
     <use xlink:href="#C0_0_c2886aee7a" x="302.739069" y="77.18781" style="fill: #ff7f0e"/>
    </g>
    <g clip-path="url(#p1ffc6181c6)">
     <use xlink:href="#C0_0_c2886aee7a" x="311.670059" y="86.244287" style="fill: #ff7f0e"/>
    </g>
    <g clip-path="url(#p1ffc6181c6)">
     <use xlink:href="#C0_0_c2886aee7a" x="274.779568" y="77.565858" style="fill: #ff7f0e"/>
    </g>
    <g clip-path="url(#p1ffc6181c6)">
     <use xlink:href="#C0_0_c2886aee7a" x="226.168067" y="136.673427" style="fill: #ff7f0e"/>
    </g>
    <g clip-path="url(#p1ffc6181c6)">
     <use xlink:href="#C0_0_c2886aee7a" x="163.044026" y="153.567748" style="fill: #ff7f0e"/>
    </g>
    <g clip-path="url(#p1ffc6181c6)">
     <use xlink:href="#C0_0_c2886aee7a" x="362.233522" y="100.048613" style="fill: #ff7f0e"/>
    </g>
    <g clip-path="url(#p1ffc6181c6)">
     <use xlink:href="#C0_0_c2886aee7a" x="135.599614" y="149.804456" style="fill: #d62728"/>
    </g>
    <g clip-path="url(#p1ffc6181c6)">
     <use xlink:href="#C0_0_c2886aee7a" x="166.124455" y="126.017036" style="fill: #ff7f0e"/>
    </g>
    <g clip-path="url(#p1ffc6181c6)">
     <use xlink:href="#C0_0_c2886aee7a" x="319.822669" y="59.338547" style="fill: #ff7f0e"/>
    </g>
    <g clip-path="url(#p1ffc6181c6)">
     <use xlink:href="#C0_0_c2886aee7a" x="262.944565" y="69.026313" style="fill: #d62728"/>
    </g>
    <g clip-path="url(#p1ffc6181c6)">
     <use xlink:href="#C0_0_c2886aee7a" x="206.40967" y="144.138585" style="fill: #d62728"/>
    </g>
    <g clip-path="url(#p1ffc6181c6)">
     <use xlink:href="#C0_0_c2886aee7a" x="238.664496" y="126.129117" style="fill: #ff7f0e"/>
    </g>
    <g clip-path="url(#p1ffc6181c6)">
     <use xlink:href="#C0_0_c2886aee7a" x="267.549404" y="170.715701" style="fill: #d62728"/>
    </g>
    <g clip-path="url(#p1ffc6181c6)">
     <use xlink:href="#C0_0_c2886aee7a" x="377.624252" y="51.03049" style="fill: #ff7f0e"/>
    </g>
    <g clip-path="url(#p1ffc6181c6)">
     <use xlink:href="#C0_0_c2886aee7a" x="368.139583" y="131.208516" style="fill: #ff7f0e"/>
    </g>
    <g clip-path="url(#p1ffc6181c6)">
     <use xlink:href="#C0_0_c2886aee7a" x="267.85515" y="103.432591" style="fill: #ff7f0e"/>
    </g>
    <g clip-path="url(#p1ffc6181c6)">
     <use xlink:href="#C0_0_c2886aee7a" x="342.679543" y="53.542279" style="fill: #ff7f0e"/>
    </g>
    <g clip-path="url(#p1ffc6181c6)">
     <use xlink:href="#C0_0_c2886aee7a" x="182.608573" y="126.182557" style="fill: #ff7f0e"/>
    </g>
    <g clip-path="url(#p1ffc6181c6)">
     <use xlink:href="#C0_0_c2886aee7a" x="310.984066" y="52.026693" style="fill: #ff7f0e"/>
    </g>
    <g clip-path="url(#p1ffc6181c6)">
     <use xlink:href="#C0_0_c2886aee7a" x="269.835613" y="70.114191" style="fill: #ff7f0e"/>
    </g>
    <g clip-path="url(#p1ffc6181c6)">
     <use xlink:href="#C0_0_c2886aee7a" x="298.407247" y="74.371633" style="fill: #ff7f0e"/>
    </g>
    <g clip-path="url(#p1ffc6181c6)">
     <use xlink:href="#C0_0_c2886aee7a" x="239.184268" y="90.218094" style="fill: #ff7f0e"/>
    </g>
    <g clip-path="url(#p1ffc6181c6)">
     <use xlink:href="#C0_0_c2886aee7a" x="220.14771" y="130.754814" style="fill: #ff7f0e"/>
    </g>
    <g clip-path="url(#p1ffc6181c6)">
     <use xlink:href="#C0_0_c2886aee7a" x="241.101582" y="122.352994" style="fill: #ff7f0e"/>
    </g>
    <g clip-path="url(#p1ffc6181c6)">
     <use xlink:href="#C0_0_c2886aee7a" x="297.570089" y="108.99457" style="fill: #ff7f0e"/>
    </g>
    <g clip-path="url(#p1ffc6181c6)">
     <use xlink:href="#C0_0_c2886aee7a" x="225.945872" y="151.108318" style="fill: #d62728"/>
    </g>
    <g clip-path="url(#p1ffc6181c6)">
     <use xlink:href="#C0_0_c2886aee7a" x="270.033203" y="82.846978" style="fill: #ff7f0e"/>
    </g>
    <g clip-path="url(#p1ffc6181c6)">
     <use xlink:href="#C0_0_c2886aee7a" x="310.394112" y="80.341112" style="fill: #ff7f0e"/>
    </g>
    <g clip-path="url(#p1ffc6181c6)">
     <use xlink:href="#C0_0_c2886aee7a" x="167.34262" y="137.822588" style="fill: #ff7f0e"/>
    </g>
    <g clip-path="url(#p1ffc6181c6)">
     <use xlink:href="#C0_0_c2886aee7a" x="165.900999" y="145.785367" style="fill: #ff7f0e"/>
    </g>
    <g clip-path="url(#p1ffc6181c6)">
     <use xlink:href="#C0_0_c2886aee7a" x="323.035292" y="145.651469" style="fill: #ff7f0e"/>
    </g>
    <g clip-path="url(#p1ffc6181c6)">
     <use xlink:href="#C0_0_c2886aee7a" x="196.60412" y="142.949907" style="fill: #d62728"/>
    </g>
    <g clip-path="url(#p1ffc6181c6)">
     <use xlink:href="#C0_0_c2886aee7a" x="302.113921" y="76.074983" style="fill: #ff7f0e"/>
    </g>
    <g clip-path="url(#p1ffc6181c6)">
     <use xlink:href="#C0_0_c2886aee7a" x="142.169671" y="153.415536" style="fill: #d62728"/>
    </g>
    <g clip-path="url(#p1ffc6181c6)">
     <use xlink:href="#C0_0_c2886aee7a" x="373.634508" y="67.983125" style="fill: #ff7f0e"/>
    </g>
    <g clip-path="url(#p1ffc6181c6)">
     <use xlink:href="#C0_0_c2886aee7a" x="174.120891" y="124.100181" style="fill: #ff7f0e"/>
    </g>
    <g clip-path="url(#p1ffc6181c6)">
     <use xlink:href="#C0_0_c2886aee7a" x="208.88213" y="121.649627" style="fill: #ff7f0e"/>
    </g>
    <g clip-path="url(#p1ffc6181c6)">
     <use xlink:href="#C0_0_c2886aee7a" x="329.799055" y="51.530807" style="fill: #ff7f0e"/>
    </g>
    <g clip-path="url(#p1ffc6181c6)">
     <use xlink:href="#C0_0_c2886aee7a" x="280.63747" y="102.551807" style="fill: #ff7f0e"/>
    </g>
    <g clip-path="url(#p1ffc6181c6)">
     <use xlink:href="#C0_0_c2886aee7a" x="289.79932" y="103.391375" style="fill: #ff7f0e"/>
    </g>
    <g clip-path="url(#p1ffc6181c6)">
     <use xlink:href="#C0_0_c2886aee7a" x="398.065946" y="68.365805" style="fill: #ff7f0e"/>
    </g>
    <g clip-path="url(#p1ffc6181c6)">
     <use xlink:href="#C0_0_c2886aee7a" x="255.824003" y="125.776396" style="fill: #ff7f0e"/>
    </g>
    <g clip-path="url(#p1ffc6181c6)">
     <use xlink:href="#C0_0_c2886aee7a" x="133.153032" y="176.246029" style="fill: #ff7f0e"/>
    </g>
    <g clip-path="url(#p1ffc6181c6)">
     <use xlink:href="#C0_0_c2886aee7a" x="351.236725" y="55.781903" style="fill: #2ca02c"/>
    </g>
    <g clip-path="url(#p1ffc6181c6)">
     <use xlink:href="#C0_0_c2886aee7a" x="333.524648" y="88.244407" style="fill: #ff7f0e"/>
    </g>
    <g clip-path="url(#p1ffc6181c6)">
     <use xlink:href="#C0_0_c2886aee7a" x="216.384358" y="190.320262" style="fill: #d62728"/>
    </g>
   </g>
   <g id="PathCollection_2"/>
   <g id="PathCollection_3"/>
   <g id="PathCollection_4"/>
   <g id="matplotlib.axis_1">
    <g id="xtick_1">
     <g id="line2d_1">
      <defs>
       <path id="m3385fdae1e" d="M 0 0 
L 0 3.5 
" style="stroke: #000000; stroke-width: 0.8"/>
      </defs>
      <g>
       <use xlink:href="#m3385fdae1e" x="50.731784" y="303.64" style="stroke: #000000; stroke-width: 0.8"/>
      </g>
     </g>
     <g id="text_1">
      <!-- 1.1 -->
      <g transform="translate(42.780222 318.238437) scale(0.1 -0.1)">
       <defs>
        <path id="DejaVuSans-31" d="M 794 531 
L 1825 531 
L 1825 4091 
L 703 3866 
L 703 4441 
L 1819 4666 
L 2450 4666 
L 2450 531 
L 3481 531 
L 3481 0 
L 794 0 
L 794 531 
z
" transform="scale(0.015625)"/>
        <path id="DejaVuSans-2e" d="M 684 794 
L 1344 794 
L 1344 0 
L 684 0 
L 684 794 
z
" transform="scale(0.015625)"/>
       </defs>
       <use xlink:href="#DejaVuSans-31"/>
       <use xlink:href="#DejaVuSans-2e" x="63.623047"/>
       <use xlink:href="#DejaVuSans-31" x="95.410156"/>
      </g>
     </g>
    </g>
    <g id="xtick_2">
     <g id="line2d_2">
      <g>
       <use xlink:href="#m3385fdae1e" x="135.417981" y="303.64" style="stroke: #000000; stroke-width: 0.8"/>
      </g>
     </g>
     <g id="text_2">
      <!-- 1.2 -->
      <g transform="translate(127.466419 318.238437) scale(0.1 -0.1)">
       <defs>
        <path id="DejaVuSans-32" d="M 1228 531 
L 3431 531 
L 3431 0 
L 469 0 
L 469 531 
Q 828 903 1448 1529 
Q 2069 2156 2228 2338 
Q 2531 2678 2651 2914 
Q 2772 3150 2772 3378 
Q 2772 3750 2511 3984 
Q 2250 4219 1831 4219 
Q 1534 4219 1204 4116 
Q 875 4013 500 3803 
L 500 4441 
Q 881 4594 1212 4672 
Q 1544 4750 1819 4750 
Q 2544 4750 2975 4387 
Q 3406 4025 3406 3419 
Q 3406 3131 3298 2873 
Q 3191 2616 2906 2266 
Q 2828 2175 2409 1742 
Q 1991 1309 1228 531 
z
" transform="scale(0.015625)"/>
       </defs>
       <use xlink:href="#DejaVuSans-31"/>
       <use xlink:href="#DejaVuSans-2e" x="63.623047"/>
       <use xlink:href="#DejaVuSans-32" x="95.410156"/>
      </g>
     </g>
    </g>
    <g id="xtick_3">
     <g id="line2d_3">
      <g>
       <use xlink:href="#m3385fdae1e" x="220.104178" y="303.64" style="stroke: #000000; stroke-width: 0.8"/>
      </g>
     </g>
     <g id="text_3">
      <!-- 1.3 -->
      <g transform="translate(212.152616 318.238437) scale(0.1 -0.1)">
       <defs>
        <path id="DejaVuSans-33" d="M 2597 2516 
Q 3050 2419 3304 2112 
Q 3559 1806 3559 1356 
Q 3559 666 3084 287 
Q 2609 -91 1734 -91 
Q 1441 -91 1130 -33 
Q 819 25 488 141 
L 488 750 
Q 750 597 1062 519 
Q 1375 441 1716 441 
Q 2309 441 2620 675 
Q 2931 909 2931 1356 
Q 2931 1769 2642 2001 
Q 2353 2234 1838 2234 
L 1294 2234 
L 1294 2753 
L 1863 2753 
Q 2328 2753 2575 2939 
Q 2822 3125 2822 3475 
Q 2822 3834 2567 4026 
Q 2313 4219 1838 4219 
Q 1578 4219 1281 4162 
Q 984 4106 628 3988 
L 628 4550 
Q 988 4650 1302 4700 
Q 1616 4750 1894 4750 
Q 2613 4750 3031 4423 
Q 3450 4097 3450 3541 
Q 3450 3153 3228 2886 
Q 3006 2619 2597 2516 
z
" transform="scale(0.015625)"/>
       </defs>
       <use xlink:href="#DejaVuSans-31"/>
       <use xlink:href="#DejaVuSans-2e" x="63.623047"/>
       <use xlink:href="#DejaVuSans-33" x="95.410156"/>
      </g>
     </g>
    </g>
    <g id="xtick_4">
     <g id="line2d_4">
      <g>
       <use xlink:href="#m3385fdae1e" x="304.790376" y="303.64" style="stroke: #000000; stroke-width: 0.8"/>
      </g>
     </g>
     <g id="text_4">
      <!-- 1.4 -->
      <g transform="translate(296.838813 318.238437) scale(0.1 -0.1)">
       <defs>
        <path id="DejaVuSans-34" d="M 2419 4116 
L 825 1625 
L 2419 1625 
L 2419 4116 
z
M 2253 4666 
L 3047 4666 
L 3047 1625 
L 3713 1625 
L 3713 1100 
L 3047 1100 
L 3047 0 
L 2419 0 
L 2419 1100 
L 313 1100 
L 313 1709 
L 2253 4666 
z
" transform="scale(0.015625)"/>
       </defs>
       <use xlink:href="#DejaVuSans-31"/>
       <use xlink:href="#DejaVuSans-2e" x="63.623047"/>
       <use xlink:href="#DejaVuSans-34" x="95.410156"/>
      </g>
     </g>
    </g>
    <g id="xtick_5">
     <g id="line2d_5">
      <g>
       <use xlink:href="#m3385fdae1e" x="389.476573" y="303.64" style="stroke: #000000; stroke-width: 0.8"/>
      </g>
     </g>
     <g id="text_5">
      <!-- 1.5 -->
      <g transform="translate(381.52501 318.238437) scale(0.1 -0.1)">
       <defs>
        <path id="DejaVuSans-35" d="M 691 4666 
L 3169 4666 
L 3169 4134 
L 1269 4134 
L 1269 2991 
Q 1406 3038 1543 3061 
Q 1681 3084 1819 3084 
Q 2600 3084 3056 2656 
Q 3513 2228 3513 1497 
Q 3513 744 3044 326 
Q 2575 -91 1722 -91 
Q 1428 -91 1123 -41 
Q 819 9 494 109 
L 494 744 
Q 775 591 1075 516 
Q 1375 441 1709 441 
Q 2250 441 2565 725 
Q 2881 1009 2881 1497 
Q 2881 1984 2565 2268 
Q 2250 2553 1709 2553 
Q 1456 2553 1204 2497 
Q 953 2441 691 2322 
L 691 4666 
z
" transform="scale(0.015625)"/>
       </defs>
       <use xlink:href="#DejaVuSans-31"/>
       <use xlink:href="#DejaVuSans-2e" x="63.623047"/>
       <use xlink:href="#DejaVuSans-35" x="95.410156"/>
      </g>
     </g>
    </g>
    <g id="text_6">
     <!-- NefNPC -->
     <g transform="translate(230.080781 331.916562) scale(0.1 -0.1)">
      <defs>
       <path id="DejaVuSans-4e" d="M 628 4666 
L 1478 4666 
L 3547 763 
L 3547 4666 
L 4159 4666 
L 4159 0 
L 3309 0 
L 1241 3903 
L 1241 0 
L 628 0 
L 628 4666 
z
" transform="scale(0.015625)"/>
       <path id="DejaVuSans-65" d="M 3597 1894 
L 3597 1613 
L 953 1613 
Q 991 1019 1311 708 
Q 1631 397 2203 397 
Q 2534 397 2845 478 
Q 3156 559 3463 722 
L 3463 178 
Q 3153 47 2828 -22 
Q 2503 -91 2169 -91 
Q 1331 -91 842 396 
Q 353 884 353 1716 
Q 353 2575 817 3079 
Q 1281 3584 2069 3584 
Q 2775 3584 3186 3129 
Q 3597 2675 3597 1894 
z
M 3022 2063 
Q 3016 2534 2758 2815 
Q 2500 3097 2075 3097 
Q 1594 3097 1305 2825 
Q 1016 2553 972 2059 
L 3022 2063 
z
" transform="scale(0.015625)"/>
       <path id="DejaVuSans-66" d="M 2375 4863 
L 2375 4384 
L 1825 4384 
Q 1516 4384 1395 4259 
Q 1275 4134 1275 3809 
L 1275 3500 
L 2222 3500 
L 2222 3053 
L 1275 3053 
L 1275 0 
L 697 0 
L 697 3053 
L 147 3053 
L 147 3500 
L 697 3500 
L 697 3744 
Q 697 4328 969 4595 
Q 1241 4863 1831 4863 
L 2375 4863 
z
" transform="scale(0.015625)"/>
       <path id="DejaVuSans-50" d="M 1259 4147 
L 1259 2394 
L 2053 2394 
Q 2494 2394 2734 2622 
Q 2975 2850 2975 3272 
Q 2975 3691 2734 3919 
Q 2494 4147 2053 4147 
L 1259 4147 
z
M 628 4666 
L 2053 4666 
Q 2838 4666 3239 4311 
Q 3641 3956 3641 3272 
Q 3641 2581 3239 2228 
Q 2838 1875 2053 1875 
L 1259 1875 
L 1259 0 
L 628 0 
L 628 4666 
z
" transform="scale(0.015625)"/>
       <path id="DejaVuSans-43" d="M 4122 4306 
L 4122 3641 
Q 3803 3938 3442 4084 
Q 3081 4231 2675 4231 
Q 1875 4231 1450 3742 
Q 1025 3253 1025 2328 
Q 1025 1406 1450 917 
Q 1875 428 2675 428 
Q 3081 428 3442 575 
Q 3803 722 4122 1019 
L 4122 359 
Q 3791 134 3420 21 
Q 3050 -91 2638 -91 
Q 1578 -91 968 557 
Q 359 1206 359 2328 
Q 359 3453 968 4101 
Q 1578 4750 2638 4750 
Q 3056 4750 3426 4639 
Q 3797 4528 4122 4306 
z
" transform="scale(0.015625)"/>
      </defs>
      <use xlink:href="#DejaVuSans-4e"/>
      <use xlink:href="#DejaVuSans-65" x="74.804688"/>
      <use xlink:href="#DejaVuSans-66" x="136.328125"/>
      <use xlink:href="#DejaVuSans-4e" x="171.533203"/>
      <use xlink:href="#DejaVuSans-50" x="246.337891"/>
      <use xlink:href="#DejaVuSans-43" x="306.640625"/>
     </g>
    </g>
   </g>
   <g id="matplotlib.axis_2">
    <g id="ytick_1">
     <g id="line2d_6">
      <defs>
       <path id="ma600d9e374" d="M 0 0 
L -3.5 0 
" style="stroke: #000000; stroke-width: 0.8"/>
      </defs>
      <g>
       <use xlink:href="#ma600d9e374" x="47.81" y="274.192523" style="stroke: #000000; stroke-width: 0.8"/>
      </g>
     </g>
     <g id="text_7">
      <!-- 1.2 -->
      <g transform="translate(24.906875 277.991741) scale(0.1 -0.1)">
       <use xlink:href="#DejaVuSans-31"/>
       <use xlink:href="#DejaVuSans-2e" x="63.623047"/>
       <use xlink:href="#DejaVuSans-32" x="95.410156"/>
      </g>
     </g>
    </g>
    <g id="ytick_2">
     <g id="line2d_7">
      <g>
       <use xlink:href="#ma600d9e374" x="47.81" y="210.237134" style="stroke: #000000; stroke-width: 0.8"/>
      </g>
     </g>
     <g id="text_8">
      <!-- 1.3 -->
      <g transform="translate(24.906875 214.036353) scale(0.1 -0.1)">
       <use xlink:href="#DejaVuSans-31"/>
       <use xlink:href="#DejaVuSans-2e" x="63.623047"/>
       <use xlink:href="#DejaVuSans-33" x="95.410156"/>
      </g>
     </g>
    </g>
    <g id="ytick_3">
     <g id="line2d_8">
      <g>
       <use xlink:href="#ma600d9e374" x="47.81" y="146.281746" style="stroke: #000000; stroke-width: 0.8"/>
      </g>
     </g>
     <g id="text_9">
      <!-- 1.4 -->
      <g transform="translate(24.906875 150.080965) scale(0.1 -0.1)">
       <use xlink:href="#DejaVuSans-31"/>
       <use xlink:href="#DejaVuSans-2e" x="63.623047"/>
       <use xlink:href="#DejaVuSans-34" x="95.410156"/>
      </g>
     </g>
    </g>
    <g id="ytick_4">
     <g id="line2d_9">
      <g>
       <use xlink:href="#ma600d9e374" x="47.81" y="82.326358" style="stroke: #000000; stroke-width: 0.8"/>
      </g>
     </g>
     <g id="text_10">
      <!-- 1.5 -->
      <g transform="translate(24.906875 86.125577) scale(0.1 -0.1)">
       <use xlink:href="#DejaVuSans-31"/>
       <use xlink:href="#DejaVuSans-2e" x="63.623047"/>
       <use xlink:href="#DejaVuSans-35" x="95.410156"/>
      </g>
     </g>
    </g>
    <g id="ytick_5">
     <g id="line2d_10">
      <g>
       <use xlink:href="#ma600d9e374" x="47.81" y="18.37097" style="stroke: #000000; stroke-width: 0.8"/>
      </g>
     </g>
     <g id="text_11">
      <!-- 1.6 -->
      <g transform="translate(24.906875 22.170189) scale(0.1 -0.1)">
       <defs>
        <path id="DejaVuSans-36" d="M 2113 2584 
Q 1688 2584 1439 2293 
Q 1191 2003 1191 1497 
Q 1191 994 1439 701 
Q 1688 409 2113 409 
Q 2538 409 2786 701 
Q 3034 994 3034 1497 
Q 3034 2003 2786 2293 
Q 2538 2584 2113 2584 
z
M 3366 4563 
L 3366 3988 
Q 3128 4100 2886 4159 
Q 2644 4219 2406 4219 
Q 1781 4219 1451 3797 
Q 1122 3375 1075 2522 
Q 1259 2794 1537 2939 
Q 1816 3084 2150 3084 
Q 2853 3084 3261 2657 
Q 3669 2231 3669 1497 
Q 3669 778 3244 343 
Q 2819 -91 2113 -91 
Q 1303 -91 875 529 
Q 447 1150 447 2328 
Q 447 3434 972 4092 
Q 1497 4750 2381 4750 
Q 2619 4750 2861 4703 
Q 3103 4656 3366 4563 
z
" transform="scale(0.015625)"/>
       </defs>
       <use xlink:href="#DejaVuSans-31"/>
       <use xlink:href="#DejaVuSans-2e" x="63.623047"/>
       <use xlink:href="#DejaVuSans-36" x="95.410156"/>
      </g>
     </g>
    </g>
    <g id="text_12">
     <!-- NefOPC -->
     <g transform="translate(18.827187 176.239531) rotate(-90) scale(0.1 -0.1)">
      <defs>
       <path id="DejaVuSans-4f" d="M 2522 4238 
Q 1834 4238 1429 3725 
Q 1025 3213 1025 2328 
Q 1025 1447 1429 934 
Q 1834 422 2522 422 
Q 3209 422 3611 934 
Q 4013 1447 4013 2328 
Q 4013 3213 3611 3725 
Q 3209 4238 2522 4238 
z
M 2522 4750 
Q 3503 4750 4090 4092 
Q 4678 3434 4678 2328 
Q 4678 1225 4090 567 
Q 3503 -91 2522 -91 
Q 1538 -91 948 565 
Q 359 1222 359 2328 
Q 359 3434 948 4092 
Q 1538 4750 2522 4750 
z
" transform="scale(0.015625)"/>
      </defs>
      <use xlink:href="#DejaVuSans-4e"/>
      <use xlink:href="#DejaVuSans-65" x="74.804688"/>
      <use xlink:href="#DejaVuSans-66" x="136.328125"/>
      <use xlink:href="#DejaVuSans-4f" x="171.533203"/>
      <use xlink:href="#DejaVuSans-50" x="250.244141"/>
      <use xlink:href="#DejaVuSans-43" x="310.546875"/>
     </g>
    </g>
   </g>
   <g id="patch_3">
    <path d="M 47.81 303.64 
L 47.81 10.8 
" style="fill: none; stroke: #000000; stroke-width: 0.8; stroke-linejoin: miter; stroke-linecap: square"/>
   </g>
   <g id="patch_4">
    <path d="M 450 303.64 
L 450 10.8 
" style="fill: none; stroke: #000000; stroke-width: 0.8; stroke-linejoin: miter; stroke-linecap: square"/>
   </g>
   <g id="patch_5">
    <path d="M 47.81 303.64 
L 450 303.64 
" style="fill: none; stroke: #000000; stroke-width: 0.8; stroke-linejoin: miter; stroke-linecap: square"/>
   </g>
   <g id="patch_6">
    <path d="M 47.81 10.8 
L 450 10.8 
" style="fill: none; stroke: #000000; stroke-width: 0.8; stroke-linejoin: miter; stroke-linecap: square"/>
   </g>
   <g id="legend_1">
    <g id="patch_7">
     <path d="M 54.81 77.5125 
L 125.26 77.5125 
Q 127.26 77.5125 127.26 75.5125 
L 127.26 17.8 
Q 127.26 15.8 125.26 15.8 
L 54.81 15.8 
Q 52.81 15.8 52.81 17.8 
L 52.81 75.5125 
Q 52.81 77.5125 54.81 77.5125 
z
" style="fill: #ffffff; opacity: 0.8; stroke: #cccccc; stroke-linejoin: miter"/>
    </g>
    <g id="text_13">
     <!-- CellType -->
     <g transform="translate(69.206094 27.398438) scale(0.1 -0.1)">
      <defs>
       <path id="DejaVuSans-6c" d="M 603 4863 
L 1178 4863 
L 1178 0 
L 603 0 
L 603 4863 
z
" transform="scale(0.015625)"/>
       <path id="DejaVuSans-54" d="M -19 4666 
L 3928 4666 
L 3928 4134 
L 2272 4134 
L 2272 0 
L 1638 0 
L 1638 4134 
L -19 4134 
L -19 4666 
z
" transform="scale(0.015625)"/>
       <path id="DejaVuSans-79" d="M 2059 -325 
Q 1816 -950 1584 -1140 
Q 1353 -1331 966 -1331 
L 506 -1331 
L 506 -850 
L 844 -850 
Q 1081 -850 1212 -737 
Q 1344 -625 1503 -206 
L 1606 56 
L 191 3500 
L 800 3500 
L 1894 763 
L 2988 3500 
L 3597 3500 
L 2059 -325 
z
" transform="scale(0.015625)"/>
       <path id="DejaVuSans-70" d="M 1159 525 
L 1159 -1331 
L 581 -1331 
L 581 3500 
L 1159 3500 
L 1159 2969 
Q 1341 3281 1617 3432 
Q 1894 3584 2278 3584 
Q 2916 3584 3314 3078 
Q 3713 2572 3713 1747 
Q 3713 922 3314 415 
Q 2916 -91 2278 -91 
Q 1894 -91 1617 61 
Q 1341 213 1159 525 
z
M 3116 1747 
Q 3116 2381 2855 2742 
Q 2594 3103 2138 3103 
Q 1681 3103 1420 2742 
Q 1159 2381 1159 1747 
Q 1159 1113 1420 752 
Q 1681 391 2138 391 
Q 2594 391 2855 752 
Q 3116 1113 3116 1747 
z
" transform="scale(0.015625)"/>
      </defs>
      <use xlink:href="#DejaVuSans-43"/>
      <use xlink:href="#DejaVuSans-65" x="69.824219"/>
      <use xlink:href="#DejaVuSans-6c" x="131.347656"/>
      <use xlink:href="#DejaVuSans-6c" x="159.130859"/>
      <use xlink:href="#DejaVuSans-54" x="186.914062"/>
      <use xlink:href="#DejaVuSans-79" x="232.373047"/>
      <use xlink:href="#DejaVuSans-70" x="291.552734"/>
      <use xlink:href="#DejaVuSans-65" x="355.029297"/>
     </g>
    </g>
    <g id="PathCollection_5">
     <defs>
      <path id="m62fcbac0dc" d="M 0 3 
C 0.795609 3 1.55874 2.683901 2.12132 2.12132 
C 2.683901 1.55874 3 0.795609 3 0 
C 3 -0.795609 2.683901 -1.55874 2.12132 -2.12132 
C 1.55874 -2.683901 0.795609 -3 0 -3 
C -0.795609 -3 -1.55874 -2.683901 -2.12132 -2.12132 
C -2.683901 -1.55874 -3 -0.795609 -3 0 
C -3 0.795609 -2.683901 1.55874 -2.12132 2.12132 
C -1.55874 2.683901 -0.795609 3 0 3 
z
" style="stroke: #ff7f0e"/>
     </defs>
     <g>
      <use xlink:href="#m62fcbac0dc" x="66.81" y="39.451563" style="fill: #ff7f0e; stroke: #ff7f0e"/>
     </g>
    </g>
    <g id="text_14">
     <!-- NefAC -->
     <g transform="translate(84.81 42.076563) scale(0.1 -0.1)">
      <defs>
       <path id="DejaVuSans-41" d="M 2188 4044 
L 1331 1722 
L 3047 1722 
L 2188 4044 
z
M 1831 4666 
L 2547 4666 
L 4325 0 
L 3669 0 
L 3244 1197 
L 1141 1197 
L 716 0 
L 50 0 
L 1831 4666 
z
" transform="scale(0.015625)"/>
      </defs>
      <use xlink:href="#DejaVuSans-4e"/>
      <use xlink:href="#DejaVuSans-65" x="74.804688"/>
      <use xlink:href="#DejaVuSans-66" x="136.328125"/>
      <use xlink:href="#DejaVuSans-41" x="171.533203"/>
      <use xlink:href="#DejaVuSans-43" x="238.191406"/>
     </g>
    </g>
    <g id="PathCollection_6">
     <defs>
      <path id="m159424d5ea" d="M 0 3 
C 0.795609 3 1.55874 2.683901 2.12132 2.12132 
C 2.683901 1.55874 3 0.795609 3 0 
C 3 -0.795609 2.683901 -1.55874 2.12132 -2.12132 
C 1.55874 -2.683901 0.795609 -3 0 -3 
C -0.795609 -3 -1.55874 -2.683901 -2.12132 -2.12132 
C -2.683901 -1.55874 -3 -0.795609 -3 0 
C -3 0.795609 -2.683901 1.55874 -2.12132 2.12132 
C -1.55874 2.683901 -0.795609 3 0 3 
z
" style="stroke: #d62728"/>
     </defs>
     <g>
      <use xlink:href="#m159424d5ea" x="66.81" y="54.129688" style="fill: #d62728; stroke: #d62728"/>
     </g>
    </g>
    <g id="text_15">
     <!-- NefMES -->
     <g transform="translate(84.81 56.754688) scale(0.1 -0.1)">
      <defs>
       <path id="DejaVuSans-4d" d="M 628 4666 
L 1569 4666 
L 2759 1491 
L 3956 4666 
L 4897 4666 
L 4897 0 
L 4281 0 
L 4281 4097 
L 3078 897 
L 2444 897 
L 1241 4097 
L 1241 0 
L 628 0 
L 628 4666 
z
" transform="scale(0.015625)"/>
       <path id="DejaVuSans-45" d="M 628 4666 
L 3578 4666 
L 3578 4134 
L 1259 4134 
L 1259 2753 
L 3481 2753 
L 3481 2222 
L 1259 2222 
L 1259 531 
L 3634 531 
L 3634 0 
L 628 0 
L 628 4666 
z
" transform="scale(0.015625)"/>
       <path id="DejaVuSans-53" d="M 3425 4513 
L 3425 3897 
Q 3066 4069 2747 4153 
Q 2428 4238 2131 4238 
Q 1616 4238 1336 4038 
Q 1056 3838 1056 3469 
Q 1056 3159 1242 3001 
Q 1428 2844 1947 2747 
L 2328 2669 
Q 3034 2534 3370 2195 
Q 3706 1856 3706 1288 
Q 3706 609 3251 259 
Q 2797 -91 1919 -91 
Q 1588 -91 1214 -16 
Q 841 59 441 206 
L 441 856 
Q 825 641 1194 531 
Q 1563 422 1919 422 
Q 2459 422 2753 634 
Q 3047 847 3047 1241 
Q 3047 1584 2836 1778 
Q 2625 1972 2144 2069 
L 1759 2144 
Q 1053 2284 737 2584 
Q 422 2884 422 3419 
Q 422 4038 858 4394 
Q 1294 4750 2059 4750 
Q 2388 4750 2728 4690 
Q 3069 4631 3425 4513 
z
" transform="scale(0.015625)"/>
      </defs>
      <use xlink:href="#DejaVuSans-4e"/>
      <use xlink:href="#DejaVuSans-65" x="74.804688"/>
      <use xlink:href="#DejaVuSans-66" x="136.328125"/>
      <use xlink:href="#DejaVuSans-4d" x="171.533203"/>
      <use xlink:href="#DejaVuSans-45" x="257.8125"/>
      <use xlink:href="#DejaVuSans-53" x="320.996094"/>
     </g>
    </g>
    <g id="PathCollection_7">
     <defs>
      <path id="m0120bec314" d="M 0 3 
C 0.795609 3 1.55874 2.683901 2.12132 2.12132 
C 2.683901 1.55874 3 0.795609 3 0 
C 3 -0.795609 2.683901 -1.55874 2.12132 -2.12132 
C 1.55874 -2.683901 0.795609 -3 0 -3 
C -0.795609 -3 -1.55874 -2.683901 -2.12132 -2.12132 
C -2.683901 -1.55874 -3 -0.795609 -3 0 
C -3 0.795609 -2.683901 1.55874 -2.12132 2.12132 
C -1.55874 2.683901 -0.795609 3 0 3 
z
" style="stroke: #2ca02c"/>
     </defs>
     <g>
      <use xlink:href="#m0120bec314" x="66.81" y="68.807813" style="fill: #2ca02c; stroke: #2ca02c"/>
     </g>
    </g>
    <g id="text_16">
     <!-- NefOPC -->
     <g transform="translate(84.81 71.432813) scale(0.1 -0.1)">
      <use xlink:href="#DejaVuSans-4e"/>
      <use xlink:href="#DejaVuSans-65" x="74.804688"/>
      <use xlink:href="#DejaVuSans-66" x="136.328125"/>
      <use xlink:href="#DejaVuSans-4f" x="171.533203"/>
      <use xlink:href="#DejaVuSans-50" x="250.244141"/>
      <use xlink:href="#DejaVuSans-43" x="310.546875"/>
     </g>
    </g>
   </g>
  </g>
 </g>
 <defs>
  <clipPath id="p1ffc6181c6">
   <rect x="47.81" y="10.8" width="402.19" height="292.84"/>
  </clipPath>
 </defs>
</svg>
