<?xml version="1.0" encoding="utf-8" standalone="no"?>
<!DOCTYPE svg PUBLIC "-//W3C//DTD SVG 1.1//EN"
  "http://www.w3.org/Graphics/SVG/1.1/DTD/svg11.dtd">
<svg xmlns:xlink="http://www.w3.org/1999/xlink" width="460.8pt" height="345.6pt" viewBox="0 0 460.8 345.6" xmlns="http://www.w3.org/2000/svg" version="1.1">
 <metadata>
  <rdf:RDF xmlns:dc="http://purl.org/dc/elements/1.1/" xmlns:cc="http://creativecommons.org/ns#" xmlns:rdf="http://www.w3.org/1999/02/22-rdf-syntax-ns#">
   <cc:Work>
    <dc:type rdf:resource="http://purl.org/dc/dcmitype/StillImage"/>
    <dc:date>2023-09-11T17:36:25.957980</dc:date>
    <dc:format>image/svg+xml</dc:format>
    <dc:creator>
     <cc:Agent>
      <dc:title>Matplotlib v3.7.1, https://matplotlib.org/</dc:title>
     </cc:Agent>
    </dc:creator>
   </cc:Work>
  </rdf:RDF>
 </metadata>
 <defs>
  <style type="text/css">*{stroke-linejoin: round; stroke-linecap: butt}</style>
 </defs>
 <g id="figure_1">
  <g id="patch_1">
   <path d="M 0 345.6 
L 460.8 345.6 
L 460.8 0 
L 0 0 
z
" style="fill: #ffffff"/>
  </g>
  <g id="axes_1">
   <g id="patch_2">
    <path d="M 47.81 303.64 
L 450 303.64 
L 450 10.8 
L 47.81 10.8 
z
" style="fill: #ffffff"/>
   </g>
   <g id="PathCollection_1">
    <defs>
     <path id="C0_0_c2886aee7a" d="M 0 1.581139 
C 0.419323 1.581139 0.821528 1.41454 1.118034 1.118034 
C 1.41454 0.821528 1.581139 0.419323 1.581139 -0 
C 1.581139 -0.419323 1.41454 -0.821528 1.118034 -1.118034 
C 0.821528 -1.41454 0.419323 -1.581139 0 -1.581139 
C -0.419323 -1.581139 -0.821528 -1.41454 -1.118034 -1.118034 
C -1.41454 -0.821528 -1.581139 -0.419323 -1.581139 0 
C -1.581139 0.419323 -1.41454 0.821528 -1.118034 1.118034 
C -0.821528 1.41454 -0.419323 1.581139 0 1.581139 
z
"/>
    </defs>
    <g clip-path="url(#p35c4452b84)">
     <use xlink:href="#C0_0_c2886aee7a" x="328.518976" y="133.103363" style="fill: #ff7f0e"/>
    </g>
    <g clip-path="url(#p35c4452b84)">
     <use xlink:href="#C0_0_c2886aee7a" x="140.368769" y="227.36385" style="fill: #ff7f0e"/>
    </g>
    <g clip-path="url(#p35c4452b84)">
     <use xlink:href="#C0_0_c2886aee7a" x="399.928199" y="189.9957" style="fill: #ff7f0e"/>
    </g>
    <g clip-path="url(#p35c4452b84)">
     <use xlink:href="#C0_0_c2886aee7a" x="354.207305" y="103.13918" style="fill: #ff7f0e"/>
    </g>
    <g clip-path="url(#p35c4452b84)">
     <use xlink:href="#C0_0_c2886aee7a" x="312.630071" y="138.865072" style="fill: #ff7f0e"/>
    </g>
    <g clip-path="url(#p35c4452b84)">
     <use xlink:href="#C0_0_c2886aee7a" x="189.456529" y="82.502207" style="fill: #d62728"/>
    </g>
    <g clip-path="url(#p35c4452b84)">
     <use xlink:href="#C0_0_c2886aee7a" x="344.661905" y="212.750439" style="fill: #ff7f0e"/>
    </g>
    <g clip-path="url(#p35c4452b84)">
     <use xlink:href="#C0_0_c2886aee7a" x="289.691934" y="69.372866" style="fill: #d62728"/>
    </g>
    <g clip-path="url(#p35c4452b84)">
     <use xlink:href="#C0_0_c2886aee7a" x="204.27602" y="32.909473" style="fill: #d62728"/>
    </g>
    <g clip-path="url(#p35c4452b84)">
     <use xlink:href="#C0_0_c2886aee7a" x="216.389764" y="211.141997" style="fill: #ff7f0e"/>
    </g>
    <g clip-path="url(#p35c4452b84)">
     <use xlink:href="#C0_0_c2886aee7a" x="282.800285" y="157.594495" style="fill: #ff7f0e"/>
    </g>
    <g clip-path="url(#p35c4452b84)">
     <use xlink:href="#C0_0_c2886aee7a" x="205.430719" y="186.056206" style="fill: #1f77b4"/>
    </g>
    <g clip-path="url(#p35c4452b84)">
     <use xlink:href="#C0_0_c2886aee7a" x="140.533429" y="178.797935" style="fill: #1f77b4"/>
    </g>
    <g clip-path="url(#p35c4452b84)">
     <use xlink:href="#C0_0_c2886aee7a" x="215.887387" y="91.153489" style="fill: #d62728"/>
    </g>
    <g clip-path="url(#p35c4452b84)">
     <use xlink:href="#C0_0_c2886aee7a" x="239.377307" y="170.870785" style="fill: #ff7f0e"/>
    </g>
    <g clip-path="url(#p35c4452b84)">
     <use xlink:href="#C0_0_c2886aee7a" x="247.62353" y="32.813467" style="fill: #d62728"/>
    </g>
    <g clip-path="url(#p35c4452b84)">
     <use xlink:href="#C0_0_c2886aee7a" x="305.065728" y="157.935832" style="fill: #ff7f0e"/>
    </g>
    <g clip-path="url(#p35c4452b84)">
     <use xlink:href="#C0_0_c2886aee7a" x="211.15598" y="160.622209" style="fill: #ff7f0e"/>
    </g>
    <g clip-path="url(#p35c4452b84)">
     <use xlink:href="#C0_0_c2886aee7a" x="403.717103" y="179.947188" style="fill: #ff7f0e"/>
    </g>
    <g clip-path="url(#p35c4452b84)">
     <use xlink:href="#C0_0_c2886aee7a" x="276.260425" y="106.898642" style="fill: #d62728"/>
    </g>
    <g clip-path="url(#p35c4452b84)">
     <use xlink:href="#C0_0_c2886aee7a" x="269.672847" y="290.329091" style="fill: #1f77b4"/>
    </g>
    <g clip-path="url(#p35c4452b84)">
     <use xlink:href="#C0_0_c2886aee7a" x="151.125343" y="267.548033" style="fill: #1f77b4"/>
    </g>
    <g clip-path="url(#p35c4452b84)">
     <use xlink:href="#C0_0_c2886aee7a" x="383.344242" y="213.015579" style="fill: #ff7f0e"/>
    </g>
    <g clip-path="url(#p35c4452b84)">
     <use xlink:href="#C0_0_c2886aee7a" x="177.099036" y="79.266771" style="fill: #d62728"/>
    </g>
    <g clip-path="url(#p35c4452b84)">
     <use xlink:href="#C0_0_c2886aee7a" x="193.598708" y="155.096051" style="fill: #1f77b4"/>
    </g>
    <g clip-path="url(#p35c4452b84)">
     <use xlink:href="#C0_0_c2886aee7a" x="340.164977" y="134.026648" style="fill: #ff7f0e"/>
    </g>
    <g clip-path="url(#p35c4452b84)">
     <use xlink:href="#C0_0_c2886aee7a" x="142.93844" y="180.415576" style="fill: #1f77b4"/>
    </g>
    <g clip-path="url(#p35c4452b84)">
     <use xlink:href="#C0_0_c2886aee7a" x="179.721221" y="235.370912" style="fill: #1f77b4"/>
    </g>
    <g clip-path="url(#p35c4452b84)">
     <use xlink:href="#C0_0_c2886aee7a" x="154.445937" y="27.867882" style="fill: #d62728"/>
    </g>
    <g clip-path="url(#p35c4452b84)">
     <use xlink:href="#C0_0_c2886aee7a" x="177.91789" y="176.31454" style="fill: #1f77b4"/>
    </g>
    <g clip-path="url(#p35c4452b84)">
     <use xlink:href="#C0_0_c2886aee7a" x="278.209281" y="69.099769" style="fill: #d62728"/>
    </g>
    <g clip-path="url(#p35c4452b84)">
     <use xlink:href="#C0_0_c2886aee7a" x="306.82092" y="196.775474" style="fill: #ff7f0e"/>
    </g>
    <g clip-path="url(#p35c4452b84)">
     <use xlink:href="#C0_0_c2886aee7a" x="206.792378" y="260.547502" style="fill: #1f77b4"/>
    </g>
    <g clip-path="url(#p35c4452b84)">
     <use xlink:href="#C0_0_c2886aee7a" x="353.876467" y="67.254541" style="fill: #d62728"/>
    </g>
    <g clip-path="url(#p35c4452b84)">
     <use xlink:href="#C0_0_c2886aee7a" x="284.33592" y="114.669213" style="fill: #ff7f0e"/>
    </g>
    <g clip-path="url(#p35c4452b84)">
     <use xlink:href="#C0_0_c2886aee7a" x="160.057105" y="261.510582" style="fill: #1f77b4"/>
    </g>
    <g clip-path="url(#p35c4452b84)">
     <use xlink:href="#C0_0_c2886aee7a" x="321.140115" y="71.404005" style="fill: #d62728"/>
    </g>
    <g clip-path="url(#p35c4452b84)">
     <use xlink:href="#C0_0_c2886aee7a" x="402.808313" y="111.399848" style="fill: #ff7f0e"/>
    </g>
    <g clip-path="url(#p35c4452b84)">
     <use xlink:href="#C0_0_c2886aee7a" x="264.053361" y="126.613177" style="fill: #ff7f0e"/>
    </g>
    <g clip-path="url(#p35c4452b84)">
     <use xlink:href="#C0_0_c2886aee7a" x="339.190093" y="198.34055" style="fill: #ff7f0e"/>
    </g>
    <g clip-path="url(#p35c4452b84)">
     <use xlink:href="#C0_0_c2886aee7a" x="351.347558" y="131.289212" style="fill: #ff7f0e"/>
    </g>
    <g clip-path="url(#p35c4452b84)">
     <use xlink:href="#C0_0_c2886aee7a" x="275.085278" y="148.775182" style="fill: #ff7f0e"/>
    </g>
    <g clip-path="url(#p35c4452b84)">
     <use xlink:href="#C0_0_c2886aee7a" x="366.452414" y="141.301895" style="fill: #ff7f0e"/>
    </g>
    <g clip-path="url(#p35c4452b84)">
     <use xlink:href="#C0_0_c2886aee7a" x="317.879227" y="123.469772" style="fill: #ff7f0e"/>
    </g>
    <g clip-path="url(#p35c4452b84)">
     <use xlink:href="#C0_0_c2886aee7a" x="216.317906" y="115.718372" style="fill: #d62728"/>
    </g>
    <g clip-path="url(#p35c4452b84)">
     <use xlink:href="#C0_0_c2886aee7a" x="186.378714" y="149.665463" style="fill: #d62728"/>
    </g>
    <g clip-path="url(#p35c4452b84)">
     <use xlink:href="#C0_0_c2886aee7a" x="227.21374" y="199.516114" style="fill: #2ca02c"/>
    </g>
    <g clip-path="url(#p35c4452b84)">
     <use xlink:href="#C0_0_c2886aee7a" x="152.734963" y="124.296201" style="fill: #2ca02c"/>
    </g>
    <g clip-path="url(#p35c4452b84)">
     <use xlink:href="#C0_0_c2886aee7a" x="349.972172" y="178.98028" style="fill: #ff7f0e"/>
    </g>
    <g clip-path="url(#p35c4452b84)">
     <use xlink:href="#C0_0_c2886aee7a" x="177.071362" y="176.018008" style="fill: #1f77b4"/>
    </g>
    <g clip-path="url(#p35c4452b84)">
     <use xlink:href="#C0_0_c2886aee7a" x="336.927702" y="171.314364" style="fill: #ff7f0e"/>
    </g>
    <g clip-path="url(#p35c4452b84)">
     <use xlink:href="#C0_0_c2886aee7a" x="271.152065" y="200.404518" style="fill: #ff7f0e"/>
    </g>
    <g clip-path="url(#p35c4452b84)">
     <use xlink:href="#C0_0_c2886aee7a" x="283.876001" y="201.703101" style="fill: #1f77b4"/>
    </g>
    <g clip-path="url(#p35c4452b84)">
     <use xlink:href="#C0_0_c2886aee7a" x="203.746733" y="206.899352" style="fill: #ff7f0e"/>
    </g>
    <g clip-path="url(#p35c4452b84)">
     <use xlink:href="#C0_0_c2886aee7a" x="321.531945" y="171.88738" style="fill: #ff7f0e"/>
    </g>
    <g clip-path="url(#p35c4452b84)">
     <use xlink:href="#C0_0_c2886aee7a" x="202.380552" y="284.533387" style="fill: #1f77b4"/>
    </g>
    <g clip-path="url(#p35c4452b84)">
     <use xlink:href="#C0_0_c2886aee7a" x="392.427393" y="114.841563" style="fill: #ff7f0e"/>
    </g>
    <g clip-path="url(#p35c4452b84)">
     <use xlink:href="#C0_0_c2886aee7a" x="334.249897" y="108.999603" style="fill: #ff7f0e"/>
    </g>
    <g clip-path="url(#p35c4452b84)">
     <use xlink:href="#C0_0_c2886aee7a" x="315.018447" y="204.273844" style="fill: #ff7f0e"/>
    </g>
    <g clip-path="url(#p35c4452b84)">
     <use xlink:href="#C0_0_c2886aee7a" x="294.274834" y="207.719064" style="fill: #ff7f0e"/>
    </g>
    <g clip-path="url(#p35c4452b84)">
     <use xlink:href="#C0_0_c2886aee7a" x="168.684151" y="129.200706" style="fill: #1f77b4"/>
    </g>
    <g clip-path="url(#p35c4452b84)">
     <use xlink:href="#C0_0_c2886aee7a" x="241.163214" y="208.516539" style="fill: #1f77b4"/>
    </g>
    <g clip-path="url(#p35c4452b84)">
     <use xlink:href="#C0_0_c2886aee7a" x="157.770844" y="40.939648" style="fill: #d62728"/>
    </g>
    <g clip-path="url(#p35c4452b84)">
     <use xlink:href="#C0_0_c2886aee7a" x="404.026788" y="114.196246" style="fill: #ff7f0e"/>
    </g>
    <g clip-path="url(#p35c4452b84)">
     <use xlink:href="#C0_0_c2886aee7a" x="196.526444" y="251.267929" style="fill: #1f77b4"/>
    </g>
    <g clip-path="url(#p35c4452b84)">
     <use xlink:href="#C0_0_c2886aee7a" x="332.387245" y="168.364649" style="fill: #ff7f0e"/>
    </g>
    <g clip-path="url(#p35c4452b84)">
     <use xlink:href="#C0_0_c2886aee7a" x="229.614117" y="111.058408" style="fill: #d62728"/>
    </g>
    <g clip-path="url(#p35c4452b84)">
     <use xlink:href="#C0_0_c2886aee7a" x="230.713284" y="142.89669" style="fill: #ff7f0e"/>
    </g>
    <g clip-path="url(#p35c4452b84)">
     <use xlink:href="#C0_0_c2886aee7a" x="207.182409" y="186.130064" style="fill: #1f77b4"/>
    </g>
    <g clip-path="url(#p35c4452b84)">
     <use xlink:href="#C0_0_c2886aee7a" x="363.007882" y="120.602424" style="fill: #ff7f0e"/>
    </g>
    <g clip-path="url(#p35c4452b84)">
     <use xlink:href="#C0_0_c2886aee7a" x="213.388238" y="74.564858" style="fill: #d62728"/>
    </g>
    <g clip-path="url(#p35c4452b84)">
     <use xlink:href="#C0_0_c2886aee7a" x="350.253765" y="168.080384" style="fill: #ff7f0e"/>
    </g>
    <g clip-path="url(#p35c4452b84)">
     <use xlink:href="#C0_0_c2886aee7a" x="167.143867" y="149.362268" style="fill: #d62728"/>
    </g>
    <g clip-path="url(#p35c4452b84)">
     <use xlink:href="#C0_0_c2886aee7a" x="203.158448" y="219.798073" style="fill: #1f77b4"/>
    </g>
    <g clip-path="url(#p35c4452b84)">
     <use xlink:href="#C0_0_c2886aee7a" x="182.089581" y="229.231411" style="fill: #1f77b4"/>
    </g>
    <g clip-path="url(#p35c4452b84)">
     <use xlink:href="#C0_0_c2886aee7a" x="400.793971" y="161.834825" style="fill: #ff7f0e"/>
    </g>
    <g clip-path="url(#p35c4452b84)">
     <use xlink:href="#C0_0_c2886aee7a" x="377.84983" y="143.651763" style="fill: #ff7f0e"/>
    </g>
    <g clip-path="url(#p35c4452b84)">
     <use xlink:href="#C0_0_c2886aee7a" x="239.764108" y="69.657788" style="fill: #d62728"/>
    </g>
    <g clip-path="url(#p35c4452b84)">
     <use xlink:href="#C0_0_c2886aee7a" x="316.959954" y="169.827188" style="fill: #ff7f0e"/>
    </g>
    <g clip-path="url(#p35c4452b84)">
     <use xlink:href="#C0_0_c2886aee7a" x="307.305854" y="163.221744" style="fill: #ff7f0e"/>
    </g>
    <g clip-path="url(#p35c4452b84)">
     <use xlink:href="#C0_0_c2886aee7a" x="186.745622" y="129.611275" style="fill: #1f77b4"/>
    </g>
    <g clip-path="url(#p35c4452b84)">
     <use xlink:href="#C0_0_c2886aee7a" x="319.302227" y="150.545504" style="fill: #ff7f0e"/>
    </g>
    <g clip-path="url(#p35c4452b84)">
     <use xlink:href="#C0_0_c2886aee7a" x="208.16887" y="138.760409" style="fill: #1f77b4"/>
    </g>
    <g clip-path="url(#p35c4452b84)">
     <use xlink:href="#C0_0_c2886aee7a" x="364.212687" y="146.920112" style="fill: #ff7f0e"/>
    </g>
    <g clip-path="url(#p35c4452b84)">
     <use xlink:href="#C0_0_c2886aee7a" x="201.706329" y="230.676781" style="fill: #1f77b4"/>
    </g>
    <g clip-path="url(#p35c4452b84)">
     <use xlink:href="#C0_0_c2886aee7a" x="431.718636" y="182.586884" style="fill: #ff7f0e"/>
    </g>
    <g clip-path="url(#p35c4452b84)">
     <use xlink:href="#C0_0_c2886aee7a" x="221.424748" y="149.37228" style="fill: #1f77b4"/>
    </g>
    <g clip-path="url(#p35c4452b84)">
     <use xlink:href="#C0_0_c2886aee7a" x="315.365402" y="127.117516" style="fill: #ff7f0e"/>
    </g>
    <g clip-path="url(#p35c4452b84)">
     <use xlink:href="#C0_0_c2886aee7a" x="369.296919" y="173.333926" style="fill: #ff7f0e"/>
    </g>
    <g clip-path="url(#p35c4452b84)">
     <use xlink:href="#C0_0_c2886aee7a" x="278.085859" y="137.9669" style="fill: #ff7f0e"/>
    </g>
    <g clip-path="url(#p35c4452b84)">
     <use xlink:href="#C0_0_c2886aee7a" x="324.445166" y="77.342341" style="fill: #d62728"/>
    </g>
    <g clip-path="url(#p35c4452b84)">
     <use xlink:href="#C0_0_c2886aee7a" x="228.784278" y="146.730099" style="fill: #ff7f0e"/>
    </g>
    <g clip-path="url(#p35c4452b84)">
     <use xlink:href="#C0_0_c2886aee7a" x="307.145282" y="79.268476" style="fill: #d62728"/>
    </g>
    <g clip-path="url(#p35c4452b84)">
     <use xlink:href="#C0_0_c2886aee7a" x="274.432308" y="180.594607" style="fill: #ff7f0e"/>
    </g>
    <g clip-path="url(#p35c4452b84)">
     <use xlink:href="#C0_0_c2886aee7a" x="197.581827" y="119.939858" style="fill: #d62728"/>
    </g>
    <g clip-path="url(#p35c4452b84)">
     <use xlink:href="#C0_0_c2886aee7a" x="312.719686" y="116.856697" style="fill: #ff7f0e"/>
    </g>
    <g clip-path="url(#p35c4452b84)">
     <use xlink:href="#C0_0_c2886aee7a" x="305.213181" y="96.913613" style="fill: #d62728"/>
    </g>
    <g clip-path="url(#p35c4452b84)">
     <use xlink:href="#C0_0_c2886aee7a" x="230.504762" y="38.792978" style="fill: #d62728"/>
    </g>
    <g clip-path="url(#p35c4452b84)">
     <use xlink:href="#C0_0_c2886aee7a" x="180.155708" y="66.956861" style="fill: #d62728"/>
    </g>
    <g clip-path="url(#p35c4452b84)">
     <use xlink:href="#C0_0_c2886aee7a" x="321.968694" y="189.202492" style="fill: #ff7f0e"/>
    </g>
    <g clip-path="url(#p35c4452b84)">
     <use xlink:href="#C0_0_c2886aee7a" x="247.306624" y="129.157509" style="fill: #d62728"/>
    </g>
    <g clip-path="url(#p35c4452b84)">
     <use xlink:href="#C0_0_c2886aee7a" x="324.583941" y="96.793578" style="fill: #ff7f0e"/>
    </g>
    <g clip-path="url(#p35c4452b84)">
     <use xlink:href="#C0_0_c2886aee7a" x="392.029302" y="239.41527" style="fill: #ff7f0e"/>
    </g>
    <g clip-path="url(#p35c4452b84)">
     <use xlink:href="#C0_0_c2886aee7a" x="180.3107" y="190.629599" style="fill: #1f77b4"/>
    </g>
    <g clip-path="url(#p35c4452b84)">
     <use xlink:href="#C0_0_c2886aee7a" x="273.196108" y="58.822583" style="fill: #d62728"/>
    </g>
    <g clip-path="url(#p35c4452b84)">
     <use xlink:href="#C0_0_c2886aee7a" x="379.106805" y="202.156354" style="fill: #ff7f0e"/>
    </g>
    <g clip-path="url(#p35c4452b84)">
     <use xlink:href="#C0_0_c2886aee7a" x="320.610467" y="106.538496" style="fill: #ff7f0e"/>
    </g>
    <g clip-path="url(#p35c4452b84)">
     <use xlink:href="#C0_0_c2886aee7a" x="209.006465" y="181.965017" style="fill: #2ca02c"/>
    </g>
    <g clip-path="url(#p35c4452b84)">
     <use xlink:href="#C0_0_c2886aee7a" x="218.214448" y="170.69948" style="fill: #2ca02c"/>
    </g>
    <g clip-path="url(#p35c4452b84)">
     <use xlink:href="#C0_0_c2886aee7a" x="264.639054" y="119.214282" style="fill: #d62728"/>
    </g>
    <g clip-path="url(#p35c4452b84)">
     <use xlink:href="#C0_0_c2886aee7a" x="309.47688" y="288.433706" style="fill: #ff7f0e"/>
    </g>
    <g clip-path="url(#p35c4452b84)">
     <use xlink:href="#C0_0_c2886aee7a" x="354.815871" y="121.901822" style="fill: #ff7f0e"/>
    </g>
    <g clip-path="url(#p35c4452b84)">
     <use xlink:href="#C0_0_c2886aee7a" x="382.280445" y="217.786423" style="fill: #ff7f0e"/>
    </g>
    <g clip-path="url(#p35c4452b84)">
     <use xlink:href="#C0_0_c2886aee7a" x="249.464838" y="154.059076" style="fill: #ff7f0e"/>
    </g>
    <g clip-path="url(#p35c4452b84)">
     <use xlink:href="#C0_0_c2886aee7a" x="381.812792" y="193.077145" style="fill: #ff7f0e"/>
    </g>
    <g clip-path="url(#p35c4452b84)">
     <use xlink:href="#C0_0_c2886aee7a" x="245.773713" y="138.599802" style="fill: #ff7f0e"/>
    </g>
    <g clip-path="url(#p35c4452b84)">
     <use xlink:href="#C0_0_c2886aee7a" x="208.068309" y="180.213841" style="fill: #1f77b4"/>
    </g>
    <g clip-path="url(#p35c4452b84)">
     <use xlink:href="#C0_0_c2886aee7a" x="288.88616" y="125.413668" style="fill: #ff7f0e"/>
    </g>
    <g clip-path="url(#p35c4452b84)">
     <use xlink:href="#C0_0_c2886aee7a" x="223.626361" y="132.115627" style="fill: #d62728"/>
    </g>
    <g clip-path="url(#p35c4452b84)">
     <use xlink:href="#C0_0_c2886aee7a" x="196.101269" y="272.159641" style="fill: #1f77b4"/>
    </g>
    <g clip-path="url(#p35c4452b84)">
     <use xlink:href="#C0_0_c2886aee7a" x="413.364321" y="190.270131" style="fill: #ff7f0e"/>
    </g>
    <g clip-path="url(#p35c4452b84)">
     <use xlink:href="#C0_0_c2886aee7a" x="238.043495" y="167.196729" style="fill: #1f77b4"/>
    </g>
    <g clip-path="url(#p35c4452b84)">
     <use xlink:href="#C0_0_c2886aee7a" x="367.148285" y="174.12879" style="fill: #ff7f0e"/>
    </g>
    <g clip-path="url(#p35c4452b84)">
     <use xlink:href="#C0_0_c2886aee7a" x="293.10668" y="144.769723" style="fill: #ff7f0e"/>
    </g>
    <g clip-path="url(#p35c4452b84)">
     <use xlink:href="#C0_0_c2886aee7a" x="348.328724" y="200.179292" style="fill: #ff7f0e"/>
    </g>
    <g clip-path="url(#p35c4452b84)">
     <use xlink:href="#C0_0_c2886aee7a" x="278.521832" y="194.934583" style="fill: #ff7f0e"/>
    </g>
    <g clip-path="url(#p35c4452b84)">
     <use xlink:href="#C0_0_c2886aee7a" x="365.371501" y="152.928406" style="fill: #ff7f0e"/>
    </g>
    <g clip-path="url(#p35c4452b84)">
     <use xlink:href="#C0_0_c2886aee7a" x="365.201351" y="144.319223" style="fill: #ff7f0e"/>
    </g>
    <g clip-path="url(#p35c4452b84)">
     <use xlink:href="#C0_0_c2886aee7a" x="404.680933" y="179.010658" style="fill: #ff7f0e"/>
    </g>
    <g clip-path="url(#p35c4452b84)">
     <use xlink:href="#C0_0_c2886aee7a" x="147.233892" y="185.731491" style="fill: #1f77b4"/>
    </g>
    <g clip-path="url(#p35c4452b84)">
     <use xlink:href="#C0_0_c2886aee7a" x="228.291638" y="24.110909" style="fill: #d62728"/>
    </g>
    <g clip-path="url(#p35c4452b84)">
     <use xlink:href="#C0_0_c2886aee7a" x="302.032792" y="99.022852" style="fill: #d62728"/>
    </g>
    <g clip-path="url(#p35c4452b84)">
     <use xlink:href="#C0_0_c2886aee7a" x="66.091364" y="208.85003" style="fill: #1f77b4"/>
    </g>
    <g clip-path="url(#p35c4452b84)">
     <use xlink:href="#C0_0_c2886aee7a" x="221.527992" y="103.629846" style="fill: #d62728"/>
    </g>
    <g clip-path="url(#p35c4452b84)">
     <use xlink:href="#C0_0_c2886aee7a" x="257.567682" y="73.816024" style="fill: #d62728"/>
    </g>
    <g clip-path="url(#p35c4452b84)">
     <use xlink:href="#C0_0_c2886aee7a" x="293.57101" y="217.314326" style="fill: #ff7f0e"/>
    </g>
    <g clip-path="url(#p35c4452b84)">
     <use xlink:href="#C0_0_c2886aee7a" x="240.204009" y="83.10036" style="fill: #d62728"/>
    </g>
    <g clip-path="url(#p35c4452b84)">
     <use xlink:href="#C0_0_c2886aee7a" x="131.138243" y="241.515182" style="fill: #1f77b4"/>
    </g>
    <g clip-path="url(#p35c4452b84)">
     <use xlink:href="#C0_0_c2886aee7a" x="352.539913" y="222.55106" style="fill: #ff7f0e"/>
    </g>
    <g clip-path="url(#p35c4452b84)">
     <use xlink:href="#C0_0_c2886aee7a" x="415.743507" y="183.976268" style="fill: #ff7f0e"/>
    </g>
    <g clip-path="url(#p35c4452b84)">
     <use xlink:href="#C0_0_c2886aee7a" x="211.88411" y="141.054385" style="fill: #1f77b4"/>
    </g>
    <g clip-path="url(#p35c4452b84)">
     <use xlink:href="#C0_0_c2886aee7a" x="304.446801" y="80.863925" style="fill: #d62728"/>
    </g>
    <g clip-path="url(#p35c4452b84)">
     <use xlink:href="#C0_0_c2886aee7a" x="170.042714" y="247.837304" style="fill: #1f77b4"/>
    </g>
    <g clip-path="url(#p35c4452b84)">
     <use xlink:href="#C0_0_c2886aee7a" x="191.144946" y="101.235359" style="fill: #2ca02c"/>
    </g>
    <g clip-path="url(#p35c4452b84)">
     <use xlink:href="#C0_0_c2886aee7a" x="385.833898" y="219.384837" style="fill: #ff7f0e"/>
    </g>
    <g clip-path="url(#p35c4452b84)">
     <use xlink:href="#C0_0_c2886aee7a" x="299.627894" y="114.18075" style="fill: #ff7f0e"/>
    </g>
    <g clip-path="url(#p35c4452b84)">
     <use xlink:href="#C0_0_c2886aee7a" x="289.484362" y="170.069778" style="fill: #ff7f0e"/>
    </g>
    <g clip-path="url(#p35c4452b84)">
     <use xlink:href="#C0_0_c2886aee7a" x="316.012678" y="131.537807" style="fill: #ff7f0e"/>
    </g>
    <g clip-path="url(#p35c4452b84)">
     <use xlink:href="#C0_0_c2886aee7a" x="358.617307" y="162.318127" style="fill: #ff7f0e"/>
    </g>
    <g clip-path="url(#p35c4452b84)">
     <use xlink:href="#C0_0_c2886aee7a" x="317.870417" y="108.837403" style="fill: #ff7f0e"/>
    </g>
    <g clip-path="url(#p35c4452b84)">
     <use xlink:href="#C0_0_c2886aee7a" x="238.511375" y="122.281306" style="fill: #2ca02c"/>
    </g>
    <g clip-path="url(#p35c4452b84)">
     <use xlink:href="#C0_0_c2886aee7a" x="251.545487" y="127.590402" style="fill: #d62728"/>
    </g>
    <g clip-path="url(#p35c4452b84)">
     <use xlink:href="#C0_0_c2886aee7a" x="256.851159" y="142.373149" style="fill: #ff7f0e"/>
    </g>
    <g clip-path="url(#p35c4452b84)">
     <use xlink:href="#C0_0_c2886aee7a" x="302.154307" y="121.184433" style="fill: #ff7f0e"/>
    </g>
    <g clip-path="url(#p35c4452b84)">
     <use xlink:href="#C0_0_c2886aee7a" x="335.031768" y="99.975354" style="fill: #ff7f0e"/>
    </g>
    <g clip-path="url(#p35c4452b84)">
     <use xlink:href="#C0_0_c2886aee7a" x="310.494469" y="89.712501" style="fill: #d62728"/>
    </g>
    <g clip-path="url(#p35c4452b84)">
     <use xlink:href="#C0_0_c2886aee7a" x="278.774825" y="90.739376" style="fill: #d62728"/>
    </g>
    <g clip-path="url(#p35c4452b84)">
     <use xlink:href="#C0_0_c2886aee7a" x="149.935784" y="26.23242" style="fill: #d62728"/>
    </g>
    <g clip-path="url(#p35c4452b84)">
     <use xlink:href="#C0_0_c2886aee7a" x="154.936609" y="184.599753" style="fill: #2ca02c"/>
    </g>
    <g clip-path="url(#p35c4452b84)">
     <use xlink:href="#C0_0_c2886aee7a" x="283.752848" y="135.008471" style="fill: #ff7f0e"/>
    </g>
    <g clip-path="url(#p35c4452b84)">
     <use xlink:href="#C0_0_c2886aee7a" x="371.065906" y="210.953374" style="fill: #ff7f0e"/>
    </g>
    <g clip-path="url(#p35c4452b84)">
     <use xlink:href="#C0_0_c2886aee7a" x="338.400375" y="203.643076" style="fill: #ff7f0e"/>
    </g>
    <g clip-path="url(#p35c4452b84)">
     <use xlink:href="#C0_0_c2886aee7a" x="264.032639" y="102.615844" style="fill: #d62728"/>
    </g>
    <g clip-path="url(#p35c4452b84)">
     <use xlink:href="#C0_0_c2886aee7a" x="390.377435" y="188.342969" style="fill: #ff7f0e"/>
    </g>
    <g clip-path="url(#p35c4452b84)">
     <use xlink:href="#C0_0_c2886aee7a" x="252.563031" y="215.900229" style="fill: #1f77b4"/>
    </g>
    <g clip-path="url(#p35c4452b84)">
     <use xlink:href="#C0_0_c2886aee7a" x="409.370221" y="252.410489" style="fill: #ff7f0e"/>
    </g>
    <g clip-path="url(#p35c4452b84)">
     <use xlink:href="#C0_0_c2886aee7a" x="352.768454" y="97.069864" style="fill: #ff7f0e"/>
    </g>
    <g clip-path="url(#p35c4452b84)">
     <use xlink:href="#C0_0_c2886aee7a" x="145.043465" y="214.53563" style="fill: #1f77b4"/>
    </g>
    <g clip-path="url(#p35c4452b84)">
     <use xlink:href="#C0_0_c2886aee7a" x="349.836897" y="209.933357" style="fill: #ff7f0e"/>
    </g>
    <g clip-path="url(#p35c4452b84)">
     <use xlink:href="#C0_0_c2886aee7a" x="358.156261" y="204.976333" style="fill: #ff7f0e"/>
    </g>
   </g>
   <g id="PathCollection_2"/>
   <g id="PathCollection_3"/>
   <g id="PathCollection_4"/>
   <g id="PathCollection_5"/>
   <g id="matplotlib.axis_1">
    <g id="xtick_1">
     <g id="line2d_1">
      <defs>
       <path id="m3385fdae1e" d="M 0 0 
L 0 3.5 
" style="stroke: #000000; stroke-width: 0.8"/>
      </defs>
      <g>
       <use xlink:href="#m3385fdae1e" x="76.842752" y="303.64" style="stroke: #000000; stroke-width: 0.8"/>
      </g>
     </g>
     <g id="text_1">
      <!-- 1.15 -->
      <g transform="translate(65.70994 318.238437) scale(0.1 -0.1)">
       <defs>
        <path id="DejaVuSans-31" d="M 794 531 
L 1825 531 
L 1825 4091 
L 703 3866 
L 703 4441 
L 1819 4666 
L 2450 4666 
L 2450 531 
L 3481 531 
L 3481 0 
L 794 0 
L 794 531 
z
" transform="scale(0.015625)"/>
        <path id="DejaVuSans-2e" d="M 684 794 
L 1344 794 
L 1344 0 
L 684 0 
L 684 794 
z
" transform="scale(0.015625)"/>
        <path id="DejaVuSans-35" d="M 691 4666 
L 3169 4666 
L 3169 4134 
L 1269 4134 
L 1269 2991 
Q 1406 3038 1543 3061 
Q 1681 3084 1819 3084 
Q 2600 3084 3056 2656 
Q 3513 2228 3513 1497 
Q 3513 744 3044 326 
Q 2575 -91 1722 -91 
Q 1428 -91 1123 -41 
Q 819 9 494 109 
L 494 744 
Q 775 591 1075 516 
Q 1375 441 1709 441 
Q 2250 441 2565 725 
Q 2881 1009 2881 1497 
Q 2881 1984 2565 2268 
Q 2250 2553 1709 2553 
Q 1456 2553 1204 2497 
Q 953 2441 691 2322 
L 691 4666 
z
" transform="scale(0.015625)"/>
       </defs>
       <use xlink:href="#DejaVuSans-31"/>
       <use xlink:href="#DejaVuSans-2e" x="63.623047"/>
       <use xlink:href="#DejaVuSans-31" x="95.410156"/>
       <use xlink:href="#DejaVuSans-35" x="159.033203"/>
      </g>
     </g>
    </g>
    <g id="xtick_2">
     <g id="line2d_2">
      <g>
       <use xlink:href="#m3385fdae1e" x="136.881937" y="303.64" style="stroke: #000000; stroke-width: 0.8"/>
      </g>
     </g>
     <g id="text_2">
      <!-- 1.20 -->
      <g transform="translate(125.749124 318.238437) scale(0.1 -0.1)">
       <defs>
        <path id="DejaVuSans-32" d="M 1228 531 
L 3431 531 
L 3431 0 
L 469 0 
L 469 531 
Q 828 903 1448 1529 
Q 2069 2156 2228 2338 
Q 2531 2678 2651 2914 
Q 2772 3150 2772 3378 
Q 2772 3750 2511 3984 
Q 2250 4219 1831 4219 
Q 1534 4219 1204 4116 
Q 875 4013 500 3803 
L 500 4441 
Q 881 4594 1212 4672 
Q 1544 4750 1819 4750 
Q 2544 4750 2975 4387 
Q 3406 4025 3406 3419 
Q 3406 3131 3298 2873 
Q 3191 2616 2906 2266 
Q 2828 2175 2409 1742 
Q 1991 1309 1228 531 
z
" transform="scale(0.015625)"/>
        <path id="DejaVuSans-30" d="M 2034 4250 
Q 1547 4250 1301 3770 
Q 1056 3291 1056 2328 
Q 1056 1369 1301 889 
Q 1547 409 2034 409 
Q 2525 409 2770 889 
Q 3016 1369 3016 2328 
Q 3016 3291 2770 3770 
Q 2525 4250 2034 4250 
z
M 2034 4750 
Q 2819 4750 3233 4129 
Q 3647 3509 3647 2328 
Q 3647 1150 3233 529 
Q 2819 -91 2034 -91 
Q 1250 -91 836 529 
Q 422 1150 422 2328 
Q 422 3509 836 4129 
Q 1250 4750 2034 4750 
z
" transform="scale(0.015625)"/>
       </defs>
       <use xlink:href="#DejaVuSans-31"/>
       <use xlink:href="#DejaVuSans-2e" x="63.623047"/>
       <use xlink:href="#DejaVuSans-32" x="95.410156"/>
       <use xlink:href="#DejaVuSans-30" x="159.033203"/>
      </g>
     </g>
    </g>
    <g id="xtick_3">
     <g id="line2d_3">
      <g>
       <use xlink:href="#m3385fdae1e" x="196.921122" y="303.64" style="stroke: #000000; stroke-width: 0.8"/>
      </g>
     </g>
     <g id="text_3">
      <!-- 1.25 -->
      <g transform="translate(185.788309 318.238437) scale(0.1 -0.1)">
       <use xlink:href="#DejaVuSans-31"/>
       <use xlink:href="#DejaVuSans-2e" x="63.623047"/>
       <use xlink:href="#DejaVuSans-32" x="95.410156"/>
       <use xlink:href="#DejaVuSans-35" x="159.033203"/>
      </g>
     </g>
    </g>
    <g id="xtick_4">
     <g id="line2d_4">
      <g>
       <use xlink:href="#m3385fdae1e" x="256.960307" y="303.64" style="stroke: #000000; stroke-width: 0.8"/>
      </g>
     </g>
     <g id="text_4">
      <!-- 1.30 -->
      <g transform="translate(245.827494 318.238437) scale(0.1 -0.1)">
       <defs>
        <path id="DejaVuSans-33" d="M 2597 2516 
Q 3050 2419 3304 2112 
Q 3559 1806 3559 1356 
Q 3559 666 3084 287 
Q 2609 -91 1734 -91 
Q 1441 -91 1130 -33 
Q 819 25 488 141 
L 488 750 
Q 750 597 1062 519 
Q 1375 441 1716 441 
Q 2309 441 2620 675 
Q 2931 909 2931 1356 
Q 2931 1769 2642 2001 
Q 2353 2234 1838 2234 
L 1294 2234 
L 1294 2753 
L 1863 2753 
Q 2328 2753 2575 2939 
Q 2822 3125 2822 3475 
Q 2822 3834 2567 4026 
Q 2313 4219 1838 4219 
Q 1578 4219 1281 4162 
Q 984 4106 628 3988 
L 628 4550 
Q 988 4650 1302 4700 
Q 1616 4750 1894 4750 
Q 2613 4750 3031 4423 
Q 3450 4097 3450 3541 
Q 3450 3153 3228 2886 
Q 3006 2619 2597 2516 
z
" transform="scale(0.015625)"/>
       </defs>
       <use xlink:href="#DejaVuSans-31"/>
       <use xlink:href="#DejaVuSans-2e" x="63.623047"/>
       <use xlink:href="#DejaVuSans-33" x="95.410156"/>
       <use xlink:href="#DejaVuSans-30" x="159.033203"/>
      </g>
     </g>
    </g>
    <g id="xtick_5">
     <g id="line2d_5">
      <g>
       <use xlink:href="#m3385fdae1e" x="316.999492" y="303.64" style="stroke: #000000; stroke-width: 0.8"/>
      </g>
     </g>
     <g id="text_5">
      <!-- 1.35 -->
      <g transform="translate(305.866679 318.238437) scale(0.1 -0.1)">
       <use xlink:href="#DejaVuSans-31"/>
       <use xlink:href="#DejaVuSans-2e" x="63.623047"/>
       <use xlink:href="#DejaVuSans-33" x="95.410156"/>
       <use xlink:href="#DejaVuSans-35" x="159.033203"/>
      </g>
     </g>
    </g>
    <g id="xtick_6">
     <g id="line2d_6">
      <g>
       <use xlink:href="#m3385fdae1e" x="377.038677" y="303.64" style="stroke: #000000; stroke-width: 0.8"/>
      </g>
     </g>
     <g id="text_6">
      <!-- 1.40 -->
      <g transform="translate(365.905864 318.238437) scale(0.1 -0.1)">
       <defs>
        <path id="DejaVuSans-34" d="M 2419 4116 
L 825 1625 
L 2419 1625 
L 2419 4116 
z
M 2253 4666 
L 3047 4666 
L 3047 1625 
L 3713 1625 
L 3713 1100 
L 3047 1100 
L 3047 0 
L 2419 0 
L 2419 1100 
L 313 1100 
L 313 1709 
L 2253 4666 
z
" transform="scale(0.015625)"/>
       </defs>
       <use xlink:href="#DejaVuSans-31"/>
       <use xlink:href="#DejaVuSans-2e" x="63.623047"/>
       <use xlink:href="#DejaVuSans-34" x="95.410156"/>
       <use xlink:href="#DejaVuSans-30" x="159.033203"/>
      </g>
     </g>
    </g>
    <g id="xtick_7">
     <g id="line2d_7">
      <g>
       <use xlink:href="#m3385fdae1e" x="437.077862" y="303.64" style="stroke: #000000; stroke-width: 0.8"/>
      </g>
     </g>
     <g id="text_7">
      <!-- 1.45 -->
      <g transform="translate(425.945049 318.238437) scale(0.1 -0.1)">
       <use xlink:href="#DejaVuSans-31"/>
       <use xlink:href="#DejaVuSans-2e" x="63.623047"/>
       <use xlink:href="#DejaVuSans-34" x="95.410156"/>
       <use xlink:href="#DejaVuSans-35" x="159.033203"/>
      </g>
     </g>
    </g>
    <g id="text_8">
     <!-- VerCL -->
     <g transform="translate(234.462813 331.916562) scale(0.1 -0.1)">
      <defs>
       <path id="DejaVuSans-56" d="M 1831 0 
L 50 4666 
L 709 4666 
L 2188 738 
L 3669 4666 
L 4325 4666 
L 2547 0 
L 1831 0 
z
" transform="scale(0.015625)"/>
       <path id="DejaVuSans-65" d="M 3597 1894 
L 3597 1613 
L 953 1613 
Q 991 1019 1311 708 
Q 1631 397 2203 397 
Q 2534 397 2845 478 
Q 3156 559 3463 722 
L 3463 178 
Q 3153 47 2828 -22 
Q 2503 -91 2169 -91 
Q 1331 -91 842 396 
Q 353 884 353 1716 
Q 353 2575 817 3079 
Q 1281 3584 2069 3584 
Q 2775 3584 3186 3129 
Q 3597 2675 3597 1894 
z
M 3022 2063 
Q 3016 2534 2758 2815 
Q 2500 3097 2075 3097 
Q 1594 3097 1305 2825 
Q 1016 2553 972 2059 
L 3022 2063 
z
" transform="scale(0.015625)"/>
       <path id="DejaVuSans-72" d="M 2631 2963 
Q 2534 3019 2420 3045 
Q 2306 3072 2169 3072 
Q 1681 3072 1420 2755 
Q 1159 2438 1159 1844 
L 1159 0 
L 581 0 
L 581 3500 
L 1159 3500 
L 1159 2956 
Q 1341 3275 1631 3429 
Q 1922 3584 2338 3584 
Q 2397 3584 2469 3576 
Q 2541 3569 2628 3553 
L 2631 2963 
z
" transform="scale(0.015625)"/>
       <path id="DejaVuSans-43" d="M 4122 4306 
L 4122 3641 
Q 3803 3938 3442 4084 
Q 3081 4231 2675 4231 
Q 1875 4231 1450 3742 
Q 1025 3253 1025 2328 
Q 1025 1406 1450 917 
Q 1875 428 2675 428 
Q 3081 428 3442 575 
Q 3803 722 4122 1019 
L 4122 359 
Q 3791 134 3420 21 
Q 3050 -91 2638 -91 
Q 1578 -91 968 557 
Q 359 1206 359 2328 
Q 359 3453 968 4101 
Q 1578 4750 2638 4750 
Q 3056 4750 3426 4639 
Q 3797 4528 4122 4306 
z
" transform="scale(0.015625)"/>
       <path id="DejaVuSans-4c" d="M 628 4666 
L 1259 4666 
L 1259 531 
L 3531 531 
L 3531 0 
L 628 0 
L 628 4666 
z
" transform="scale(0.015625)"/>
      </defs>
      <use xlink:href="#DejaVuSans-56"/>
      <use xlink:href="#DejaVuSans-65" x="60.658203"/>
      <use xlink:href="#DejaVuSans-72" x="122.181641"/>
      <use xlink:href="#DejaVuSans-43" x="163.294922"/>
      <use xlink:href="#DejaVuSans-4c" x="233.119141"/>
     </g>
    </g>
   </g>
   <g id="matplotlib.axis_2">
    <g id="ytick_1">
     <g id="line2d_8">
      <defs>
       <path id="ma600d9e374" d="M 0 0 
L -3.5 0 
" style="stroke: #000000; stroke-width: 0.8"/>
      </defs>
      <g>
       <use xlink:href="#ma600d9e374" x="47.81" y="247.048029" style="stroke: #000000; stroke-width: 0.8"/>
      </g>
     </g>
     <g id="text_9">
      <!-- 1.1 -->
      <g transform="translate(24.906875 250.847248) scale(0.1 -0.1)">
       <use xlink:href="#DejaVuSans-31"/>
       <use xlink:href="#DejaVuSans-2e" x="63.623047"/>
       <use xlink:href="#DejaVuSans-31" x="95.410156"/>
      </g>
     </g>
    </g>
    <g id="ytick_2">
     <g id="line2d_9">
      <g>
       <use xlink:href="#ma600d9e374" x="47.81" y="186.397491" style="stroke: #000000; stroke-width: 0.8"/>
      </g>
     </g>
     <g id="text_10">
      <!-- 1.2 -->
      <g transform="translate(24.906875 190.19671) scale(0.1 -0.1)">
       <use xlink:href="#DejaVuSans-31"/>
       <use xlink:href="#DejaVuSans-2e" x="63.623047"/>
       <use xlink:href="#DejaVuSans-32" x="95.410156"/>
      </g>
     </g>
    </g>
    <g id="ytick_3">
     <g id="line2d_10">
      <g>
       <use xlink:href="#ma600d9e374" x="47.81" y="125.746954" style="stroke: #000000; stroke-width: 0.8"/>
      </g>
     </g>
     <g id="text_11">
      <!-- 1.3 -->
      <g transform="translate(24.906875 129.546173) scale(0.1 -0.1)">
       <use xlink:href="#DejaVuSans-31"/>
       <use xlink:href="#DejaVuSans-2e" x="63.623047"/>
       <use xlink:href="#DejaVuSans-33" x="95.410156"/>
      </g>
     </g>
    </g>
    <g id="ytick_4">
     <g id="line2d_11">
      <g>
       <use xlink:href="#ma600d9e374" x="47.81" y="65.096417" style="stroke: #000000; stroke-width: 0.8"/>
      </g>
     </g>
     <g id="text_12">
      <!-- 1.4 -->
      <g transform="translate(24.906875 68.895635) scale(0.1 -0.1)">
       <use xlink:href="#DejaVuSans-31"/>
       <use xlink:href="#DejaVuSans-2e" x="63.623047"/>
       <use xlink:href="#DejaVuSans-34" x="95.410156"/>
      </g>
     </g>
    </g>
    <g id="text_13">
     <!-- VerMES -->
     <g transform="translate(18.827187 176.0325) rotate(-90) scale(0.1 -0.1)">
      <defs>
       <path id="DejaVuSans-4d" d="M 628 4666 
L 1569 4666 
L 2759 1491 
L 3956 4666 
L 4897 4666 
L 4897 0 
L 4281 0 
L 4281 4097 
L 3078 897 
L 2444 897 
L 1241 4097 
L 1241 0 
L 628 0 
L 628 4666 
z
" transform="scale(0.015625)"/>
       <path id="DejaVuSans-45" d="M 628 4666 
L 3578 4666 
L 3578 4134 
L 1259 4134 
L 1259 2753 
L 3481 2753 
L 3481 2222 
L 1259 2222 
L 1259 531 
L 3634 531 
L 3634 0 
L 628 0 
L 628 4666 
z
" transform="scale(0.015625)"/>
       <path id="DejaVuSans-53" d="M 3425 4513 
L 3425 3897 
Q 3066 4069 2747 4153 
Q 2428 4238 2131 4238 
Q 1616 4238 1336 4038 
Q 1056 3838 1056 3469 
Q 1056 3159 1242 3001 
Q 1428 2844 1947 2747 
L 2328 2669 
Q 3034 2534 3370 2195 
Q 3706 1856 3706 1288 
Q 3706 609 3251 259 
Q 2797 -91 1919 -91 
Q 1588 -91 1214 -16 
Q 841 59 441 206 
L 441 856 
Q 825 641 1194 531 
Q 1563 422 1919 422 
Q 2459 422 2753 634 
Q 3047 847 3047 1241 
Q 3047 1584 2836 1778 
Q 2625 1972 2144 2069 
L 1759 2144 
Q 1053 2284 737 2584 
Q 422 2884 422 3419 
Q 422 4038 858 4394 
Q 1294 4750 2059 4750 
Q 2388 4750 2728 4690 
Q 3069 4631 3425 4513 
z
" transform="scale(0.015625)"/>
      </defs>
      <use xlink:href="#DejaVuSans-56"/>
      <use xlink:href="#DejaVuSans-65" x="60.658203"/>
      <use xlink:href="#DejaVuSans-72" x="122.181641"/>
      <use xlink:href="#DejaVuSans-4d" x="163.294922"/>
      <use xlink:href="#DejaVuSans-45" x="249.574219"/>
      <use xlink:href="#DejaVuSans-53" x="312.757812"/>
     </g>
    </g>
   </g>
   <g id="patch_3">
    <path d="M 47.81 303.64 
L 47.81 10.8 
" style="fill: none; stroke: #000000; stroke-width: 0.8; stroke-linejoin: miter; stroke-linecap: square"/>
   </g>
   <g id="patch_4">
    <path d="M 450 303.64 
L 450 10.8 
" style="fill: none; stroke: #000000; stroke-width: 0.8; stroke-linejoin: miter; stroke-linecap: square"/>
   </g>
   <g id="patch_5">
    <path d="M 47.81 303.64 
L 450 303.64 
" style="fill: none; stroke: #000000; stroke-width: 0.8; stroke-linejoin: miter; stroke-linecap: square"/>
   </g>
   <g id="patch_6">
    <path d="M 47.81 10.8 
L 450 10.8 
" style="fill: none; stroke: #000000; stroke-width: 0.8; stroke-linejoin: miter; stroke-linecap: square"/>
   </g>
   <g id="legend_1">
    <g id="patch_7">
     <path d="M 373.375 92.190625 
L 443 92.190625 
Q 445 92.190625 445 90.190625 
L 445 17.8 
Q 445 15.8 443 15.8 
L 373.375 15.8 
Q 371.375 15.8 371.375 17.8 
L 371.375 90.190625 
Q 371.375 92.190625 373.375 92.190625 
z
" style="fill: #ffffff; opacity: 0.8; stroke: #cccccc; stroke-linejoin: miter"/>
    </g>
    <g id="text_14">
     <!-- CellType -->
     <g transform="translate(387.358594 27.398438) scale(0.1 -0.1)">
      <defs>
       <path id="DejaVuSans-6c" d="M 603 4863 
L 1178 4863 
L 1178 0 
L 603 0 
L 603 4863 
z
" transform="scale(0.015625)"/>
       <path id="DejaVuSans-54" d="M -19 4666 
L 3928 4666 
L 3928 4134 
L 2272 4134 
L 2272 0 
L 1638 0 
L 1638 4134 
L -19 4134 
L -19 4666 
z
" transform="scale(0.015625)"/>
       <path id="DejaVuSans-79" d="M 2059 -325 
Q 1816 -950 1584 -1140 
Q 1353 -1331 966 -1331 
L 506 -1331 
L 506 -850 
L 844 -850 
Q 1081 -850 1212 -737 
Q 1344 -625 1503 -206 
L 1606 56 
L 191 3500 
L 800 3500 
L 1894 763 
L 2988 3500 
L 3597 3500 
L 2059 -325 
z
" transform="scale(0.015625)"/>
       <path id="DejaVuSans-70" d="M 1159 525 
L 1159 -1331 
L 581 -1331 
L 581 3500 
L 1159 3500 
L 1159 2969 
Q 1341 3281 1617 3432 
Q 1894 3584 2278 3584 
Q 2916 3584 3314 3078 
Q 3713 2572 3713 1747 
Q 3713 922 3314 415 
Q 2916 -91 2278 -91 
Q 1894 -91 1617 61 
Q 1341 213 1159 525 
z
M 3116 1747 
Q 3116 2381 2855 2742 
Q 2594 3103 2138 3103 
Q 1681 3103 1420 2742 
Q 1159 2381 1159 1747 
Q 1159 1113 1420 752 
Q 1681 391 2138 391 
Q 2594 391 2855 752 
Q 3116 1113 3116 1747 
z
" transform="scale(0.015625)"/>
      </defs>
      <use xlink:href="#DejaVuSans-43"/>
      <use xlink:href="#DejaVuSans-65" x="69.824219"/>
      <use xlink:href="#DejaVuSans-6c" x="131.347656"/>
      <use xlink:href="#DejaVuSans-6c" x="159.130859"/>
      <use xlink:href="#DejaVuSans-54" x="186.914062"/>
      <use xlink:href="#DejaVuSans-79" x="232.373047"/>
      <use xlink:href="#DejaVuSans-70" x="291.552734"/>
      <use xlink:href="#DejaVuSans-65" x="355.029297"/>
     </g>
    </g>
    <g id="PathCollection_6">
     <defs>
      <path id="m62fcbac0dc" d="M 0 3 
C 0.795609 3 1.55874 2.683901 2.12132 2.12132 
C 2.683901 1.55874 3 0.795609 3 0 
C 3 -0.795609 2.683901 -1.55874 2.12132 -2.12132 
C 1.55874 -2.683901 0.795609 -3 0 -3 
C -0.795609 -3 -1.55874 -2.683901 -2.12132 -2.12132 
C -2.683901 -1.55874 -3 -0.795609 -3 0 
C -3 0.795609 -2.683901 1.55874 -2.12132 2.12132 
C -1.55874 2.683901 -0.795609 3 0 3 
z
" style="stroke: #ff7f0e"/>
     </defs>
     <g>
      <use xlink:href="#m62fcbac0dc" x="385.375" y="39.451563" style="fill: #ff7f0e; stroke: #ff7f0e"/>
     </g>
    </g>
    <g id="text_15">
     <!-- VerCL -->
     <g transform="translate(403.375 42.076563) scale(0.1 -0.1)">
      <use xlink:href="#DejaVuSans-56"/>
      <use xlink:href="#DejaVuSans-65" x="60.658203"/>
      <use xlink:href="#DejaVuSans-72" x="122.181641"/>
      <use xlink:href="#DejaVuSans-43" x="163.294922"/>
      <use xlink:href="#DejaVuSans-4c" x="233.119141"/>
     </g>
    </g>
    <g id="PathCollection_7">
     <defs>
      <path id="m159424d5ea" d="M 0 3 
C 0.795609 3 1.55874 2.683901 2.12132 2.12132 
C 2.683901 1.55874 3 0.795609 3 0 
C 3 -0.795609 2.683901 -1.55874 2.12132 -2.12132 
C 1.55874 -2.683901 0.795609 -3 0 -3 
C -0.795609 -3 -1.55874 -2.683901 -2.12132 -2.12132 
C -2.683901 -1.55874 -3 -0.795609 -3 0 
C -3 0.795609 -2.683901 1.55874 -2.12132 2.12132 
C -1.55874 2.683901 -0.795609 3 0 3 
z
" style="stroke: #d62728"/>
     </defs>
     <g>
      <use xlink:href="#m159424d5ea" x="385.375" y="54.129688" style="fill: #d62728; stroke: #d62728"/>
     </g>
    </g>
    <g id="text_16">
     <!-- VerMES -->
     <g transform="translate(403.375 56.754688) scale(0.1 -0.1)">
      <use xlink:href="#DejaVuSans-56"/>
      <use xlink:href="#DejaVuSans-65" x="60.658203"/>
      <use xlink:href="#DejaVuSans-72" x="122.181641"/>
      <use xlink:href="#DejaVuSans-4d" x="163.294922"/>
      <use xlink:href="#DejaVuSans-45" x="249.574219"/>
      <use xlink:href="#DejaVuSans-53" x="312.757812"/>
     </g>
    </g>
    <g id="PathCollection_8">
     <defs>
      <path id="m80f1702e56" d="M 0 3 
C 0.795609 3 1.55874 2.683901 2.12132 2.12132 
C 2.683901 1.55874 3 0.795609 3 0 
C 3 -0.795609 2.683901 -1.55874 2.12132 -2.12132 
C 1.55874 -2.683901 0.795609 -3 0 -3 
C -0.795609 -3 -1.55874 -2.683901 -2.12132 -2.12132 
C -2.683901 -1.55874 -3 -0.795609 -3 0 
C -3 0.795609 -2.683901 1.55874 -2.12132 2.12132 
C -1.55874 2.683901 -0.795609 3 0 3 
z
" style="stroke: #1f77b4"/>
     </defs>
     <g>
      <use xlink:href="#m80f1702e56" x="385.375" y="68.807813" style="fill: #1f77b4; stroke: #1f77b4"/>
     </g>
    </g>
    <g id="text_17">
     <!-- VerPN -->
     <g transform="translate(403.375 71.432813) scale(0.1 -0.1)">
      <defs>
       <path id="DejaVuSans-50" d="M 1259 4147 
L 1259 2394 
L 2053 2394 
Q 2494 2394 2734 2622 
Q 2975 2850 2975 3272 
Q 2975 3691 2734 3919 
Q 2494 4147 2053 4147 
L 1259 4147 
z
M 628 4666 
L 2053 4666 
Q 2838 4666 3239 4311 
Q 3641 3956 3641 3272 
Q 3641 2581 3239 2228 
Q 2838 1875 2053 1875 
L 1259 1875 
L 1259 0 
L 628 0 
L 628 4666 
z
" transform="scale(0.015625)"/>
       <path id="DejaVuSans-4e" d="M 628 4666 
L 1478 4666 
L 3547 763 
L 3547 4666 
L 4159 4666 
L 4159 0 
L 3309 0 
L 1241 3903 
L 1241 0 
L 628 0 
L 628 4666 
z
" transform="scale(0.015625)"/>
      </defs>
      <use xlink:href="#DejaVuSans-56"/>
      <use xlink:href="#DejaVuSans-65" x="60.658203"/>
      <use xlink:href="#DejaVuSans-72" x="122.181641"/>
      <use xlink:href="#DejaVuSans-50" x="163.294922"/>
      <use xlink:href="#DejaVuSans-4e" x="223.597656"/>
     </g>
    </g>
    <g id="PathCollection_9">
     <defs>
      <path id="m0120bec314" d="M 0 3 
C 0.795609 3 1.55874 2.683901 2.12132 2.12132 
C 2.683901 1.55874 3 0.795609 3 0 
C 3 -0.795609 2.683901 -1.55874 2.12132 -2.12132 
C 1.55874 -2.683901 0.795609 -3 0 -3 
C -0.795609 -3 -1.55874 -2.683901 -2.12132 -2.12132 
C -2.683901 -1.55874 -3 -0.795609 -3 0 
C -3 0.795609 -2.683901 1.55874 -2.12132 2.12132 
C -1.55874 2.683901 -0.795609 3 0 3 
z
" style="stroke: #2ca02c"/>
     </defs>
     <g>
      <use xlink:href="#m0120bec314" x="385.375" y="83.485938" style="fill: #2ca02c; stroke: #2ca02c"/>
     </g>
    </g>
    <g id="text_18">
     <!-- VerNL -->
     <g transform="translate(403.375 86.110938) scale(0.1 -0.1)">
      <use xlink:href="#DejaVuSans-56"/>
      <use xlink:href="#DejaVuSans-65" x="60.658203"/>
      <use xlink:href="#DejaVuSans-72" x="122.181641"/>
      <use xlink:href="#DejaVuSans-4e" x="163.294922"/>
      <use xlink:href="#DejaVuSans-4c" x="238.099609"/>
     </g>
    </g>
   </g>
  </g>
 </g>
 <defs>
  <clipPath id="p35c4452b84">
   <rect x="47.81" y="10.8" width="402.19" height="292.84"/>
  </clipPath>
 </defs>
</svg>
