<?xml version="1.0" encoding="utf-8" standalone="no"?>
<!DOCTYPE svg PUBLIC "-//W3C//DTD SVG 1.1//EN"
  "http://www.w3.org/Graphics/SVG/1.1/DTD/svg11.dtd">
<svg xmlns:xlink="http://www.w3.org/1999/xlink" width="360pt" height="360pt" viewBox="0 0 360 360" xmlns="http://www.w3.org/2000/svg" version="1.1">
 <metadata>
  <rdf:RDF xmlns:dc="http://purl.org/dc/elements/1.1/" xmlns:cc="http://creativecommons.org/ns#" xmlns:rdf="http://www.w3.org/1999/02/22-rdf-syntax-ns#">
   <cc:Work>
    <dc:type rdf:resource="http://purl.org/dc/dcmitype/StillImage"/>
    <dc:date>2023-10-30T17:40:16.588223</dc:date>
    <dc:format>image/svg+xml</dc:format>
    <dc:creator>
     <cc:Agent>
      <dc:title>Matplotlib v3.7.1, https://matplotlib.org/</dc:title>
     </cc:Agent>
    </dc:creator>
   </cc:Work>
  </rdf:RDF>
 </metadata>
 <defs>
  <style type="text/css">*{stroke-linejoin: round; stroke-linecap: butt}</style>
 </defs>
 <g id="figure_1">
  <g id="patch_1">
   <path d="M 0 360 
L 360 360 
L 360 0 
L 0 0 
z
" style="fill: #ffffff"/>
  </g>
  <g id="axes_1">
   <g id="patch_2">
    <path d="M 295.38 181.8 
C 295.38 169.407334 293.302373 157.1019 289.233648 145.39619 
C 285.164923 133.690481 279.162379 122.749288 271.476007 113.028287 
C 263.789636 103.307286 254.527646 94.943329 244.075777 88.284754 
C 233.623909 81.62618 222.129303 76.766728 210.070683 73.908784 
C 198.012063 71.050839 185.55919 70.234635 173.230696 71.494165 
C 160.902203 72.753695 148.87165 76.071228 137.64008 81.308596 
C 126.408511 86.545963 116.134044 93.629434 107.244586 102.263999 
C 98.355128 110.898564 90.975826 120.962665 85.414008 132.037156 
C 79.852191 143.111647 76.186159 155.040622 74.568592 167.327267 
C 72.951026 179.613912 73.404698 192.085256 75.910714 204.221897 
C 78.416731 216.358537 82.939811 227.989616 89.29158 238.630724 
C 95.64335 249.271833 103.734387 258.773167 113.227721 266.739017 
C 122.721055 274.704868 133.483038 281.023093 145.065459 285.430552 
C 156.647879 289.838012 168.887681 292.272657 181.275104 292.633093 
C 193.662527 292.993528 206.023182 291.274678 217.842277 287.54813 
C 229.661372 283.821581 240.772517 278.139796 250.712961 270.739408 
L 184.5 181.8 
z
" style="fill: #1f77b4"/>
   </g>
   <g id="patch_3">
    <path d="M 250.712961 270.739408 
C 264.57302 260.420972 275.831101 247.004109 283.585996 231.562835 
C 291.340892 216.121561 295.380003 199.079196 295.38 181.799979 
L 184.5 181.8 
z
" style="fill: #2ca02c"/>
   </g>
   <g id="matplotlib.axis_1"/>
   <g id="matplotlib.axis_2"/>
   <g id="text_1">
    <!-- NefNPC -->
    <g transform="translate(15.870284 131.431721) scale(0.1584 -0.1584)">
     <defs>
      <path id="DejaVuSans-4e" d="M 628 4666 
L 1478 4666 
L 3547 763 
L 3547 4666 
L 4159 4666 
L 4159 0 
L 3309 0 
L 1241 3903 
L 1241 0 
L 628 0 
L 628 4666 
z
" transform="scale(0.015625)"/>
      <path id="DejaVuSans-65" d="M 3597 1894 
L 3597 1613 
L 953 1613 
Q 991 1019 1311 708 
Q 1631 397 2203 397 
Q 2534 397 2845 478 
Q 3156 559 3463 722 
L 3463 178 
Q 3153 47 2828 -22 
Q 2503 -91 2169 -91 
Q 1331 -91 842 396 
Q 353 884 353 1716 
Q 353 2575 817 3079 
Q 1281 3584 2069 3584 
Q 2775 3584 3186 3129 
Q 3597 2675 3597 1894 
z
M 3022 2063 
Q 3016 2534 2758 2815 
Q 2500 3097 2075 3097 
Q 1594 3097 1305 2825 
Q 1016 2553 972 2059 
L 3022 2063 
z
" transform="scale(0.015625)"/>
      <path id="DejaVuSans-66" d="M 2375 4863 
L 2375 4384 
L 1825 4384 
Q 1516 4384 1395 4259 
Q 1275 4134 1275 3809 
L 1275 3500 
L 2222 3500 
L 2222 3053 
L 1275 3053 
L 1275 0 
L 697 0 
L 697 3053 
L 147 3053 
L 147 3500 
L 697 3500 
L 697 3744 
Q 697 4328 969 4595 
Q 1241 4863 1831 4863 
L 2375 4863 
z
" transform="scale(0.015625)"/>
      <path id="DejaVuSans-50" d="M 1259 4147 
L 1259 2394 
L 2053 2394 
Q 2494 2394 2734 2622 
Q 2975 2850 2975 3272 
Q 2975 3691 2734 3919 
Q 2494 4147 2053 4147 
L 1259 4147 
z
M 628 4666 
L 2053 4666 
Q 2838 4666 3239 4311 
Q 3641 3956 3641 3272 
Q 3641 2581 3239 2228 
Q 2838 1875 2053 1875 
L 1259 1875 
L 1259 0 
L 628 0 
L 628 4666 
z
" transform="scale(0.015625)"/>
      <path id="DejaVuSans-43" d="M 4122 4306 
L 4122 3641 
Q 3803 3938 3442 4084 
Q 3081 4231 2675 4231 
Q 1875 4231 1450 3742 
Q 1025 3253 1025 2328 
Q 1025 1406 1450 917 
Q 1875 428 2675 428 
Q 3081 428 3442 575 
Q 3803 722 4122 1019 
L 4122 359 
Q 3791 134 3420 21 
Q 3050 -91 2638 -91 
Q 1578 -91 968 557 
Q 359 1206 359 2328 
Q 359 3453 968 4101 
Q 1578 4750 2638 4750 
Q 3056 4750 3426 4639 
Q 3797 4528 4122 4306 
z
" transform="scale(0.015625)"/>
     </defs>
     <use xlink:href="#DejaVuSans-4e"/>
     <use xlink:href="#DejaVuSans-65" x="74.804688"/>
     <use xlink:href="#DejaVuSans-66" x="136.328125"/>
     <use xlink:href="#DejaVuSans-4e" x="171.533203"/>
     <use xlink:href="#DejaVuSans-50" x="246.337891"/>
     <use xlink:href="#DejaVuSans-43" x="306.640625"/>
    </g>
   </g>
   <g id="text_2">
    <!-- NefOPC -->
    <g transform="translate(293.494596 240.909968) scale(0.1584 -0.1584)">
     <defs>
      <path id="DejaVuSans-4f" d="M 2522 4238 
Q 1834 4238 1429 3725 
Q 1025 3213 1025 2328 
Q 1025 1447 1429 934 
Q 1834 422 2522 422 
Q 3209 422 3611 934 
Q 4013 1447 4013 2328 
Q 4013 3213 3611 3725 
Q 3209 4238 2522 4238 
z
M 2522 4750 
Q 3503 4750 4090 4092 
Q 4678 3434 4678 2328 
Q 4678 1225 4090 567 
Q 3503 -91 2522 -91 
Q 1538 -91 948 565 
Q 359 1222 359 2328 
Q 359 3434 948 4092 
Q 1538 4750 2522 4750 
z
" transform="scale(0.015625)"/>
     </defs>
     <use xlink:href="#DejaVuSans-4e"/>
     <use xlink:href="#DejaVuSans-65" x="74.804688"/>
     <use xlink:href="#DejaVuSans-66" x="136.328125"/>
     <use xlink:href="#DejaVuSans-4f" x="171.533203"/>
     <use xlink:href="#DejaVuSans-50" x="250.244141"/>
     <use xlink:href="#DejaVuSans-43" x="310.546875"/>
    </g>
   </g>
  </g>
 </g>
</svg>
