<?xml version="1.0" encoding="utf-8" standalone="no"?>
<!DOCTYPE svg PUBLIC "-//W3C//DTD SVG 1.1//EN"
  "http://www.w3.org/Graphics/SVG/1.1/DTD/svg11.dtd">
<svg xmlns:xlink="http://www.w3.org/1999/xlink" width="360pt" height="360pt" viewBox="0 0 360 360" xmlns="http://www.w3.org/2000/svg" version="1.1">
 <metadata>
  <rdf:RDF xmlns:dc="http://purl.org/dc/elements/1.1/" xmlns:cc="http://creativecommons.org/ns#" xmlns:rdf="http://www.w3.org/1999/02/22-rdf-syntax-ns#">
   <cc:Work>
    <dc:type rdf:resource="http://purl.org/dc/dcmitype/StillImage"/>
    <dc:date>2023-10-30T17:40:39.789175</dc:date>
    <dc:format>image/svg+xml</dc:format>
    <dc:creator>
     <cc:Agent>
      <dc:title>Matplotlib v3.7.1, https://matplotlib.org/</dc:title>
     </cc:Agent>
    </dc:creator>
   </cc:Work>
  </rdf:RDF>
 </metadata>
 <defs>
  <style type="text/css">*{stroke-linejoin: round; stroke-linecap: butt}</style>
 </defs>
 <g id="figure_1">
  <g id="patch_1">
   <path d="M 0 360 
L 360 360 
L 360 0 
L 0 0 
z
" style="fill: #ffffff"/>
  </g>
  <g id="axes_1">
   <g id="patch_2">
    <path d="M 295.38 181.8 
C 295.38 172.857357 294.298143 163.947464 292.158028 155.264678 
C 290.017914 146.581892 286.835217 138.18981 282.679363 130.271493 
L 184.5 181.8 
z
" style="fill: #ff7f0e"/>
   </g>
   <g id="patch_3">
    <path d="M 282.679363 130.271493 
C 279.356132 123.939605 275.428136 117.944028 270.950291 112.368584 
C 266.472446 106.79314 261.465718 101.663932 256.000103 97.052672 
L 184.5 181.8 
z
" style="fill: #2ca02c"/>
   </g>
   <g id="patch_4">
    <path d="M 256.000103 97.052672 
C 246.419979 88.970059 235.538314 82.570104 223.818588 78.125398 
C 212.098861 73.680693 199.709862 71.255249 187.179273 70.952375 
C 174.648684 70.649501 162.156972 72.473558 150.236193 76.346854 
C 138.315414 80.220151 127.137253 86.086903 117.177818 93.697229 
C 107.218384 101.307555 98.621114 110.551851 91.752189 121.036376 
C 84.883264 131.520902 79.841612 143.094657 76.84197 155.264683 
C 73.842329 167.43471 72.927899 180.025734 74.137629 192.501468 
C 75.347359 204.977202 78.663826 217.157971 83.945773 228.524959 
C 89.22772 239.891948 96.399075 250.281449 105.154391 259.250944 
C 113.909707 268.220439 124.122888 275.640749 135.358926 281.195821 
C 146.594965 286.750894 158.692039 290.360725 171.134899 291.871561 
C 183.577759 293.382397 196.187203 292.772479 208.426158 290.067785 
C 220.665113 287.363092 232.357314 282.602576 243.004756 275.989001 
C 253.652198 269.375426 263.101536 261.004042 270.950297 251.231409 
C 278.799057 241.458776 284.934201 230.425641 289.094416 218.601936 
C 293.254631 206.77823 295.380001 194.334241 295.38 181.799992 
L 184.5 181.8 
z
" style="fill: #1f77b4"/>
   </g>
   <g id="matplotlib.axis_1"/>
   <g id="matplotlib.axis_2"/>
   <g id="text_1">
    <!-- VerCL -->
    <g transform="translate(302.923831 156.981996) scale(0.1584 -0.1584)">
     <defs>
      <path id="DejaVuSans-56" d="M 1831 0 
L 50 4666 
L 709 4666 
L 2188 738 
L 3669 4666 
L 4325 4666 
L 2547 0 
L 1831 0 
z
" transform="scale(0.015625)"/>
      <path id="DejaVuSans-65" d="M 3597 1894 
L 3597 1613 
L 953 1613 
Q 991 1019 1311 708 
Q 1631 397 2203 397 
Q 2534 397 2845 478 
Q 3156 559 3463 722 
L 3463 178 
Q 3153 47 2828 -22 
Q 2503 -91 2169 -91 
Q 1331 -91 842 396 
Q 353 884 353 1716 
Q 353 2575 817 3079 
Q 1281 3584 2069 3584 
Q 2775 3584 3186 3129 
Q 3597 2675 3597 1894 
z
M 3022 2063 
Q 3016 2534 2758 2815 
Q 2500 3097 2075 3097 
Q 1594 3097 1305 2825 
Q 1016 2553 972 2059 
L 3022 2063 
z
" transform="scale(0.015625)"/>
      <path id="DejaVuSans-72" d="M 2631 2963 
Q 2534 3019 2420 3045 
Q 2306 3072 2169 3072 
Q 1681 3072 1420 2755 
Q 1159 2438 1159 1844 
L 1159 0 
L 581 0 
L 581 3500 
L 1159 3500 
L 1159 2956 
Q 1341 3275 1631 3429 
Q 1922 3584 2338 3584 
Q 2397 3584 2469 3576 
Q 2541 3569 2628 3553 
L 2631 2963 
z
" transform="scale(0.015625)"/>
      <path id="DejaVuSans-43" d="M 4122 4306 
L 4122 3641 
Q 3803 3938 3442 4084 
Q 3081 4231 2675 4231 
Q 1875 4231 1450 3742 
Q 1025 3253 1025 2328 
Q 1025 1406 1450 917 
Q 1875 428 2675 428 
Q 3081 428 3442 575 
Q 3803 722 4122 1019 
L 4122 359 
Q 3791 134 3420 21 
Q 3050 -91 2638 -91 
Q 1578 -91 968 557 
Q 359 1206 359 2328 
Q 359 3453 968 4101 
Q 1578 4750 2638 4750 
Q 3056 4750 3426 4639 
Q 3797 4528 4122 4306 
z
" transform="scale(0.015625)"/>
      <path id="DejaVuSans-4c" d="M 628 4666 
L 1259 4666 
L 1259 531 
L 3531 531 
L 3531 0 
L 628 0 
L 628 4666 
z
" transform="scale(0.015625)"/>
     </defs>
     <use xlink:href="#DejaVuSans-56"/>
     <use xlink:href="#DejaVuSans-65" x="60.658203"/>
     <use xlink:href="#DejaVuSans-72" x="122.181641"/>
     <use xlink:href="#DejaVuSans-43" x="163.294922"/>
     <use xlink:href="#DejaVuSans-4c" x="233.119141"/>
    </g>
   </g>
   <g id="text_2">
    <!-- VerNL -->
    <g transform="translate(279.59532 109.796292) scale(0.1584 -0.1584)">
     <defs>
      <path id="DejaVuSans-4e" d="M 628 4666 
L 1478 4666 
L 3547 763 
L 3547 4666 
L 4159 4666 
L 4159 0 
L 3309 0 
L 1241 3903 
L 1241 0 
L 628 0 
L 628 4666 
z
" transform="scale(0.015625)"/>
     </defs>
     <use xlink:href="#DejaVuSans-56"/>
     <use xlink:href="#DejaVuSans-65" x="60.658203"/>
     <use xlink:href="#DejaVuSans-72" x="122.181641"/>
     <use xlink:href="#DejaVuSans-4e" x="163.294922"/>
     <use xlink:href="#DejaVuSans-4c" x="238.099609"/>
    </g>
   </g>
   <g id="text_3">
    <!-- VerPN -->
    <g transform="translate(26.6228 237.568305) scale(0.1584 -0.1584)">
     <defs>
      <path id="DejaVuSans-50" d="M 1259 4147 
L 1259 2394 
L 2053 2394 
Q 2494 2394 2734 2622 
Q 2975 2850 2975 3272 
Q 2975 3691 2734 3919 
Q 2494 4147 2053 4147 
L 1259 4147 
z
M 628 4666 
L 2053 4666 
Q 2838 4666 3239 4311 
Q 3641 3956 3641 3272 
Q 3641 2581 3239 2228 
Q 2838 1875 2053 1875 
L 1259 1875 
L 1259 0 
L 628 0 
L 628 4666 
z
" transform="scale(0.015625)"/>
     </defs>
     <use xlink:href="#DejaVuSans-56"/>
     <use xlink:href="#DejaVuSans-65" x="60.658203"/>
     <use xlink:href="#DejaVuSans-72" x="122.181641"/>
     <use xlink:href="#DejaVuSans-50" x="163.294922"/>
     <use xlink:href="#DejaVuSans-4e" x="223.597656"/>
    </g>
   </g>
  </g>
 </g>
</svg>
