<?xml version="1.0" encoding="utf-8" standalone="no"?>
<!DOCTYPE svg PUBLIC "-//W3C//DTD SVG 1.1//EN"
  "http://www.w3.org/Graphics/SVG/1.1/DTD/svg11.dtd">
<svg xmlns:xlink="http://www.w3.org/1999/xlink" width="360pt" height="360pt" viewBox="0 0 360 360" xmlns="http://www.w3.org/2000/svg" version="1.1">
 <metadata>
  <rdf:RDF xmlns:dc="http://purl.org/dc/elements/1.1/" xmlns:cc="http://creativecommons.org/ns#" xmlns:rdf="http://www.w3.org/1999/02/22-rdf-syntax-ns#">
   <cc:Work>
    <dc:type rdf:resource="http://purl.org/dc/dcmitype/StillImage"/>
    <dc:date>2023-10-30T17:40:21.458864</dc:date>
    <dc:format>image/svg+xml</dc:format>
    <dc:creator>
     <cc:Agent>
      <dc:title>Matplotlib v3.7.1, https://matplotlib.org/</dc:title>
     </cc:Agent>
    </dc:creator>
   </cc:Work>
  </rdf:RDF>
 </metadata>
 <defs>
  <style type="text/css">*{stroke-linejoin: round; stroke-linecap: butt}</style>
 </defs>
 <g id="figure_1">
  <g id="patch_1">
   <path d="M 0 360 
L 360 360 
L 360 0 
L 0 0 
z
" style="fill: #ffffff"/>
  </g>
  <g id="axes_1">
   <g id="patch_2">
    <path d="M 295.38 181.8 
C 295.38 167.802756 292.729529 153.931266 287.568938 140.920074 
C 282.408348 127.908881 274.830365 115.991776 265.236271 105.799809 
C 255.642176 95.607843 244.20436 87.324148 231.528495 81.387376 
C 218.852629 75.450604 205.166479 71.967428 191.194773 71.122295 
C 177.223066 70.277162 163.216853 72.085257 149.917809 76.450835 
C 136.618766 80.816414 124.265855 87.661034 113.513206 96.622248 
C 102.760557 105.583462 93.801377 116.500253 87.110085 128.794539 
C 80.418794 141.088824 76.115624 154.539696 74.428441 168.434883 
C 72.741259 182.330071 73.70038 196.419901 77.255017 209.958268 
C 80.809654 223.496636 86.895936 236.240278 95.191571 247.514374 
C 103.487207 258.788471 113.843139 268.390445 125.710983 275.811839 
C 137.578828 283.233233 150.74534 288.340697 164.513307 290.863773 
C 178.281274 293.386848 192.403309 293.2802 206.1316 290.549475 
C 219.85989 287.81875 232.947763 282.513015 244.702169 274.913228 
C 256.456575 267.313441 266.666307 257.556156 274.790724 246.158057 
C 282.915142 234.759957 288.808262 221.925848 292.158024 208.335339 
L 184.5 181.8 
z
" style="fill: #1f77b4"/>
   </g>
   <g id="patch_3">
    <path d="M 292.158024 208.335339 
C 293.227108 203.997897 294.033089 199.599807 294.571558 195.165126 
C 295.110026 190.730444 295.379999 186.267271 295.38 181.800018 
L 184.5 181.8 
z
" style="fill: #2ca02c"/>
   </g>
   <g id="matplotlib.axis_1"/>
   <g id="matplotlib.axis_2"/>
   <g id="text_1">
    <!-- NefNPC -->
    <g transform="translate(3.78616 171.469222) scale(0.1584 -0.1584)">
     <defs>
      <path id="DejaVuSans-4e" d="M 628 4666 
L 1478 4666 
L 3547 763 
L 3547 4666 
L 4159 4666 
L 4159 0 
L 3309 0 
L 1241 3903 
L 1241 0 
L 628 0 
L 628 4666 
z
" transform="scale(0.015625)"/>
      <path id="DejaVuSans-65" d="M 3597 1894 
L 3597 1613 
L 953 1613 
Q 991 1019 1311 708 
Q 1631 397 2203 397 
Q 2534 397 2845 478 
Q 3156 559 3463 722 
L 3463 178 
Q 3153 47 2828 -22 
Q 2503 -91 2169 -91 
Q 1331 -91 842 396 
Q 353 884 353 1716 
Q 353 2575 817 3079 
Q 1281 3584 2069 3584 
Q 2775 3584 3186 3129 
Q 3597 2675 3597 1894 
z
M 3022 2063 
Q 3016 2534 2758 2815 
Q 2500 3097 2075 3097 
Q 1594 3097 1305 2825 
Q 1016 2553 972 2059 
L 3022 2063 
z
" transform="scale(0.015625)"/>
      <path id="DejaVuSans-66" d="M 2375 4863 
L 2375 4384 
L 1825 4384 
Q 1516 4384 1395 4259 
Q 1275 4134 1275 3809 
L 1275 3500 
L 2222 3500 
L 2222 3053 
L 1275 3053 
L 1275 0 
L 697 0 
L 697 3053 
L 147 3053 
L 147 3500 
L 697 3500 
L 697 3744 
Q 697 4328 969 4595 
Q 1241 4863 1831 4863 
L 2375 4863 
z
" transform="scale(0.015625)"/>
      <path id="DejaVuSans-50" d="M 1259 4147 
L 1259 2394 
L 2053 2394 
Q 2494 2394 2734 2622 
Q 2975 2850 2975 3272 
Q 2975 3691 2734 3919 
Q 2494 4147 2053 4147 
L 1259 4147 
z
M 628 4666 
L 2053 4666 
Q 2838 4666 3239 4311 
Q 3641 3956 3641 3272 
Q 3641 2581 3239 2228 
Q 2838 1875 2053 1875 
L 1259 1875 
L 1259 0 
L 628 0 
L 628 4666 
z
" transform="scale(0.015625)"/>
      <path id="DejaVuSans-43" d="M 4122 4306 
L 4122 3641 
Q 3803 3938 3442 4084 
Q 3081 4231 2675 4231 
Q 1875 4231 1450 3742 
Q 1025 3253 1025 2328 
Q 1025 1406 1450 917 
Q 1875 428 2675 428 
Q 3081 428 3442 575 
Q 3803 722 4122 1019 
L 4122 359 
Q 3791 134 3420 21 
Q 3050 -91 2638 -91 
Q 1578 -91 968 557 
Q 359 1206 359 2328 
Q 359 3453 968 4101 
Q 1578 4750 2638 4750 
Q 3056 4750 3426 4639 
Q 3797 4528 4122 4306 
z
" transform="scale(0.015625)"/>
     </defs>
     <use xlink:href="#DejaVuSans-4e"/>
     <use xlink:href="#DejaVuSans-65" x="74.804688"/>
     <use xlink:href="#DejaVuSans-66" x="136.328125"/>
     <use xlink:href="#DejaVuSans-4e" x="171.533203"/>
     <use xlink:href="#DejaVuSans-50" x="246.337891"/>
     <use xlink:href="#DejaVuSans-43" x="306.640625"/>
    </g>
   </g>
   <g id="text_2">
    <!-- NefOPC -->
    <g transform="translate(305.578713 200.872488) scale(0.1584 -0.1584)">
     <defs>
      <path id="DejaVuSans-4f" d="M 2522 4238 
Q 1834 4238 1429 3725 
Q 1025 3213 1025 2328 
Q 1025 1447 1429 934 
Q 1834 422 2522 422 
Q 3209 422 3611 934 
Q 4013 1447 4013 2328 
Q 4013 3213 3611 3725 
Q 3209 4238 2522 4238 
z
M 2522 4750 
Q 3503 4750 4090 4092 
Q 4678 3434 4678 2328 
Q 4678 1225 4090 567 
Q 3503 -91 2522 -91 
Q 1538 -91 948 565 
Q 359 1222 359 2328 
Q 359 3434 948 4092 
Q 1538 4750 2522 4750 
z
" transform="scale(0.015625)"/>
     </defs>
     <use xlink:href="#DejaVuSans-4e"/>
     <use xlink:href="#DejaVuSans-65" x="74.804688"/>
     <use xlink:href="#DejaVuSans-66" x="136.328125"/>
     <use xlink:href="#DejaVuSans-4f" x="171.533203"/>
     <use xlink:href="#DejaVuSans-50" x="250.244141"/>
     <use xlink:href="#DejaVuSans-43" x="310.546875"/>
    </g>
   </g>
  </g>
 </g>
</svg>
