<?xml version="1.0" encoding="utf-8" standalone="no"?>
<!DOCTYPE svg PUBLIC "-//W3C//DTD SVG 1.1//EN"
  "http://www.w3.org/Graphics/SVG/1.1/DTD/svg11.dtd">
<svg xmlns:xlink="http://www.w3.org/1999/xlink" width="720pt" height="720pt" viewBox="0 0 720 720" xmlns="http://www.w3.org/2000/svg" version="1.1">
 <metadata>
  <rdf:RDF xmlns:dc="http://purl.org/dc/elements/1.1/" xmlns:cc="http://creativecommons.org/ns#" xmlns:rdf="http://www.w3.org/1999/02/22-rdf-syntax-ns#">
   <cc:Work>
    <dc:type rdf:resource="http://purl.org/dc/dcmitype/StillImage"/>
    <dc:date>2023-09-12T16:13:17.386330</dc:date>
    <dc:format>image/svg+xml</dc:format>
    <dc:creator>
     <cc:Agent>
      <dc:title>Matplotlib v3.7.1, https://matplotlib.org/</dc:title>
     </cc:Agent>
    </dc:creator>
   </cc:Work>
  </rdf:RDF>
 </metadata>
 <defs>
  <style type="text/css">*{stroke-linejoin: round; stroke-linecap: butt}</style>
 </defs>
 <g id="figure_1">
  <g id="patch_1">
   <path d="M 0 720 
L 720 720 
L 720 0 
L 0 0 
z
" style="fill: #ffffff"/>
  </g>
  <g id="axes_1">
   <g id="patch_2">
    <path d="M 125.84 594.16 
L 694.08 594.16 
L 694.08 25.92 
L 125.84 25.92 
z
" style="fill: #ffffff"/>
   </g>
   <g id="QuadMesh_1">
    <path d="M 125.84 25.92 
L 196.87 25.92 
L 196.87 96.95 
L 125.84 96.95 
L 125.84 25.92 
" clip-path="url(#pf43f69ca96)" style="fill: #26828e"/>
    <path d="M 196.87 25.92 
L 267.9 25.92 
L 267.9 96.95 
L 196.87 96.95 
L 196.87 25.92 
" clip-path="url(#pf43f69ca96)" style="fill: #440256"/>
    <path d="M 267.9 25.92 
L 338.93 25.92 
L 338.93 96.95 
L 267.9 96.95 
L 267.9 25.92 
" clip-path="url(#pf43f69ca96)" style="fill: #440154"/>
    <path d="M 338.93 25.92 
L 409.96 25.92 
L 409.96 96.95 
L 338.93 96.95 
L 338.93 25.92 
" clip-path="url(#pf43f69ca96)" style="fill: #440256"/>
    <path d="M 409.96 25.92 
L 480.99 25.92 
L 480.99 96.95 
L 409.96 96.95 
L 409.96 25.92 
" clip-path="url(#pf43f69ca96)" style="fill: #48186a"/>
    <path d="M 480.99 25.92 
L 552.02 25.92 
L 552.02 96.95 
L 480.99 96.95 
L 480.99 25.92 
" clip-path="url(#pf43f69ca96)" style="fill: #440256"/>
    <path d="M 552.02 25.92 
L 623.05 25.92 
L 623.05 96.95 
L 552.02 96.95 
L 552.02 25.92 
" clip-path="url(#pf43f69ca96)" style="fill: #440154"/>
    <path d="M 623.05 25.92 
L 694.08 25.92 
L 694.08 96.95 
L 623.05 96.95 
L 623.05 25.92 
" clip-path="url(#pf43f69ca96)" style="fill: #440154"/>
    <path d="M 125.84 96.95 
L 196.87 96.95 
L 196.87 167.98 
L 125.84 167.98 
L 125.84 96.95 
" clip-path="url(#pf43f69ca96)" style="fill: #440256"/>
    <path d="M 196.87 96.95 
L 267.9 96.95 
L 267.9 167.98 
L 196.87 167.98 
L 196.87 96.95 
" clip-path="url(#pf43f69ca96)" style="fill: #433e85"/>
    <path d="M 267.9 96.95 
L 338.93 96.95 
L 338.93 167.98 
L 267.9 167.98 
L 267.9 96.95 
" clip-path="url(#pf43f69ca96)" style="fill: #470e61"/>
    <path d="M 338.93 96.95 
L 409.96 96.95 
L 409.96 167.98 
L 338.93 167.98 
L 338.93 96.95 
" clip-path="url(#pf43f69ca96)" style="fill: #440256"/>
    <path d="M 409.96 96.95 
L 480.99 96.95 
L 480.99 167.98 
L 409.96 167.98 
L 409.96 96.95 
" clip-path="url(#pf43f69ca96)" style="fill: #440154"/>
    <path d="M 480.99 96.95 
L 552.02 96.95 
L 552.02 167.98 
L 480.99 167.98 
L 480.99 96.95 
" clip-path="url(#pf43f69ca96)" style="fill: #450559"/>
    <path d="M 552.02 96.95 
L 623.05 96.95 
L 623.05 167.98 
L 552.02 167.98 
L 552.02 96.95 
" clip-path="url(#pf43f69ca96)" style="fill: #440256"/>
    <path d="M 623.05 96.95 
L 694.08 96.95 
L 694.08 167.98 
L 623.05 167.98 
L 623.05 96.95 
" clip-path="url(#pf43f69ca96)" style="fill: #450457"/>
    <path d="M 125.84 167.98 
L 196.87 167.98 
L 196.87 239.01 
L 125.84 239.01 
L 125.84 167.98 
" clip-path="url(#pf43f69ca96)" style="fill: #440154"/>
    <path d="M 196.87 167.98 
L 267.9 167.98 
L 267.9 239.01 
L 196.87 239.01 
L 196.87 167.98 
" clip-path="url(#pf43f69ca96)" style="fill: #470e61"/>
    <path d="M 267.9 167.98 
L 338.93 167.98 
L 338.93 239.01 
L 267.9 239.01 
L 267.9 167.98 
" clip-path="url(#pf43f69ca96)" style="fill: #3d4d8a"/>
    <path d="M 338.93 167.98 
L 409.96 167.98 
L 409.96 239.01 
L 338.93 239.01 
L 338.93 167.98 
" clip-path="url(#pf43f69ca96)" style="fill: #470d60"/>
    <path d="M 409.96 167.98 
L 480.99 167.98 
L 480.99 239.01 
L 409.96 239.01 
L 409.96 167.98 
" clip-path="url(#pf43f69ca96)" style="fill: #440154"/>
    <path d="M 480.99 167.98 
L 552.02 167.98 
L 552.02 239.01 
L 480.99 239.01 
L 480.99 167.98 
" clip-path="url(#pf43f69ca96)" style="fill: #440154"/>
    <path d="M 552.02 167.98 
L 623.05 167.98 
L 623.05 239.01 
L 552.02 239.01 
L 552.02 167.98 
" clip-path="url(#pf43f69ca96)" style="fill: #440256"/>
    <path d="M 623.05 167.98 
L 694.08 167.98 
L 694.08 239.01 
L 623.05 239.01 
L 623.05 167.98 
" clip-path="url(#pf43f69ca96)" style="fill: #471063"/>
    <path d="M 125.84 239.01 
L 196.87 239.01 
L 196.87 310.04 
L 125.84 310.04 
L 125.84 239.01 
" clip-path="url(#pf43f69ca96)" style="fill: #440256"/>
    <path d="M 196.87 239.01 
L 267.9 239.01 
L 267.9 310.04 
L 196.87 310.04 
L 196.87 239.01 
" clip-path="url(#pf43f69ca96)" style="fill: #440256"/>
    <path d="M 267.9 239.01 
L 338.93 239.01 
L 338.93 310.04 
L 267.9 310.04 
L 267.9 239.01 
" clip-path="url(#pf43f69ca96)" style="fill: #470d60"/>
    <path d="M 338.93 239.01 
L 409.96 239.01 
L 409.96 310.04 
L 338.93 310.04 
L 338.93 239.01 
" clip-path="url(#pf43f69ca96)" style="fill: #297b8e"/>
    <path d="M 409.96 239.01 
L 480.99 239.01 
L 480.99 310.04 
L 409.96 310.04 
L 409.96 239.01 
" clip-path="url(#pf43f69ca96)" style="fill: #440154"/>
    <path d="M 480.99 239.01 
L 552.02 239.01 
L 552.02 310.04 
L 480.99 310.04 
L 480.99 239.01 
" clip-path="url(#pf43f69ca96)" style="fill: #440154"/>
    <path d="M 552.02 239.01 
L 623.05 239.01 
L 623.05 310.04 
L 552.02 310.04 
L 552.02 239.01 
" clip-path="url(#pf43f69ca96)" style="fill: #440256"/>
    <path d="M 623.05 239.01 
L 694.08 239.01 
L 694.08 310.04 
L 623.05 310.04 
L 623.05 239.01 
" clip-path="url(#pf43f69ca96)" style="fill: #482576"/>
    <path d="M 125.84 310.04 
L 196.87 310.04 
L 196.87 381.07 
L 125.84 381.07 
L 125.84 310.04 
" clip-path="url(#pf43f69ca96)" style="fill: #48186a"/>
    <path d="M 196.87 310.04 
L 267.9 310.04 
L 267.9 381.07 
L 196.87 381.07 
L 196.87 310.04 
" clip-path="url(#pf43f69ca96)" style="fill: #440154"/>
    <path d="M 267.9 310.04 
L 338.93 310.04 
L 338.93 381.07 
L 267.9 381.07 
L 267.9 310.04 
" clip-path="url(#pf43f69ca96)" style="fill: #440154"/>
    <path d="M 338.93 310.04 
L 409.96 310.04 
L 409.96 381.07 
L 338.93 381.07 
L 338.93 310.04 
" clip-path="url(#pf43f69ca96)" style="fill: #440154"/>
    <path d="M 409.96 310.04 
L 480.99 310.04 
L 480.99 381.07 
L 409.96 381.07 
L 409.96 310.04 
" clip-path="url(#pf43f69ca96)" style="fill: #fde725"/>
    <path d="M 480.99 310.04 
L 552.02 310.04 
L 552.02 381.07 
L 480.99 381.07 
L 480.99 310.04 
" clip-path="url(#pf43f69ca96)" style="fill: #440154"/>
    <path d="M 552.02 310.04 
L 623.05 310.04 
L 623.05 381.07 
L 552.02 381.07 
L 552.02 310.04 
" clip-path="url(#pf43f69ca96)" style="fill: #440154"/>
    <path d="M 623.05 310.04 
L 694.08 310.04 
L 694.08 381.07 
L 623.05 381.07 
L 623.05 310.04 
" clip-path="url(#pf43f69ca96)" style="fill: #440154"/>
    <path d="M 125.84 381.07 
L 196.87 381.07 
L 196.87 452.1 
L 125.84 452.1 
L 125.84 381.07 
" clip-path="url(#pf43f69ca96)" style="fill: #440256"/>
    <path d="M 196.87 381.07 
L 267.9 381.07 
L 267.9 452.1 
L 196.87 452.1 
L 196.87 381.07 
" clip-path="url(#pf43f69ca96)" style="fill: #450559"/>
    <path d="M 267.9 381.07 
L 338.93 381.07 
L 338.93 452.1 
L 267.9 452.1 
L 267.9 381.07 
" clip-path="url(#pf43f69ca96)" style="fill: #440154"/>
    <path d="M 338.93 381.07 
L 409.96 381.07 
L 409.96 452.1 
L 338.93 452.1 
L 338.93 381.07 
" clip-path="url(#pf43f69ca96)" style="fill: #440154"/>
    <path d="M 409.96 381.07 
L 480.99 381.07 
L 480.99 452.1 
L 409.96 452.1 
L 409.96 381.07 
" clip-path="url(#pf43f69ca96)" style="fill: #440154"/>
    <path d="M 480.99 381.07 
L 552.02 381.07 
L 552.02 452.1 
L 480.99 452.1 
L 480.99 381.07 
" clip-path="url(#pf43f69ca96)" style="fill: #5ac864"/>
    <path d="M 552.02 381.07 
L 623.05 381.07 
L 623.05 452.1 
L 552.02 452.1 
L 552.02 381.07 
" clip-path="url(#pf43f69ca96)" style="fill: #440154"/>
    <path d="M 623.05 381.07 
L 694.08 381.07 
L 694.08 452.1 
L 623.05 452.1 
L 623.05 381.07 
" clip-path="url(#pf43f69ca96)" style="fill: #440154"/>
    <path d="M 125.84 452.1 
L 196.87 452.1 
L 196.87 523.13 
L 125.84 523.13 
L 125.84 452.1 
" clip-path="url(#pf43f69ca96)" style="fill: #440154"/>
    <path d="M 196.87 452.1 
L 267.9 452.1 
L 267.9 523.13 
L 196.87 523.13 
L 196.87 452.1 
" clip-path="url(#pf43f69ca96)" style="fill: #440256"/>
    <path d="M 267.9 452.1 
L 338.93 452.1 
L 338.93 523.13 
L 267.9 523.13 
L 267.9 452.1 
" clip-path="url(#pf43f69ca96)" style="fill: #440256"/>
    <path d="M 338.93 452.1 
L 409.96 452.1 
L 409.96 523.13 
L 338.93 523.13 
L 338.93 452.1 
" clip-path="url(#pf43f69ca96)" style="fill: #440256"/>
    <path d="M 409.96 452.1 
L 480.99 452.1 
L 480.99 523.13 
L 409.96 523.13 
L 409.96 452.1 
" clip-path="url(#pf43f69ca96)" style="fill: #440154"/>
    <path d="M 480.99 452.1 
L 552.02 452.1 
L 552.02 523.13 
L 480.99 523.13 
L 480.99 452.1 
" clip-path="url(#pf43f69ca96)" style="fill: #440154"/>
    <path d="M 552.02 452.1 
L 623.05 452.1 
L 623.05 523.13 
L 552.02 523.13 
L 552.02 452.1 
" clip-path="url(#pf43f69ca96)" style="fill: #21a685"/>
    <path d="M 623.05 452.1 
L 694.08 452.1 
L 694.08 523.13 
L 623.05 523.13 
L 623.05 452.1 
" clip-path="url(#pf43f69ca96)" style="fill: #440154"/>
    <path d="M 125.84 523.13 
L 196.87 523.13 
L 196.87 594.16 
L 125.84 594.16 
L 125.84 523.13 
" clip-path="url(#pf43f69ca96)" style="fill: #440154"/>
    <path d="M 196.87 523.13 
L 267.9 523.13 
L 267.9 594.16 
L 196.87 594.16 
L 196.87 523.13 
" clip-path="url(#pf43f69ca96)" style="fill: #450457"/>
    <path d="M 267.9 523.13 
L 338.93 523.13 
L 338.93 594.16 
L 267.9 594.16 
L 267.9 523.13 
" clip-path="url(#pf43f69ca96)" style="fill: #471063"/>
    <path d="M 338.93 523.13 
L 409.96 523.13 
L 409.96 594.16 
L 338.93 594.16 
L 338.93 523.13 
" clip-path="url(#pf43f69ca96)" style="fill: #482576"/>
    <path d="M 409.96 523.13 
L 480.99 523.13 
L 480.99 594.16 
L 409.96 594.16 
L 409.96 523.13 
" clip-path="url(#pf43f69ca96)" style="fill: #440154"/>
    <path d="M 480.99 523.13 
L 552.02 523.13 
L 552.02 594.16 
L 480.99 594.16 
L 480.99 523.13 
" clip-path="url(#pf43f69ca96)" style="fill: #440154"/>
    <path d="M 552.02 523.13 
L 623.05 523.13 
L 623.05 594.16 
L 552.02 594.16 
L 552.02 523.13 
" clip-path="url(#pf43f69ca96)" style="fill: #440154"/>
    <path d="M 623.05 523.13 
L 694.08 523.13 
L 694.08 594.16 
L 623.05 594.16 
L 623.05 523.13 
" clip-path="url(#pf43f69ca96)" style="fill: #86d549"/>
   </g>
   <g id="matplotlib.axis_1">
    <g id="xtick_1">
     <g id="line2d_1">
      <defs>
       <path id="macadb62f24" d="M 0 0 
L 0 12 
" style="stroke: #000000; stroke-width: 2.5"/>
      </defs>
      <g>
       <use xlink:href="#macadb62f24" x="161.355" y="594.16" style="stroke: #000000; stroke-width: 2.5"/>
      </g>
     </g>
     <g id="text_1">
      <!-- NefMES -->
      <g transform="translate(167.425625 694.25) rotate(-90) scale(0.22 -0.22)">
       <defs>
        <path id="DejaVuSans-4e" d="M 628 4666 
L 1478 4666 
L 3547 763 
L 3547 4666 
L 4159 4666 
L 4159 0 
L 3309 0 
L 1241 3903 
L 1241 0 
L 628 0 
L 628 4666 
z
" transform="scale(0.015625)"/>
        <path id="DejaVuSans-65" d="M 3597 1894 
L 3597 1613 
L 953 1613 
Q 991 1019 1311 708 
Q 1631 397 2203 397 
Q 2534 397 2845 478 
Q 3156 559 3463 722 
L 3463 178 
Q 3153 47 2828 -22 
Q 2503 -91 2169 -91 
Q 1331 -91 842 396 
Q 353 884 353 1716 
Q 353 2575 817 3079 
Q 1281 3584 2069 3584 
Q 2775 3584 3186 3129 
Q 3597 2675 3597 1894 
z
M 3022 2063 
Q 3016 2534 2758 2815 
Q 2500 3097 2075 3097 
Q 1594 3097 1305 2825 
Q 1016 2553 972 2059 
L 3022 2063 
z
" transform="scale(0.015625)"/>
        <path id="DejaVuSans-66" d="M 2375 4863 
L 2375 4384 
L 1825 4384 
Q 1516 4384 1395 4259 
Q 1275 4134 1275 3809 
L 1275 3500 
L 2222 3500 
L 2222 3053 
L 1275 3053 
L 1275 0 
L 697 0 
L 697 3053 
L 147 3053 
L 147 3500 
L 697 3500 
L 697 3744 
Q 697 4328 969 4595 
Q 1241 4863 1831 4863 
L 2375 4863 
z
" transform="scale(0.015625)"/>
        <path id="DejaVuSans-4d" d="M 628 4666 
L 1569 4666 
L 2759 1491 
L 3956 4666 
L 4897 4666 
L 4897 0 
L 4281 0 
L 4281 4097 
L 3078 897 
L 2444 897 
L 1241 4097 
L 1241 0 
L 628 0 
L 628 4666 
z
" transform="scale(0.015625)"/>
        <path id="DejaVuSans-45" d="M 628 4666 
L 3578 4666 
L 3578 4134 
L 1259 4134 
L 1259 2753 
L 3481 2753 
L 3481 2222 
L 1259 2222 
L 1259 531 
L 3634 531 
L 3634 0 
L 628 0 
L 628 4666 
z
" transform="scale(0.015625)"/>
        <path id="DejaVuSans-53" d="M 3425 4513 
L 3425 3897 
Q 3066 4069 2747 4153 
Q 2428 4238 2131 4238 
Q 1616 4238 1336 4038 
Q 1056 3838 1056 3469 
Q 1056 3159 1242 3001 
Q 1428 2844 1947 2747 
L 2328 2669 
Q 3034 2534 3370 2195 
Q 3706 1856 3706 1288 
Q 3706 609 3251 259 
Q 2797 -91 1919 -91 
Q 1588 -91 1214 -16 
Q 841 59 441 206 
L 441 856 
Q 825 641 1194 531 
Q 1563 422 1919 422 
Q 2459 422 2753 634 
Q 3047 847 3047 1241 
Q 3047 1584 2836 1778 
Q 2625 1972 2144 2069 
L 1759 2144 
Q 1053 2284 737 2584 
Q 422 2884 422 3419 
Q 422 4038 858 4394 
Q 1294 4750 2059 4750 
Q 2388 4750 2728 4690 
Q 3069 4631 3425 4513 
z
" transform="scale(0.015625)"/>
       </defs>
       <use xlink:href="#DejaVuSans-4e"/>
       <use xlink:href="#DejaVuSans-65" x="74.804688"/>
       <use xlink:href="#DejaVuSans-66" x="136.328125"/>
       <use xlink:href="#DejaVuSans-4d" x="171.533203"/>
       <use xlink:href="#DejaVuSans-45" x="257.8125"/>
       <use xlink:href="#DejaVuSans-53" x="320.996094"/>
      </g>
     </g>
    </g>
    <g id="xtick_2">
     <g id="line2d_2">
      <g>
       <use xlink:href="#macadb62f24" x="232.385" y="594.16" style="stroke: #000000; stroke-width: 2.5"/>
      </g>
     </g>
     <g id="text_2">
      <!-- NefAC -->
      <g transform="translate(238.455625 677.426875) rotate(-90) scale(0.22 -0.22)">
       <defs>
        <path id="DejaVuSans-41" d="M 2188 4044 
L 1331 1722 
L 3047 1722 
L 2188 4044 
z
M 1831 4666 
L 2547 4666 
L 4325 0 
L 3669 0 
L 3244 1197 
L 1141 1197 
L 716 0 
L 50 0 
L 1831 4666 
z
" transform="scale(0.015625)"/>
        <path id="DejaVuSans-43" d="M 4122 4306 
L 4122 3641 
Q 3803 3938 3442 4084 
Q 3081 4231 2675 4231 
Q 1875 4231 1450 3742 
Q 1025 3253 1025 2328 
Q 1025 1406 1450 917 
Q 1875 428 2675 428 
Q 3081 428 3442 575 
Q 3803 722 4122 1019 
L 4122 359 
Q 3791 134 3420 21 
Q 3050 -91 2638 -91 
Q 1578 -91 968 557 
Q 359 1206 359 2328 
Q 359 3453 968 4101 
Q 1578 4750 2638 4750 
Q 3056 4750 3426 4639 
Q 3797 4528 4122 4306 
z
" transform="scale(0.015625)"/>
       </defs>
       <use xlink:href="#DejaVuSans-4e"/>
       <use xlink:href="#DejaVuSans-65" x="74.804688"/>
       <use xlink:href="#DejaVuSans-66" x="136.328125"/>
       <use xlink:href="#DejaVuSans-41" x="171.533203"/>
       <use xlink:href="#DejaVuSans-43" x="238.191406"/>
      </g>
     </g>
    </g>
    <g id="xtick_3">
     <g id="line2d_3">
      <g>
       <use xlink:href="#macadb62f24" x="303.415" y="594.16" style="stroke: #000000; stroke-width: 2.5"/>
      </g>
     </g>
     <g id="text_3">
      <!-- NefOPC -->
      <g transform="translate(309.485625 693.345937) rotate(-90) scale(0.22 -0.22)">
       <defs>
        <path id="DejaVuSans-4f" d="M 2522 4238 
Q 1834 4238 1429 3725 
Q 1025 3213 1025 2328 
Q 1025 1447 1429 934 
Q 1834 422 2522 422 
Q 3209 422 3611 934 
Q 4013 1447 4013 2328 
Q 4013 3213 3611 3725 
Q 3209 4238 2522 4238 
z
M 2522 4750 
Q 3503 4750 4090 4092 
Q 4678 3434 4678 2328 
Q 4678 1225 4090 567 
Q 3503 -91 2522 -91 
Q 1538 -91 948 565 
Q 359 1222 359 2328 
Q 359 3434 948 4092 
Q 1538 4750 2522 4750 
z
" transform="scale(0.015625)"/>
        <path id="DejaVuSans-50" d="M 1259 4147 
L 1259 2394 
L 2053 2394 
Q 2494 2394 2734 2622 
Q 2975 2850 2975 3272 
Q 2975 3691 2734 3919 
Q 2494 4147 2053 4147 
L 1259 4147 
z
M 628 4666 
L 2053 4666 
Q 2838 4666 3239 4311 
Q 3641 3956 3641 3272 
Q 3641 2581 3239 2228 
Q 2838 1875 2053 1875 
L 1259 1875 
L 1259 0 
L 628 0 
L 628 4666 
z
" transform="scale(0.015625)"/>
       </defs>
       <use xlink:href="#DejaVuSans-4e"/>
       <use xlink:href="#DejaVuSans-65" x="74.804688"/>
       <use xlink:href="#DejaVuSans-66" x="136.328125"/>
       <use xlink:href="#DejaVuSans-4f" x="171.533203"/>
       <use xlink:href="#DejaVuSans-50" x="250.244141"/>
       <use xlink:href="#DejaVuSans-43" x="310.546875"/>
      </g>
     </g>
    </g>
    <g id="xtick_4">
     <g id="line2d_4">
      <g>
       <use xlink:href="#macadb62f24" x="374.445" y="594.16" style="stroke: #000000; stroke-width: 2.5"/>
      </g>
     </g>
     <g id="text_4">
      <!-- NefNPC -->
      <g transform="translate(380.515625 692.486562) rotate(-90) scale(0.22 -0.22)">
       <use xlink:href="#DejaVuSans-4e"/>
       <use xlink:href="#DejaVuSans-65" x="74.804688"/>
       <use xlink:href="#DejaVuSans-66" x="136.328125"/>
       <use xlink:href="#DejaVuSans-4e" x="171.533203"/>
       <use xlink:href="#DejaVuSans-50" x="246.337891"/>
       <use xlink:href="#DejaVuSans-43" x="306.640625"/>
      </g>
     </g>
    </g>
    <g id="xtick_5">
     <g id="line2d_5">
      <g>
       <use xlink:href="#macadb62f24" x="445.475" y="594.16" style="stroke: #000000; stroke-width: 2.5"/>
      </g>
     </g>
     <g id="text_5">
      <!-- VerMES -->
      <g transform="translate(451.545625 692.435) rotate(-90) scale(0.22 -0.22)">
       <defs>
        <path id="DejaVuSans-56" d="M 1831 0 
L 50 4666 
L 709 4666 
L 2188 738 
L 3669 4666 
L 4325 4666 
L 2547 0 
L 1831 0 
z
" transform="scale(0.015625)"/>
        <path id="DejaVuSans-72" d="M 2631 2963 
Q 2534 3019 2420 3045 
Q 2306 3072 2169 3072 
Q 1681 3072 1420 2755 
Q 1159 2438 1159 1844 
L 1159 0 
L 581 0 
L 581 3500 
L 1159 3500 
L 1159 2956 
Q 1341 3275 1631 3429 
Q 1922 3584 2338 3584 
Q 2397 3584 2469 3576 
Q 2541 3569 2628 3553 
L 2631 2963 
z
" transform="scale(0.015625)"/>
       </defs>
       <use xlink:href="#DejaVuSans-56"/>
       <use xlink:href="#DejaVuSans-65" x="60.658203"/>
       <use xlink:href="#DejaVuSans-72" x="122.181641"/>
       <use xlink:href="#DejaVuSans-4d" x="163.294922"/>
       <use xlink:href="#DejaVuSans-45" x="249.574219"/>
       <use xlink:href="#DejaVuSans-53" x="312.757812"/>
      </g>
     </g>
    </g>
    <g id="xtick_6">
     <g id="line2d_6">
      <g>
       <use xlink:href="#macadb62f24" x="516.505" y="594.16" style="stroke: #000000; stroke-width: 2.5"/>
      </g>
     </g>
     <g id="text_6">
      <!-- VerCL -->
      <g transform="translate(522.575625 673.205625) rotate(-90) scale(0.22 -0.22)">
       <defs>
        <path id="DejaVuSans-4c" d="M 628 4666 
L 1259 4666 
L 1259 531 
L 3531 531 
L 3531 0 
L 628 0 
L 628 4666 
z
" transform="scale(0.015625)"/>
       </defs>
       <use xlink:href="#DejaVuSans-56"/>
       <use xlink:href="#DejaVuSans-65" x="60.658203"/>
       <use xlink:href="#DejaVuSans-72" x="122.181641"/>
       <use xlink:href="#DejaVuSans-43" x="163.294922"/>
       <use xlink:href="#DejaVuSans-4c" x="233.119141"/>
      </g>
     </g>
    </g>
    <g id="xtick_7">
     <g id="line2d_7">
      <g>
       <use xlink:href="#macadb62f24" x="587.535" y="594.16" style="stroke: #000000; stroke-width: 2.5"/>
      </g>
     </g>
     <g id="text_7">
      <!-- VerNL -->
      <g transform="translate(593.605625 674.302187) rotate(-90) scale(0.22 -0.22)">
       <use xlink:href="#DejaVuSans-56"/>
       <use xlink:href="#DejaVuSans-65" x="60.658203"/>
       <use xlink:href="#DejaVuSans-72" x="122.181641"/>
       <use xlink:href="#DejaVuSans-4e" x="163.294922"/>
       <use xlink:href="#DejaVuSans-4c" x="238.099609"/>
      </g>
     </g>
    </g>
    <g id="xtick_8">
     <g id="line2d_8">
      <g>
       <use xlink:href="#macadb62f24" x="658.565" y="594.16" style="stroke: #000000; stroke-width: 2.5"/>
      </g>
     </g>
     <g id="text_8">
      <!-- VerPN -->
      <g transform="translate(664.635625 675.309375) rotate(-90) scale(0.22 -0.22)">
       <use xlink:href="#DejaVuSans-56"/>
       <use xlink:href="#DejaVuSans-65" x="60.658203"/>
       <use xlink:href="#DejaVuSans-72" x="122.181641"/>
       <use xlink:href="#DejaVuSans-50" x="163.294922"/>
       <use xlink:href="#DejaVuSans-4e" x="223.597656"/>
      </g>
     </g>
    </g>
   </g>
   <g id="matplotlib.axis_2">
    <g id="ytick_1">
     <g id="line2d_9">
      <defs>
       <path id="mbd1f834859" d="M 0 0 
L -12 0 
" style="stroke: #000000; stroke-width: 2.5"/>
      </defs>
      <g>
       <use xlink:href="#mbd1f834859" x="125.84" y="61.435" style="stroke: #000000; stroke-width: 2.5"/>
      </g>
     </g>
     <g id="text_9">
      <!-- NefMES -->
      <g transform="translate(25.75 67.505625) scale(0.22 -0.22)">
       <use xlink:href="#DejaVuSans-4e"/>
       <use xlink:href="#DejaVuSans-65" x="74.804688"/>
       <use xlink:href="#DejaVuSans-66" x="136.328125"/>
       <use xlink:href="#DejaVuSans-4d" x="171.533203"/>
       <use xlink:href="#DejaVuSans-45" x="257.8125"/>
       <use xlink:href="#DejaVuSans-53" x="320.996094"/>
      </g>
     </g>
    </g>
    <g id="ytick_2">
     <g id="line2d_10">
      <g>
       <use xlink:href="#mbd1f834859" x="125.84" y="132.465" style="stroke: #000000; stroke-width: 2.5"/>
      </g>
     </g>
     <g id="text_10">
      <!-- NefAC -->
      <g transform="translate(42.573125 138.535625) scale(0.22 -0.22)">
       <use xlink:href="#DejaVuSans-4e"/>
       <use xlink:href="#DejaVuSans-65" x="74.804688"/>
       <use xlink:href="#DejaVuSans-66" x="136.328125"/>
       <use xlink:href="#DejaVuSans-41" x="171.533203"/>
       <use xlink:href="#DejaVuSans-43" x="238.191406"/>
      </g>
     </g>
    </g>
    <g id="ytick_3">
     <g id="line2d_11">
      <g>
       <use xlink:href="#mbd1f834859" x="125.84" y="203.495" style="stroke: #000000; stroke-width: 2.5"/>
      </g>
     </g>
     <g id="text_11">
      <!-- NefOPC -->
      <g transform="translate(26.654063 209.565625) scale(0.22 -0.22)">
       <use xlink:href="#DejaVuSans-4e"/>
       <use xlink:href="#DejaVuSans-65" x="74.804688"/>
       <use xlink:href="#DejaVuSans-66" x="136.328125"/>
       <use xlink:href="#DejaVuSans-4f" x="171.533203"/>
       <use xlink:href="#DejaVuSans-50" x="250.244141"/>
       <use xlink:href="#DejaVuSans-43" x="310.546875"/>
      </g>
     </g>
    </g>
    <g id="ytick_4">
     <g id="line2d_12">
      <g>
       <use xlink:href="#mbd1f834859" x="125.84" y="274.525" style="stroke: #000000; stroke-width: 2.5"/>
      </g>
     </g>
     <g id="text_12">
      <!-- NefNPC -->
      <g transform="translate(27.513438 280.595625) scale(0.22 -0.22)">
       <use xlink:href="#DejaVuSans-4e"/>
       <use xlink:href="#DejaVuSans-65" x="74.804688"/>
       <use xlink:href="#DejaVuSans-66" x="136.328125"/>
       <use xlink:href="#DejaVuSans-4e" x="171.533203"/>
       <use xlink:href="#DejaVuSans-50" x="246.337891"/>
       <use xlink:href="#DejaVuSans-43" x="306.640625"/>
      </g>
     </g>
    </g>
    <g id="ytick_5">
     <g id="line2d_13">
      <g>
       <use xlink:href="#mbd1f834859" x="125.84" y="345.555" style="stroke: #000000; stroke-width: 2.5"/>
      </g>
     </g>
     <g id="text_13">
      <!-- VerMES -->
      <g transform="translate(27.565 351.625625) scale(0.22 -0.22)">
       <use xlink:href="#DejaVuSans-56"/>
       <use xlink:href="#DejaVuSans-65" x="60.658203"/>
       <use xlink:href="#DejaVuSans-72" x="122.181641"/>
       <use xlink:href="#DejaVuSans-4d" x="163.294922"/>
       <use xlink:href="#DejaVuSans-45" x="249.574219"/>
       <use xlink:href="#DejaVuSans-53" x="312.757812"/>
      </g>
     </g>
    </g>
    <g id="ytick_6">
     <g id="line2d_14">
      <g>
       <use xlink:href="#mbd1f834859" x="125.84" y="416.585" style="stroke: #000000; stroke-width: 2.5"/>
      </g>
     </g>
     <g id="text_14">
      <!-- VerCL -->
      <g transform="translate(46.794375 422.655625) scale(0.22 -0.22)">
       <use xlink:href="#DejaVuSans-56"/>
       <use xlink:href="#DejaVuSans-65" x="60.658203"/>
       <use xlink:href="#DejaVuSans-72" x="122.181641"/>
       <use xlink:href="#DejaVuSans-43" x="163.294922"/>
       <use xlink:href="#DejaVuSans-4c" x="233.119141"/>
      </g>
     </g>
    </g>
    <g id="ytick_7">
     <g id="line2d_15">
      <g>
       <use xlink:href="#mbd1f834859" x="125.84" y="487.615" style="stroke: #000000; stroke-width: 2.5"/>
      </g>
     </g>
     <g id="text_15">
      <!-- VerNL -->
      <g transform="translate(45.697812 493.685625) scale(0.22 -0.22)">
       <use xlink:href="#DejaVuSans-56"/>
       <use xlink:href="#DejaVuSans-65" x="60.658203"/>
       <use xlink:href="#DejaVuSans-72" x="122.181641"/>
       <use xlink:href="#DejaVuSans-4e" x="163.294922"/>
       <use xlink:href="#DejaVuSans-4c" x="238.099609"/>
      </g>
     </g>
    </g>
    <g id="ytick_8">
     <g id="line2d_16">
      <g>
       <use xlink:href="#mbd1f834859" x="125.84" y="558.645" style="stroke: #000000; stroke-width: 2.5"/>
      </g>
     </g>
     <g id="text_16">
      <!-- VerPN -->
      <g transform="translate(44.690625 564.715625) scale(0.22 -0.22)">
       <use xlink:href="#DejaVuSans-56"/>
       <use xlink:href="#DejaVuSans-65" x="60.658203"/>
       <use xlink:href="#DejaVuSans-72" x="122.181641"/>
       <use xlink:href="#DejaVuSans-50" x="163.294922"/>
       <use xlink:href="#DejaVuSans-4e" x="223.597656"/>
      </g>
     </g>
    </g>
   </g>
   <g id="LineCollection_1">
    <path d="M 125.84 310.04 
L 694.08 310.04 
" clip-path="url(#pf43f69ca96)" style="fill: none; stroke: #ffffff; stroke-width: 3"/>
   </g>
   <g id="LineCollection_2">
    <path d="M 409.96 594.16 
L 409.96 25.92 
" clip-path="url(#pf43f69ca96)" style="fill: none; stroke: #ffffff; stroke-width: 3"/>
   </g>
   <g id="text_17">
    <!-- 95 -->
    <g style="fill: #ffffff" transform="translate(146.085 68.0575) scale(0.24 -0.24)">
     <defs>
      <path id="DejaVuSans-39" d="M 703 97 
L 703 672 
Q 941 559 1184 500 
Q 1428 441 1663 441 
Q 2288 441 2617 861 
Q 2947 1281 2994 2138 
Q 2813 1869 2534 1725 
Q 2256 1581 1919 1581 
Q 1219 1581 811 2004 
Q 403 2428 403 3163 
Q 403 3881 828 4315 
Q 1253 4750 1959 4750 
Q 2769 4750 3195 4129 
Q 3622 3509 3622 2328 
Q 3622 1225 3098 567 
Q 2575 -91 1691 -91 
Q 1453 -91 1209 -44 
Q 966 3 703 97 
z
M 1959 2075 
Q 2384 2075 2632 2365 
Q 2881 2656 2881 3163 
Q 2881 3666 2632 3958 
Q 2384 4250 1959 4250 
Q 1534 4250 1286 3958 
Q 1038 3666 1038 3163 
Q 1038 2656 1286 2365 
Q 1534 2075 1959 2075 
z
" transform="scale(0.015625)"/>
      <path id="DejaVuSans-35" d="M 691 4666 
L 3169 4666 
L 3169 4134 
L 1269 4134 
L 1269 2991 
Q 1406 3038 1543 3061 
Q 1681 3084 1819 3084 
Q 2600 3084 3056 2656 
Q 3513 2228 3513 1497 
Q 3513 744 3044 326 
Q 2575 -91 1722 -91 
Q 1428 -91 1123 -41 
Q 819 9 494 109 
L 494 744 
Q 775 591 1075 516 
Q 1375 441 1709 441 
Q 2250 441 2565 725 
Q 2881 1009 2881 1497 
Q 2881 1984 2565 2268 
Q 2250 2553 1709 2553 
Q 1456 2553 1204 2497 
Q 953 2441 691 2322 
L 691 4666 
z
" transform="scale(0.015625)"/>
     </defs>
     <use xlink:href="#DejaVuSans-39"/>
     <use xlink:href="#DejaVuSans-35" x="63.623047"/>
    </g>
   </g>
   <g id="text_18">
    <!-- 1 -->
    <g style="fill: #ffffff" transform="translate(224.75 68.0575) scale(0.24 -0.24)">
     <defs>
      <path id="DejaVuSans-31" d="M 794 531 
L 1825 531 
L 1825 4091 
L 703 3866 
L 703 4441 
L 1819 4666 
L 2450 4666 
L 2450 531 
L 3481 531 
L 3481 0 
L 794 0 
L 794 531 
z
" transform="scale(0.015625)"/>
     </defs>
     <use xlink:href="#DejaVuSans-31"/>
    </g>
   </g>
   <g id="text_19">
    <!-- 0 -->
    <g style="fill: #ffffff" transform="translate(295.78 68.0575) scale(0.24 -0.24)">
     <defs>
      <path id="DejaVuSans-30" d="M 2034 4250 
Q 1547 4250 1301 3770 
Q 1056 3291 1056 2328 
Q 1056 1369 1301 889 
Q 1547 409 2034 409 
Q 2525 409 2770 889 
Q 3016 1369 3016 2328 
Q 3016 3291 2770 3770 
Q 2525 4250 2034 4250 
z
M 2034 4750 
Q 2819 4750 3233 4129 
Q 3647 3509 3647 2328 
Q 3647 1150 3233 529 
Q 2819 -91 2034 -91 
Q 1250 -91 836 529 
Q 422 1150 422 2328 
Q 422 3509 836 4129 
Q 1250 4750 2034 4750 
z
" transform="scale(0.015625)"/>
     </defs>
     <use xlink:href="#DejaVuSans-30"/>
    </g>
   </g>
   <g id="text_20">
    <!-- 1 -->
    <g style="fill: #ffffff" transform="translate(366.81 68.0575) scale(0.24 -0.24)">
     <use xlink:href="#DejaVuSans-31"/>
    </g>
   </g>
   <g id="text_21">
    <!-- 14 -->
    <g style="fill: #ffffff" transform="translate(430.205 68.0575) scale(0.24 -0.24)">
     <defs>
      <path id="DejaVuSans-34" d="M 2419 4116 
L 825 1625 
L 2419 1625 
L 2419 4116 
z
M 2253 4666 
L 3047 4666 
L 3047 1625 
L 3713 1625 
L 3713 1100 
L 3047 1100 
L 3047 0 
L 2419 0 
L 2419 1100 
L 313 1100 
L 313 1709 
L 2253 4666 
z
" transform="scale(0.015625)"/>
     </defs>
     <use xlink:href="#DejaVuSans-31"/>
     <use xlink:href="#DejaVuSans-34" x="63.623047"/>
    </g>
   </g>
   <g id="text_22">
    <!-- 1 -->
    <g style="fill: #ffffff" transform="translate(508.87 68.0575) scale(0.24 -0.24)">
     <use xlink:href="#DejaVuSans-31"/>
    </g>
   </g>
   <g id="text_23">
    <!-- 0 -->
    <g style="fill: #ffffff" transform="translate(579.9 68.0575) scale(0.24 -0.24)">
     <use xlink:href="#DejaVuSans-30"/>
    </g>
   </g>
   <g id="text_24">
    <!-- 0 -->
    <g style="fill: #ffffff" transform="translate(650.93 68.0575) scale(0.24 -0.24)">
     <use xlink:href="#DejaVuSans-30"/>
    </g>
   </g>
   <g id="text_25">
    <!-- 1 -->
    <g style="fill: #ffffff" transform="translate(153.72 139.0875) scale(0.24 -0.24)">
     <use xlink:href="#DejaVuSans-31"/>
    </g>
   </g>
   <g id="text_26">
    <!-- 39 -->
    <g style="fill: #ffffff" transform="translate(217.115 139.0875) scale(0.24 -0.24)">
     <defs>
      <path id="DejaVuSans-33" d="M 2597 2516 
Q 3050 2419 3304 2112 
Q 3559 1806 3559 1356 
Q 3559 666 3084 287 
Q 2609 -91 1734 -91 
Q 1441 -91 1130 -33 
Q 819 25 488 141 
L 488 750 
Q 750 597 1062 519 
Q 1375 441 1716 441 
Q 2309 441 2620 675 
Q 2931 909 2931 1356 
Q 2931 1769 2642 2001 
Q 2353 2234 1838 2234 
L 1294 2234 
L 1294 2753 
L 1863 2753 
Q 2328 2753 2575 2939 
Q 2822 3125 2822 3475 
Q 2822 3834 2567 4026 
Q 2313 4219 1838 4219 
Q 1578 4219 1281 4162 
Q 984 4106 628 3988 
L 628 4550 
Q 988 4650 1302 4700 
Q 1616 4750 1894 4750 
Q 2613 4750 3031 4423 
Q 3450 4097 3450 3541 
Q 3450 3153 3228 2886 
Q 3006 2619 2597 2516 
z
" transform="scale(0.015625)"/>
     </defs>
     <use xlink:href="#DejaVuSans-33"/>
     <use xlink:href="#DejaVuSans-39" x="63.623047"/>
    </g>
   </g>
   <g id="text_27">
    <!-- 8 -->
    <g style="fill: #ffffff" transform="translate(295.78 139.0875) scale(0.24 -0.24)">
     <defs>
      <path id="DejaVuSans-38" d="M 2034 2216 
Q 1584 2216 1326 1975 
Q 1069 1734 1069 1313 
Q 1069 891 1326 650 
Q 1584 409 2034 409 
Q 2484 409 2743 651 
Q 3003 894 3003 1313 
Q 3003 1734 2745 1975 
Q 2488 2216 2034 2216 
z
M 1403 2484 
Q 997 2584 770 2862 
Q 544 3141 544 3541 
Q 544 4100 942 4425 
Q 1341 4750 2034 4750 
Q 2731 4750 3128 4425 
Q 3525 4100 3525 3541 
Q 3525 3141 3298 2862 
Q 3072 2584 2669 2484 
Q 3125 2378 3379 2068 
Q 3634 1759 3634 1313 
Q 3634 634 3220 271 
Q 2806 -91 2034 -91 
Q 1263 -91 848 271 
Q 434 634 434 1313 
Q 434 1759 690 2068 
Q 947 2378 1403 2484 
z
M 1172 3481 
Q 1172 3119 1398 2916 
Q 1625 2713 2034 2713 
Q 2441 2713 2670 2916 
Q 2900 3119 2900 3481 
Q 2900 3844 2670 4047 
Q 2441 4250 2034 4250 
Q 1625 4250 1398 4047 
Q 1172 3844 1172 3481 
z
" transform="scale(0.015625)"/>
     </defs>
     <use xlink:href="#DejaVuSans-38"/>
    </g>
   </g>
   <g id="text_28">
    <!-- 1 -->
    <g style="fill: #ffffff" transform="translate(366.81 139.0875) scale(0.24 -0.24)">
     <use xlink:href="#DejaVuSans-31"/>
    </g>
   </g>
   <g id="text_29">
    <!-- 0 -->
    <g style="fill: #ffffff" transform="translate(437.84 139.0875) scale(0.24 -0.24)">
     <use xlink:href="#DejaVuSans-30"/>
    </g>
   </g>
   <g id="text_30">
    <!-- 3 -->
    <g style="fill: #ffffff" transform="translate(508.87 139.0875) scale(0.24 -0.24)">
     <use xlink:href="#DejaVuSans-33"/>
    </g>
   </g>
   <g id="text_31">
    <!-- 1 -->
    <g style="fill: #ffffff" transform="translate(579.9 139.0875) scale(0.24 -0.24)">
     <use xlink:href="#DejaVuSans-31"/>
    </g>
   </g>
   <g id="text_32">
    <!-- 2 -->
    <g style="fill: #ffffff" transform="translate(650.93 139.0875) scale(0.24 -0.24)">
     <defs>
      <path id="DejaVuSans-32" d="M 1228 531 
L 3431 531 
L 3431 0 
L 469 0 
L 469 531 
Q 828 903 1448 1529 
Q 2069 2156 2228 2338 
Q 2531 2678 2651 2914 
Q 2772 3150 2772 3378 
Q 2772 3750 2511 3984 
Q 2250 4219 1831 4219 
Q 1534 4219 1204 4116 
Q 875 4013 500 3803 
L 500 4441 
Q 881 4594 1212 4672 
Q 1544 4750 1819 4750 
Q 2544 4750 2975 4387 
Q 3406 4025 3406 3419 
Q 3406 3131 3298 2873 
Q 3191 2616 2906 2266 
Q 2828 2175 2409 1742 
Q 1991 1309 1228 531 
z
" transform="scale(0.015625)"/>
     </defs>
     <use xlink:href="#DejaVuSans-32"/>
    </g>
   </g>
   <g id="text_33">
    <!-- 0 -->
    <g style="fill: #ffffff" transform="translate(153.72 210.1175) scale(0.24 -0.24)">
     <use xlink:href="#DejaVuSans-30"/>
    </g>
   </g>
   <g id="text_34">
    <!-- 8 -->
    <g style="fill: #ffffff" transform="translate(224.75 210.1175) scale(0.24 -0.24)">
     <use xlink:href="#DejaVuSans-38"/>
    </g>
   </g>
   <g id="text_35">
    <!-- 50 -->
    <g style="fill: #ffffff" transform="translate(288.145 210.1175) scale(0.24 -0.24)">
     <use xlink:href="#DejaVuSans-35"/>
     <use xlink:href="#DejaVuSans-30" x="63.623047"/>
    </g>
   </g>
   <g id="text_36">
    <!-- 7 -->
    <g style="fill: #ffffff" transform="translate(366.81 210.1175) scale(0.24 -0.24)">
     <defs>
      <path id="DejaVuSans-37" d="M 525 4666 
L 3525 4666 
L 3525 4397 
L 1831 0 
L 1172 0 
L 2766 4134 
L 525 4134 
L 525 4666 
z
" transform="scale(0.015625)"/>
     </defs>
     <use xlink:href="#DejaVuSans-37"/>
    </g>
   </g>
   <g id="text_37">
    <!-- 0 -->
    <g style="fill: #ffffff" transform="translate(437.84 210.1175) scale(0.24 -0.24)">
     <use xlink:href="#DejaVuSans-30"/>
    </g>
   </g>
   <g id="text_38">
    <!-- 0 -->
    <g style="fill: #ffffff" transform="translate(508.87 210.1175) scale(0.24 -0.24)">
     <use xlink:href="#DejaVuSans-30"/>
    </g>
   </g>
   <g id="text_39">
    <!-- 1 -->
    <g style="fill: #ffffff" transform="translate(579.9 210.1175) scale(0.24 -0.24)">
     <use xlink:href="#DejaVuSans-31"/>
    </g>
   </g>
   <g id="text_40">
    <!-- 9 -->
    <g style="fill: #ffffff" transform="translate(650.93 210.1175) scale(0.24 -0.24)">
     <use xlink:href="#DejaVuSans-39"/>
    </g>
   </g>
   <g id="text_41">
    <!-- 1 -->
    <g style="fill: #ffffff" transform="translate(153.72 281.1475) scale(0.24 -0.24)">
     <use xlink:href="#DejaVuSans-31"/>
    </g>
   </g>
   <g id="text_42">
    <!-- 1 -->
    <g style="fill: #ffffff" transform="translate(224.75 281.1475) scale(0.24 -0.24)">
     <use xlink:href="#DejaVuSans-31"/>
    </g>
   </g>
   <g id="text_43">
    <!-- 7 -->
    <g style="fill: #ffffff" transform="translate(295.78 281.1475) scale(0.24 -0.24)">
     <use xlink:href="#DejaVuSans-37"/>
    </g>
   </g>
   <g id="text_44">
    <!-- 89 -->
    <g style="fill: #ffffff" transform="translate(359.175 281.1475) scale(0.24 -0.24)">
     <use xlink:href="#DejaVuSans-38"/>
     <use xlink:href="#DejaVuSans-39" x="63.623047"/>
    </g>
   </g>
   <g id="text_45">
    <!-- 0 -->
    <g style="fill: #ffffff" transform="translate(437.84 281.1475) scale(0.24 -0.24)">
     <use xlink:href="#DejaVuSans-30"/>
    </g>
   </g>
   <g id="text_46">
    <!-- 0 -->
    <g style="fill: #ffffff" transform="translate(508.87 281.1475) scale(0.24 -0.24)">
     <use xlink:href="#DejaVuSans-30"/>
    </g>
   </g>
   <g id="text_47">
    <!-- 1 -->
    <g style="fill: #ffffff" transform="translate(579.9 281.1475) scale(0.24 -0.24)">
     <use xlink:href="#DejaVuSans-31"/>
    </g>
   </g>
   <g id="text_48">
    <!-- 22 -->
    <g style="fill: #ffffff" transform="translate(643.295 281.1475) scale(0.24 -0.24)">
     <use xlink:href="#DejaVuSans-32"/>
     <use xlink:href="#DejaVuSans-32" x="63.623047"/>
    </g>
   </g>
   <g id="text_49">
    <!-- 14 -->
    <g style="fill: #ffffff" transform="translate(146.085 352.1775) scale(0.24 -0.24)">
     <use xlink:href="#DejaVuSans-31"/>
     <use xlink:href="#DejaVuSans-34" x="63.623047"/>
    </g>
   </g>
   <g id="text_50">
    <!-- 0 -->
    <g style="fill: #ffffff" transform="translate(224.75 352.1775) scale(0.24 -0.24)">
     <use xlink:href="#DejaVuSans-30"/>
    </g>
   </g>
   <g id="text_51">
    <!-- 0 -->
    <g style="fill: #ffffff" transform="translate(295.78 352.1775) scale(0.24 -0.24)">
     <use xlink:href="#DejaVuSans-30"/>
    </g>
   </g>
   <g id="text_52">
    <!-- 0 -->
    <g style="fill: #ffffff" transform="translate(366.81 352.1775) scale(0.24 -0.24)">
     <use xlink:href="#DejaVuSans-30"/>
    </g>
   </g>
   <g id="text_53">
    <!-- 216 -->
    <g style="fill: #262626" transform="translate(422.57 352.1775) scale(0.24 -0.24)">
     <defs>
      <path id="DejaVuSans-36" d="M 2113 2584 
Q 1688 2584 1439 2293 
Q 1191 2003 1191 1497 
Q 1191 994 1439 701 
Q 1688 409 2113 409 
Q 2538 409 2786 701 
Q 3034 994 3034 1497 
Q 3034 2003 2786 2293 
Q 2538 2584 2113 2584 
z
M 3366 4563 
L 3366 3988 
Q 3128 4100 2886 4159 
Q 2644 4219 2406 4219 
Q 1781 4219 1451 3797 
Q 1122 3375 1075 2522 
Q 1259 2794 1537 2939 
Q 1816 3084 2150 3084 
Q 2853 3084 3261 2657 
Q 3669 2231 3669 1497 
Q 3669 778 3244 343 
Q 2819 -91 2113 -91 
Q 1303 -91 875 529 
Q 447 1150 447 2328 
Q 447 3434 972 4092 
Q 1497 4750 2381 4750 
Q 2619 4750 2861 4703 
Q 3103 4656 3366 4563 
z
" transform="scale(0.015625)"/>
     </defs>
     <use xlink:href="#DejaVuSans-32"/>
     <use xlink:href="#DejaVuSans-31" x="63.623047"/>
     <use xlink:href="#DejaVuSans-36" x="127.246094"/>
    </g>
   </g>
   <g id="text_54">
    <!-- 0 -->
    <g style="fill: #ffffff" transform="translate(508.87 352.1775) scale(0.24 -0.24)">
     <use xlink:href="#DejaVuSans-30"/>
    </g>
   </g>
   <g id="text_55">
    <!-- 0 -->
    <g style="fill: #ffffff" transform="translate(579.9 352.1775) scale(0.24 -0.24)">
     <use xlink:href="#DejaVuSans-30"/>
    </g>
   </g>
   <g id="text_56">
    <!-- 0 -->
    <g style="fill: #ffffff" transform="translate(650.93 352.1775) scale(0.24 -0.24)">
     <use xlink:href="#DejaVuSans-30"/>
    </g>
   </g>
   <g id="text_57">
    <!-- 1 -->
    <g style="fill: #ffffff" transform="translate(153.72 423.2075) scale(0.24 -0.24)">
     <use xlink:href="#DejaVuSans-31"/>
    </g>
   </g>
   <g id="text_58">
    <!-- 3 -->
    <g style="fill: #ffffff" transform="translate(224.75 423.2075) scale(0.24 -0.24)">
     <use xlink:href="#DejaVuSans-33"/>
    </g>
   </g>
   <g id="text_59">
    <!-- 0 -->
    <g style="fill: #ffffff" transform="translate(295.78 423.2075) scale(0.24 -0.24)">
     <use xlink:href="#DejaVuSans-30"/>
    </g>
   </g>
   <g id="text_60">
    <!-- 0 -->
    <g style="fill: #ffffff" transform="translate(366.81 423.2075) scale(0.24 -0.24)">
     <use xlink:href="#DejaVuSans-30"/>
    </g>
   </g>
   <g id="text_61">
    <!-- 0 -->
    <g style="fill: #ffffff" transform="translate(437.84 423.2075) scale(0.24 -0.24)">
     <use xlink:href="#DejaVuSans-30"/>
    </g>
   </g>
   <g id="text_62">
    <!-- 161 -->
    <g style="fill: #262626" transform="translate(493.6 423.2075) scale(0.24 -0.24)">
     <use xlink:href="#DejaVuSans-31"/>
     <use xlink:href="#DejaVuSans-36" x="63.623047"/>
     <use xlink:href="#DejaVuSans-31" x="127.246094"/>
    </g>
   </g>
   <g id="text_63">
    <!-- 0 -->
    <g style="fill: #ffffff" transform="translate(579.9 423.2075) scale(0.24 -0.24)">
     <use xlink:href="#DejaVuSans-30"/>
    </g>
   </g>
   <g id="text_64">
    <!-- 0 -->
    <g style="fill: #ffffff" transform="translate(650.93 423.2075) scale(0.24 -0.24)">
     <use xlink:href="#DejaVuSans-30"/>
    </g>
   </g>
   <g id="text_65">
    <!-- 0 -->
    <g style="fill: #ffffff" transform="translate(153.72 494.2375) scale(0.24 -0.24)">
     <use xlink:href="#DejaVuSans-30"/>
    </g>
   </g>
   <g id="text_66">
    <!-- 1 -->
    <g style="fill: #ffffff" transform="translate(224.75 494.2375) scale(0.24 -0.24)">
     <use xlink:href="#DejaVuSans-31"/>
    </g>
   </g>
   <g id="text_67">
    <!-- 1 -->
    <g style="fill: #ffffff" transform="translate(295.78 494.2375) scale(0.24 -0.24)">
     <use xlink:href="#DejaVuSans-31"/>
    </g>
   </g>
   <g id="text_68">
    <!-- 1 -->
    <g style="fill: #ffffff" transform="translate(366.81 494.2375) scale(0.24 -0.24)">
     <use xlink:href="#DejaVuSans-31"/>
    </g>
   </g>
   <g id="text_69">
    <!-- 0 -->
    <g style="fill: #ffffff" transform="translate(437.84 494.2375) scale(0.24 -0.24)">
     <use xlink:href="#DejaVuSans-30"/>
    </g>
   </g>
   <g id="text_70">
    <!-- 0 -->
    <g style="fill: #ffffff" transform="translate(508.87 494.2375) scale(0.24 -0.24)">
     <use xlink:href="#DejaVuSans-30"/>
    </g>
   </g>
   <g id="text_71">
    <!-- 128 -->
    <g style="fill: #ffffff" transform="translate(564.63 494.2375) scale(0.24 -0.24)">
     <use xlink:href="#DejaVuSans-31"/>
     <use xlink:href="#DejaVuSans-32" x="63.623047"/>
     <use xlink:href="#DejaVuSans-38" x="127.246094"/>
    </g>
   </g>
   <g id="text_72">
    <!-- 0 -->
    <g style="fill: #ffffff" transform="translate(650.93 494.2375) scale(0.24 -0.24)">
     <use xlink:href="#DejaVuSans-30"/>
    </g>
   </g>
   <g id="text_73">
    <!-- 0 -->
    <g style="fill: #ffffff" transform="translate(153.72 565.2675) scale(0.24 -0.24)">
     <use xlink:href="#DejaVuSans-30"/>
    </g>
   </g>
   <g id="text_74">
    <!-- 2 -->
    <g style="fill: #ffffff" transform="translate(224.75 565.2675) scale(0.24 -0.24)">
     <use xlink:href="#DejaVuSans-32"/>
    </g>
   </g>
   <g id="text_75">
    <!-- 9 -->
    <g style="fill: #ffffff" transform="translate(295.78 565.2675) scale(0.24 -0.24)">
     <use xlink:href="#DejaVuSans-39"/>
    </g>
   </g>
   <g id="text_76">
    <!-- 22 -->
    <g style="fill: #ffffff" transform="translate(359.175 565.2675) scale(0.24 -0.24)">
     <use xlink:href="#DejaVuSans-32"/>
     <use xlink:href="#DejaVuSans-32" x="63.623047"/>
    </g>
   </g>
   <g id="text_77">
    <!-- 0 -->
    <g style="fill: #ffffff" transform="translate(437.84 565.2675) scale(0.24 -0.24)">
     <use xlink:href="#DejaVuSans-30"/>
    </g>
   </g>
   <g id="text_78">
    <!-- 0 -->
    <g style="fill: #ffffff" transform="translate(508.87 565.2675) scale(0.24 -0.24)">
     <use xlink:href="#DejaVuSans-30"/>
    </g>
   </g>
   <g id="text_79">
    <!-- 0 -->
    <g style="fill: #ffffff" transform="translate(579.9 565.2675) scale(0.24 -0.24)">
     <use xlink:href="#DejaVuSans-30"/>
    </g>
   </g>
   <g id="text_80">
    <!-- 177 -->
    <g style="fill: #262626" transform="translate(635.66 565.2675) scale(0.24 -0.24)">
     <use xlink:href="#DejaVuSans-31"/>
     <use xlink:href="#DejaVuSans-37" x="63.623047"/>
     <use xlink:href="#DejaVuSans-37" x="127.246094"/>
    </g>
   </g>
  </g>
 </g>
 <defs>
  <clipPath id="pf43f69ca96">
   <rect x="125.84" y="25.92" width="568.24" height="568.24"/>
  </clipPath>
 </defs>
</svg>
