<?xml version="1.0" encoding="utf-8" standalone="no"?>
<!DOCTYPE svg PUBLIC "-//W3C//DTD SVG 1.1//EN"
  "http://www.w3.org/Graphics/SVG/1.1/DTD/svg11.dtd">
<svg xmlns:xlink="http://www.w3.org/1999/xlink" width="432pt" height="324pt" viewBox="0 0 432 324" xmlns="http://www.w3.org/2000/svg" version="1.1">
 <metadata>
  <rdf:RDF xmlns:dc="http://purl.org/dc/elements/1.1/" xmlns:cc="http://creativecommons.org/ns#" xmlns:rdf="http://www.w3.org/1999/02/22-rdf-syntax-ns#">
   <cc:Work>
    <dc:type rdf:resource="http://purl.org/dc/dcmitype/StillImage"/>
    <dc:date>2023-10-03T20:20:19.911851</dc:date>
    <dc:format>image/svg+xml</dc:format>
    <dc:creator>
     <cc:Agent>
      <dc:title>Matplotlib v3.7.1, https://matplotlib.org/</dc:title>
     </cc:Agent>
    </dc:creator>
   </cc:Work>
  </rdf:RDF>
 </metadata>
 <defs>
  <style type="text/css">*{stroke-linejoin: round; stroke-linecap: butt}</style>
 </defs>
 <g id="figure_1">
  <g id="patch_1">
   <path d="M 0 324 
L 432 324 
L 432 0 
L 0 0 
z
" style="fill: #ffffff"/>
  </g>
  <g id="axes_1">
   <g id="patch_2">
    <path d="M 68.4924 261.3576 
L 400.6926 261.3576 
L 400.6926 38.3424 
L 68.4924 38.3424 
z
" style="fill: #ffffff"/>
   </g>
   <g id="PathCollection_1">
    <defs>
     <path id="C0_0_8c5c5b6c0b" d="M 0 2.4 
C 0.636487 2.4 1.246992 2.147121 1.697056 1.697056 
C 2.147121 1.246992 2.4 0.636487 2.4 -0 
C 2.4 -0.636487 2.147121 -1.246992 1.697056 -1.697056 
C 1.246992 -2.147121 0.636487 -2.4 0 -2.4 
C -0.636487 -2.4 -1.246992 -2.147121 -1.697056 -1.697056 
C -2.147121 -1.246992 -2.4 -0.636487 -2.4 0 
C -2.4 0.636487 -2.147121 1.246992 -1.697056 1.697056 
C -1.246992 2.147121 -0.636487 2.4 0 2.4 
z
"/>
    </defs>
    <g clip-path="url(#p5e3fe70599)">
     <use xlink:href="#C0_0_8c5c5b6c0b" x="211.95989" y="249.082272" style="fill: #808080; stroke: #ffffff; stroke-width: 0.384"/>
    </g>
    <g clip-path="url(#p5e3fe70599)">
     <use xlink:href="#C0_0_8c5c5b6c0b" x="155.04325" y="202.451061" style="fill: #1f77b4; stroke: #ffffff; stroke-width: 0.384"/>
    </g>
    <g clip-path="url(#p5e3fe70599)">
     <use xlink:href="#C0_0_8c5c5b6c0b" x="96.36934" y="236.729759" style="fill: #1f77b4; stroke: #ffffff; stroke-width: 0.384"/>
    </g>
    <g clip-path="url(#p5e3fe70599)">
     <use xlink:href="#C0_0_8c5c5b6c0b" x="96.36833" y="221.556675" style="fill: #1f77b4; stroke: #ffffff; stroke-width: 0.384"/>
    </g>
    <g clip-path="url(#p5e3fe70599)">
     <use xlink:href="#C0_0_8c5c5b6c0b" x="350.86257" y="247.902708" style="fill: #808080; stroke: #ffffff; stroke-width: 0.384"/>
    </g>
    <g clip-path="url(#p5e3fe70599)">
     <use xlink:href="#C0_0_8c5c5b6c0b" x="222.728207" y="251.017683" style="fill: #808080; stroke: #ffffff; stroke-width: 0.384"/>
    </g>
    <g clip-path="url(#p5e3fe70599)">
     <use xlink:href="#C0_0_8c5c5b6c0b" x="134.93244" y="249.441183" style="fill: #808080; stroke: #ffffff; stroke-width: 0.384"/>
    </g>
    <g clip-path="url(#p5e3fe70599)">
     <use xlink:href="#C0_0_8c5c5b6c0b" x="172.898177" y="249.763456" style="fill: #808080; stroke: #ffffff; stroke-width: 0.384"/>
    </g>
    <g clip-path="url(#p5e3fe70599)">
     <use xlink:href="#C0_0_8c5c5b6c0b" x="87.475269" y="243.210476" style="fill: #1f77b4; stroke: #ffffff; stroke-width: 0.384"/>
    </g>
    <g clip-path="url(#p5e3fe70599)">
     <use xlink:href="#C0_0_8c5c5b6c0b" x="229.846783" y="251.220545" style="fill: #808080; stroke: #ffffff; stroke-width: 0.384"/>
    </g>
    <g clip-path="url(#p5e3fe70599)">
     <use xlink:href="#C0_0_8c5c5b6c0b" x="195.044857" y="250.164034" style="fill: #808080; stroke: #ffffff; stroke-width: 0.384"/>
    </g>
    <g clip-path="url(#p5e3fe70599)">
     <use xlink:href="#C0_0_8c5c5b6c0b" x="262.982393" y="246.079812" style="fill: #808080; stroke: #ffffff; stroke-width: 0.384"/>
    </g>
    <g clip-path="url(#p5e3fe70599)">
     <use xlink:href="#C0_0_8c5c5b6c0b" x="248.829651" y="251.029925" style="fill: #808080; stroke: #ffffff; stroke-width: 0.384"/>
    </g>
    <g clip-path="url(#p5e3fe70599)">
     <use xlink:href="#C0_0_8c5c5b6c0b" x="393.493215" y="207.815216" style="fill: #d62728; stroke: #ffffff; stroke-width: 0.384"/>
    </g>
    <g clip-path="url(#p5e3fe70599)">
     <use xlink:href="#C0_0_8c5c5b6c0b" x="319.099568" y="244.230009" style="fill: #d62728; stroke: #ffffff; stroke-width: 0.384"/>
    </g>
    <g clip-path="url(#p5e3fe70599)">
     <use xlink:href="#C0_0_8c5c5b6c0b" x="177.677081" y="248.681243" style="fill: #808080; stroke: #ffffff; stroke-width: 0.384"/>
    </g>
    <g clip-path="url(#p5e3fe70599)">
     <use xlink:href="#C0_0_8c5c5b6c0b" x="163.406743" y="249.423267" style="fill: #808080; stroke: #ffffff; stroke-width: 0.384"/>
    </g>
    <g clip-path="url(#p5e3fe70599)">
     <use xlink:href="#C0_0_8c5c5b6c0b" x="115.949571" y="246.822913" style="fill: #808080; stroke: #ffffff; stroke-width: 0.384"/>
    </g>
    <g clip-path="url(#p5e3fe70599)">
     <use xlink:href="#C0_0_8c5c5b6c0b" x="239.338217" y="251.220545" style="fill: #808080; stroke: #ffffff; stroke-width: 0.384"/>
    </g>
    <g clip-path="url(#p5e3fe70599)">
     <use xlink:href="#C0_0_8c5c5b6c0b" x="179.2258" y="249.539485" style="fill: #808080; stroke: #ffffff; stroke-width: 0.384"/>
    </g>
    <g clip-path="url(#p5e3fe70599)">
     <use xlink:href="#C0_0_8c5c5b6c0b" x="101.71242" y="241.840814" style="fill: #1f77b4; stroke: #ffffff; stroke-width: 0.384"/>
    </g>
    <g clip-path="url(#p5e3fe70599)">
     <use xlink:href="#C0_0_8c5c5b6c0b" x="168.64099" y="247.114346" style="fill: #808080; stroke: #ffffff; stroke-width: 0.384"/>
    </g>
    <g clip-path="url(#p5e3fe70599)">
     <use xlink:href="#C0_0_8c5c5b6c0b" x="144.423874" y="248.606898" style="fill: #808080; stroke: #ffffff; stroke-width: 0.384"/>
    </g>
    <g clip-path="url(#p5e3fe70599)">
     <use xlink:href="#C0_0_8c5c5b6c0b" x="223.382106" y="249.271165" style="fill: #808080; stroke: #ffffff; stroke-width: 0.384"/>
    </g>
    <g clip-path="url(#p5e3fe70599)">
     <use xlink:href="#C0_0_8c5c5b6c0b" x="224.2219" y="250.058362" style="fill: #808080; stroke: #ffffff; stroke-width: 0.384"/>
    </g>
    <g clip-path="url(#p5e3fe70599)">
     <use xlink:href="#C0_0_8c5c5b6c0b" x="180.640599" y="237.41958" style="fill: #1f77b4; stroke: #ffffff; stroke-width: 0.384"/>
    </g>
    <g clip-path="url(#p5e3fe70599)">
     <use xlink:href="#C0_0_8c5c5b6c0b" x="142.747277" y="221.995986" style="fill: #1f77b4; stroke: #ffffff; stroke-width: 0.384"/>
    </g>
    <g clip-path="url(#p5e3fe70599)">
     <use xlink:href="#C0_0_8c5c5b6c0b" x="168.125205" y="234.271295" style="fill: #1f77b4; stroke: #ffffff; stroke-width: 0.384"/>
    </g>
    <g clip-path="url(#p5e3fe70599)">
     <use xlink:href="#C0_0_8c5c5b6c0b" x="201.14042" y="246.605404" style="fill: #808080; stroke: #ffffff; stroke-width: 0.384"/>
    </g>
    <g clip-path="url(#p5e3fe70599)">
     <use xlink:href="#C0_0_8c5c5b6c0b" x="145.328064" y="216.19247" style="fill: #1f77b4; stroke: #ffffff; stroke-width: 0.384"/>
    </g>
    <g clip-path="url(#p5e3fe70599)">
     <use xlink:href="#C0_0_8c5c5b6c0b" x="175.524186" y="244.210158" style="fill: #1f77b4; stroke: #ffffff; stroke-width: 0.384"/>
    </g>
    <g clip-path="url(#p5e3fe70599)">
     <use xlink:href="#C0_0_8c5c5b6c0b" x="134.130106" y="121.702317" style="fill: #1f77b4; stroke: #ffffff; stroke-width: 0.384"/>
    </g>
    <g clip-path="url(#p5e3fe70599)">
     <use xlink:href="#C0_0_8c5c5b6c0b" x="125.511126" y="158.508021" style="fill: #1f77b4; stroke: #ffffff; stroke-width: 0.384"/>
    </g>
    <g clip-path="url(#p5e3fe70599)">
     <use xlink:href="#C0_0_8c5c5b6c0b" x="162.942138" y="231.417963" style="fill: #1f77b4; stroke: #ffffff; stroke-width: 0.384"/>
    </g>
    <g clip-path="url(#p5e3fe70599)">
     <use xlink:href="#C0_0_8c5c5b6c0b" x="242.723274" y="251.048961" style="fill: #808080; stroke: #ffffff; stroke-width: 0.384"/>
    </g>
    <g clip-path="url(#p5e3fe70599)">
     <use xlink:href="#C0_0_8c5c5b6c0b" x="123.091033" y="48.479455" style="fill: #1f77b4; stroke: #ffffff; stroke-width: 0.384"/>
    </g>
    <g clip-path="url(#p5e3fe70599)">
     <use xlink:href="#C0_0_8c5c5b6c0b" x="175.298645" y="150.214265" style="fill: #1f77b4; stroke: #ffffff; stroke-width: 0.384"/>
    </g>
    <g clip-path="url(#p5e3fe70599)">
     <use xlink:href="#C0_0_8c5c5b6c0b" x="119.197977" y="226.477857" style="fill: #1f77b4; stroke: #ffffff; stroke-width: 0.384"/>
    </g>
    <g clip-path="url(#p5e3fe70599)">
     <use xlink:href="#C0_0_8c5c5b6c0b" x="139.265486" y="239.695776" style="fill: #1f77b4; stroke: #ffffff; stroke-width: 0.384"/>
    </g>
    <g clip-path="url(#p5e3fe70599)">
     <use xlink:href="#C0_0_8c5c5b6c0b" x="180.302111" y="242.857527" style="fill: #1f77b4; stroke: #ffffff; stroke-width: 0.384"/>
    </g>
    <g clip-path="url(#p5e3fe70599)">
     <use xlink:href="#C0_0_8c5c5b6c0b" x="134.93244" y="245.78775" style="fill: #808080; stroke: #ffffff; stroke-width: 0.384"/>
    </g>
    <g clip-path="url(#p5e3fe70599)">
     <use xlink:href="#C0_0_8c5c5b6c0b" x="138.561396" y="198.957483" style="fill: #1f77b4; stroke: #ffffff; stroke-width: 0.384"/>
    </g>
    <g clip-path="url(#p5e3fe70599)">
     <use xlink:href="#C0_0_8c5c5b6c0b" x="158.940186" y="240.866292" style="fill: #1f77b4; stroke: #ffffff; stroke-width: 0.384"/>
    </g>
    <g clip-path="url(#p5e3fe70599)">
     <use xlink:href="#C0_0_8c5c5b6c0b" x="116.553839" y="185.306439" style="fill: #1f77b4; stroke: #ffffff; stroke-width: 0.384"/>
    </g>
    <g clip-path="url(#p5e3fe70599)">
     <use xlink:href="#C0_0_8c5c5b6c0b" x="131.401972" y="229.648055" style="fill: #1f77b4; stroke: #ffffff; stroke-width: 0.384"/>
    </g>
    <g clip-path="url(#p5e3fe70599)">
     <use xlink:href="#C0_0_8c5c5b6c0b" x="134.462144" y="232.523394" style="fill: #1f77b4; stroke: #ffffff; stroke-width: 0.384"/>
    </g>
    <g clip-path="url(#p5e3fe70599)">
     <use xlink:href="#C0_0_8c5c5b6c0b" x="258.984822" y="250.427537" style="fill: #808080; stroke: #ffffff; stroke-width: 0.384"/>
    </g>
    <g clip-path="url(#p5e3fe70599)">
     <use xlink:href="#C0_0_8c5c5b6c0b" x="222.977108" y="250.927453" style="fill: #808080; stroke: #ffffff; stroke-width: 0.384"/>
    </g>
    <g clip-path="url(#p5e3fe70599)">
     <use xlink:href="#C0_0_8c5c5b6c0b" x="267.65384" y="247.755359" style="fill: #808080; stroke: #ffffff; stroke-width: 0.384"/>
    </g>
    <g clip-path="url(#p5e3fe70599)">
     <use xlink:href="#C0_0_8c5c5b6c0b" x="143.823074" y="223.487541" style="fill: #1f77b4; stroke: #ffffff; stroke-width: 0.384"/>
    </g>
    <g clip-path="url(#p5e3fe70599)">
     <use xlink:href="#C0_0_8c5c5b6c0b" x="163.363678" y="236.947418" style="fill: #1f77b4; stroke: #ffffff; stroke-width: 0.384"/>
    </g>
    <g clip-path="url(#p5e3fe70599)">
     <use xlink:href="#C0_0_8c5c5b6c0b" x="296.286823" y="249.763456" style="fill: #808080; stroke: #ffffff; stroke-width: 0.384"/>
    </g>
    <g clip-path="url(#p5e3fe70599)">
     <use xlink:href="#C0_0_8c5c5b6c0b" x="325.192555" y="245.785421" style="fill: #808080; stroke: #ffffff; stroke-width: 0.384"/>
    </g>
    <g clip-path="url(#p5e3fe70599)">
     <use xlink:href="#C0_0_8c5c5b6c0b" x="223.056468" y="250.746826" style="fill: #808080; stroke: #ffffff; stroke-width: 0.384"/>
    </g>
    <g clip-path="url(#p5e3fe70599)">
     <use xlink:href="#C0_0_8c5c5b6c0b" x="186.665508" y="247.019822" style="fill: #808080; stroke: #ffffff; stroke-width: 0.384"/>
    </g>
    <g clip-path="url(#p5e3fe70599)">
     <use xlink:href="#C0_0_8c5c5b6c0b" x="334.25256" y="248.107576" style="fill: #808080; stroke: #ffffff; stroke-width: 0.384"/>
    </g>
    <g clip-path="url(#p5e3fe70599)">
     <use xlink:href="#C0_0_8c5c5b6c0b" x="85.920637" y="203.208404" style="fill: #1f77b4; stroke: #ffffff; stroke-width: 0.384"/>
    </g>
    <g clip-path="url(#p5e3fe70599)">
     <use xlink:href="#C0_0_8c5c5b6c0b" x="168.384768" y="248.020803" style="fill: #808080; stroke: #ffffff; stroke-width: 0.384"/>
    </g>
    <g clip-path="url(#p5e3fe70599)">
     <use xlink:href="#C0_0_8c5c5b6c0b" x="142.068115" y="85.630221" style="fill: #1f77b4; stroke: #ffffff; stroke-width: 0.384"/>
    </g>
    <g clip-path="url(#p5e3fe70599)">
     <use xlink:href="#C0_0_8c5c5b6c0b" x="173.20768" y="246.041017" style="fill: #808080; stroke: #ffffff; stroke-width: 0.384"/>
    </g>
    <g clip-path="url(#p5e3fe70599)">
     <use xlink:href="#C0_0_8c5c5b6c0b" x="353.235429" y="246.822913" style="fill: #808080; stroke: #ffffff; stroke-width: 0.384"/>
    </g>
    <g clip-path="url(#p5e3fe70599)">
     <use xlink:href="#C0_0_8c5c5b6c0b" x="170.920795" y="248.911436" style="fill: #808080; stroke: #ffffff; stroke-width: 0.384"/>
    </g>
    <g clip-path="url(#p5e3fe70599)">
     <use xlink:href="#C0_0_8c5c5b6c0b" x="220.355349" y="251.029925" style="fill: #808080; stroke: #ffffff; stroke-width: 0.384"/>
    </g>
    <g clip-path="url(#p5e3fe70599)">
     <use xlink:href="#C0_0_8c5c5b6c0b" x="184.696818" y="244.983962" style="fill: #1f77b4; stroke: #ffffff; stroke-width: 0.384"/>
    </g>
    <g clip-path="url(#p5e3fe70599)">
     <use xlink:href="#C0_0_8c5c5b6c0b" x="154.667801" y="237.105874" style="fill: #1f77b4; stroke: #ffffff; stroke-width: 0.384"/>
    </g>
    <g clip-path="url(#p5e3fe70599)">
     <use xlink:href="#C0_0_8c5c5b6c0b" x="116.012918" y="227.71224" style="fill: #1f77b4; stroke: #ffffff; stroke-width: 0.384"/>
    </g>
    <g clip-path="url(#p5e3fe70599)">
     <use xlink:href="#C0_0_8c5c5b6c0b" x="148.08742" y="239.575515" style="fill: #1f77b4; stroke: #ffffff; stroke-width: 0.384"/>
    </g>
    <g clip-path="url(#p5e3fe70599)">
     <use xlink:href="#C0_0_8c5c5b6c0b" x="168.008025" y="245.288979" style="fill: #808080; stroke: #ffffff; stroke-width: 0.384"/>
    </g>
    <g clip-path="url(#p5e3fe70599)">
     <use xlink:href="#C0_0_8c5c5b6c0b" x="288.543811" y="247.601913" style="fill: #808080; stroke: #ffffff; stroke-width: 0.384"/>
    </g>
    <g clip-path="url(#p5e3fe70599)">
     <use xlink:href="#C0_0_8c5c5b6c0b" x="372.218297" y="244.823484" style="fill: #d62728; stroke: #ffffff; stroke-width: 0.384"/>
    </g>
    <g clip-path="url(#p5e3fe70599)">
     <use xlink:href="#C0_0_8c5c5b6c0b" x="362.726863" y="245.955251" style="fill: #808080; stroke: #ffffff; stroke-width: 0.384"/>
    </g>
    <g clip-path="url(#p5e3fe70599)">
     <use xlink:href="#C0_0_8c5c5b6c0b" x="256.019241" y="250.301623" style="fill: #808080; stroke: #ffffff; stroke-width: 0.384"/>
    </g>
    <g clip-path="url(#p5e3fe70599)">
     <use xlink:href="#C0_0_8c5c5b6c0b" x="191.881046" y="250.3441" style="fill: #808080; stroke: #ffffff; stroke-width: 0.384"/>
    </g>
    <g clip-path="url(#p5e3fe70599)">
     <use xlink:href="#C0_0_8c5c5b6c0b" x="119.904336" y="245.502749" style="fill: #808080; stroke: #ffffff; stroke-width: 0.384"/>
    </g>
    <g clip-path="url(#p5e3fe70599)">
     <use xlink:href="#C0_0_8c5c5b6c0b" x="262.073042" y="249.489238" style="fill: #808080; stroke: #ffffff; stroke-width: 0.384"/>
    </g>
    <g clip-path="url(#p5e3fe70599)">
     <use xlink:href="#C0_0_8c5c5b6c0b" x="217.429136" y="250.42263" style="fill: #808080; stroke: #ffffff; stroke-width: 0.384"/>
    </g>
    <g clip-path="url(#p5e3fe70599)">
     <use xlink:href="#C0_0_8c5c5b6c0b" x="135.723393" y="246.977814" style="fill: #808080; stroke: #ffffff; stroke-width: 0.384"/>
    </g>
    <g clip-path="url(#p5e3fe70599)">
     <use xlink:href="#C0_0_8c5c5b6c0b" x="259.399658" y="249.969124" style="fill: #808080; stroke: #ffffff; stroke-width: 0.384"/>
    </g>
    <g clip-path="url(#p5e3fe70599)">
     <use xlink:href="#C0_0_8c5c5b6c0b" x="142.985778" y="246.581127" style="fill: #808080; stroke: #ffffff; stroke-width: 0.384"/>
    </g>
    <g clip-path="url(#p5e3fe70599)">
     <use xlink:href="#C0_0_8c5c5b6c0b" x="200.243925" y="247.971173" style="fill: #808080; stroke: #ffffff; stroke-width: 0.384"/>
    </g>
    <g clip-path="url(#p5e3fe70599)">
     <use xlink:href="#C0_0_8c5c5b6c0b" x="144.423874" y="248.606898" style="fill: #808080; stroke: #ffffff; stroke-width: 0.384"/>
    </g>
    <g clip-path="url(#p5e3fe70599)">
     <use xlink:href="#C0_0_8c5c5b6c0b" x="118.438584" y="242.180738" style="fill: #1f77b4; stroke: #ffffff; stroke-width: 0.384"/>
    </g>
    <g clip-path="url(#p5e3fe70599)">
     <use xlink:href="#C0_0_8c5c5b6c0b" x="98.153132" y="243.656176" style="fill: #1f77b4; stroke: #ffffff; stroke-width: 0.384"/>
    </g>
    <g clip-path="url(#p5e3fe70599)">
     <use xlink:href="#C0_0_8c5c5b6c0b" x="246.320422" y="250.642928" style="fill: #808080; stroke: #ffffff; stroke-width: 0.384"/>
    </g>
    <g clip-path="url(#p5e3fe70599)">
     <use xlink:href="#C0_0_8c5c5b6c0b" x="202.954386" y="250.435712" style="fill: #808080; stroke: #ffffff; stroke-width: 0.384"/>
    </g>
    <g clip-path="url(#p5e3fe70599)">
     <use xlink:href="#C0_0_8c5c5b6c0b" x="211.034931" y="249.488083" style="fill: #808080; stroke: #ffffff; stroke-width: 0.384"/>
    </g>
    <g clip-path="url(#p5e3fe70599)">
     <use xlink:href="#C0_0_8c5c5b6c0b" x="196.509389" y="248.02063" style="fill: #808080; stroke: #ffffff; stroke-width: 0.384"/>
    </g>
    <g clip-path="url(#p5e3fe70599)">
     <use xlink:href="#C0_0_8c5c5b6c0b" x="117.871865" y="227.195479" style="fill: #1f77b4; stroke: #ffffff; stroke-width: 0.384"/>
    </g>
    <g clip-path="url(#p5e3fe70599)">
     <use xlink:href="#C0_0_8c5c5b6c0b" x="89.071173" y="227.524479" style="fill: #1f77b4; stroke: #ffffff; stroke-width: 0.384"/>
    </g>
   </g>
   <g id="PathCollection_2"/>
   <g id="PathCollection_3"/>
   <g id="PathCollection_4"/>
   <g id="matplotlib.axis_1">
    <g id="xtick_1">
     <g id="line2d_1">
      <defs>
       <path id="m16b75108e7" d="M 0 0 
L 0 4.8 
" style="stroke: #000000"/>
      </defs>
      <g>
       <use xlink:href="#m16b75108e7" x="68.4924" y="261.3576" style="stroke: #000000"/>
      </g>
     </g>
     <g id="text_1">
      <!-- −1.0 -->
      <g transform="translate(49.260413 281.693525) scale(0.1584 -0.1584)">
       <defs>
        <path id="DejaVuSans-2212" d="M 678 2272 
L 4684 2272 
L 4684 1741 
L 678 1741 
L 678 2272 
z
" transform="scale(0.015625)"/>
        <path id="DejaVuSans-31" d="M 794 531 
L 1825 531 
L 1825 4091 
L 703 3866 
L 703 4441 
L 1819 4666 
L 2450 4666 
L 2450 531 
L 3481 531 
L 3481 0 
L 794 0 
L 794 531 
z
" transform="scale(0.015625)"/>
        <path id="DejaVuSans-2e" d="M 684 794 
L 1344 794 
L 1344 0 
L 684 0 
L 684 794 
z
" transform="scale(0.015625)"/>
        <path id="DejaVuSans-30" d="M 2034 4250 
Q 1547 4250 1301 3770 
Q 1056 3291 1056 2328 
Q 1056 1369 1301 889 
Q 1547 409 2034 409 
Q 2525 409 2770 889 
Q 3016 1369 3016 2328 
Q 3016 3291 2770 3770 
Q 2525 4250 2034 4250 
z
M 2034 4750 
Q 2819 4750 3233 4129 
Q 3647 3509 3647 2328 
Q 3647 1150 3233 529 
Q 2819 -91 2034 -91 
Q 1250 -91 836 529 
Q 422 1150 422 2328 
Q 422 3509 836 4129 
Q 1250 4750 2034 4750 
z
" transform="scale(0.015625)"/>
       </defs>
       <use xlink:href="#DejaVuSans-2212"/>
       <use xlink:href="#DejaVuSans-31" x="83.789062"/>
       <use xlink:href="#DejaVuSans-2e" x="147.412109"/>
       <use xlink:href="#DejaVuSans-30" x="179.199219"/>
      </g>
     </g>
    </g>
    <g id="xtick_2">
     <g id="line2d_2">
      <g>
       <use xlink:href="#m16b75108e7" x="151.54245" y="261.3576" style="stroke: #000000"/>
      </g>
     </g>
     <g id="text_2">
      <!-- −0.5 -->
      <g transform="translate(132.310462 281.693525) scale(0.1584 -0.1584)">
       <defs>
        <path id="DejaVuSans-35" d="M 691 4666 
L 3169 4666 
L 3169 4134 
L 1269 4134 
L 1269 2991 
Q 1406 3038 1543 3061 
Q 1681 3084 1819 3084 
Q 2600 3084 3056 2656 
Q 3513 2228 3513 1497 
Q 3513 744 3044 326 
Q 2575 -91 1722 -91 
Q 1428 -91 1123 -41 
Q 819 9 494 109 
L 494 744 
Q 775 591 1075 516 
Q 1375 441 1709 441 
Q 2250 441 2565 725 
Q 2881 1009 2881 1497 
Q 2881 1984 2565 2268 
Q 2250 2553 1709 2553 
Q 1456 2553 1204 2497 
Q 953 2441 691 2322 
L 691 4666 
z
" transform="scale(0.015625)"/>
       </defs>
       <use xlink:href="#DejaVuSans-2212"/>
       <use xlink:href="#DejaVuSans-30" x="83.789062"/>
       <use xlink:href="#DejaVuSans-2e" x="147.412109"/>
       <use xlink:href="#DejaVuSans-35" x="179.199219"/>
      </g>
     </g>
    </g>
    <g id="xtick_3">
     <g id="line2d_3">
      <g>
       <use xlink:href="#m16b75108e7" x="234.5925" y="261.3576" style="stroke: #000000"/>
      </g>
     </g>
     <g id="text_3">
      <!-- 0.0 -->
      <g transform="translate(221.997225 281.693525) scale(0.1584 -0.1584)">
       <use xlink:href="#DejaVuSans-30"/>
       <use xlink:href="#DejaVuSans-2e" x="63.623047"/>
       <use xlink:href="#DejaVuSans-30" x="95.410156"/>
      </g>
     </g>
    </g>
    <g id="xtick_4">
     <g id="line2d_4">
      <g>
       <use xlink:href="#m16b75108e7" x="317.64255" y="261.3576" style="stroke: #000000"/>
      </g>
     </g>
     <g id="text_4">
      <!-- 0.5 -->
      <g transform="translate(305.047275 281.693525) scale(0.1584 -0.1584)">
       <use xlink:href="#DejaVuSans-30"/>
       <use xlink:href="#DejaVuSans-2e" x="63.623047"/>
       <use xlink:href="#DejaVuSans-35" x="95.410156"/>
      </g>
     </g>
    </g>
    <g id="xtick_5">
     <g id="line2d_5">
      <g>
       <use xlink:href="#m16b75108e7" x="400.6926" y="261.3576" style="stroke: #000000"/>
      </g>
     </g>
     <g id="text_5">
      <!-- 1.0 -->
      <g transform="translate(388.097325 281.693525) scale(0.1584 -0.1584)">
       <use xlink:href="#DejaVuSans-31"/>
       <use xlink:href="#DejaVuSans-2e" x="63.623047"/>
       <use xlink:href="#DejaVuSans-30" x="95.410156"/>
      </g>
     </g>
    </g>
    <g id="text_6">
     <!-- Correlation -->
     <g transform="translate(186.9537 302.11785) scale(0.1728 -0.1728)">
      <defs>
       <path id="DejaVuSans-43" d="M 4122 4306 
L 4122 3641 
Q 3803 3938 3442 4084 
Q 3081 4231 2675 4231 
Q 1875 4231 1450 3742 
Q 1025 3253 1025 2328 
Q 1025 1406 1450 917 
Q 1875 428 2675 428 
Q 3081 428 3442 575 
Q 3803 722 4122 1019 
L 4122 359 
Q 3791 134 3420 21 
Q 3050 -91 2638 -91 
Q 1578 -91 968 557 
Q 359 1206 359 2328 
Q 359 3453 968 4101 
Q 1578 4750 2638 4750 
Q 3056 4750 3426 4639 
Q 3797 4528 4122 4306 
z
" transform="scale(0.015625)"/>
       <path id="DejaVuSans-6f" d="M 1959 3097 
Q 1497 3097 1228 2736 
Q 959 2375 959 1747 
Q 959 1119 1226 758 
Q 1494 397 1959 397 
Q 2419 397 2687 759 
Q 2956 1122 2956 1747 
Q 2956 2369 2687 2733 
Q 2419 3097 1959 3097 
z
M 1959 3584 
Q 2709 3584 3137 3096 
Q 3566 2609 3566 1747 
Q 3566 888 3137 398 
Q 2709 -91 1959 -91 
Q 1206 -91 779 398 
Q 353 888 353 1747 
Q 353 2609 779 3096 
Q 1206 3584 1959 3584 
z
" transform="scale(0.015625)"/>
       <path id="DejaVuSans-72" d="M 2631 2963 
Q 2534 3019 2420 3045 
Q 2306 3072 2169 3072 
Q 1681 3072 1420 2755 
Q 1159 2438 1159 1844 
L 1159 0 
L 581 0 
L 581 3500 
L 1159 3500 
L 1159 2956 
Q 1341 3275 1631 3429 
Q 1922 3584 2338 3584 
Q 2397 3584 2469 3576 
Q 2541 3569 2628 3553 
L 2631 2963 
z
" transform="scale(0.015625)"/>
       <path id="DejaVuSans-65" d="M 3597 1894 
L 3597 1613 
L 953 1613 
Q 991 1019 1311 708 
Q 1631 397 2203 397 
Q 2534 397 2845 478 
Q 3156 559 3463 722 
L 3463 178 
Q 3153 47 2828 -22 
Q 2503 -91 2169 -91 
Q 1331 -91 842 396 
Q 353 884 353 1716 
Q 353 2575 817 3079 
Q 1281 3584 2069 3584 
Q 2775 3584 3186 3129 
Q 3597 2675 3597 1894 
z
M 3022 2063 
Q 3016 2534 2758 2815 
Q 2500 3097 2075 3097 
Q 1594 3097 1305 2825 
Q 1016 2553 972 2059 
L 3022 2063 
z
" transform="scale(0.015625)"/>
       <path id="DejaVuSans-6c" d="M 603 4863 
L 1178 4863 
L 1178 0 
L 603 0 
L 603 4863 
z
" transform="scale(0.015625)"/>
       <path id="DejaVuSans-61" d="M 2194 1759 
Q 1497 1759 1228 1600 
Q 959 1441 959 1056 
Q 959 750 1161 570 
Q 1363 391 1709 391 
Q 2188 391 2477 730 
Q 2766 1069 2766 1631 
L 2766 1759 
L 2194 1759 
z
M 3341 1997 
L 3341 0 
L 2766 0 
L 2766 531 
Q 2569 213 2275 61 
Q 1981 -91 1556 -91 
Q 1019 -91 701 211 
Q 384 513 384 1019 
Q 384 1609 779 1909 
Q 1175 2209 1959 2209 
L 2766 2209 
L 2766 2266 
Q 2766 2663 2505 2880 
Q 2244 3097 1772 3097 
Q 1472 3097 1187 3025 
Q 903 2953 641 2809 
L 641 3341 
Q 956 3463 1253 3523 
Q 1550 3584 1831 3584 
Q 2591 3584 2966 3190 
Q 3341 2797 3341 1997 
z
" transform="scale(0.015625)"/>
       <path id="DejaVuSans-74" d="M 1172 4494 
L 1172 3500 
L 2356 3500 
L 2356 3053 
L 1172 3053 
L 1172 1153 
Q 1172 725 1289 603 
Q 1406 481 1766 481 
L 2356 481 
L 2356 0 
L 1766 0 
Q 1100 0 847 248 
Q 594 497 594 1153 
L 594 3053 
L 172 3053 
L 172 3500 
L 594 3500 
L 594 4494 
L 1172 4494 
z
" transform="scale(0.015625)"/>
       <path id="DejaVuSans-69" d="M 603 3500 
L 1178 3500 
L 1178 0 
L 603 0 
L 603 3500 
z
M 603 4863 
L 1178 4863 
L 1178 4134 
L 603 4134 
L 603 4863 
z
" transform="scale(0.015625)"/>
       <path id="DejaVuSans-6e" d="M 3513 2113 
L 3513 0 
L 2938 0 
L 2938 2094 
Q 2938 2591 2744 2837 
Q 2550 3084 2163 3084 
Q 1697 3084 1428 2787 
Q 1159 2491 1159 1978 
L 1159 0 
L 581 0 
L 581 3500 
L 1159 3500 
L 1159 2956 
Q 1366 3272 1645 3428 
Q 1925 3584 2291 3584 
Q 2894 3584 3203 3211 
Q 3513 2838 3513 2113 
z
" transform="scale(0.015625)"/>
      </defs>
      <use xlink:href="#DejaVuSans-43"/>
      <use xlink:href="#DejaVuSans-6f" x="69.824219"/>
      <use xlink:href="#DejaVuSans-72" x="131.005859"/>
      <use xlink:href="#DejaVuSans-72" x="170.369141"/>
      <use xlink:href="#DejaVuSans-65" x="209.232422"/>
      <use xlink:href="#DejaVuSans-6c" x="270.755859"/>
      <use xlink:href="#DejaVuSans-61" x="298.539062"/>
      <use xlink:href="#DejaVuSans-74" x="359.818359"/>
      <use xlink:href="#DejaVuSans-69" x="399.027344"/>
      <use xlink:href="#DejaVuSans-6f" x="426.810547"/>
      <use xlink:href="#DejaVuSans-6e" x="487.992188"/>
     </g>
    </g>
   </g>
   <g id="matplotlib.axis_2">
    <g id="ytick_1">
     <g id="line2d_6">
      <defs>
       <path id="m556f9ddca4" d="M 0 0 
L -4.8 0 
" style="stroke: #000000"/>
      </defs>
      <g>
       <use xlink:href="#m556f9ddca4" x="68.4924" y="251.309851" style="stroke: #000000"/>
      </g>
     </g>
     <g id="text_7">
      <!-- 0 -->
      <g transform="translate(50.1142 257.327813) scale(0.1584 -0.1584)">
       <use xlink:href="#DejaVuSans-30"/>
      </g>
     </g>
    </g>
    <g id="ytick_2">
     <g id="line2d_7">
      <g>
       <use xlink:href="#m556f9ddca4" x="68.4924" y="204.351309" style="stroke: #000000"/>
      </g>
     </g>
     <g id="text_8">
      <!-- 10 -->
      <g transform="translate(40.036 210.369271) scale(0.1584 -0.1584)">
       <use xlink:href="#DejaVuSans-31"/>
       <use xlink:href="#DejaVuSans-30" x="63.623047"/>
      </g>
     </g>
    </g>
    <g id="ytick_3">
     <g id="line2d_8">
      <g>
       <use xlink:href="#m556f9ddca4" x="68.4924" y="157.392767" style="stroke: #000000"/>
      </g>
     </g>
     <g id="text_9">
      <!-- 20 -->
      <g transform="translate(40.036 163.410729) scale(0.1584 -0.1584)">
       <defs>
        <path id="DejaVuSans-32" d="M 1228 531 
L 3431 531 
L 3431 0 
L 469 0 
L 469 531 
Q 828 903 1448 1529 
Q 2069 2156 2228 2338 
Q 2531 2678 2651 2914 
Q 2772 3150 2772 3378 
Q 2772 3750 2511 3984 
Q 2250 4219 1831 4219 
Q 1534 4219 1204 4116 
Q 875 4013 500 3803 
L 500 4441 
Q 881 4594 1212 4672 
Q 1544 4750 1819 4750 
Q 2544 4750 2975 4387 
Q 3406 4025 3406 3419 
Q 3406 3131 3298 2873 
Q 3191 2616 2906 2266 
Q 2828 2175 2409 1742 
Q 1991 1309 1228 531 
z
" transform="scale(0.015625)"/>
       </defs>
       <use xlink:href="#DejaVuSans-32"/>
       <use xlink:href="#DejaVuSans-30" x="63.623047"/>
      </g>
     </g>
    </g>
    <g id="ytick_4">
     <g id="line2d_9">
      <g>
       <use xlink:href="#m556f9ddca4" x="68.4924" y="110.434224" style="stroke: #000000"/>
      </g>
     </g>
     <g id="text_10">
      <!-- 30 -->
      <g transform="translate(40.036 116.452187) scale(0.1584 -0.1584)">
       <defs>
        <path id="DejaVuSans-33" d="M 2597 2516 
Q 3050 2419 3304 2112 
Q 3559 1806 3559 1356 
Q 3559 666 3084 287 
Q 2609 -91 1734 -91 
Q 1441 -91 1130 -33 
Q 819 25 488 141 
L 488 750 
Q 750 597 1062 519 
Q 1375 441 1716 441 
Q 2309 441 2620 675 
Q 2931 909 2931 1356 
Q 2931 1769 2642 2001 
Q 2353 2234 1838 2234 
L 1294 2234 
L 1294 2753 
L 1863 2753 
Q 2328 2753 2575 2939 
Q 2822 3125 2822 3475 
Q 2822 3834 2567 4026 
Q 2313 4219 1838 4219 
Q 1578 4219 1281 4162 
Q 984 4106 628 3988 
L 628 4550 
Q 988 4650 1302 4700 
Q 1616 4750 1894 4750 
Q 2613 4750 3031 4423 
Q 3450 4097 3450 3541 
Q 3450 3153 3228 2886 
Q 3006 2619 2597 2516 
z
" transform="scale(0.015625)"/>
       </defs>
       <use xlink:href="#DejaVuSans-33"/>
       <use xlink:href="#DejaVuSans-30" x="63.623047"/>
      </g>
     </g>
    </g>
    <g id="ytick_5">
     <g id="line2d_10">
      <g>
       <use xlink:href="#m556f9ddca4" x="68.4924" y="63.475682" style="stroke: #000000"/>
      </g>
     </g>
     <g id="text_11">
      <!-- 40 -->
      <g transform="translate(40.036 69.493645) scale(0.1584 -0.1584)">
       <defs>
        <path id="DejaVuSans-34" d="M 2419 4116 
L 825 1625 
L 2419 1625 
L 2419 4116 
z
M 2253 4666 
L 3047 4666 
L 3047 1625 
L 3713 1625 
L 3713 1100 
L 3047 1100 
L 3047 0 
L 2419 0 
L 2419 1100 
L 313 1100 
L 313 1709 
L 2253 4666 
z
" transform="scale(0.015625)"/>
       </defs>
       <use xlink:href="#DejaVuSans-34"/>
       <use xlink:href="#DejaVuSans-30" x="63.623047"/>
      </g>
     </g>
    </g>
    <g id="text_12">
     <!-- -log10(p-value) -->
     <g transform="translate(32.4423 215.8515) rotate(-90) scale(0.1728 -0.1728)">
      <defs>
       <path id="DejaVuSans-2d" d="M 313 2009 
L 1997 2009 
L 1997 1497 
L 313 1497 
L 313 2009 
z
" transform="scale(0.015625)"/>
       <path id="DejaVuSans-67" d="M 2906 1791 
Q 2906 2416 2648 2759 
Q 2391 3103 1925 3103 
Q 1463 3103 1205 2759 
Q 947 2416 947 1791 
Q 947 1169 1205 825 
Q 1463 481 1925 481 
Q 2391 481 2648 825 
Q 2906 1169 2906 1791 
z
M 3481 434 
Q 3481 -459 3084 -895 
Q 2688 -1331 1869 -1331 
Q 1566 -1331 1297 -1286 
Q 1028 -1241 775 -1147 
L 775 -588 
Q 1028 -725 1275 -790 
Q 1522 -856 1778 -856 
Q 2344 -856 2625 -561 
Q 2906 -266 2906 331 
L 2906 616 
Q 2728 306 2450 153 
Q 2172 0 1784 0 
Q 1141 0 747 490 
Q 353 981 353 1791 
Q 353 2603 747 3093 
Q 1141 3584 1784 3584 
Q 2172 3584 2450 3431 
Q 2728 3278 2906 2969 
L 2906 3500 
L 3481 3500 
L 3481 434 
z
" transform="scale(0.015625)"/>
       <path id="DejaVuSans-28" d="M 1984 4856 
Q 1566 4138 1362 3434 
Q 1159 2731 1159 2009 
Q 1159 1288 1364 580 
Q 1569 -128 1984 -844 
L 1484 -844 
Q 1016 -109 783 600 
Q 550 1309 550 2009 
Q 550 2706 781 3412 
Q 1013 4119 1484 4856 
L 1984 4856 
z
" transform="scale(0.015625)"/>
       <path id="DejaVuSans-70" d="M 1159 525 
L 1159 -1331 
L 581 -1331 
L 581 3500 
L 1159 3500 
L 1159 2969 
Q 1341 3281 1617 3432 
Q 1894 3584 2278 3584 
Q 2916 3584 3314 3078 
Q 3713 2572 3713 1747 
Q 3713 922 3314 415 
Q 2916 -91 2278 -91 
Q 1894 -91 1617 61 
Q 1341 213 1159 525 
z
M 3116 1747 
Q 3116 2381 2855 2742 
Q 2594 3103 2138 3103 
Q 1681 3103 1420 2742 
Q 1159 2381 1159 1747 
Q 1159 1113 1420 752 
Q 1681 391 2138 391 
Q 2594 391 2855 752 
Q 3116 1113 3116 1747 
z
" transform="scale(0.015625)"/>
       <path id="DejaVuSans-76" d="M 191 3500 
L 800 3500 
L 1894 563 
L 2988 3500 
L 3597 3500 
L 2284 0 
L 1503 0 
L 191 3500 
z
" transform="scale(0.015625)"/>
       <path id="DejaVuSans-75" d="M 544 1381 
L 544 3500 
L 1119 3500 
L 1119 1403 
Q 1119 906 1312 657 
Q 1506 409 1894 409 
Q 2359 409 2629 706 
Q 2900 1003 2900 1516 
L 2900 3500 
L 3475 3500 
L 3475 0 
L 2900 0 
L 2900 538 
Q 2691 219 2414 64 
Q 2138 -91 1772 -91 
Q 1169 -91 856 284 
Q 544 659 544 1381 
z
M 1991 3584 
L 1991 3584 
z
" transform="scale(0.015625)"/>
       <path id="DejaVuSans-29" d="M 513 4856 
L 1013 4856 
Q 1481 4119 1714 3412 
Q 1947 2706 1947 2009 
Q 1947 1309 1714 600 
Q 1481 -109 1013 -844 
L 513 -844 
Q 928 -128 1133 580 
Q 1338 1288 1338 2009 
Q 1338 2731 1133 3434 
Q 928 4138 513 4856 
z
" transform="scale(0.015625)"/>
      </defs>
      <use xlink:href="#DejaVuSans-2d"/>
      <use xlink:href="#DejaVuSans-6c" x="36.083984"/>
      <use xlink:href="#DejaVuSans-6f" x="63.867188"/>
      <use xlink:href="#DejaVuSans-67" x="125.048828"/>
      <use xlink:href="#DejaVuSans-31" x="188.525391"/>
      <use xlink:href="#DejaVuSans-30" x="252.148438"/>
      <use xlink:href="#DejaVuSans-28" x="315.771484"/>
      <use xlink:href="#DejaVuSans-70" x="354.785156"/>
      <use xlink:href="#DejaVuSans-2d" x="418.261719"/>
      <use xlink:href="#DejaVuSans-76" x="451.720703"/>
      <use xlink:href="#DejaVuSans-61" x="510.900391"/>
      <use xlink:href="#DejaVuSans-6c" x="572.179688"/>
      <use xlink:href="#DejaVuSans-75" x="599.962891"/>
      <use xlink:href="#DejaVuSans-65" x="663.341797"/>
      <use xlink:href="#DejaVuSans-29" x="724.865234"/>
     </g>
    </g>
   </g>
   <g id="line2d_11">
    <path d="M 284.42253 261.3576 
L 284.42253 38.3424 
" clip-path="url(#p5e3fe70599)" style="fill: none; stroke-dasharray: 4.44,1.92; stroke-dashoffset: 0; stroke: #d62728; stroke-width: 1.2"/>
   </g>
   <g id="line2d_12">
    <path d="M 184.76247 261.3576 
L 184.76247 38.3424 
" clip-path="url(#p5e3fe70599)" style="fill: none; stroke-dasharray: 4.44,1.92; stroke-dashoffset: 0; stroke: #1f77b4; stroke-width: 1.2"/>
   </g>
   <g id="line2d_13">
    <path d="M 68.4924 245.200404 
L 400.6926 245.200404 
" clip-path="url(#p5e3fe70599)" style="fill: none; stroke-dasharray: 4.44,1.92; stroke-dashoffset: 0; stroke: #808080; stroke-width: 1.2"/>
   </g>
   <g id="patch_3">
    <path d="M 68.4924 261.3576 
L 68.4924 38.3424 
" style="fill: none; stroke: #000000; stroke-linejoin: miter; stroke-linecap: square"/>
   </g>
   <g id="patch_4">
    <path d="M 400.6926 261.3576 
L 400.6926 38.3424 
" style="fill: none; stroke: #000000; stroke-linejoin: miter; stroke-linecap: square"/>
   </g>
   <g id="patch_5">
    <path d="M 68.4924 261.3576 
L 400.6926 261.3576 
" style="fill: none; stroke: #000000; stroke-linejoin: miter; stroke-linecap: square"/>
   </g>
   <g id="patch_6">
    <path d="M 68.4924 38.3424 
L 400.6926 38.3424 
" style="fill: none; stroke: #000000; stroke-linejoin: miter; stroke-linecap: square"/>
   </g>
   <g id="text_13">
    <!-- +ve: 3 -->
    <g transform="translate(309.82488 60.64392) scale(0.1728 -0.1728)">
     <defs>
      <path id="DejaVuSans-2b" d="M 2944 4013 
L 2944 2272 
L 4684 2272 
L 4684 1741 
L 2944 1741 
L 2944 0 
L 2419 0 
L 2419 1741 
L 678 1741 
L 678 2272 
L 2419 2272 
L 2419 4013 
L 2944 4013 
z
" transform="scale(0.015625)"/>
      <path id="DejaVuSans-3a" d="M 750 794 
L 1409 794 
L 1409 0 
L 750 0 
L 750 794 
z
M 750 3309 
L 1409 3309 
L 1409 2516 
L 750 2516 
L 750 3309 
z
" transform="scale(0.015625)"/>
      <path id="DejaVuSans-20" transform="scale(0.015625)"/>
     </defs>
     <use xlink:href="#DejaVuSans-2b"/>
     <use xlink:href="#DejaVuSans-76" x="83.789062"/>
     <use xlink:href="#DejaVuSans-65" x="142.96875"/>
     <use xlink:href="#DejaVuSans-3a" x="204.492188"/>
     <use xlink:href="#DejaVuSans-20" x="238.183594"/>
     <use xlink:href="#DejaVuSans-33" x="269.970703"/>
    </g>
   </g>
   <g id="text_14">
    <!-- -ve: 35 -->
    <g transform="translate(101.71242 60.64392) scale(0.1728 -0.1728)">
     <use xlink:href="#DejaVuSans-2d"/>
     <use xlink:href="#DejaVuSans-76" x="33.458984"/>
     <use xlink:href="#DejaVuSans-65" x="92.638672"/>
     <use xlink:href="#DejaVuSans-3a" x="154.162109"/>
     <use xlink:href="#DejaVuSans-20" x="187.853516"/>
     <use xlink:href="#DejaVuSans-33" x="219.640625"/>
     <use xlink:href="#DejaVuSans-35" x="283.263672"/>
    </g>
   </g>
   <g id="text_15">
    <!-- NA: 51 -->
    <g transform="translate(205.7187 60.64392) scale(0.1728 -0.1728)">
     <defs>
      <path id="DejaVuSans-4e" d="M 628 4666 
L 1478 4666 
L 3547 763 
L 3547 4666 
L 4159 4666 
L 4159 0 
L 3309 0 
L 1241 3903 
L 1241 0 
L 628 0 
L 628 4666 
z
" transform="scale(0.015625)"/>
      <path id="DejaVuSans-41" d="M 2188 4044 
L 1331 1722 
L 3047 1722 
L 2188 4044 
z
M 1831 4666 
L 2547 4666 
L 4325 0 
L 3669 0 
L 3244 1197 
L 1141 1197 
L 716 0 
L 50 0 
L 1831 4666 
z
" transform="scale(0.015625)"/>
     </defs>
     <use xlink:href="#DejaVuSans-4e"/>
     <use xlink:href="#DejaVuSans-41" x="74.804688"/>
     <use xlink:href="#DejaVuSans-3a" x="141.462891"/>
     <use xlink:href="#DejaVuSans-20" x="175.154297"/>
     <use xlink:href="#DejaVuSans-35" x="206.941406"/>
     <use xlink:href="#DejaVuSans-31" x="270.564453"/>
    </g>
   </g>
   <g id="text_16">
    <!-- VerPN vs PD-L1 -->
    <g transform="translate(168.4128 32.3424) scale(0.1728 -0.1728)">
     <defs>
      <path id="DejaVuSans-56" d="M 1831 0 
L 50 4666 
L 709 4666 
L 2188 738 
L 3669 4666 
L 4325 4666 
L 2547 0 
L 1831 0 
z
" transform="scale(0.015625)"/>
      <path id="DejaVuSans-50" d="M 1259 4147 
L 1259 2394 
L 2053 2394 
Q 2494 2394 2734 2622 
Q 2975 2850 2975 3272 
Q 2975 3691 2734 3919 
Q 2494 4147 2053 4147 
L 1259 4147 
z
M 628 4666 
L 2053 4666 
Q 2838 4666 3239 4311 
Q 3641 3956 3641 3272 
Q 3641 2581 3239 2228 
Q 2838 1875 2053 1875 
L 1259 1875 
L 1259 0 
L 628 0 
L 628 4666 
z
" transform="scale(0.015625)"/>
      <path id="DejaVuSans-73" d="M 2834 3397 
L 2834 2853 
Q 2591 2978 2328 3040 
Q 2066 3103 1784 3103 
Q 1356 3103 1142 2972 
Q 928 2841 928 2578 
Q 928 2378 1081 2264 
Q 1234 2150 1697 2047 
L 1894 2003 
Q 2506 1872 2764 1633 
Q 3022 1394 3022 966 
Q 3022 478 2636 193 
Q 2250 -91 1575 -91 
Q 1294 -91 989 -36 
Q 684 19 347 128 
L 347 722 
Q 666 556 975 473 
Q 1284 391 1588 391 
Q 1994 391 2212 530 
Q 2431 669 2431 922 
Q 2431 1156 2273 1281 
Q 2116 1406 1581 1522 
L 1381 1569 
Q 847 1681 609 1914 
Q 372 2147 372 2553 
Q 372 3047 722 3315 
Q 1072 3584 1716 3584 
Q 2034 3584 2315 3537 
Q 2597 3491 2834 3397 
z
" transform="scale(0.015625)"/>
      <path id="DejaVuSans-44" d="M 1259 4147 
L 1259 519 
L 2022 519 
Q 2988 519 3436 956 
Q 3884 1394 3884 2338 
Q 3884 3275 3436 3711 
Q 2988 4147 2022 4147 
L 1259 4147 
z
M 628 4666 
L 1925 4666 
Q 3281 4666 3915 4102 
Q 4550 3538 4550 2338 
Q 4550 1131 3912 565 
Q 3275 0 1925 0 
L 628 0 
L 628 4666 
z
" transform="scale(0.015625)"/>
      <path id="DejaVuSans-4c" d="M 628 4666 
L 1259 4666 
L 1259 531 
L 3531 531 
L 3531 0 
L 628 0 
L 628 4666 
z
" transform="scale(0.015625)"/>
     </defs>
     <use xlink:href="#DejaVuSans-56"/>
     <use xlink:href="#DejaVuSans-65" x="60.658203"/>
     <use xlink:href="#DejaVuSans-72" x="122.181641"/>
     <use xlink:href="#DejaVuSans-50" x="163.294922"/>
     <use xlink:href="#DejaVuSans-4e" x="223.597656"/>
     <use xlink:href="#DejaVuSans-20" x="298.402344"/>
     <use xlink:href="#DejaVuSans-76" x="330.189453"/>
     <use xlink:href="#DejaVuSans-73" x="389.369141"/>
     <use xlink:href="#DejaVuSans-20" x="441.46875"/>
     <use xlink:href="#DejaVuSans-50" x="473.255859"/>
     <use xlink:href="#DejaVuSans-44" x="533.558594"/>
     <use xlink:href="#DejaVuSans-2d" x="610.560547"/>
     <use xlink:href="#DejaVuSans-4c" x="646.644531"/>
     <use xlink:href="#DejaVuSans-31" x="702.357422"/>
    </g>
   </g>
  </g>
 </g>
 <defs>
  <clipPath id="p5e3fe70599">
   <rect x="68.4924" y="38.3424" width="332.2002" height="223.0152"/>
  </clipPath>
 </defs>
</svg>
