<?xml version="1.0" encoding="utf-8" standalone="no"?>
<!DOCTYPE svg PUBLIC "-//W3C//DTD SVG 1.1//EN"
  "http://www.w3.org/Graphics/SVG/1.1/DTD/svg11.dtd">
<svg xmlns:xlink="http://www.w3.org/1999/xlink" width="460.8pt" height="345.6pt" viewBox="0 0 460.8 345.6" xmlns="http://www.w3.org/2000/svg" version="1.1">
 <metadata>
  <rdf:RDF xmlns:dc="http://purl.org/dc/elements/1.1/" xmlns:cc="http://creativecommons.org/ns#" xmlns:rdf="http://www.w3.org/1999/02/22-rdf-syntax-ns#">
   <cc:Work>
    <dc:type rdf:resource="http://purl.org/dc/dcmitype/StillImage"/>
    <dc:date>2023-09-27T14:53:16.922947</dc:date>
    <dc:format>image/svg+xml</dc:format>
    <dc:creator>
     <cc:Agent>
      <dc:title>Matplotlib v3.7.1, https://matplotlib.org/</dc:title>
     </cc:Agent>
    </dc:creator>
   </cc:Work>
  </rdf:RDF>
 </metadata>
 <defs>
  <style type="text/css">*{stroke-linejoin: round; stroke-linecap: butt}</style>
 </defs>
 <g id="figure_1">
  <g id="patch_1">
   <path d="M 0 345.6 
L 460.8 345.6 
L 460.8 0 
L 0 0 
z
" style="fill: #ffffff"/>
  </g>
  <g id="axes_1">
   <g id="patch_2">
    <path d="M 58.452 220.509192 
L 436.58697 220.509192 
L 436.58697 15.552 
L 58.452 15.552 
z
" style="fill: #ffffff"/>
   </g>
   <g id="patch_3">
    <path d="M 74.207624 220.509192 
L 105.718871 220.509192 
L 105.718871 88.208782 
L 74.207624 88.208782 
z
" clip-path="url(#p46a5e2f00c)" style="fill: #808080"/>
   </g>
   <g id="patch_4">
    <path d="M 137.230119 220.509192 
L 168.741366 220.509192 
L 168.741366 120.74167 
L 137.230119 120.74167 
z
" clip-path="url(#p46a5e2f00c)" style="fill: #808080"/>
   </g>
   <g id="patch_5">
    <path d="M 200.252614 220.509192 
L 231.763861 220.509192 
L 231.763861 107.728515 
L 200.252614 107.728515 
z
" clip-path="url(#p46a5e2f00c)" style="fill: #808080"/>
   </g>
   <g id="patch_6">
    <path d="M 263.275109 220.509192 
L 294.786356 220.509192 
L 294.786356 107.728515 
L 263.275109 107.728515 
z
" clip-path="url(#p46a5e2f00c)" style="fill: #808080"/>
   </g>
   <g id="patch_7">
    <path d="M 326.297603 220.509192 
L 357.808851 220.509192 
L 357.808851 105.559656 
L 326.297603 105.559656 
z
" clip-path="url(#p46a5e2f00c)" style="fill: #808080"/>
   </g>
   <g id="patch_8">
    <path d="M 389.320098 220.509192 
L 420.831346 220.509192 
L 420.831346 151.105698 
L 389.320098 151.105698 
z
" clip-path="url(#p46a5e2f00c)" style="fill: #808080"/>
   </g>
   <g id="patch_9">
    <path d="M 74.207624 220.509192 
L 105.718871 220.509192 
L 105.718871 220.509192 
L 74.207624 220.509192 
z
" clip-path="url(#p46a5e2f00c)" style="fill: #1f77b4"/>
   </g>
   <g id="patch_10">
    <path d="M 137.230119 120.74167 
L 168.741366 120.74167 
L 168.741366 114.235092 
L 137.230119 114.235092 
z
" clip-path="url(#p46a5e2f00c)" style="fill: #1f77b4"/>
   </g>
   <g id="patch_11">
    <path d="M 200.252614 107.728515 
L 231.763861 107.728515 
L 231.763861 88.208782 
L 200.252614 88.208782 
z
" clip-path="url(#p46a5e2f00c)" style="fill: #1f77b4"/>
   </g>
   <g id="patch_12">
    <path d="M 263.275109 107.728515 
L 294.786356 107.728515 
L 294.786356 36.156162 
L 263.275109 36.156162 
z
" clip-path="url(#p46a5e2f00c)" style="fill: #1f77b4"/>
   </g>
   <g id="patch_13">
    <path d="M 326.297603 105.559656 
L 357.808851 105.559656 
L 357.808851 42.66274 
L 326.297603 42.66274 
z
" clip-path="url(#p46a5e2f00c)" style="fill: #1f77b4"/>
   </g>
   <g id="patch_14">
    <path d="M 389.320098 220.509192 
L 420.831346 220.509192 
L 420.831346 220.509192 
L 389.320098 220.509192 
z
" clip-path="url(#p46a5e2f00c)" style="fill: #1f77b4"/>
   </g>
   <g id="patch_15">
    <path d="M 74.207624 88.208782 
L 105.718871 88.208782 
L 105.718871 25.311866 
L 74.207624 25.311866 
z
" clip-path="url(#p46a5e2f00c)" style="fill: #d62728"/>
   </g>
   <g id="patch_16">
    <path d="M 137.230119 114.235092 
L 168.741366 114.235092 
L 168.741366 25.311866 
L 137.230119 25.311866 
z
" clip-path="url(#p46a5e2f00c)" style="fill: #d62728"/>
   </g>
   <g id="patch_17">
    <path d="M 200.252614 88.208782 
L 231.763861 88.208782 
L 231.763861 25.311866 
L 200.252614 25.311866 
z
" clip-path="url(#p46a5e2f00c)" style="fill: #d62728"/>
   </g>
   <g id="patch_18">
    <path d="M 263.275109 36.156162 
L 294.786356 36.156162 
L 294.786356 25.311866 
L 263.275109 25.311866 
z
" clip-path="url(#p46a5e2f00c)" style="fill: #d62728"/>
   </g>
   <g id="patch_19">
    <path d="M 326.297603 42.66274 
L 357.808851 42.66274 
L 357.808851 25.311866 
L 326.297603 25.311866 
z
" clip-path="url(#p46a5e2f00c)" style="fill: #d62728"/>
   </g>
   <g id="patch_20">
    <path d="M 389.320098 151.105698 
L 420.831346 151.105698 
L 420.831346 25.311866 
L 389.320098 25.311866 
z
" clip-path="url(#p46a5e2f00c)" style="fill: #d62728"/>
   </g>
   <g id="matplotlib.axis_1">
    <g id="xtick_1">
     <g id="line2d_1">
      <defs>
       <path id="m16b75108e7" d="M 0 0 
L 0 4.8 
" style="stroke: #000000"/>
      </defs>
      <g>
       <use xlink:href="#m16b75108e7" x="89.963247" y="220.509192" style="stroke: #000000"/>
      </g>
     </g>
     <g id="text_1">
      <!-- NefAC-NefNPC -->
      <g transform="translate(58.909372 303.160276) rotate(-45) scale(0.132 -0.132)">
       <defs>
        <path id="DejaVuSans-4e" d="M 628 4666 
L 1478 4666 
L 3547 763 
L 3547 4666 
L 4159 4666 
L 4159 0 
L 3309 0 
L 1241 3903 
L 1241 0 
L 628 0 
L 628 4666 
z
" transform="scale(0.015625)"/>
        <path id="DejaVuSans-65" d="M 3597 1894 
L 3597 1613 
L 953 1613 
Q 991 1019 1311 708 
Q 1631 397 2203 397 
Q 2534 397 2845 478 
Q 3156 559 3463 722 
L 3463 178 
Q 3153 47 2828 -22 
Q 2503 -91 2169 -91 
Q 1331 -91 842 396 
Q 353 884 353 1716 
Q 353 2575 817 3079 
Q 1281 3584 2069 3584 
Q 2775 3584 3186 3129 
Q 3597 2675 3597 1894 
z
M 3022 2063 
Q 3016 2534 2758 2815 
Q 2500 3097 2075 3097 
Q 1594 3097 1305 2825 
Q 1016 2553 972 2059 
L 3022 2063 
z
" transform="scale(0.015625)"/>
        <path id="DejaVuSans-66" d="M 2375 4863 
L 2375 4384 
L 1825 4384 
Q 1516 4384 1395 4259 
Q 1275 4134 1275 3809 
L 1275 3500 
L 2222 3500 
L 2222 3053 
L 1275 3053 
L 1275 0 
L 697 0 
L 697 3053 
L 147 3053 
L 147 3500 
L 697 3500 
L 697 3744 
Q 697 4328 969 4595 
Q 1241 4863 1831 4863 
L 2375 4863 
z
" transform="scale(0.015625)"/>
        <path id="DejaVuSans-41" d="M 2188 4044 
L 1331 1722 
L 3047 1722 
L 2188 4044 
z
M 1831 4666 
L 2547 4666 
L 4325 0 
L 3669 0 
L 3244 1197 
L 1141 1197 
L 716 0 
L 50 0 
L 1831 4666 
z
" transform="scale(0.015625)"/>
        <path id="DejaVuSans-43" d="M 4122 4306 
L 4122 3641 
Q 3803 3938 3442 4084 
Q 3081 4231 2675 4231 
Q 1875 4231 1450 3742 
Q 1025 3253 1025 2328 
Q 1025 1406 1450 917 
Q 1875 428 2675 428 
Q 3081 428 3442 575 
Q 3803 722 4122 1019 
L 4122 359 
Q 3791 134 3420 21 
Q 3050 -91 2638 -91 
Q 1578 -91 968 557 
Q 359 1206 359 2328 
Q 359 3453 968 4101 
Q 1578 4750 2638 4750 
Q 3056 4750 3426 4639 
Q 3797 4528 4122 4306 
z
" transform="scale(0.015625)"/>
        <path id="DejaVuSans-2d" d="M 313 2009 
L 1997 2009 
L 1997 1497 
L 313 1497 
L 313 2009 
z
" transform="scale(0.015625)"/>
        <path id="DejaVuSans-50" d="M 1259 4147 
L 1259 2394 
L 2053 2394 
Q 2494 2394 2734 2622 
Q 2975 2850 2975 3272 
Q 2975 3691 2734 3919 
Q 2494 4147 2053 4147 
L 1259 4147 
z
M 628 4666 
L 2053 4666 
Q 2838 4666 3239 4311 
Q 3641 3956 3641 3272 
Q 3641 2581 3239 2228 
Q 2838 1875 2053 1875 
L 1259 1875 
L 1259 0 
L 628 0 
L 628 4666 
z
" transform="scale(0.015625)"/>
       </defs>
       <use xlink:href="#DejaVuSans-4e"/>
       <use xlink:href="#DejaVuSans-65" x="74.804688"/>
       <use xlink:href="#DejaVuSans-66" x="136.328125"/>
       <use xlink:href="#DejaVuSans-41" x="171.533203"/>
       <use xlink:href="#DejaVuSans-43" x="238.191406"/>
       <use xlink:href="#DejaVuSans-2d" x="308.015625"/>
       <use xlink:href="#DejaVuSans-4e" x="344.099609"/>
       <use xlink:href="#DejaVuSans-65" x="418.904297"/>
       <use xlink:href="#DejaVuSans-66" x="480.427734"/>
       <use xlink:href="#DejaVuSans-4e" x="515.632812"/>
       <use xlink:href="#DejaVuSans-50" x="590.4375"/>
       <use xlink:href="#DejaVuSans-43" x="650.740234"/>
      </g>
     </g>
    </g>
    <g id="xtick_2">
     <g id="line2d_2">
      <g>
       <use xlink:href="#m16b75108e7" x="152.985742" y="220.509192" style="stroke: #000000"/>
      </g>
     </g>
     <g id="text_2">
      <!-- NefAC-NefOPC -->
      <g transform="translate(121.749566 303.524878) rotate(-45) scale(0.132 -0.132)">
       <defs>
        <path id="DejaVuSans-4f" d="M 2522 4238 
Q 1834 4238 1429 3725 
Q 1025 3213 1025 2328 
Q 1025 1447 1429 934 
Q 1834 422 2522 422 
Q 3209 422 3611 934 
Q 4013 1447 4013 2328 
Q 4013 3213 3611 3725 
Q 3209 4238 2522 4238 
z
M 2522 4750 
Q 3503 4750 4090 4092 
Q 4678 3434 4678 2328 
Q 4678 1225 4090 567 
Q 3503 -91 2522 -91 
Q 1538 -91 948 565 
Q 359 1222 359 2328 
Q 359 3434 948 4092 
Q 1538 4750 2522 4750 
z
" transform="scale(0.015625)"/>
       </defs>
       <use xlink:href="#DejaVuSans-4e"/>
       <use xlink:href="#DejaVuSans-65" x="74.804688"/>
       <use xlink:href="#DejaVuSans-66" x="136.328125"/>
       <use xlink:href="#DejaVuSans-41" x="171.533203"/>
       <use xlink:href="#DejaVuSans-43" x="238.191406"/>
       <use xlink:href="#DejaVuSans-2d" x="308.015625"/>
       <use xlink:href="#DejaVuSans-4e" x="344.099609"/>
       <use xlink:href="#DejaVuSans-65" x="418.904297"/>
       <use xlink:href="#DejaVuSans-66" x="480.427734"/>
       <use xlink:href="#DejaVuSans-4f" x="515.632812"/>
       <use xlink:href="#DejaVuSans-50" x="594.34375"/>
       <use xlink:href="#DejaVuSans-43" x="654.646484"/>
      </g>
     </g>
    </g>
    <g id="xtick_3">
     <g id="line2d_3">
      <g>
       <use xlink:href="#m16b75108e7" x="216.008237" y="220.509192" style="stroke: #000000"/>
      </g>
     </g>
     <g id="text_3">
      <!-- NefMES-NefAC -->
      <g transform="translate(184.58028 303.90844) rotate(-45) scale(0.132 -0.132)">
       <defs>
        <path id="DejaVuSans-4d" d="M 628 4666 
L 1569 4666 
L 2759 1491 
L 3956 4666 
L 4897 4666 
L 4897 0 
L 4281 0 
L 4281 4097 
L 3078 897 
L 2444 897 
L 1241 4097 
L 1241 0 
L 628 0 
L 628 4666 
z
" transform="scale(0.015625)"/>
        <path id="DejaVuSans-45" d="M 628 4666 
L 3578 4666 
L 3578 4134 
L 1259 4134 
L 1259 2753 
L 3481 2753 
L 3481 2222 
L 1259 2222 
L 1259 531 
L 3634 531 
L 3634 0 
L 628 0 
L 628 4666 
z
" transform="scale(0.015625)"/>
        <path id="DejaVuSans-53" d="M 3425 4513 
L 3425 3897 
Q 3066 4069 2747 4153 
Q 2428 4238 2131 4238 
Q 1616 4238 1336 4038 
Q 1056 3838 1056 3469 
Q 1056 3159 1242 3001 
Q 1428 2844 1947 2747 
L 2328 2669 
Q 3034 2534 3370 2195 
Q 3706 1856 3706 1288 
Q 3706 609 3251 259 
Q 2797 -91 1919 -91 
Q 1588 -91 1214 -16 
Q 841 59 441 206 
L 441 856 
Q 825 641 1194 531 
Q 1563 422 1919 422 
Q 2459 422 2753 634 
Q 3047 847 3047 1241 
Q 3047 1584 2836 1778 
Q 2625 1972 2144 2069 
L 1759 2144 
Q 1053 2284 737 2584 
Q 422 2884 422 3419 
Q 422 4038 858 4394 
Q 1294 4750 2059 4750 
Q 2388 4750 2728 4690 
Q 3069 4631 3425 4513 
z
" transform="scale(0.015625)"/>
       </defs>
       <use xlink:href="#DejaVuSans-4e"/>
       <use xlink:href="#DejaVuSans-65" x="74.804688"/>
       <use xlink:href="#DejaVuSans-66" x="136.328125"/>
       <use xlink:href="#DejaVuSans-4d" x="171.533203"/>
       <use xlink:href="#DejaVuSans-45" x="257.8125"/>
       <use xlink:href="#DejaVuSans-53" x="320.996094"/>
       <use xlink:href="#DejaVuSans-2d" x="384.472656"/>
       <use xlink:href="#DejaVuSans-4e" x="420.556641"/>
       <use xlink:href="#DejaVuSans-65" x="495.361328"/>
       <use xlink:href="#DejaVuSans-66" x="556.884766"/>
       <use xlink:href="#DejaVuSans-41" x="592.089844"/>
       <use xlink:href="#DejaVuSans-43" x="658.748047"/>
      </g>
     </g>
    </g>
    <g id="xtick_4">
     <g id="line2d_4">
      <g>
       <use xlink:href="#m16b75108e7" x="279.030732" y="220.509192" style="stroke: #000000"/>
      </g>
     </g>
     <g id="text_4">
      <!-- NefMES-NefNPC -->
      <g transform="translate(244.408133 310.297724) rotate(-45) scale(0.132 -0.132)">
       <use xlink:href="#DejaVuSans-4e"/>
       <use xlink:href="#DejaVuSans-65" x="74.804688"/>
       <use xlink:href="#DejaVuSans-66" x="136.328125"/>
       <use xlink:href="#DejaVuSans-4d" x="171.533203"/>
       <use xlink:href="#DejaVuSans-45" x="257.8125"/>
       <use xlink:href="#DejaVuSans-53" x="320.996094"/>
       <use xlink:href="#DejaVuSans-2d" x="384.472656"/>
       <use xlink:href="#DejaVuSans-4e" x="420.556641"/>
       <use xlink:href="#DejaVuSans-65" x="495.361328"/>
       <use xlink:href="#DejaVuSans-66" x="556.884766"/>
       <use xlink:href="#DejaVuSans-4e" x="592.089844"/>
       <use xlink:href="#DejaVuSans-50" x="666.894531"/>
       <use xlink:href="#DejaVuSans-43" x="727.197266"/>
      </g>
     </g>
    </g>
    <g id="xtick_5">
     <g id="line2d_5">
      <g>
       <use xlink:href="#m16b75108e7" x="342.053227" y="220.509192" style="stroke: #000000"/>
      </g>
     </g>
     <g id="text_5">
      <!-- NefMES-NefOPC -->
      <g transform="translate(307.248327 310.662326) rotate(-45) scale(0.132 -0.132)">
       <use xlink:href="#DejaVuSans-4e"/>
       <use xlink:href="#DejaVuSans-65" x="74.804688"/>
       <use xlink:href="#DejaVuSans-66" x="136.328125"/>
       <use xlink:href="#DejaVuSans-4d" x="171.533203"/>
       <use xlink:href="#DejaVuSans-45" x="257.8125"/>
       <use xlink:href="#DejaVuSans-53" x="320.996094"/>
       <use xlink:href="#DejaVuSans-2d" x="384.472656"/>
       <use xlink:href="#DejaVuSans-4e" x="420.556641"/>
       <use xlink:href="#DejaVuSans-65" x="495.361328"/>
       <use xlink:href="#DejaVuSans-66" x="556.884766"/>
       <use xlink:href="#DejaVuSans-4f" x="592.089844"/>
       <use xlink:href="#DejaVuSans-50" x="670.800781"/>
       <use xlink:href="#DejaVuSans-43" x="731.103516"/>
      </g>
     </g>
    </g>
    <g id="xtick_6">
     <g id="line2d_6">
      <g>
       <use xlink:href="#m16b75108e7" x="405.075722" y="220.509192" style="stroke: #000000"/>
      </g>
     </g>
     <g id="text_6">
      <!-- NefOPC-NefNPC -->
      <g transform="translate(370.644903 309.914163) rotate(-45) scale(0.132 -0.132)">
       <use xlink:href="#DejaVuSans-4e"/>
       <use xlink:href="#DejaVuSans-65" x="74.804688"/>
       <use xlink:href="#DejaVuSans-66" x="136.328125"/>
       <use xlink:href="#DejaVuSans-4f" x="171.533203"/>
       <use xlink:href="#DejaVuSans-50" x="250.244141"/>
       <use xlink:href="#DejaVuSans-43" x="310.546875"/>
       <use xlink:href="#DejaVuSans-2d" x="380.371094"/>
       <use xlink:href="#DejaVuSans-4e" x="416.455078"/>
       <use xlink:href="#DejaVuSans-65" x="491.259766"/>
       <use xlink:href="#DejaVuSans-66" x="552.783203"/>
       <use xlink:href="#DejaVuSans-4e" x="587.988281"/>
       <use xlink:href="#DejaVuSans-50" x="662.792969"/>
       <use xlink:href="#DejaVuSans-43" x="723.095703"/>
      </g>
     </g>
    </g>
    <g id="text_7">
     <!-- Combination -->
     <g transform="translate(201.73536 327.545217) scale(0.144 -0.144)">
      <defs>
       <path id="DejaVuSans-6f" d="M 1959 3097 
Q 1497 3097 1228 2736 
Q 959 2375 959 1747 
Q 959 1119 1226 758 
Q 1494 397 1959 397 
Q 2419 397 2687 759 
Q 2956 1122 2956 1747 
Q 2956 2369 2687 2733 
Q 2419 3097 1959 3097 
z
M 1959 3584 
Q 2709 3584 3137 3096 
Q 3566 2609 3566 1747 
Q 3566 888 3137 398 
Q 2709 -91 1959 -91 
Q 1206 -91 779 398 
Q 353 888 353 1747 
Q 353 2609 779 3096 
Q 1206 3584 1959 3584 
z
" transform="scale(0.015625)"/>
       <path id="DejaVuSans-6d" d="M 3328 2828 
Q 3544 3216 3844 3400 
Q 4144 3584 4550 3584 
Q 5097 3584 5394 3201 
Q 5691 2819 5691 2113 
L 5691 0 
L 5113 0 
L 5113 2094 
Q 5113 2597 4934 2840 
Q 4756 3084 4391 3084 
Q 3944 3084 3684 2787 
Q 3425 2491 3425 1978 
L 3425 0 
L 2847 0 
L 2847 2094 
Q 2847 2600 2669 2842 
Q 2491 3084 2119 3084 
Q 1678 3084 1418 2786 
Q 1159 2488 1159 1978 
L 1159 0 
L 581 0 
L 581 3500 
L 1159 3500 
L 1159 2956 
Q 1356 3278 1631 3431 
Q 1906 3584 2284 3584 
Q 2666 3584 2933 3390 
Q 3200 3197 3328 2828 
z
" transform="scale(0.015625)"/>
       <path id="DejaVuSans-62" d="M 3116 1747 
Q 3116 2381 2855 2742 
Q 2594 3103 2138 3103 
Q 1681 3103 1420 2742 
Q 1159 2381 1159 1747 
Q 1159 1113 1420 752 
Q 1681 391 2138 391 
Q 2594 391 2855 752 
Q 3116 1113 3116 1747 
z
M 1159 2969 
Q 1341 3281 1617 3432 
Q 1894 3584 2278 3584 
Q 2916 3584 3314 3078 
Q 3713 2572 3713 1747 
Q 3713 922 3314 415 
Q 2916 -91 2278 -91 
Q 1894 -91 1617 61 
Q 1341 213 1159 525 
L 1159 0 
L 581 0 
L 581 4863 
L 1159 4863 
L 1159 2969 
z
" transform="scale(0.015625)"/>
       <path id="DejaVuSans-69" d="M 603 3500 
L 1178 3500 
L 1178 0 
L 603 0 
L 603 3500 
z
M 603 4863 
L 1178 4863 
L 1178 4134 
L 603 4134 
L 603 4863 
z
" transform="scale(0.015625)"/>
       <path id="DejaVuSans-6e" d="M 3513 2113 
L 3513 0 
L 2938 0 
L 2938 2094 
Q 2938 2591 2744 2837 
Q 2550 3084 2163 3084 
Q 1697 3084 1428 2787 
Q 1159 2491 1159 1978 
L 1159 0 
L 581 0 
L 581 3500 
L 1159 3500 
L 1159 2956 
Q 1366 3272 1645 3428 
Q 1925 3584 2291 3584 
Q 2894 3584 3203 3211 
Q 3513 2838 3513 2113 
z
" transform="scale(0.015625)"/>
       <path id="DejaVuSans-61" d="M 2194 1759 
Q 1497 1759 1228 1600 
Q 959 1441 959 1056 
Q 959 750 1161 570 
Q 1363 391 1709 391 
Q 2188 391 2477 730 
Q 2766 1069 2766 1631 
L 2766 1759 
L 2194 1759 
z
M 3341 1997 
L 3341 0 
L 2766 0 
L 2766 531 
Q 2569 213 2275 61 
Q 1981 -91 1556 -91 
Q 1019 -91 701 211 
Q 384 513 384 1019 
Q 384 1609 779 1909 
Q 1175 2209 1959 2209 
L 2766 2209 
L 2766 2266 
Q 2766 2663 2505 2880 
Q 2244 3097 1772 3097 
Q 1472 3097 1187 3025 
Q 903 2953 641 2809 
L 641 3341 
Q 956 3463 1253 3523 
Q 1550 3584 1831 3584 
Q 2591 3584 2966 3190 
Q 3341 2797 3341 1997 
z
" transform="scale(0.015625)"/>
       <path id="DejaVuSans-74" d="M 1172 4494 
L 1172 3500 
L 2356 3500 
L 2356 3053 
L 1172 3053 
L 1172 1153 
Q 1172 725 1289 603 
Q 1406 481 1766 481 
L 2356 481 
L 2356 0 
L 1766 0 
Q 1100 0 847 248 
Q 594 497 594 1153 
L 594 3053 
L 172 3053 
L 172 3500 
L 594 3500 
L 594 4494 
L 1172 4494 
z
" transform="scale(0.015625)"/>
      </defs>
      <use xlink:href="#DejaVuSans-43"/>
      <use xlink:href="#DejaVuSans-6f" x="69.824219"/>
      <use xlink:href="#DejaVuSans-6d" x="131.005859"/>
      <use xlink:href="#DejaVuSans-62" x="228.417969"/>
      <use xlink:href="#DejaVuSans-69" x="291.894531"/>
      <use xlink:href="#DejaVuSans-6e" x="319.677734"/>
      <use xlink:href="#DejaVuSans-61" x="383.056641"/>
      <use xlink:href="#DejaVuSans-74" x="444.335938"/>
      <use xlink:href="#DejaVuSans-69" x="483.544922"/>
      <use xlink:href="#DejaVuSans-6f" x="511.328125"/>
      <use xlink:href="#DejaVuSans-6e" x="572.509766"/>
     </g>
    </g>
   </g>
   <g id="matplotlib.axis_2">
    <g id="ytick_1">
     <g id="line2d_7">
      <defs>
       <path id="m556f9ddca4" d="M 0 0 
L -4.8 0 
" style="stroke: #000000"/>
      </defs>
      <g>
       <use xlink:href="#m556f9ddca4" x="58.452" y="220.509192" style="stroke: #000000"/>
      </g>
     </g>
     <g id="text_8">
      <!-- 0 -->
      <g transform="translate(41.7535 225.52416) scale(0.132 -0.132)">
       <defs>
        <path id="DejaVuSans-30" d="M 2034 4250 
Q 1547 4250 1301 3770 
Q 1056 3291 1056 2328 
Q 1056 1369 1301 889 
Q 1547 409 2034 409 
Q 2525 409 2770 889 
Q 3016 1369 3016 2328 
Q 3016 3291 2770 3770 
Q 2525 4250 2034 4250 
z
M 2034 4750 
Q 2819 4750 3233 4129 
Q 3647 3509 3647 2328 
Q 3647 1150 3233 529 
Q 2819 -91 2034 -91 
Q 1250 -91 836 529 
Q 422 1150 422 2328 
Q 422 3509 836 4129 
Q 1250 4750 2034 4750 
z
" transform="scale(0.015625)"/>
       </defs>
       <use xlink:href="#DejaVuSans-30"/>
      </g>
     </g>
    </g>
    <g id="ytick_2">
     <g id="line2d_8">
      <g>
       <use xlink:href="#m556f9ddca4" x="58.452" y="177.132008" style="stroke: #000000"/>
      </g>
     </g>
     <g id="text_9">
      <!-- 20 -->
      <g transform="translate(33.355 182.146977) scale(0.132 -0.132)">
       <defs>
        <path id="DejaVuSans-32" d="M 1228 531 
L 3431 531 
L 3431 0 
L 469 0 
L 469 531 
Q 828 903 1448 1529 
Q 2069 2156 2228 2338 
Q 2531 2678 2651 2914 
Q 2772 3150 2772 3378 
Q 2772 3750 2511 3984 
Q 2250 4219 1831 4219 
Q 1534 4219 1204 4116 
Q 875 4013 500 3803 
L 500 4441 
Q 881 4594 1212 4672 
Q 1544 4750 1819 4750 
Q 2544 4750 2975 4387 
Q 3406 4025 3406 3419 
Q 3406 3131 3298 2873 
Q 3191 2616 2906 2266 
Q 2828 2175 2409 1742 
Q 1991 1309 1228 531 
z
" transform="scale(0.015625)"/>
       </defs>
       <use xlink:href="#DejaVuSans-32"/>
       <use xlink:href="#DejaVuSans-30" x="63.623047"/>
      </g>
     </g>
    </g>
    <g id="ytick_3">
     <g id="line2d_9">
      <g>
       <use xlink:href="#m556f9ddca4" x="58.452" y="133.754825" style="stroke: #000000"/>
      </g>
     </g>
     <g id="text_10">
      <!-- 40 -->
      <g transform="translate(33.355 138.769794) scale(0.132 -0.132)">
       <defs>
        <path id="DejaVuSans-34" d="M 2419 4116 
L 825 1625 
L 2419 1625 
L 2419 4116 
z
M 2253 4666 
L 3047 4666 
L 3047 1625 
L 3713 1625 
L 3713 1100 
L 3047 1100 
L 3047 0 
L 2419 0 
L 2419 1100 
L 313 1100 
L 313 1709 
L 2253 4666 
z
" transform="scale(0.015625)"/>
       </defs>
       <use xlink:href="#DejaVuSans-34"/>
       <use xlink:href="#DejaVuSans-30" x="63.623047"/>
      </g>
     </g>
    </g>
    <g id="ytick_4">
     <g id="line2d_10">
      <g>
       <use xlink:href="#m556f9ddca4" x="58.452" y="90.377641" style="stroke: #000000"/>
      </g>
     </g>
     <g id="text_11">
      <!-- 60 -->
      <g transform="translate(33.355 95.39261) scale(0.132 -0.132)">
       <defs>
        <path id="DejaVuSans-36" d="M 2113 2584 
Q 1688 2584 1439 2293 
Q 1191 2003 1191 1497 
Q 1191 994 1439 701 
Q 1688 409 2113 409 
Q 2538 409 2786 701 
Q 3034 994 3034 1497 
Q 3034 2003 2786 2293 
Q 2538 2584 2113 2584 
z
M 3366 4563 
L 3366 3988 
Q 3128 4100 2886 4159 
Q 2644 4219 2406 4219 
Q 1781 4219 1451 3797 
Q 1122 3375 1075 2522 
Q 1259 2794 1537 2939 
Q 1816 3084 2150 3084 
Q 2853 3084 3261 2657 
Q 3669 2231 3669 1497 
Q 3669 778 3244 343 
Q 2819 -91 2113 -91 
Q 1303 -91 875 529 
Q 447 1150 447 2328 
Q 447 3434 972 4092 
Q 1497 4750 2381 4750 
Q 2619 4750 2861 4703 
Q 3103 4656 3366 4563 
z
" transform="scale(0.015625)"/>
       </defs>
       <use xlink:href="#DejaVuSans-36"/>
       <use xlink:href="#DejaVuSans-30" x="63.623047"/>
      </g>
     </g>
    </g>
    <g id="ytick_5">
     <g id="line2d_11">
      <g>
       <use xlink:href="#m556f9ddca4" x="58.452" y="47.000458" style="stroke: #000000"/>
      </g>
     </g>
     <g id="text_12">
      <!-- 80 -->
      <g transform="translate(33.355 52.015427) scale(0.132 -0.132)">
       <defs>
        <path id="DejaVuSans-38" d="M 2034 2216 
Q 1584 2216 1326 1975 
Q 1069 1734 1069 1313 
Q 1069 891 1326 650 
Q 1584 409 2034 409 
Q 2484 409 2743 651 
Q 3003 894 3003 1313 
Q 3003 1734 2745 1975 
Q 2488 2216 2034 2216 
z
M 1403 2484 
Q 997 2584 770 2862 
Q 544 3141 544 3541 
Q 544 4100 942 4425 
Q 1341 4750 2034 4750 
Q 2731 4750 3128 4425 
Q 3525 4100 3525 3541 
Q 3525 3141 3298 2862 
Q 3072 2584 2669 2484 
Q 3125 2378 3379 2068 
Q 3634 1759 3634 1313 
Q 3634 634 3220 271 
Q 2806 -91 2034 -91 
Q 1263 -91 848 271 
Q 434 634 434 1313 
Q 434 1759 690 2068 
Q 947 2378 1403 2484 
z
M 1172 3481 
Q 1172 3119 1398 2916 
Q 1625 2713 2034 2713 
Q 2441 2713 2670 2916 
Q 2900 3119 2900 3481 
Q 2900 3844 2670 4047 
Q 2441 4250 2034 4250 
Q 1625 4250 1398 4047 
Q 1172 3844 1172 3481 
z
" transform="scale(0.015625)"/>
       </defs>
       <use xlink:href="#DejaVuSans-38"/>
       <use xlink:href="#DejaVuSans-30" x="63.623047"/>
      </g>
     </g>
    </g>
    <g id="text_13">
     <!-- Datasets -->
     <g transform="translate(26.36025 149.976096) rotate(-90) scale(0.144 -0.144)">
      <defs>
       <path id="DejaVuSans-44" d="M 1259 4147 
L 1259 519 
L 2022 519 
Q 2988 519 3436 956 
Q 3884 1394 3884 2338 
Q 3884 3275 3436 3711 
Q 2988 4147 2022 4147 
L 1259 4147 
z
M 628 4666 
L 1925 4666 
Q 3281 4666 3915 4102 
Q 4550 3538 4550 2338 
Q 4550 1131 3912 565 
Q 3275 0 1925 0 
L 628 0 
L 628 4666 
z
" transform="scale(0.015625)"/>
       <path id="DejaVuSans-73" d="M 2834 3397 
L 2834 2853 
Q 2591 2978 2328 3040 
Q 2066 3103 1784 3103 
Q 1356 3103 1142 2972 
Q 928 2841 928 2578 
Q 928 2378 1081 2264 
Q 1234 2150 1697 2047 
L 1894 2003 
Q 2506 1872 2764 1633 
Q 3022 1394 3022 966 
Q 3022 478 2636 193 
Q 2250 -91 1575 -91 
Q 1294 -91 989 -36 
Q 684 19 347 128 
L 347 722 
Q 666 556 975 473 
Q 1284 391 1588 391 
Q 1994 391 2212 530 
Q 2431 669 2431 922 
Q 2431 1156 2273 1281 
Q 2116 1406 1581 1522 
L 1381 1569 
Q 847 1681 609 1914 
Q 372 2147 372 2553 
Q 372 3047 722 3315 
Q 1072 3584 1716 3584 
Q 2034 3584 2315 3537 
Q 2597 3491 2834 3397 
z
" transform="scale(0.015625)"/>
      </defs>
      <use xlink:href="#DejaVuSans-44"/>
      <use xlink:href="#DejaVuSans-61" x="77.001953"/>
      <use xlink:href="#DejaVuSans-74" x="138.28125"/>
      <use xlink:href="#DejaVuSans-61" x="177.490234"/>
      <use xlink:href="#DejaVuSans-73" x="238.769531"/>
      <use xlink:href="#DejaVuSans-65" x="290.869141"/>
      <use xlink:href="#DejaVuSans-74" x="352.392578"/>
      <use xlink:href="#DejaVuSans-73" x="391.601562"/>
     </g>
    </g>
   </g>
   <g id="patch_21">
    <path d="M 58.452 220.509192 
L 58.452 15.552 
" style="fill: none; stroke: #000000; stroke-linejoin: miter; stroke-linecap: square"/>
   </g>
   <g id="patch_22">
    <path d="M 436.58697 220.509192 
L 436.58697 15.552 
" style="fill: none; stroke: #000000; stroke-linejoin: miter; stroke-linecap: square"/>
   </g>
   <g id="patch_23">
    <path d="M 58.452 220.509192 
L 436.58697 220.509192 
" style="fill: none; stroke: #000000; stroke-linejoin: miter; stroke-linecap: square"/>
   </g>
   <g id="patch_24">
    <path d="M 58.452 15.552 
L 436.58697 15.552 
" style="fill: none; stroke: #000000; stroke-linejoin: miter; stroke-linecap: square"/>
   </g>
   <g id="legend_1">
    <g id="patch_25">
     <path d="M 358.110907 213.909192 
L 427.34697 213.909192 
Q 429.98697 213.909192 429.98697 211.269192 
L 429.98697 154.463817 
Q 429.98697 151.823817 427.34697 151.823817 
L 358.110907 151.823817 
Q 355.470907 151.823817 355.470907 154.463817 
L 355.470907 211.269192 
Q 355.470907 213.909192 358.110907 213.909192 
z
" style="fill: #ffffff; opacity: 0.8; stroke: #cccccc; stroke-width: 0.8; stroke-linejoin: miter"/>
    </g>
    <g id="patch_26">
     <path d="M 360.750907 167.133754 
L 387.150907 167.133754 
L 387.150907 157.893754 
L 360.750907 157.893754 
z
" style="fill: #808080"/>
    </g>
    <g id="text_14">
     <!-- NA -->
     <g transform="translate(397.710907 167.133754) scale(0.132 -0.132)">
      <use xlink:href="#DejaVuSans-4e"/>
      <use xlink:href="#DejaVuSans-41" x="74.804688"/>
     </g>
    </g>
    <g id="patch_27">
     <path d="M 360.750907 186.508879 
L 387.150907 186.508879 
L 387.150907 177.268879 
L 360.750907 177.268879 
z
" style="fill: #1f77b4"/>
    </g>
    <g id="text_15">
     <!-- -ve -->
     <g transform="translate(397.710907 186.508879) scale(0.132 -0.132)">
      <defs>
       <path id="DejaVuSans-76" d="M 191 3500 
L 800 3500 
L 1894 563 
L 2988 3500 
L 3597 3500 
L 2284 0 
L 1503 0 
L 191 3500 
z
" transform="scale(0.015625)"/>
      </defs>
      <use xlink:href="#DejaVuSans-2d"/>
      <use xlink:href="#DejaVuSans-76" x="33.458984"/>
      <use xlink:href="#DejaVuSans-65" x="92.638672"/>
     </g>
    </g>
    <g id="patch_28">
     <path d="M 360.750907 205.884004 
L 387.150907 205.884004 
L 387.150907 196.644004 
L 360.750907 196.644004 
z
" style="fill: #d62728"/>
    </g>
    <g id="text_16">
     <!-- +ve -->
     <g transform="translate(397.710907 205.884004) scale(0.132 -0.132)">
      <defs>
       <path id="DejaVuSans-2b" d="M 2944 4013 
L 2944 2272 
L 4684 2272 
L 4684 1741 
L 2944 1741 
L 2944 0 
L 2419 0 
L 2419 1741 
L 678 1741 
L 678 2272 
L 2419 2272 
L 2419 4013 
L 2944 4013 
z
" transform="scale(0.015625)"/>
      </defs>
      <use xlink:href="#DejaVuSans-2b"/>
      <use xlink:href="#DejaVuSans-76" x="83.789062"/>
      <use xlink:href="#DejaVuSans-65" x="142.96875"/>
     </g>
    </g>
   </g>
  </g>
 </g>
 <defs>
  <clipPath id="p46a5e2f00c">
   <rect x="58.452" y="15.552" width="378.13497" height="204.957192"/>
  </clipPath>
 </defs>
</svg>
